M48
; DRILL file {KiCad 7.0.9} date Wed Apr 10 12:45:51 2024
; FORMAT={-:-/ absolute / inch / decimal}
; #@! TF.CreationDate,2024-04-10T12:45:51-03:00
; #@! TF.GenerationSoftware,Kicad,Pcbnew,7.0.9
; #@! TF.FileFunction,Plated,1,2,PTH
FMAT,2
INCH
; #@! TA.AperFunction,Plated,PTH,ViaDrill
T1C0.0276
; #@! TA.AperFunction,Plated,PTH,ComponentDrill
T2C0.0394
; #@! TA.AperFunction,Plated,PTH,ComponentDrill
T3C0.0598
%
G90
G05
T1
X2.0394Y-4.7244
X2.2598Y-4.7008
X2.315Y-2.5591
X2.315Y-3.2756
X2.3189Y-2.3189
X2.3701Y-4.5236
X2.4488Y-4.0945
X2.4882Y-2.2402
X2.4882Y-2.4803
X2.4882Y-2.7205
X2.4882Y-2.9567
X2.4882Y-3.1929
X2.4882Y-3.4331
X2.4882Y-3.6732
X2.4882Y-3.9134
X2.7717Y-3.2244
X2.7756Y-2.6378
X2.7756Y-2.8268
X2.7756Y-3.437
X2.7756Y-3.5977
X2.7835Y-3.8307
X2.7874Y-3.7087
X2.7953Y-4.374
X2.7992Y-4.7441
X2.811Y-2.4882
X2.8504Y-4.0197
X2.9232Y-2.7638
X3.248Y-2.4567
X3.248Y-2.6496
X3.248Y-2.878
X3.248Y-2.9961
X3.248Y-3.0787
X3.248Y-3.1496
X3.248Y-3.2992
X3.252Y-3.4764
X3.3268Y-2.2835
X3.3268Y-2.4055
X3.3268Y-2.5472
X3.5512Y-4.815
X3.5551Y-4.5591
X3.6732Y-3.3268
X3.6772Y-3.5827
X3.9134Y-3.7913
X4.0512Y-2.7874
X4.5906Y-2.2441
X4.6693Y-3.3346
X4.7323Y-4.2953
T2
X2.0429Y-2.3931
X2.0429Y-2.4931
X2.0429Y-2.5931
X2.0429Y-2.6931
X2.0429Y-2.7931
X2.0429Y-2.8931
X2.0429Y-2.9931
X2.0429Y-3.0931
X2.0429Y-3.1931
T3
X4.5984Y-3.4827
X4.5984Y-3.6827
T0
M30
