%TF.GenerationSoftware,KiCad,Pcbnew,7.0.9*%
%TF.CreationDate,2024-04-10T12:45:34-03:00*%
%TF.ProjectId,v0.3,76302e33-2e6b-4696-9361-645f70636258,rev?*%
%TF.SameCoordinates,Original*%
%TF.FileFunction,Soldermask,Top*%
%TF.FilePolarity,Negative*%
%FSLAX46Y46*%
G04 Gerber Fmt 4.6, Leading zero omitted, Abs format (unit mm)*
G04 Created by KiCad (PCBNEW 7.0.9) date 2024-04-10 12:45:34*
%MOMM*%
%LPD*%
G01*
G04 APERTURE LIST*
G04 Aperture macros list*
%AMRoundRect*
0 Rectangle with rounded corners*
0 $1 Rounding radius*
0 $2 $3 $4 $5 $6 $7 $8 $9 X,Y pos of 4 corners*
0 Add a 4 corners polygon primitive as box body*
4,1,4,$2,$3,$4,$5,$6,$7,$8,$9,$2,$3,0*
0 Add four circle primitives for the rounded corners*
1,1,$1+$1,$2,$3*
1,1,$1+$1,$4,$5*
1,1,$1+$1,$6,$7*
1,1,$1+$1,$8,$9*
0 Add four rect primitives between the rounded corners*
20,1,$1+$1,$2,$3,$4,$5,0*
20,1,$1+$1,$4,$5,$6,$7,0*
20,1,$1+$1,$6,$7,$8,$9,0*
20,1,$1+$1,$8,$9,$2,$3,0*%
G04 Aperture macros list end*
%ADD10C,1.075000*%
%ADD11C,0.010000*%
%ADD12R,1.411198X0.364800*%
%ADD13RoundRect,0.150000X0.150000X-0.587500X0.150000X0.587500X-0.150000X0.587500X-0.150000X-0.587500X0*%
%ADD14RoundRect,0.143300X-0.943700X-0.253700X0.943700X-0.253700X0.943700X0.253700X-0.943700X0.253700X0*%
%ADD15RoundRect,0.250000X-0.400000X-0.625000X0.400000X-0.625000X0.400000X0.625000X-0.400000X0.625000X0*%
%ADD16C,2.500000*%
%ADD17RoundRect,0.250000X-0.475000X0.337500X-0.475000X-0.337500X0.475000X-0.337500X0.475000X0.337500X0*%
%ADD18RoundRect,0.150000X0.587500X0.150000X-0.587500X0.150000X-0.587500X-0.150000X0.587500X-0.150000X0*%
%ADD19R,0.650000X1.950000*%
%ADD20RoundRect,0.250000X0.400000X0.625000X-0.400000X0.625000X-0.400000X-0.625000X0.400000X-0.625000X0*%
%ADD21RoundRect,0.250000X-0.337500X-0.475000X0.337500X-0.475000X0.337500X0.475000X-0.337500X0.475000X0*%
%ADD22RoundRect,0.250001X0.924999X-0.499999X0.924999X0.499999X-0.924999X0.499999X-0.924999X-0.499999X0*%
%ADD23RoundRect,0.250001X0.624999X-0.462499X0.624999X0.462499X-0.624999X0.462499X-0.624999X-0.462499X0*%
%ADD24R,1.700000X1.700000*%
%ADD25O,1.700000X1.700000*%
%ADD26RoundRect,0.150000X0.825000X0.150000X-0.825000X0.150000X-0.825000X-0.150000X0.825000X-0.150000X0*%
%ADD27RoundRect,0.250000X0.475000X-0.337500X0.475000X0.337500X-0.475000X0.337500X-0.475000X-0.337500X0*%
%ADD28O,1.304000X2.004000*%
%ADD29O,1.254000X1.654000*%
%ADD30RoundRect,0.552000X-0.300000X-0.300000X0.300000X-0.300000X0.300000X0.300000X-0.300000X0.300000X0*%
%ADD31RoundRect,0.250001X-0.924999X0.499999X-0.924999X-0.499999X0.924999X-0.499999X0.924999X0.499999X0*%
%ADD32R,0.600000X1.200000*%
%ADD33R,2.900000X5.400000*%
%ADD34RoundRect,0.250000X0.550000X-1.500000X0.550000X1.500000X-0.550000X1.500000X-0.550000X-1.500000X0*%
%ADD35R,2.000000X1.500000*%
%ADD36R,2.000000X3.800000*%
%ADD37R,3.000000X3.000000*%
%ADD38C,3.000000*%
%ADD39RoundRect,0.150000X-0.150000X0.825000X-0.150000X-0.825000X0.150000X-0.825000X0.150000X0.825000X0*%
%ADD40RoundRect,0.250001X-0.499999X-0.924999X0.499999X-0.924999X0.499999X0.924999X-0.499999X0.924999X0*%
%ADD41R,5.400000X2.900000*%
%TA.AperFunction,Profile*%
%ADD42C,0.200000*%
%TD*%
G04 APERTURE END LIST*
D10*
X70937500Y-81900000D02*
G75*
G03*
X70937500Y-81900000I-537500J0D01*
G01*
X63737500Y-56900000D02*
G75*
G03*
X63737500Y-56900000I-537500J0D01*
G01*
X63737500Y-63000000D02*
G75*
G03*
X63737500Y-63000000I-537500J0D01*
G01*
X63737500Y-69100000D02*
G75*
G03*
X63737500Y-69100000I-537500J0D01*
G01*
X63737500Y-75100000D02*
G75*
G03*
X63737500Y-75100000I-537500J0D01*
G01*
X63737500Y-81100000D02*
G75*
G03*
X63737500Y-81100000I-537500J0D01*
G01*
X63737500Y-87200000D02*
G75*
G03*
X63737500Y-87200000I-537500J0D01*
G01*
X71037500Y-71800000D02*
G75*
G03*
X71037500Y-71800000I-537500J0D01*
G01*
X74837500Y-70200000D02*
G75*
G03*
X74837500Y-70200000I-537500J0D01*
G01*
X71037500Y-67000000D02*
G75*
G03*
X71037500Y-67000000I-537500J0D01*
G01*
X71937500Y-63200000D02*
G75*
G03*
X71937500Y-63200000I-537500J0D01*
G01*
X85037500Y-58000000D02*
G75*
G03*
X85037500Y-58000000I-537500J0D01*
G01*
X85037500Y-61100000D02*
G75*
G03*
X85037500Y-61100000I-537500J0D01*
G01*
X83037500Y-62400000D02*
G75*
G03*
X83037500Y-62400000I-537500J0D01*
G01*
X85037500Y-64700000D02*
G75*
G03*
X85037500Y-64700000I-537500J0D01*
G01*
X83037500Y-67300000D02*
G75*
G03*
X83037500Y-67300000I-537500J0D01*
G01*
X83037500Y-73100000D02*
G75*
G03*
X83037500Y-73100000I-537500J0D01*
G01*
X83037500Y-76100000D02*
G75*
G03*
X83037500Y-76100000I-537500J0D01*
G01*
X83037500Y-78200000D02*
G75*
G03*
X83037500Y-78200000I-537500J0D01*
G01*
X83037500Y-80000000D02*
G75*
G03*
X83037500Y-80000000I-537500J0D01*
G01*
X83037500Y-83800000D02*
G75*
G03*
X83037500Y-83800000I-537500J0D01*
G01*
X83137500Y-88300000D02*
G75*
G03*
X83137500Y-88300000I-537500J0D01*
G01*
X71037500Y-87300000D02*
G75*
G03*
X71037500Y-87300000I-537500J0D01*
G01*
X71037500Y-91400000D02*
G75*
G03*
X71037500Y-91400000I-537500J0D01*
G01*
X63737500Y-93300000D02*
G75*
G03*
X63737500Y-93300000I-537500J0D01*
G01*
X63737500Y-99400000D02*
G75*
G03*
X63737500Y-99400000I-537500J0D01*
G01*
X71237500Y-97300000D02*
G75*
G03*
X71237500Y-97300000I-537500J0D01*
G01*
X72937500Y-102100000D02*
G75*
G03*
X72937500Y-102100000I-537500J0D01*
G01*
X62737500Y-104000000D02*
G75*
G03*
X62737500Y-104000000I-537500J0D01*
G01*
X71537500Y-111100000D02*
G75*
G03*
X71537500Y-111100000I-537500J0D01*
G01*
X93837500Y-84500000D02*
G75*
G03*
X93837500Y-84500000I-537500J0D01*
G01*
X93937500Y-91000000D02*
G75*
G03*
X93937500Y-91000000I-537500J0D01*
G01*
X119137500Y-84700000D02*
G75*
G03*
X119137500Y-84700000I-537500J0D01*
G01*
X120737500Y-109100000D02*
G75*
G03*
X120737500Y-109100000I-537500J0D01*
G01*
X90837500Y-115800000D02*
G75*
G03*
X90837500Y-115800000I-537500J0D01*
G01*
X90737500Y-122300000D02*
G75*
G03*
X90737500Y-122300000I-537500J0D01*
G01*
X71637500Y-120500000D02*
G75*
G03*
X71637500Y-120500000I-537500J0D01*
G01*
X60737500Y-114900000D02*
G75*
G03*
X60737500Y-114900000I-537500J0D01*
G01*
X57937500Y-119400000D02*
G75*
G03*
X57937500Y-119400000I-537500J0D01*
G01*
X52337500Y-120000000D02*
G75*
G03*
X52337500Y-120000000I-537500J0D01*
G01*
X59337500Y-65000000D02*
G75*
G03*
X59337500Y-65000000I-537500J0D01*
G01*
X99937500Y-96300000D02*
G75*
G03*
X99937500Y-96300000I-537500J0D01*
G01*
X71337500Y-94200000D02*
G75*
G03*
X71337500Y-94200000I-537500J0D01*
G01*
X59337500Y-83200000D02*
G75*
G03*
X59337500Y-83200000I-537500J0D01*
G01*
X59437500Y-58900000D02*
G75*
G03*
X59437500Y-58900000I-537500J0D01*
G01*
X103437500Y-70800000D02*
G75*
G03*
X103437500Y-70800000I-537500J0D01*
G01*
%TO.C,U3*%
D11*
X90167000Y-60721000D02*
X90214000Y-60725000D01*
X90261000Y-60731000D01*
X90307000Y-60740000D01*
X90353000Y-60751000D01*
X90398000Y-60764000D01*
X90443000Y-60780000D01*
X90486000Y-60798000D01*
X90529000Y-60818000D01*
X90570000Y-60841000D01*
X90610000Y-60865000D01*
X90649000Y-60892000D01*
X90686000Y-60921000D01*
X90722000Y-60951000D01*
X90756000Y-60984000D01*
X90789000Y-61018000D01*
X90819000Y-61054000D01*
X90848000Y-61091000D01*
X90875000Y-61130000D01*
X90899000Y-61170000D01*
X90922000Y-61211000D01*
X90942000Y-61254000D01*
X90960000Y-61297000D01*
X90976000Y-61342000D01*
X90989000Y-61387000D01*
X91000000Y-61433000D01*
X91009000Y-61479000D01*
X91015000Y-61526000D01*
X91019000Y-61573000D01*
X91020000Y-61620000D01*
X91019000Y-61667000D01*
X91015000Y-61714000D01*
X91009000Y-61761000D01*
X91000000Y-61807000D01*
X90989000Y-61853000D01*
X90976000Y-61898000D01*
X90960000Y-61943000D01*
X90942000Y-61986000D01*
X90922000Y-62029000D01*
X90899000Y-62070000D01*
X90875000Y-62110000D01*
X90848000Y-62149000D01*
X90819000Y-62186000D01*
X90789000Y-62222000D01*
X90756000Y-62256000D01*
X90722000Y-62289000D01*
X90686000Y-62319000D01*
X90649000Y-62348000D01*
X90610000Y-62375000D01*
X90570000Y-62399000D01*
X90529000Y-62422000D01*
X90486000Y-62442000D01*
X90443000Y-62460000D01*
X90398000Y-62476000D01*
X90353000Y-62489000D01*
X90307000Y-62500000D01*
X90261000Y-62509000D01*
X90214000Y-62515000D01*
X90167000Y-62519000D01*
X90120000Y-62520000D01*
X87620000Y-62520000D01*
X87620000Y-60720000D01*
X90120000Y-60720000D01*
X90167000Y-60721000D01*
G36*
X90167000Y-60721000D02*
G01*
X90214000Y-60725000D01*
X90261000Y-60731000D01*
X90307000Y-60740000D01*
X90353000Y-60751000D01*
X90398000Y-60764000D01*
X90443000Y-60780000D01*
X90486000Y-60798000D01*
X90529000Y-60818000D01*
X90570000Y-60841000D01*
X90610000Y-60865000D01*
X90649000Y-60892000D01*
X90686000Y-60921000D01*
X90722000Y-60951000D01*
X90756000Y-60984000D01*
X90789000Y-61018000D01*
X90819000Y-61054000D01*
X90848000Y-61091000D01*
X90875000Y-61130000D01*
X90899000Y-61170000D01*
X90922000Y-61211000D01*
X90942000Y-61254000D01*
X90960000Y-61297000D01*
X90976000Y-61342000D01*
X90989000Y-61387000D01*
X91000000Y-61433000D01*
X91009000Y-61479000D01*
X91015000Y-61526000D01*
X91019000Y-61573000D01*
X91020000Y-61620000D01*
X91019000Y-61667000D01*
X91015000Y-61714000D01*
X91009000Y-61761000D01*
X91000000Y-61807000D01*
X90989000Y-61853000D01*
X90976000Y-61898000D01*
X90960000Y-61943000D01*
X90942000Y-61986000D01*
X90922000Y-62029000D01*
X90899000Y-62070000D01*
X90875000Y-62110000D01*
X90848000Y-62149000D01*
X90819000Y-62186000D01*
X90789000Y-62222000D01*
X90756000Y-62256000D01*
X90722000Y-62289000D01*
X90686000Y-62319000D01*
X90649000Y-62348000D01*
X90610000Y-62375000D01*
X90570000Y-62399000D01*
X90529000Y-62422000D01*
X90486000Y-62442000D01*
X90443000Y-62460000D01*
X90398000Y-62476000D01*
X90353000Y-62489000D01*
X90307000Y-62500000D01*
X90261000Y-62509000D01*
X90214000Y-62515000D01*
X90167000Y-62519000D01*
X90120000Y-62520000D01*
X87620000Y-62520000D01*
X87620000Y-60720000D01*
X90120000Y-60720000D01*
X90167000Y-60721000D01*
G37*
X90167000Y-63261000D02*
X90214000Y-63265000D01*
X90261000Y-63271000D01*
X90307000Y-63280000D01*
X90353000Y-63291000D01*
X90398000Y-63304000D01*
X90443000Y-63320000D01*
X90486000Y-63338000D01*
X90529000Y-63358000D01*
X90570000Y-63381000D01*
X90610000Y-63405000D01*
X90649000Y-63432000D01*
X90686000Y-63461000D01*
X90722000Y-63491000D01*
X90756000Y-63524000D01*
X90789000Y-63558000D01*
X90819000Y-63594000D01*
X90848000Y-63631000D01*
X90875000Y-63670000D01*
X90899000Y-63710000D01*
X90922000Y-63751000D01*
X90942000Y-63794000D01*
X90960000Y-63837000D01*
X90976000Y-63882000D01*
X90989000Y-63927000D01*
X91000000Y-63973000D01*
X91009000Y-64019000D01*
X91015000Y-64066000D01*
X91019000Y-64113000D01*
X91020000Y-64160000D01*
X91019000Y-64207000D01*
X91015000Y-64254000D01*
X91009000Y-64301000D01*
X91000000Y-64347000D01*
X90989000Y-64393000D01*
X90976000Y-64438000D01*
X90960000Y-64483000D01*
X90942000Y-64526000D01*
X90922000Y-64569000D01*
X90899000Y-64610000D01*
X90875000Y-64650000D01*
X90848000Y-64689000D01*
X90819000Y-64726000D01*
X90789000Y-64762000D01*
X90756000Y-64796000D01*
X90722000Y-64829000D01*
X90686000Y-64859000D01*
X90649000Y-64888000D01*
X90610000Y-64915000D01*
X90570000Y-64939000D01*
X90529000Y-64962000D01*
X90486000Y-64982000D01*
X90443000Y-65000000D01*
X90398000Y-65016000D01*
X90353000Y-65029000D01*
X90307000Y-65040000D01*
X90261000Y-65049000D01*
X90214000Y-65055000D01*
X90167000Y-65059000D01*
X90120000Y-65060000D01*
X87620000Y-65060000D01*
X87620000Y-63260000D01*
X90120000Y-63260000D01*
X90167000Y-63261000D01*
G36*
X90167000Y-63261000D02*
G01*
X90214000Y-63265000D01*
X90261000Y-63271000D01*
X90307000Y-63280000D01*
X90353000Y-63291000D01*
X90398000Y-63304000D01*
X90443000Y-63320000D01*
X90486000Y-63338000D01*
X90529000Y-63358000D01*
X90570000Y-63381000D01*
X90610000Y-63405000D01*
X90649000Y-63432000D01*
X90686000Y-63461000D01*
X90722000Y-63491000D01*
X90756000Y-63524000D01*
X90789000Y-63558000D01*
X90819000Y-63594000D01*
X90848000Y-63631000D01*
X90875000Y-63670000D01*
X90899000Y-63710000D01*
X90922000Y-63751000D01*
X90942000Y-63794000D01*
X90960000Y-63837000D01*
X90976000Y-63882000D01*
X90989000Y-63927000D01*
X91000000Y-63973000D01*
X91009000Y-64019000D01*
X91015000Y-64066000D01*
X91019000Y-64113000D01*
X91020000Y-64160000D01*
X91019000Y-64207000D01*
X91015000Y-64254000D01*
X91009000Y-64301000D01*
X91000000Y-64347000D01*
X90989000Y-64393000D01*
X90976000Y-64438000D01*
X90960000Y-64483000D01*
X90942000Y-64526000D01*
X90922000Y-64569000D01*
X90899000Y-64610000D01*
X90875000Y-64650000D01*
X90848000Y-64689000D01*
X90819000Y-64726000D01*
X90789000Y-64762000D01*
X90756000Y-64796000D01*
X90722000Y-64829000D01*
X90686000Y-64859000D01*
X90649000Y-64888000D01*
X90610000Y-64915000D01*
X90570000Y-64939000D01*
X90529000Y-64962000D01*
X90486000Y-64982000D01*
X90443000Y-65000000D01*
X90398000Y-65016000D01*
X90353000Y-65029000D01*
X90307000Y-65040000D01*
X90261000Y-65049000D01*
X90214000Y-65055000D01*
X90167000Y-65059000D01*
X90120000Y-65060000D01*
X87620000Y-65060000D01*
X87620000Y-63260000D01*
X90120000Y-63260000D01*
X90167000Y-63261000D01*
G37*
X90167000Y-68341000D02*
X90214000Y-68345000D01*
X90261000Y-68351000D01*
X90307000Y-68360000D01*
X90353000Y-68371000D01*
X90398000Y-68384000D01*
X90443000Y-68400000D01*
X90486000Y-68418000D01*
X90529000Y-68438000D01*
X90570000Y-68461000D01*
X90610000Y-68485000D01*
X90649000Y-68512000D01*
X90686000Y-68541000D01*
X90722000Y-68571000D01*
X90756000Y-68604000D01*
X90789000Y-68638000D01*
X90819000Y-68674000D01*
X90848000Y-68711000D01*
X90875000Y-68750000D01*
X90899000Y-68790000D01*
X90922000Y-68831000D01*
X90942000Y-68874000D01*
X90960000Y-68917000D01*
X90976000Y-68962000D01*
X90989000Y-69007000D01*
X91000000Y-69053000D01*
X91009000Y-69099000D01*
X91015000Y-69146000D01*
X91019000Y-69193000D01*
X91020000Y-69240000D01*
X91019000Y-69287000D01*
X91015000Y-69334000D01*
X91009000Y-69381000D01*
X91000000Y-69427000D01*
X90989000Y-69473000D01*
X90976000Y-69518000D01*
X90960000Y-69563000D01*
X90942000Y-69606000D01*
X90922000Y-69649000D01*
X90899000Y-69690000D01*
X90875000Y-69730000D01*
X90848000Y-69769000D01*
X90819000Y-69806000D01*
X90789000Y-69842000D01*
X90756000Y-69876000D01*
X90722000Y-69909000D01*
X90686000Y-69939000D01*
X90649000Y-69968000D01*
X90610000Y-69995000D01*
X90570000Y-70019000D01*
X90529000Y-70042000D01*
X90486000Y-70062000D01*
X90443000Y-70080000D01*
X90398000Y-70096000D01*
X90353000Y-70109000D01*
X90307000Y-70120000D01*
X90261000Y-70129000D01*
X90214000Y-70135000D01*
X90167000Y-70139000D01*
X90120000Y-70140000D01*
X87620000Y-70140000D01*
X87620000Y-68340000D01*
X90120000Y-68340000D01*
X90167000Y-68341000D01*
G36*
X90167000Y-68341000D02*
G01*
X90214000Y-68345000D01*
X90261000Y-68351000D01*
X90307000Y-68360000D01*
X90353000Y-68371000D01*
X90398000Y-68384000D01*
X90443000Y-68400000D01*
X90486000Y-68418000D01*
X90529000Y-68438000D01*
X90570000Y-68461000D01*
X90610000Y-68485000D01*
X90649000Y-68512000D01*
X90686000Y-68541000D01*
X90722000Y-68571000D01*
X90756000Y-68604000D01*
X90789000Y-68638000D01*
X90819000Y-68674000D01*
X90848000Y-68711000D01*
X90875000Y-68750000D01*
X90899000Y-68790000D01*
X90922000Y-68831000D01*
X90942000Y-68874000D01*
X90960000Y-68917000D01*
X90976000Y-68962000D01*
X90989000Y-69007000D01*
X91000000Y-69053000D01*
X91009000Y-69099000D01*
X91015000Y-69146000D01*
X91019000Y-69193000D01*
X91020000Y-69240000D01*
X91019000Y-69287000D01*
X91015000Y-69334000D01*
X91009000Y-69381000D01*
X91000000Y-69427000D01*
X90989000Y-69473000D01*
X90976000Y-69518000D01*
X90960000Y-69563000D01*
X90942000Y-69606000D01*
X90922000Y-69649000D01*
X90899000Y-69690000D01*
X90875000Y-69730000D01*
X90848000Y-69769000D01*
X90819000Y-69806000D01*
X90789000Y-69842000D01*
X90756000Y-69876000D01*
X90722000Y-69909000D01*
X90686000Y-69939000D01*
X90649000Y-69968000D01*
X90610000Y-69995000D01*
X90570000Y-70019000D01*
X90529000Y-70042000D01*
X90486000Y-70062000D01*
X90443000Y-70080000D01*
X90398000Y-70096000D01*
X90353000Y-70109000D01*
X90307000Y-70120000D01*
X90261000Y-70129000D01*
X90214000Y-70135000D01*
X90167000Y-70139000D01*
X90120000Y-70140000D01*
X87620000Y-70140000D01*
X87620000Y-68340000D01*
X90120000Y-68340000D01*
X90167000Y-68341000D01*
G37*
X90167000Y-70881000D02*
X90214000Y-70885000D01*
X90261000Y-70891000D01*
X90307000Y-70900000D01*
X90353000Y-70911000D01*
X90398000Y-70924000D01*
X90443000Y-70940000D01*
X90486000Y-70958000D01*
X90529000Y-70978000D01*
X90570000Y-71001000D01*
X90610000Y-71025000D01*
X90649000Y-71052000D01*
X90686000Y-71081000D01*
X90722000Y-71111000D01*
X90756000Y-71144000D01*
X90789000Y-71178000D01*
X90819000Y-71214000D01*
X90848000Y-71251000D01*
X90875000Y-71290000D01*
X90899000Y-71330000D01*
X90922000Y-71371000D01*
X90942000Y-71414000D01*
X90960000Y-71457000D01*
X90976000Y-71502000D01*
X90989000Y-71547000D01*
X91000000Y-71593000D01*
X91009000Y-71639000D01*
X91015000Y-71686000D01*
X91019000Y-71733000D01*
X91020000Y-71780000D01*
X91019000Y-71827000D01*
X91015000Y-71874000D01*
X91009000Y-71921000D01*
X91000000Y-71967000D01*
X90989000Y-72013000D01*
X90976000Y-72058000D01*
X90960000Y-72103000D01*
X90942000Y-72146000D01*
X90922000Y-72189000D01*
X90899000Y-72230000D01*
X90875000Y-72270000D01*
X90848000Y-72309000D01*
X90819000Y-72346000D01*
X90789000Y-72382000D01*
X90756000Y-72416000D01*
X90722000Y-72449000D01*
X90686000Y-72479000D01*
X90649000Y-72508000D01*
X90610000Y-72535000D01*
X90570000Y-72559000D01*
X90529000Y-72582000D01*
X90486000Y-72602000D01*
X90443000Y-72620000D01*
X90398000Y-72636000D01*
X90353000Y-72649000D01*
X90307000Y-72660000D01*
X90261000Y-72669000D01*
X90214000Y-72675000D01*
X90167000Y-72679000D01*
X90120000Y-72680000D01*
X87620000Y-72680000D01*
X87620000Y-70880000D01*
X90120000Y-70880000D01*
X90167000Y-70881000D01*
G36*
X90167000Y-70881000D02*
G01*
X90214000Y-70885000D01*
X90261000Y-70891000D01*
X90307000Y-70900000D01*
X90353000Y-70911000D01*
X90398000Y-70924000D01*
X90443000Y-70940000D01*
X90486000Y-70958000D01*
X90529000Y-70978000D01*
X90570000Y-71001000D01*
X90610000Y-71025000D01*
X90649000Y-71052000D01*
X90686000Y-71081000D01*
X90722000Y-71111000D01*
X90756000Y-71144000D01*
X90789000Y-71178000D01*
X90819000Y-71214000D01*
X90848000Y-71251000D01*
X90875000Y-71290000D01*
X90899000Y-71330000D01*
X90922000Y-71371000D01*
X90942000Y-71414000D01*
X90960000Y-71457000D01*
X90976000Y-71502000D01*
X90989000Y-71547000D01*
X91000000Y-71593000D01*
X91009000Y-71639000D01*
X91015000Y-71686000D01*
X91019000Y-71733000D01*
X91020000Y-71780000D01*
X91019000Y-71827000D01*
X91015000Y-71874000D01*
X91009000Y-71921000D01*
X91000000Y-71967000D01*
X90989000Y-72013000D01*
X90976000Y-72058000D01*
X90960000Y-72103000D01*
X90942000Y-72146000D01*
X90922000Y-72189000D01*
X90899000Y-72230000D01*
X90875000Y-72270000D01*
X90848000Y-72309000D01*
X90819000Y-72346000D01*
X90789000Y-72382000D01*
X90756000Y-72416000D01*
X90722000Y-72449000D01*
X90686000Y-72479000D01*
X90649000Y-72508000D01*
X90610000Y-72535000D01*
X90570000Y-72559000D01*
X90529000Y-72582000D01*
X90486000Y-72602000D01*
X90443000Y-72620000D01*
X90398000Y-72636000D01*
X90353000Y-72649000D01*
X90307000Y-72660000D01*
X90261000Y-72669000D01*
X90214000Y-72675000D01*
X90167000Y-72679000D01*
X90120000Y-72680000D01*
X87620000Y-72680000D01*
X87620000Y-70880000D01*
X90120000Y-70880000D01*
X90167000Y-70881000D01*
G37*
X90167000Y-73421000D02*
X90214000Y-73425000D01*
X90261000Y-73431000D01*
X90307000Y-73440000D01*
X90353000Y-73451000D01*
X90398000Y-73464000D01*
X90443000Y-73480000D01*
X90486000Y-73498000D01*
X90529000Y-73518000D01*
X90570000Y-73541000D01*
X90610000Y-73565000D01*
X90649000Y-73592000D01*
X90686000Y-73621000D01*
X90722000Y-73651000D01*
X90756000Y-73684000D01*
X90789000Y-73718000D01*
X90819000Y-73754000D01*
X90848000Y-73791000D01*
X90875000Y-73830000D01*
X90899000Y-73870000D01*
X90922000Y-73911000D01*
X90942000Y-73954000D01*
X90960000Y-73997000D01*
X90976000Y-74042000D01*
X90989000Y-74087000D01*
X91000000Y-74133000D01*
X91009000Y-74179000D01*
X91015000Y-74226000D01*
X91019000Y-74273000D01*
X91020000Y-74320000D01*
X91019000Y-74367000D01*
X91015000Y-74414000D01*
X91009000Y-74461000D01*
X91000000Y-74507000D01*
X90989000Y-74553000D01*
X90976000Y-74598000D01*
X90960000Y-74643000D01*
X90942000Y-74686000D01*
X90922000Y-74729000D01*
X90899000Y-74770000D01*
X90875000Y-74810000D01*
X90848000Y-74849000D01*
X90819000Y-74886000D01*
X90789000Y-74922000D01*
X90756000Y-74956000D01*
X90722000Y-74989000D01*
X90686000Y-75019000D01*
X90649000Y-75048000D01*
X90610000Y-75075000D01*
X90570000Y-75099000D01*
X90529000Y-75122000D01*
X90486000Y-75142000D01*
X90443000Y-75160000D01*
X90398000Y-75176000D01*
X90353000Y-75189000D01*
X90307000Y-75200000D01*
X90261000Y-75209000D01*
X90214000Y-75215000D01*
X90167000Y-75219000D01*
X90120000Y-75220000D01*
X87620000Y-75220000D01*
X87620000Y-73420000D01*
X90120000Y-73420000D01*
X90167000Y-73421000D01*
G36*
X90167000Y-73421000D02*
G01*
X90214000Y-73425000D01*
X90261000Y-73431000D01*
X90307000Y-73440000D01*
X90353000Y-73451000D01*
X90398000Y-73464000D01*
X90443000Y-73480000D01*
X90486000Y-73498000D01*
X90529000Y-73518000D01*
X90570000Y-73541000D01*
X90610000Y-73565000D01*
X90649000Y-73592000D01*
X90686000Y-73621000D01*
X90722000Y-73651000D01*
X90756000Y-73684000D01*
X90789000Y-73718000D01*
X90819000Y-73754000D01*
X90848000Y-73791000D01*
X90875000Y-73830000D01*
X90899000Y-73870000D01*
X90922000Y-73911000D01*
X90942000Y-73954000D01*
X90960000Y-73997000D01*
X90976000Y-74042000D01*
X90989000Y-74087000D01*
X91000000Y-74133000D01*
X91009000Y-74179000D01*
X91015000Y-74226000D01*
X91019000Y-74273000D01*
X91020000Y-74320000D01*
X91019000Y-74367000D01*
X91015000Y-74414000D01*
X91009000Y-74461000D01*
X91000000Y-74507000D01*
X90989000Y-74553000D01*
X90976000Y-74598000D01*
X90960000Y-74643000D01*
X90942000Y-74686000D01*
X90922000Y-74729000D01*
X90899000Y-74770000D01*
X90875000Y-74810000D01*
X90848000Y-74849000D01*
X90819000Y-74886000D01*
X90789000Y-74922000D01*
X90756000Y-74956000D01*
X90722000Y-74989000D01*
X90686000Y-75019000D01*
X90649000Y-75048000D01*
X90610000Y-75075000D01*
X90570000Y-75099000D01*
X90529000Y-75122000D01*
X90486000Y-75142000D01*
X90443000Y-75160000D01*
X90398000Y-75176000D01*
X90353000Y-75189000D01*
X90307000Y-75200000D01*
X90261000Y-75209000D01*
X90214000Y-75215000D01*
X90167000Y-75219000D01*
X90120000Y-75220000D01*
X87620000Y-75220000D01*
X87620000Y-73420000D01*
X90120000Y-73420000D01*
X90167000Y-73421000D01*
G37*
X90167000Y-75961000D02*
X90214000Y-75965000D01*
X90261000Y-75971000D01*
X90307000Y-75980000D01*
X90353000Y-75991000D01*
X90398000Y-76004000D01*
X90443000Y-76020000D01*
X90486000Y-76038000D01*
X90529000Y-76058000D01*
X90570000Y-76081000D01*
X90610000Y-76105000D01*
X90649000Y-76132000D01*
X90686000Y-76161000D01*
X90722000Y-76191000D01*
X90756000Y-76224000D01*
X90789000Y-76258000D01*
X90819000Y-76294000D01*
X90848000Y-76331000D01*
X90875000Y-76370000D01*
X90899000Y-76410000D01*
X90922000Y-76451000D01*
X90942000Y-76494000D01*
X90960000Y-76537000D01*
X90976000Y-76582000D01*
X90989000Y-76627000D01*
X91000000Y-76673000D01*
X91009000Y-76719000D01*
X91015000Y-76766000D01*
X91019000Y-76813000D01*
X91020000Y-76860000D01*
X91019000Y-76907000D01*
X91015000Y-76954000D01*
X91009000Y-77001000D01*
X91000000Y-77047000D01*
X90989000Y-77093000D01*
X90976000Y-77138000D01*
X90960000Y-77183000D01*
X90942000Y-77226000D01*
X90922000Y-77269000D01*
X90899000Y-77310000D01*
X90875000Y-77350000D01*
X90848000Y-77389000D01*
X90819000Y-77426000D01*
X90789000Y-77462000D01*
X90756000Y-77496000D01*
X90722000Y-77529000D01*
X90686000Y-77559000D01*
X90649000Y-77588000D01*
X90610000Y-77615000D01*
X90570000Y-77639000D01*
X90529000Y-77662000D01*
X90486000Y-77682000D01*
X90443000Y-77700000D01*
X90398000Y-77716000D01*
X90353000Y-77729000D01*
X90307000Y-77740000D01*
X90261000Y-77749000D01*
X90214000Y-77755000D01*
X90167000Y-77759000D01*
X90120000Y-77760000D01*
X87620000Y-77760000D01*
X87620000Y-75960000D01*
X90120000Y-75960000D01*
X90167000Y-75961000D01*
G36*
X90167000Y-75961000D02*
G01*
X90214000Y-75965000D01*
X90261000Y-75971000D01*
X90307000Y-75980000D01*
X90353000Y-75991000D01*
X90398000Y-76004000D01*
X90443000Y-76020000D01*
X90486000Y-76038000D01*
X90529000Y-76058000D01*
X90570000Y-76081000D01*
X90610000Y-76105000D01*
X90649000Y-76132000D01*
X90686000Y-76161000D01*
X90722000Y-76191000D01*
X90756000Y-76224000D01*
X90789000Y-76258000D01*
X90819000Y-76294000D01*
X90848000Y-76331000D01*
X90875000Y-76370000D01*
X90899000Y-76410000D01*
X90922000Y-76451000D01*
X90942000Y-76494000D01*
X90960000Y-76537000D01*
X90976000Y-76582000D01*
X90989000Y-76627000D01*
X91000000Y-76673000D01*
X91009000Y-76719000D01*
X91015000Y-76766000D01*
X91019000Y-76813000D01*
X91020000Y-76860000D01*
X91019000Y-76907000D01*
X91015000Y-76954000D01*
X91009000Y-77001000D01*
X91000000Y-77047000D01*
X90989000Y-77093000D01*
X90976000Y-77138000D01*
X90960000Y-77183000D01*
X90942000Y-77226000D01*
X90922000Y-77269000D01*
X90899000Y-77310000D01*
X90875000Y-77350000D01*
X90848000Y-77389000D01*
X90819000Y-77426000D01*
X90789000Y-77462000D01*
X90756000Y-77496000D01*
X90722000Y-77529000D01*
X90686000Y-77559000D01*
X90649000Y-77588000D01*
X90610000Y-77615000D01*
X90570000Y-77639000D01*
X90529000Y-77662000D01*
X90486000Y-77682000D01*
X90443000Y-77700000D01*
X90398000Y-77716000D01*
X90353000Y-77729000D01*
X90307000Y-77740000D01*
X90261000Y-77749000D01*
X90214000Y-77755000D01*
X90167000Y-77759000D01*
X90120000Y-77760000D01*
X87620000Y-77760000D01*
X87620000Y-75960000D01*
X90120000Y-75960000D01*
X90167000Y-75961000D01*
G37*
X90167000Y-81041000D02*
X90214000Y-81045000D01*
X90261000Y-81051000D01*
X90307000Y-81060000D01*
X90353000Y-81071000D01*
X90398000Y-81084000D01*
X90443000Y-81100000D01*
X90486000Y-81118000D01*
X90529000Y-81138000D01*
X90570000Y-81161000D01*
X90610000Y-81185000D01*
X90649000Y-81212000D01*
X90686000Y-81241000D01*
X90722000Y-81271000D01*
X90756000Y-81304000D01*
X90789000Y-81338000D01*
X90819000Y-81374000D01*
X90848000Y-81411000D01*
X90875000Y-81450000D01*
X90899000Y-81490000D01*
X90922000Y-81531000D01*
X90942000Y-81574000D01*
X90960000Y-81617000D01*
X90976000Y-81662000D01*
X90989000Y-81707000D01*
X91000000Y-81753000D01*
X91009000Y-81799000D01*
X91015000Y-81846000D01*
X91019000Y-81893000D01*
X91020000Y-81940000D01*
X91019000Y-81987000D01*
X91015000Y-82034000D01*
X91009000Y-82081000D01*
X91000000Y-82127000D01*
X90989000Y-82173000D01*
X90976000Y-82218000D01*
X90960000Y-82263000D01*
X90942000Y-82306000D01*
X90922000Y-82349000D01*
X90899000Y-82390000D01*
X90875000Y-82430000D01*
X90848000Y-82469000D01*
X90819000Y-82506000D01*
X90789000Y-82542000D01*
X90756000Y-82576000D01*
X90722000Y-82609000D01*
X90686000Y-82639000D01*
X90649000Y-82668000D01*
X90610000Y-82695000D01*
X90570000Y-82719000D01*
X90529000Y-82742000D01*
X90486000Y-82762000D01*
X90443000Y-82780000D01*
X90398000Y-82796000D01*
X90353000Y-82809000D01*
X90307000Y-82820000D01*
X90261000Y-82829000D01*
X90214000Y-82835000D01*
X90167000Y-82839000D01*
X90120000Y-82840000D01*
X87620000Y-82840000D01*
X87620000Y-81040000D01*
X90120000Y-81040000D01*
X90167000Y-81041000D01*
G36*
X90167000Y-81041000D02*
G01*
X90214000Y-81045000D01*
X90261000Y-81051000D01*
X90307000Y-81060000D01*
X90353000Y-81071000D01*
X90398000Y-81084000D01*
X90443000Y-81100000D01*
X90486000Y-81118000D01*
X90529000Y-81138000D01*
X90570000Y-81161000D01*
X90610000Y-81185000D01*
X90649000Y-81212000D01*
X90686000Y-81241000D01*
X90722000Y-81271000D01*
X90756000Y-81304000D01*
X90789000Y-81338000D01*
X90819000Y-81374000D01*
X90848000Y-81411000D01*
X90875000Y-81450000D01*
X90899000Y-81490000D01*
X90922000Y-81531000D01*
X90942000Y-81574000D01*
X90960000Y-81617000D01*
X90976000Y-81662000D01*
X90989000Y-81707000D01*
X91000000Y-81753000D01*
X91009000Y-81799000D01*
X91015000Y-81846000D01*
X91019000Y-81893000D01*
X91020000Y-81940000D01*
X91019000Y-81987000D01*
X91015000Y-82034000D01*
X91009000Y-82081000D01*
X91000000Y-82127000D01*
X90989000Y-82173000D01*
X90976000Y-82218000D01*
X90960000Y-82263000D01*
X90942000Y-82306000D01*
X90922000Y-82349000D01*
X90899000Y-82390000D01*
X90875000Y-82430000D01*
X90848000Y-82469000D01*
X90819000Y-82506000D01*
X90789000Y-82542000D01*
X90756000Y-82576000D01*
X90722000Y-82609000D01*
X90686000Y-82639000D01*
X90649000Y-82668000D01*
X90610000Y-82695000D01*
X90570000Y-82719000D01*
X90529000Y-82742000D01*
X90486000Y-82762000D01*
X90443000Y-82780000D01*
X90398000Y-82796000D01*
X90353000Y-82809000D01*
X90307000Y-82820000D01*
X90261000Y-82829000D01*
X90214000Y-82835000D01*
X90167000Y-82839000D01*
X90120000Y-82840000D01*
X87620000Y-82840000D01*
X87620000Y-81040000D01*
X90120000Y-81040000D01*
X90167000Y-81041000D01*
G37*
X90167000Y-83581000D02*
X90214000Y-83585000D01*
X90261000Y-83591000D01*
X90307000Y-83600000D01*
X90353000Y-83611000D01*
X90398000Y-83624000D01*
X90443000Y-83640000D01*
X90486000Y-83658000D01*
X90529000Y-83678000D01*
X90570000Y-83701000D01*
X90610000Y-83725000D01*
X90649000Y-83752000D01*
X90686000Y-83781000D01*
X90722000Y-83811000D01*
X90756000Y-83844000D01*
X90789000Y-83878000D01*
X90819000Y-83914000D01*
X90848000Y-83951000D01*
X90875000Y-83990000D01*
X90899000Y-84030000D01*
X90922000Y-84071000D01*
X90942000Y-84114000D01*
X90960000Y-84157000D01*
X90976000Y-84202000D01*
X90989000Y-84247000D01*
X91000000Y-84293000D01*
X91009000Y-84339000D01*
X91015000Y-84386000D01*
X91019000Y-84433000D01*
X91020000Y-84480000D01*
X91019000Y-84527000D01*
X91015000Y-84574000D01*
X91009000Y-84621000D01*
X91000000Y-84667000D01*
X90989000Y-84713000D01*
X90976000Y-84758000D01*
X90960000Y-84803000D01*
X90942000Y-84846000D01*
X90922000Y-84889000D01*
X90899000Y-84930000D01*
X90875000Y-84970000D01*
X90848000Y-85009000D01*
X90819000Y-85046000D01*
X90789000Y-85082000D01*
X90756000Y-85116000D01*
X90722000Y-85149000D01*
X90686000Y-85179000D01*
X90649000Y-85208000D01*
X90610000Y-85235000D01*
X90570000Y-85259000D01*
X90529000Y-85282000D01*
X90486000Y-85302000D01*
X90443000Y-85320000D01*
X90398000Y-85336000D01*
X90353000Y-85349000D01*
X90307000Y-85360000D01*
X90261000Y-85369000D01*
X90214000Y-85375000D01*
X90167000Y-85379000D01*
X90120000Y-85380000D01*
X87620000Y-85380000D01*
X87620000Y-83580000D01*
X90120000Y-83580000D01*
X90167000Y-83581000D01*
G36*
X90167000Y-83581000D02*
G01*
X90214000Y-83585000D01*
X90261000Y-83591000D01*
X90307000Y-83600000D01*
X90353000Y-83611000D01*
X90398000Y-83624000D01*
X90443000Y-83640000D01*
X90486000Y-83658000D01*
X90529000Y-83678000D01*
X90570000Y-83701000D01*
X90610000Y-83725000D01*
X90649000Y-83752000D01*
X90686000Y-83781000D01*
X90722000Y-83811000D01*
X90756000Y-83844000D01*
X90789000Y-83878000D01*
X90819000Y-83914000D01*
X90848000Y-83951000D01*
X90875000Y-83990000D01*
X90899000Y-84030000D01*
X90922000Y-84071000D01*
X90942000Y-84114000D01*
X90960000Y-84157000D01*
X90976000Y-84202000D01*
X90989000Y-84247000D01*
X91000000Y-84293000D01*
X91009000Y-84339000D01*
X91015000Y-84386000D01*
X91019000Y-84433000D01*
X91020000Y-84480000D01*
X91019000Y-84527000D01*
X91015000Y-84574000D01*
X91009000Y-84621000D01*
X91000000Y-84667000D01*
X90989000Y-84713000D01*
X90976000Y-84758000D01*
X90960000Y-84803000D01*
X90942000Y-84846000D01*
X90922000Y-84889000D01*
X90899000Y-84930000D01*
X90875000Y-84970000D01*
X90848000Y-85009000D01*
X90819000Y-85046000D01*
X90789000Y-85082000D01*
X90756000Y-85116000D01*
X90722000Y-85149000D01*
X90686000Y-85179000D01*
X90649000Y-85208000D01*
X90610000Y-85235000D01*
X90570000Y-85259000D01*
X90529000Y-85282000D01*
X90486000Y-85302000D01*
X90443000Y-85320000D01*
X90398000Y-85336000D01*
X90353000Y-85349000D01*
X90307000Y-85360000D01*
X90261000Y-85369000D01*
X90214000Y-85375000D01*
X90167000Y-85379000D01*
X90120000Y-85380000D01*
X87620000Y-85380000D01*
X87620000Y-83580000D01*
X90120000Y-83580000D01*
X90167000Y-83581000D01*
G37*
X90167000Y-86121000D02*
X90214000Y-86125000D01*
X90261000Y-86131000D01*
X90307000Y-86140000D01*
X90353000Y-86151000D01*
X90398000Y-86164000D01*
X90443000Y-86180000D01*
X90486000Y-86198000D01*
X90529000Y-86218000D01*
X90570000Y-86241000D01*
X90610000Y-86265000D01*
X90649000Y-86292000D01*
X90686000Y-86321000D01*
X90722000Y-86351000D01*
X90756000Y-86384000D01*
X90789000Y-86418000D01*
X90819000Y-86454000D01*
X90848000Y-86491000D01*
X90875000Y-86530000D01*
X90899000Y-86570000D01*
X90922000Y-86611000D01*
X90942000Y-86654000D01*
X90960000Y-86697000D01*
X90976000Y-86742000D01*
X90989000Y-86787000D01*
X91000000Y-86833000D01*
X91009000Y-86879000D01*
X91015000Y-86926000D01*
X91019000Y-86973000D01*
X91020000Y-87020000D01*
X91019000Y-87067000D01*
X91015000Y-87114000D01*
X91009000Y-87161000D01*
X91000000Y-87207000D01*
X90989000Y-87253000D01*
X90976000Y-87298000D01*
X90960000Y-87343000D01*
X90942000Y-87386000D01*
X90922000Y-87429000D01*
X90899000Y-87470000D01*
X90875000Y-87510000D01*
X90848000Y-87549000D01*
X90819000Y-87586000D01*
X90789000Y-87622000D01*
X90756000Y-87656000D01*
X90722000Y-87689000D01*
X90686000Y-87719000D01*
X90649000Y-87748000D01*
X90610000Y-87775000D01*
X90570000Y-87799000D01*
X90529000Y-87822000D01*
X90486000Y-87842000D01*
X90443000Y-87860000D01*
X90398000Y-87876000D01*
X90353000Y-87889000D01*
X90307000Y-87900000D01*
X90261000Y-87909000D01*
X90214000Y-87915000D01*
X90167000Y-87919000D01*
X90120000Y-87920000D01*
X87620000Y-87920000D01*
X87620000Y-86120000D01*
X90120000Y-86120000D01*
X90167000Y-86121000D01*
G36*
X90167000Y-86121000D02*
G01*
X90214000Y-86125000D01*
X90261000Y-86131000D01*
X90307000Y-86140000D01*
X90353000Y-86151000D01*
X90398000Y-86164000D01*
X90443000Y-86180000D01*
X90486000Y-86198000D01*
X90529000Y-86218000D01*
X90570000Y-86241000D01*
X90610000Y-86265000D01*
X90649000Y-86292000D01*
X90686000Y-86321000D01*
X90722000Y-86351000D01*
X90756000Y-86384000D01*
X90789000Y-86418000D01*
X90819000Y-86454000D01*
X90848000Y-86491000D01*
X90875000Y-86530000D01*
X90899000Y-86570000D01*
X90922000Y-86611000D01*
X90942000Y-86654000D01*
X90960000Y-86697000D01*
X90976000Y-86742000D01*
X90989000Y-86787000D01*
X91000000Y-86833000D01*
X91009000Y-86879000D01*
X91015000Y-86926000D01*
X91019000Y-86973000D01*
X91020000Y-87020000D01*
X91019000Y-87067000D01*
X91015000Y-87114000D01*
X91009000Y-87161000D01*
X91000000Y-87207000D01*
X90989000Y-87253000D01*
X90976000Y-87298000D01*
X90960000Y-87343000D01*
X90942000Y-87386000D01*
X90922000Y-87429000D01*
X90899000Y-87470000D01*
X90875000Y-87510000D01*
X90848000Y-87549000D01*
X90819000Y-87586000D01*
X90789000Y-87622000D01*
X90756000Y-87656000D01*
X90722000Y-87689000D01*
X90686000Y-87719000D01*
X90649000Y-87748000D01*
X90610000Y-87775000D01*
X90570000Y-87799000D01*
X90529000Y-87822000D01*
X90486000Y-87842000D01*
X90443000Y-87860000D01*
X90398000Y-87876000D01*
X90353000Y-87889000D01*
X90307000Y-87900000D01*
X90261000Y-87909000D01*
X90214000Y-87915000D01*
X90167000Y-87919000D01*
X90120000Y-87920000D01*
X87620000Y-87920000D01*
X87620000Y-86120000D01*
X90120000Y-86120000D01*
X90167000Y-86121000D01*
G37*
X90167000Y-88661000D02*
X90214000Y-88665000D01*
X90261000Y-88671000D01*
X90307000Y-88680000D01*
X90353000Y-88691000D01*
X90398000Y-88704000D01*
X90443000Y-88720000D01*
X90486000Y-88738000D01*
X90529000Y-88758000D01*
X90570000Y-88781000D01*
X90610000Y-88805000D01*
X90649000Y-88832000D01*
X90686000Y-88861000D01*
X90722000Y-88891000D01*
X90756000Y-88924000D01*
X90789000Y-88958000D01*
X90819000Y-88994000D01*
X90848000Y-89031000D01*
X90875000Y-89070000D01*
X90899000Y-89110000D01*
X90922000Y-89151000D01*
X90942000Y-89194000D01*
X90960000Y-89237000D01*
X90976000Y-89282000D01*
X90989000Y-89327000D01*
X91000000Y-89373000D01*
X91009000Y-89419000D01*
X91015000Y-89466000D01*
X91019000Y-89513000D01*
X91020000Y-89560000D01*
X91019000Y-89607000D01*
X91015000Y-89654000D01*
X91009000Y-89701000D01*
X91000000Y-89747000D01*
X90989000Y-89793000D01*
X90976000Y-89838000D01*
X90960000Y-89883000D01*
X90942000Y-89926000D01*
X90922000Y-89969000D01*
X90899000Y-90010000D01*
X90875000Y-90050000D01*
X90848000Y-90089000D01*
X90819000Y-90126000D01*
X90789000Y-90162000D01*
X90756000Y-90196000D01*
X90722000Y-90229000D01*
X90686000Y-90259000D01*
X90649000Y-90288000D01*
X90610000Y-90315000D01*
X90570000Y-90339000D01*
X90529000Y-90362000D01*
X90486000Y-90382000D01*
X90443000Y-90400000D01*
X90398000Y-90416000D01*
X90353000Y-90429000D01*
X90307000Y-90440000D01*
X90261000Y-90449000D01*
X90214000Y-90455000D01*
X90167000Y-90459000D01*
X90120000Y-90460000D01*
X87620000Y-90460000D01*
X87620000Y-88660000D01*
X90120000Y-88660000D01*
X90167000Y-88661000D01*
G36*
X90167000Y-88661000D02*
G01*
X90214000Y-88665000D01*
X90261000Y-88671000D01*
X90307000Y-88680000D01*
X90353000Y-88691000D01*
X90398000Y-88704000D01*
X90443000Y-88720000D01*
X90486000Y-88738000D01*
X90529000Y-88758000D01*
X90570000Y-88781000D01*
X90610000Y-88805000D01*
X90649000Y-88832000D01*
X90686000Y-88861000D01*
X90722000Y-88891000D01*
X90756000Y-88924000D01*
X90789000Y-88958000D01*
X90819000Y-88994000D01*
X90848000Y-89031000D01*
X90875000Y-89070000D01*
X90899000Y-89110000D01*
X90922000Y-89151000D01*
X90942000Y-89194000D01*
X90960000Y-89237000D01*
X90976000Y-89282000D01*
X90989000Y-89327000D01*
X91000000Y-89373000D01*
X91009000Y-89419000D01*
X91015000Y-89466000D01*
X91019000Y-89513000D01*
X91020000Y-89560000D01*
X91019000Y-89607000D01*
X91015000Y-89654000D01*
X91009000Y-89701000D01*
X91000000Y-89747000D01*
X90989000Y-89793000D01*
X90976000Y-89838000D01*
X90960000Y-89883000D01*
X90942000Y-89926000D01*
X90922000Y-89969000D01*
X90899000Y-90010000D01*
X90875000Y-90050000D01*
X90848000Y-90089000D01*
X90819000Y-90126000D01*
X90789000Y-90162000D01*
X90756000Y-90196000D01*
X90722000Y-90229000D01*
X90686000Y-90259000D01*
X90649000Y-90288000D01*
X90610000Y-90315000D01*
X90570000Y-90339000D01*
X90529000Y-90362000D01*
X90486000Y-90382000D01*
X90443000Y-90400000D01*
X90398000Y-90416000D01*
X90353000Y-90429000D01*
X90307000Y-90440000D01*
X90261000Y-90449000D01*
X90214000Y-90455000D01*
X90167000Y-90459000D01*
X90120000Y-90460000D01*
X87620000Y-90460000D01*
X87620000Y-88660000D01*
X90120000Y-88660000D01*
X90167000Y-88661000D01*
G37*
X90167000Y-93741000D02*
X90214000Y-93745000D01*
X90261000Y-93751000D01*
X90307000Y-93760000D01*
X90353000Y-93771000D01*
X90398000Y-93784000D01*
X90443000Y-93800000D01*
X90486000Y-93818000D01*
X90529000Y-93838000D01*
X90570000Y-93861000D01*
X90610000Y-93885000D01*
X90649000Y-93912000D01*
X90686000Y-93941000D01*
X90722000Y-93971000D01*
X90756000Y-94004000D01*
X90789000Y-94038000D01*
X90819000Y-94074000D01*
X90848000Y-94111000D01*
X90875000Y-94150000D01*
X90899000Y-94190000D01*
X90922000Y-94231000D01*
X90942000Y-94274000D01*
X90960000Y-94317000D01*
X90976000Y-94362000D01*
X90989000Y-94407000D01*
X91000000Y-94453000D01*
X91009000Y-94499000D01*
X91015000Y-94546000D01*
X91019000Y-94593000D01*
X91020000Y-94640000D01*
X91019000Y-94687000D01*
X91015000Y-94734000D01*
X91009000Y-94781000D01*
X91000000Y-94827000D01*
X90989000Y-94873000D01*
X90976000Y-94918000D01*
X90960000Y-94963000D01*
X90942000Y-95006000D01*
X90922000Y-95049000D01*
X90899000Y-95090000D01*
X90875000Y-95130000D01*
X90848000Y-95169000D01*
X90819000Y-95206000D01*
X90789000Y-95242000D01*
X90756000Y-95276000D01*
X90722000Y-95309000D01*
X90686000Y-95339000D01*
X90649000Y-95368000D01*
X90610000Y-95395000D01*
X90570000Y-95419000D01*
X90529000Y-95442000D01*
X90486000Y-95462000D01*
X90443000Y-95480000D01*
X90398000Y-95496000D01*
X90353000Y-95509000D01*
X90307000Y-95520000D01*
X90261000Y-95529000D01*
X90214000Y-95535000D01*
X90167000Y-95539000D01*
X90120000Y-95540000D01*
X87620000Y-95540000D01*
X87620000Y-93740000D01*
X90120000Y-93740000D01*
X90167000Y-93741000D01*
G36*
X90167000Y-93741000D02*
G01*
X90214000Y-93745000D01*
X90261000Y-93751000D01*
X90307000Y-93760000D01*
X90353000Y-93771000D01*
X90398000Y-93784000D01*
X90443000Y-93800000D01*
X90486000Y-93818000D01*
X90529000Y-93838000D01*
X90570000Y-93861000D01*
X90610000Y-93885000D01*
X90649000Y-93912000D01*
X90686000Y-93941000D01*
X90722000Y-93971000D01*
X90756000Y-94004000D01*
X90789000Y-94038000D01*
X90819000Y-94074000D01*
X90848000Y-94111000D01*
X90875000Y-94150000D01*
X90899000Y-94190000D01*
X90922000Y-94231000D01*
X90942000Y-94274000D01*
X90960000Y-94317000D01*
X90976000Y-94362000D01*
X90989000Y-94407000D01*
X91000000Y-94453000D01*
X91009000Y-94499000D01*
X91015000Y-94546000D01*
X91019000Y-94593000D01*
X91020000Y-94640000D01*
X91019000Y-94687000D01*
X91015000Y-94734000D01*
X91009000Y-94781000D01*
X91000000Y-94827000D01*
X90989000Y-94873000D01*
X90976000Y-94918000D01*
X90960000Y-94963000D01*
X90942000Y-95006000D01*
X90922000Y-95049000D01*
X90899000Y-95090000D01*
X90875000Y-95130000D01*
X90848000Y-95169000D01*
X90819000Y-95206000D01*
X90789000Y-95242000D01*
X90756000Y-95276000D01*
X90722000Y-95309000D01*
X90686000Y-95339000D01*
X90649000Y-95368000D01*
X90610000Y-95395000D01*
X90570000Y-95419000D01*
X90529000Y-95442000D01*
X90486000Y-95462000D01*
X90443000Y-95480000D01*
X90398000Y-95496000D01*
X90353000Y-95509000D01*
X90307000Y-95520000D01*
X90261000Y-95529000D01*
X90214000Y-95535000D01*
X90167000Y-95539000D01*
X90120000Y-95540000D01*
X87620000Y-95540000D01*
X87620000Y-93740000D01*
X90120000Y-93740000D01*
X90167000Y-93741000D01*
G37*
X90167000Y-96281000D02*
X90214000Y-96285000D01*
X90261000Y-96291000D01*
X90307000Y-96300000D01*
X90353000Y-96311000D01*
X90398000Y-96324000D01*
X90443000Y-96340000D01*
X90486000Y-96358000D01*
X90529000Y-96378000D01*
X90570000Y-96401000D01*
X90610000Y-96425000D01*
X90649000Y-96452000D01*
X90686000Y-96481000D01*
X90722000Y-96511000D01*
X90756000Y-96544000D01*
X90789000Y-96578000D01*
X90819000Y-96614000D01*
X90848000Y-96651000D01*
X90875000Y-96690000D01*
X90899000Y-96730000D01*
X90922000Y-96771000D01*
X90942000Y-96814000D01*
X90960000Y-96857000D01*
X90976000Y-96902000D01*
X90989000Y-96947000D01*
X91000000Y-96993000D01*
X91009000Y-97039000D01*
X91015000Y-97086000D01*
X91019000Y-97133000D01*
X91020000Y-97180000D01*
X91019000Y-97227000D01*
X91015000Y-97274000D01*
X91009000Y-97321000D01*
X91000000Y-97367000D01*
X90989000Y-97413000D01*
X90976000Y-97458000D01*
X90960000Y-97503000D01*
X90942000Y-97546000D01*
X90922000Y-97589000D01*
X90899000Y-97630000D01*
X90875000Y-97670000D01*
X90848000Y-97709000D01*
X90819000Y-97746000D01*
X90789000Y-97782000D01*
X90756000Y-97816000D01*
X90722000Y-97849000D01*
X90686000Y-97879000D01*
X90649000Y-97908000D01*
X90610000Y-97935000D01*
X90570000Y-97959000D01*
X90529000Y-97982000D01*
X90486000Y-98002000D01*
X90443000Y-98020000D01*
X90398000Y-98036000D01*
X90353000Y-98049000D01*
X90307000Y-98060000D01*
X90261000Y-98069000D01*
X90214000Y-98075000D01*
X90167000Y-98079000D01*
X90120000Y-98080000D01*
X87620000Y-98080000D01*
X87620000Y-96280000D01*
X90120000Y-96280000D01*
X90167000Y-96281000D01*
G36*
X90167000Y-96281000D02*
G01*
X90214000Y-96285000D01*
X90261000Y-96291000D01*
X90307000Y-96300000D01*
X90353000Y-96311000D01*
X90398000Y-96324000D01*
X90443000Y-96340000D01*
X90486000Y-96358000D01*
X90529000Y-96378000D01*
X90570000Y-96401000D01*
X90610000Y-96425000D01*
X90649000Y-96452000D01*
X90686000Y-96481000D01*
X90722000Y-96511000D01*
X90756000Y-96544000D01*
X90789000Y-96578000D01*
X90819000Y-96614000D01*
X90848000Y-96651000D01*
X90875000Y-96690000D01*
X90899000Y-96730000D01*
X90922000Y-96771000D01*
X90942000Y-96814000D01*
X90960000Y-96857000D01*
X90976000Y-96902000D01*
X90989000Y-96947000D01*
X91000000Y-96993000D01*
X91009000Y-97039000D01*
X91015000Y-97086000D01*
X91019000Y-97133000D01*
X91020000Y-97180000D01*
X91019000Y-97227000D01*
X91015000Y-97274000D01*
X91009000Y-97321000D01*
X91000000Y-97367000D01*
X90989000Y-97413000D01*
X90976000Y-97458000D01*
X90960000Y-97503000D01*
X90942000Y-97546000D01*
X90922000Y-97589000D01*
X90899000Y-97630000D01*
X90875000Y-97670000D01*
X90848000Y-97709000D01*
X90819000Y-97746000D01*
X90789000Y-97782000D01*
X90756000Y-97816000D01*
X90722000Y-97849000D01*
X90686000Y-97879000D01*
X90649000Y-97908000D01*
X90610000Y-97935000D01*
X90570000Y-97959000D01*
X90529000Y-97982000D01*
X90486000Y-98002000D01*
X90443000Y-98020000D01*
X90398000Y-98036000D01*
X90353000Y-98049000D01*
X90307000Y-98060000D01*
X90261000Y-98069000D01*
X90214000Y-98075000D01*
X90167000Y-98079000D01*
X90120000Y-98080000D01*
X87620000Y-98080000D01*
X87620000Y-96280000D01*
X90120000Y-96280000D01*
X90167000Y-96281000D01*
G37*
X90167000Y-98821000D02*
X90214000Y-98825000D01*
X90261000Y-98831000D01*
X90307000Y-98840000D01*
X90353000Y-98851000D01*
X90398000Y-98864000D01*
X90443000Y-98880000D01*
X90486000Y-98898000D01*
X90529000Y-98918000D01*
X90570000Y-98941000D01*
X90610000Y-98965000D01*
X90649000Y-98992000D01*
X90686000Y-99021000D01*
X90722000Y-99051000D01*
X90756000Y-99084000D01*
X90789000Y-99118000D01*
X90819000Y-99154000D01*
X90848000Y-99191000D01*
X90875000Y-99230000D01*
X90899000Y-99270000D01*
X90922000Y-99311000D01*
X90942000Y-99354000D01*
X90960000Y-99397000D01*
X90976000Y-99442000D01*
X90989000Y-99487000D01*
X91000000Y-99533000D01*
X91009000Y-99579000D01*
X91015000Y-99626000D01*
X91019000Y-99673000D01*
X91020000Y-99720000D01*
X91019000Y-99767000D01*
X91015000Y-99814000D01*
X91009000Y-99861000D01*
X91000000Y-99907000D01*
X90989000Y-99953000D01*
X90976000Y-99998000D01*
X90960000Y-100043000D01*
X90942000Y-100086000D01*
X90922000Y-100129000D01*
X90899000Y-100170000D01*
X90875000Y-100210000D01*
X90848000Y-100249000D01*
X90819000Y-100286000D01*
X90789000Y-100322000D01*
X90756000Y-100356000D01*
X90722000Y-100389000D01*
X90686000Y-100419000D01*
X90649000Y-100448000D01*
X90610000Y-100475000D01*
X90570000Y-100499000D01*
X90529000Y-100522000D01*
X90486000Y-100542000D01*
X90443000Y-100560000D01*
X90398000Y-100576000D01*
X90353000Y-100589000D01*
X90307000Y-100600000D01*
X90261000Y-100609000D01*
X90214000Y-100615000D01*
X90167000Y-100619000D01*
X90120000Y-100620000D01*
X87620000Y-100620000D01*
X87620000Y-98820000D01*
X90120000Y-98820000D01*
X90167000Y-98821000D01*
G36*
X90167000Y-98821000D02*
G01*
X90214000Y-98825000D01*
X90261000Y-98831000D01*
X90307000Y-98840000D01*
X90353000Y-98851000D01*
X90398000Y-98864000D01*
X90443000Y-98880000D01*
X90486000Y-98898000D01*
X90529000Y-98918000D01*
X90570000Y-98941000D01*
X90610000Y-98965000D01*
X90649000Y-98992000D01*
X90686000Y-99021000D01*
X90722000Y-99051000D01*
X90756000Y-99084000D01*
X90789000Y-99118000D01*
X90819000Y-99154000D01*
X90848000Y-99191000D01*
X90875000Y-99230000D01*
X90899000Y-99270000D01*
X90922000Y-99311000D01*
X90942000Y-99354000D01*
X90960000Y-99397000D01*
X90976000Y-99442000D01*
X90989000Y-99487000D01*
X91000000Y-99533000D01*
X91009000Y-99579000D01*
X91015000Y-99626000D01*
X91019000Y-99673000D01*
X91020000Y-99720000D01*
X91019000Y-99767000D01*
X91015000Y-99814000D01*
X91009000Y-99861000D01*
X91000000Y-99907000D01*
X90989000Y-99953000D01*
X90976000Y-99998000D01*
X90960000Y-100043000D01*
X90942000Y-100086000D01*
X90922000Y-100129000D01*
X90899000Y-100170000D01*
X90875000Y-100210000D01*
X90848000Y-100249000D01*
X90819000Y-100286000D01*
X90789000Y-100322000D01*
X90756000Y-100356000D01*
X90722000Y-100389000D01*
X90686000Y-100419000D01*
X90649000Y-100448000D01*
X90610000Y-100475000D01*
X90570000Y-100499000D01*
X90529000Y-100522000D01*
X90486000Y-100542000D01*
X90443000Y-100560000D01*
X90398000Y-100576000D01*
X90353000Y-100589000D01*
X90307000Y-100600000D01*
X90261000Y-100609000D01*
X90214000Y-100615000D01*
X90167000Y-100619000D01*
X90120000Y-100620000D01*
X87620000Y-100620000D01*
X87620000Y-98820000D01*
X90120000Y-98820000D01*
X90167000Y-98821000D01*
G37*
X90167000Y-101361000D02*
X90214000Y-101365000D01*
X90261000Y-101371000D01*
X90307000Y-101380000D01*
X90353000Y-101391000D01*
X90398000Y-101404000D01*
X90443000Y-101420000D01*
X90486000Y-101438000D01*
X90529000Y-101458000D01*
X90570000Y-101481000D01*
X90610000Y-101505000D01*
X90649000Y-101532000D01*
X90686000Y-101561000D01*
X90722000Y-101591000D01*
X90756000Y-101624000D01*
X90789000Y-101658000D01*
X90819000Y-101694000D01*
X90848000Y-101731000D01*
X90875000Y-101770000D01*
X90899000Y-101810000D01*
X90922000Y-101851000D01*
X90942000Y-101894000D01*
X90960000Y-101937000D01*
X90976000Y-101982000D01*
X90989000Y-102027000D01*
X91000000Y-102073000D01*
X91009000Y-102119000D01*
X91015000Y-102166000D01*
X91019000Y-102213000D01*
X91020000Y-102260000D01*
X91019000Y-102307000D01*
X91015000Y-102354000D01*
X91009000Y-102401000D01*
X91000000Y-102447000D01*
X90989000Y-102493000D01*
X90976000Y-102538000D01*
X90960000Y-102583000D01*
X90942000Y-102626000D01*
X90922000Y-102669000D01*
X90899000Y-102710000D01*
X90875000Y-102750000D01*
X90848000Y-102789000D01*
X90819000Y-102826000D01*
X90789000Y-102862000D01*
X90756000Y-102896000D01*
X90722000Y-102929000D01*
X90686000Y-102959000D01*
X90649000Y-102988000D01*
X90610000Y-103015000D01*
X90570000Y-103039000D01*
X90529000Y-103062000D01*
X90486000Y-103082000D01*
X90443000Y-103100000D01*
X90398000Y-103116000D01*
X90353000Y-103129000D01*
X90307000Y-103140000D01*
X90261000Y-103149000D01*
X90214000Y-103155000D01*
X90167000Y-103159000D01*
X90120000Y-103160000D01*
X87620000Y-103160000D01*
X87620000Y-101360000D01*
X90120000Y-101360000D01*
X90167000Y-101361000D01*
G36*
X90167000Y-101361000D02*
G01*
X90214000Y-101365000D01*
X90261000Y-101371000D01*
X90307000Y-101380000D01*
X90353000Y-101391000D01*
X90398000Y-101404000D01*
X90443000Y-101420000D01*
X90486000Y-101438000D01*
X90529000Y-101458000D01*
X90570000Y-101481000D01*
X90610000Y-101505000D01*
X90649000Y-101532000D01*
X90686000Y-101561000D01*
X90722000Y-101591000D01*
X90756000Y-101624000D01*
X90789000Y-101658000D01*
X90819000Y-101694000D01*
X90848000Y-101731000D01*
X90875000Y-101770000D01*
X90899000Y-101810000D01*
X90922000Y-101851000D01*
X90942000Y-101894000D01*
X90960000Y-101937000D01*
X90976000Y-101982000D01*
X90989000Y-102027000D01*
X91000000Y-102073000D01*
X91009000Y-102119000D01*
X91015000Y-102166000D01*
X91019000Y-102213000D01*
X91020000Y-102260000D01*
X91019000Y-102307000D01*
X91015000Y-102354000D01*
X91009000Y-102401000D01*
X91000000Y-102447000D01*
X90989000Y-102493000D01*
X90976000Y-102538000D01*
X90960000Y-102583000D01*
X90942000Y-102626000D01*
X90922000Y-102669000D01*
X90899000Y-102710000D01*
X90875000Y-102750000D01*
X90848000Y-102789000D01*
X90819000Y-102826000D01*
X90789000Y-102862000D01*
X90756000Y-102896000D01*
X90722000Y-102929000D01*
X90686000Y-102959000D01*
X90649000Y-102988000D01*
X90610000Y-103015000D01*
X90570000Y-103039000D01*
X90529000Y-103062000D01*
X90486000Y-103082000D01*
X90443000Y-103100000D01*
X90398000Y-103116000D01*
X90353000Y-103129000D01*
X90307000Y-103140000D01*
X90261000Y-103149000D01*
X90214000Y-103155000D01*
X90167000Y-103159000D01*
X90120000Y-103160000D01*
X87620000Y-103160000D01*
X87620000Y-101360000D01*
X90120000Y-101360000D01*
X90167000Y-101361000D01*
G37*
X90167000Y-106441000D02*
X90214000Y-106445000D01*
X90261000Y-106451000D01*
X90307000Y-106460000D01*
X90353000Y-106471000D01*
X90398000Y-106484000D01*
X90443000Y-106500000D01*
X90486000Y-106518000D01*
X90529000Y-106538000D01*
X90570000Y-106561000D01*
X90610000Y-106585000D01*
X90649000Y-106612000D01*
X90686000Y-106641000D01*
X90722000Y-106671000D01*
X90756000Y-106704000D01*
X90789000Y-106738000D01*
X90819000Y-106774000D01*
X90848000Y-106811000D01*
X90875000Y-106850000D01*
X90899000Y-106890000D01*
X90922000Y-106931000D01*
X90942000Y-106974000D01*
X90960000Y-107017000D01*
X90976000Y-107062000D01*
X90989000Y-107107000D01*
X91000000Y-107153000D01*
X91009000Y-107199000D01*
X91015000Y-107246000D01*
X91019000Y-107293000D01*
X91020000Y-107340000D01*
X91019000Y-107387000D01*
X91015000Y-107434000D01*
X91009000Y-107481000D01*
X91000000Y-107527000D01*
X90989000Y-107573000D01*
X90976000Y-107618000D01*
X90960000Y-107663000D01*
X90942000Y-107706000D01*
X90922000Y-107749000D01*
X90899000Y-107790000D01*
X90875000Y-107830000D01*
X90848000Y-107869000D01*
X90819000Y-107906000D01*
X90789000Y-107942000D01*
X90756000Y-107976000D01*
X90722000Y-108009000D01*
X90686000Y-108039000D01*
X90649000Y-108068000D01*
X90610000Y-108095000D01*
X90570000Y-108119000D01*
X90529000Y-108142000D01*
X90486000Y-108162000D01*
X90443000Y-108180000D01*
X90398000Y-108196000D01*
X90353000Y-108209000D01*
X90307000Y-108220000D01*
X90261000Y-108229000D01*
X90214000Y-108235000D01*
X90167000Y-108239000D01*
X90120000Y-108240000D01*
X87620000Y-108240000D01*
X87620000Y-106440000D01*
X90120000Y-106440000D01*
X90167000Y-106441000D01*
G36*
X90167000Y-106441000D02*
G01*
X90214000Y-106445000D01*
X90261000Y-106451000D01*
X90307000Y-106460000D01*
X90353000Y-106471000D01*
X90398000Y-106484000D01*
X90443000Y-106500000D01*
X90486000Y-106518000D01*
X90529000Y-106538000D01*
X90570000Y-106561000D01*
X90610000Y-106585000D01*
X90649000Y-106612000D01*
X90686000Y-106641000D01*
X90722000Y-106671000D01*
X90756000Y-106704000D01*
X90789000Y-106738000D01*
X90819000Y-106774000D01*
X90848000Y-106811000D01*
X90875000Y-106850000D01*
X90899000Y-106890000D01*
X90922000Y-106931000D01*
X90942000Y-106974000D01*
X90960000Y-107017000D01*
X90976000Y-107062000D01*
X90989000Y-107107000D01*
X91000000Y-107153000D01*
X91009000Y-107199000D01*
X91015000Y-107246000D01*
X91019000Y-107293000D01*
X91020000Y-107340000D01*
X91019000Y-107387000D01*
X91015000Y-107434000D01*
X91009000Y-107481000D01*
X91000000Y-107527000D01*
X90989000Y-107573000D01*
X90976000Y-107618000D01*
X90960000Y-107663000D01*
X90942000Y-107706000D01*
X90922000Y-107749000D01*
X90899000Y-107790000D01*
X90875000Y-107830000D01*
X90848000Y-107869000D01*
X90819000Y-107906000D01*
X90789000Y-107942000D01*
X90756000Y-107976000D01*
X90722000Y-108009000D01*
X90686000Y-108039000D01*
X90649000Y-108068000D01*
X90610000Y-108095000D01*
X90570000Y-108119000D01*
X90529000Y-108142000D01*
X90486000Y-108162000D01*
X90443000Y-108180000D01*
X90398000Y-108196000D01*
X90353000Y-108209000D01*
X90307000Y-108220000D01*
X90261000Y-108229000D01*
X90214000Y-108235000D01*
X90167000Y-108239000D01*
X90120000Y-108240000D01*
X87620000Y-108240000D01*
X87620000Y-106440000D01*
X90120000Y-106440000D01*
X90167000Y-106441000D01*
G37*
X90167000Y-108981000D02*
X90214000Y-108985000D01*
X90261000Y-108991000D01*
X90307000Y-109000000D01*
X90353000Y-109011000D01*
X90398000Y-109024000D01*
X90443000Y-109040000D01*
X90486000Y-109058000D01*
X90529000Y-109078000D01*
X90570000Y-109101000D01*
X90610000Y-109125000D01*
X90649000Y-109152000D01*
X90686000Y-109181000D01*
X90722000Y-109211000D01*
X90756000Y-109244000D01*
X90789000Y-109278000D01*
X90819000Y-109314000D01*
X90848000Y-109351000D01*
X90875000Y-109390000D01*
X90899000Y-109430000D01*
X90922000Y-109471000D01*
X90942000Y-109514000D01*
X90960000Y-109557000D01*
X90976000Y-109602000D01*
X90989000Y-109647000D01*
X91000000Y-109693000D01*
X91009000Y-109739000D01*
X91015000Y-109786000D01*
X91019000Y-109833000D01*
X91020000Y-109880000D01*
X91019000Y-109927000D01*
X91015000Y-109974000D01*
X91009000Y-110021000D01*
X91000000Y-110067000D01*
X90989000Y-110113000D01*
X90976000Y-110158000D01*
X90960000Y-110203000D01*
X90942000Y-110246000D01*
X90922000Y-110289000D01*
X90899000Y-110330000D01*
X90875000Y-110370000D01*
X90848000Y-110409000D01*
X90819000Y-110446000D01*
X90789000Y-110482000D01*
X90756000Y-110516000D01*
X90722000Y-110549000D01*
X90686000Y-110579000D01*
X90649000Y-110608000D01*
X90610000Y-110635000D01*
X90570000Y-110659000D01*
X90529000Y-110682000D01*
X90486000Y-110702000D01*
X90443000Y-110720000D01*
X90398000Y-110736000D01*
X90353000Y-110749000D01*
X90307000Y-110760000D01*
X90261000Y-110769000D01*
X90214000Y-110775000D01*
X90167000Y-110779000D01*
X90120000Y-110780000D01*
X87620000Y-110780000D01*
X87620000Y-108980000D01*
X90120000Y-108980000D01*
X90167000Y-108981000D01*
G36*
X90167000Y-108981000D02*
G01*
X90214000Y-108985000D01*
X90261000Y-108991000D01*
X90307000Y-109000000D01*
X90353000Y-109011000D01*
X90398000Y-109024000D01*
X90443000Y-109040000D01*
X90486000Y-109058000D01*
X90529000Y-109078000D01*
X90570000Y-109101000D01*
X90610000Y-109125000D01*
X90649000Y-109152000D01*
X90686000Y-109181000D01*
X90722000Y-109211000D01*
X90756000Y-109244000D01*
X90789000Y-109278000D01*
X90819000Y-109314000D01*
X90848000Y-109351000D01*
X90875000Y-109390000D01*
X90899000Y-109430000D01*
X90922000Y-109471000D01*
X90942000Y-109514000D01*
X90960000Y-109557000D01*
X90976000Y-109602000D01*
X90989000Y-109647000D01*
X91000000Y-109693000D01*
X91009000Y-109739000D01*
X91015000Y-109786000D01*
X91019000Y-109833000D01*
X91020000Y-109880000D01*
X91019000Y-109927000D01*
X91015000Y-109974000D01*
X91009000Y-110021000D01*
X91000000Y-110067000D01*
X90989000Y-110113000D01*
X90976000Y-110158000D01*
X90960000Y-110203000D01*
X90942000Y-110246000D01*
X90922000Y-110289000D01*
X90899000Y-110330000D01*
X90875000Y-110370000D01*
X90848000Y-110409000D01*
X90819000Y-110446000D01*
X90789000Y-110482000D01*
X90756000Y-110516000D01*
X90722000Y-110549000D01*
X90686000Y-110579000D01*
X90649000Y-110608000D01*
X90610000Y-110635000D01*
X90570000Y-110659000D01*
X90529000Y-110682000D01*
X90486000Y-110702000D01*
X90443000Y-110720000D01*
X90398000Y-110736000D01*
X90353000Y-110749000D01*
X90307000Y-110760000D01*
X90261000Y-110769000D01*
X90214000Y-110775000D01*
X90167000Y-110779000D01*
X90120000Y-110780000D01*
X87620000Y-110780000D01*
X87620000Y-108980000D01*
X90120000Y-108980000D01*
X90167000Y-108981000D01*
G37*
X96517000Y-108751000D02*
X96564000Y-108755000D01*
X96611000Y-108761000D01*
X96657000Y-108770000D01*
X96703000Y-108781000D01*
X96748000Y-108794000D01*
X96793000Y-108810000D01*
X96836000Y-108828000D01*
X96879000Y-108848000D01*
X96920000Y-108871000D01*
X96960000Y-108895000D01*
X96999000Y-108922000D01*
X97036000Y-108951000D01*
X97072000Y-108981000D01*
X97106000Y-109014000D01*
X97139000Y-109048000D01*
X97169000Y-109084000D01*
X97198000Y-109121000D01*
X97225000Y-109160000D01*
X97249000Y-109200000D01*
X97272000Y-109241000D01*
X97292000Y-109284000D01*
X97310000Y-109327000D01*
X97326000Y-109372000D01*
X97339000Y-109417000D01*
X97350000Y-109463000D01*
X97359000Y-109509000D01*
X97365000Y-109556000D01*
X97369000Y-109603000D01*
X97370000Y-109650000D01*
X97370000Y-112150000D01*
X95570000Y-112150000D01*
X95570000Y-109650000D01*
X95571000Y-109603000D01*
X95575000Y-109556000D01*
X95581000Y-109509000D01*
X95590000Y-109463000D01*
X95601000Y-109417000D01*
X95614000Y-109372000D01*
X95630000Y-109327000D01*
X95648000Y-109284000D01*
X95668000Y-109241000D01*
X95691000Y-109200000D01*
X95715000Y-109160000D01*
X95742000Y-109121000D01*
X95771000Y-109084000D01*
X95801000Y-109048000D01*
X95834000Y-109014000D01*
X95868000Y-108981000D01*
X95904000Y-108951000D01*
X95941000Y-108922000D01*
X95980000Y-108895000D01*
X96020000Y-108871000D01*
X96061000Y-108848000D01*
X96104000Y-108828000D01*
X96147000Y-108810000D01*
X96192000Y-108794000D01*
X96237000Y-108781000D01*
X96283000Y-108770000D01*
X96329000Y-108761000D01*
X96376000Y-108755000D01*
X96423000Y-108751000D01*
X96470000Y-108750000D01*
X96517000Y-108751000D01*
G36*
X96517000Y-108751000D02*
G01*
X96564000Y-108755000D01*
X96611000Y-108761000D01*
X96657000Y-108770000D01*
X96703000Y-108781000D01*
X96748000Y-108794000D01*
X96793000Y-108810000D01*
X96836000Y-108828000D01*
X96879000Y-108848000D01*
X96920000Y-108871000D01*
X96960000Y-108895000D01*
X96999000Y-108922000D01*
X97036000Y-108951000D01*
X97072000Y-108981000D01*
X97106000Y-109014000D01*
X97139000Y-109048000D01*
X97169000Y-109084000D01*
X97198000Y-109121000D01*
X97225000Y-109160000D01*
X97249000Y-109200000D01*
X97272000Y-109241000D01*
X97292000Y-109284000D01*
X97310000Y-109327000D01*
X97326000Y-109372000D01*
X97339000Y-109417000D01*
X97350000Y-109463000D01*
X97359000Y-109509000D01*
X97365000Y-109556000D01*
X97369000Y-109603000D01*
X97370000Y-109650000D01*
X97370000Y-112150000D01*
X95570000Y-112150000D01*
X95570000Y-109650000D01*
X95571000Y-109603000D01*
X95575000Y-109556000D01*
X95581000Y-109509000D01*
X95590000Y-109463000D01*
X95601000Y-109417000D01*
X95614000Y-109372000D01*
X95630000Y-109327000D01*
X95648000Y-109284000D01*
X95668000Y-109241000D01*
X95691000Y-109200000D01*
X95715000Y-109160000D01*
X95742000Y-109121000D01*
X95771000Y-109084000D01*
X95801000Y-109048000D01*
X95834000Y-109014000D01*
X95868000Y-108981000D01*
X95904000Y-108951000D01*
X95941000Y-108922000D01*
X95980000Y-108895000D01*
X96020000Y-108871000D01*
X96061000Y-108848000D01*
X96104000Y-108828000D01*
X96147000Y-108810000D01*
X96192000Y-108794000D01*
X96237000Y-108781000D01*
X96283000Y-108770000D01*
X96329000Y-108761000D01*
X96376000Y-108755000D01*
X96423000Y-108751000D01*
X96470000Y-108750000D01*
X96517000Y-108751000D01*
G37*
X101597000Y-108751000D02*
X101644000Y-108755000D01*
X101691000Y-108761000D01*
X101737000Y-108770000D01*
X101783000Y-108781000D01*
X101828000Y-108794000D01*
X101873000Y-108810000D01*
X101916000Y-108828000D01*
X101959000Y-108848000D01*
X102000000Y-108871000D01*
X102040000Y-108895000D01*
X102079000Y-108922000D01*
X102116000Y-108951000D01*
X102152000Y-108981000D01*
X102186000Y-109014000D01*
X102219000Y-109048000D01*
X102249000Y-109084000D01*
X102278000Y-109121000D01*
X102305000Y-109160000D01*
X102329000Y-109200000D01*
X102352000Y-109241000D01*
X102372000Y-109284000D01*
X102390000Y-109327000D01*
X102406000Y-109372000D01*
X102419000Y-109417000D01*
X102430000Y-109463000D01*
X102439000Y-109509000D01*
X102445000Y-109556000D01*
X102449000Y-109603000D01*
X102450000Y-109650000D01*
X102450000Y-112150000D01*
X100650000Y-112150000D01*
X100650000Y-109650000D01*
X100651000Y-109603000D01*
X100655000Y-109556000D01*
X100661000Y-109509000D01*
X100670000Y-109463000D01*
X100681000Y-109417000D01*
X100694000Y-109372000D01*
X100710000Y-109327000D01*
X100728000Y-109284000D01*
X100748000Y-109241000D01*
X100771000Y-109200000D01*
X100795000Y-109160000D01*
X100822000Y-109121000D01*
X100851000Y-109084000D01*
X100881000Y-109048000D01*
X100914000Y-109014000D01*
X100948000Y-108981000D01*
X100984000Y-108951000D01*
X101021000Y-108922000D01*
X101060000Y-108895000D01*
X101100000Y-108871000D01*
X101141000Y-108848000D01*
X101184000Y-108828000D01*
X101227000Y-108810000D01*
X101272000Y-108794000D01*
X101317000Y-108781000D01*
X101363000Y-108770000D01*
X101409000Y-108761000D01*
X101456000Y-108755000D01*
X101503000Y-108751000D01*
X101550000Y-108750000D01*
X101597000Y-108751000D01*
G36*
X101597000Y-108751000D02*
G01*
X101644000Y-108755000D01*
X101691000Y-108761000D01*
X101737000Y-108770000D01*
X101783000Y-108781000D01*
X101828000Y-108794000D01*
X101873000Y-108810000D01*
X101916000Y-108828000D01*
X101959000Y-108848000D01*
X102000000Y-108871000D01*
X102040000Y-108895000D01*
X102079000Y-108922000D01*
X102116000Y-108951000D01*
X102152000Y-108981000D01*
X102186000Y-109014000D01*
X102219000Y-109048000D01*
X102249000Y-109084000D01*
X102278000Y-109121000D01*
X102305000Y-109160000D01*
X102329000Y-109200000D01*
X102352000Y-109241000D01*
X102372000Y-109284000D01*
X102390000Y-109327000D01*
X102406000Y-109372000D01*
X102419000Y-109417000D01*
X102430000Y-109463000D01*
X102439000Y-109509000D01*
X102445000Y-109556000D01*
X102449000Y-109603000D01*
X102450000Y-109650000D01*
X102450000Y-112150000D01*
X100650000Y-112150000D01*
X100650000Y-109650000D01*
X100651000Y-109603000D01*
X100655000Y-109556000D01*
X100661000Y-109509000D01*
X100670000Y-109463000D01*
X100681000Y-109417000D01*
X100694000Y-109372000D01*
X100710000Y-109327000D01*
X100728000Y-109284000D01*
X100748000Y-109241000D01*
X100771000Y-109200000D01*
X100795000Y-109160000D01*
X100822000Y-109121000D01*
X100851000Y-109084000D01*
X100881000Y-109048000D01*
X100914000Y-109014000D01*
X100948000Y-108981000D01*
X100984000Y-108951000D01*
X101021000Y-108922000D01*
X101060000Y-108895000D01*
X101100000Y-108871000D01*
X101141000Y-108848000D01*
X101184000Y-108828000D01*
X101227000Y-108810000D01*
X101272000Y-108794000D01*
X101317000Y-108781000D01*
X101363000Y-108770000D01*
X101409000Y-108761000D01*
X101456000Y-108755000D01*
X101503000Y-108751000D01*
X101550000Y-108750000D01*
X101597000Y-108751000D01*
G37*
X110400000Y-62520000D02*
X107900000Y-62520000D01*
X107853000Y-62519000D01*
X107806000Y-62515000D01*
X107759000Y-62509000D01*
X107713000Y-62500000D01*
X107667000Y-62489000D01*
X107622000Y-62476000D01*
X107577000Y-62460000D01*
X107534000Y-62442000D01*
X107491000Y-62422000D01*
X107450000Y-62399000D01*
X107410000Y-62375000D01*
X107371000Y-62348000D01*
X107334000Y-62319000D01*
X107298000Y-62289000D01*
X107264000Y-62256000D01*
X107231000Y-62222000D01*
X107201000Y-62186000D01*
X107172000Y-62149000D01*
X107145000Y-62110000D01*
X107121000Y-62070000D01*
X107098000Y-62029000D01*
X107078000Y-61986000D01*
X107060000Y-61943000D01*
X107044000Y-61898000D01*
X107031000Y-61853000D01*
X107020000Y-61807000D01*
X107011000Y-61761000D01*
X107005000Y-61714000D01*
X107001000Y-61667000D01*
X107000000Y-61620000D01*
X107001000Y-61573000D01*
X107005000Y-61526000D01*
X107011000Y-61479000D01*
X107020000Y-61433000D01*
X107031000Y-61387000D01*
X107044000Y-61342000D01*
X107060000Y-61297000D01*
X107078000Y-61254000D01*
X107098000Y-61211000D01*
X107121000Y-61170000D01*
X107145000Y-61130000D01*
X107172000Y-61091000D01*
X107201000Y-61054000D01*
X107231000Y-61018000D01*
X107264000Y-60984000D01*
X107298000Y-60951000D01*
X107334000Y-60921000D01*
X107371000Y-60892000D01*
X107410000Y-60865000D01*
X107450000Y-60841000D01*
X107491000Y-60818000D01*
X107534000Y-60798000D01*
X107577000Y-60780000D01*
X107622000Y-60764000D01*
X107667000Y-60751000D01*
X107713000Y-60740000D01*
X107759000Y-60731000D01*
X107806000Y-60725000D01*
X107853000Y-60721000D01*
X107900000Y-60720000D01*
X110400000Y-60720000D01*
X110400000Y-62520000D01*
G36*
X110400000Y-62520000D02*
G01*
X107900000Y-62520000D01*
X107853000Y-62519000D01*
X107806000Y-62515000D01*
X107759000Y-62509000D01*
X107713000Y-62500000D01*
X107667000Y-62489000D01*
X107622000Y-62476000D01*
X107577000Y-62460000D01*
X107534000Y-62442000D01*
X107491000Y-62422000D01*
X107450000Y-62399000D01*
X107410000Y-62375000D01*
X107371000Y-62348000D01*
X107334000Y-62319000D01*
X107298000Y-62289000D01*
X107264000Y-62256000D01*
X107231000Y-62222000D01*
X107201000Y-62186000D01*
X107172000Y-62149000D01*
X107145000Y-62110000D01*
X107121000Y-62070000D01*
X107098000Y-62029000D01*
X107078000Y-61986000D01*
X107060000Y-61943000D01*
X107044000Y-61898000D01*
X107031000Y-61853000D01*
X107020000Y-61807000D01*
X107011000Y-61761000D01*
X107005000Y-61714000D01*
X107001000Y-61667000D01*
X107000000Y-61620000D01*
X107001000Y-61573000D01*
X107005000Y-61526000D01*
X107011000Y-61479000D01*
X107020000Y-61433000D01*
X107031000Y-61387000D01*
X107044000Y-61342000D01*
X107060000Y-61297000D01*
X107078000Y-61254000D01*
X107098000Y-61211000D01*
X107121000Y-61170000D01*
X107145000Y-61130000D01*
X107172000Y-61091000D01*
X107201000Y-61054000D01*
X107231000Y-61018000D01*
X107264000Y-60984000D01*
X107298000Y-60951000D01*
X107334000Y-60921000D01*
X107371000Y-60892000D01*
X107410000Y-60865000D01*
X107450000Y-60841000D01*
X107491000Y-60818000D01*
X107534000Y-60798000D01*
X107577000Y-60780000D01*
X107622000Y-60764000D01*
X107667000Y-60751000D01*
X107713000Y-60740000D01*
X107759000Y-60731000D01*
X107806000Y-60725000D01*
X107853000Y-60721000D01*
X107900000Y-60720000D01*
X110400000Y-60720000D01*
X110400000Y-62520000D01*
G37*
X110400000Y-65060000D02*
X107900000Y-65060000D01*
X107853000Y-65059000D01*
X107806000Y-65055000D01*
X107759000Y-65049000D01*
X107713000Y-65040000D01*
X107667000Y-65029000D01*
X107622000Y-65016000D01*
X107577000Y-65000000D01*
X107534000Y-64982000D01*
X107491000Y-64962000D01*
X107450000Y-64939000D01*
X107410000Y-64915000D01*
X107371000Y-64888000D01*
X107334000Y-64859000D01*
X107298000Y-64829000D01*
X107264000Y-64796000D01*
X107231000Y-64762000D01*
X107201000Y-64726000D01*
X107172000Y-64689000D01*
X107145000Y-64650000D01*
X107121000Y-64610000D01*
X107098000Y-64569000D01*
X107078000Y-64526000D01*
X107060000Y-64483000D01*
X107044000Y-64438000D01*
X107031000Y-64393000D01*
X107020000Y-64347000D01*
X107011000Y-64301000D01*
X107005000Y-64254000D01*
X107001000Y-64207000D01*
X107000000Y-64160000D01*
X107001000Y-64113000D01*
X107005000Y-64066000D01*
X107011000Y-64019000D01*
X107020000Y-63973000D01*
X107031000Y-63927000D01*
X107044000Y-63882000D01*
X107060000Y-63837000D01*
X107078000Y-63794000D01*
X107098000Y-63751000D01*
X107121000Y-63710000D01*
X107145000Y-63670000D01*
X107172000Y-63631000D01*
X107201000Y-63594000D01*
X107231000Y-63558000D01*
X107264000Y-63524000D01*
X107298000Y-63491000D01*
X107334000Y-63461000D01*
X107371000Y-63432000D01*
X107410000Y-63405000D01*
X107450000Y-63381000D01*
X107491000Y-63358000D01*
X107534000Y-63338000D01*
X107577000Y-63320000D01*
X107622000Y-63304000D01*
X107667000Y-63291000D01*
X107713000Y-63280000D01*
X107759000Y-63271000D01*
X107806000Y-63265000D01*
X107853000Y-63261000D01*
X107900000Y-63260000D01*
X110400000Y-63260000D01*
X110400000Y-65060000D01*
G36*
X110400000Y-65060000D02*
G01*
X107900000Y-65060000D01*
X107853000Y-65059000D01*
X107806000Y-65055000D01*
X107759000Y-65049000D01*
X107713000Y-65040000D01*
X107667000Y-65029000D01*
X107622000Y-65016000D01*
X107577000Y-65000000D01*
X107534000Y-64982000D01*
X107491000Y-64962000D01*
X107450000Y-64939000D01*
X107410000Y-64915000D01*
X107371000Y-64888000D01*
X107334000Y-64859000D01*
X107298000Y-64829000D01*
X107264000Y-64796000D01*
X107231000Y-64762000D01*
X107201000Y-64726000D01*
X107172000Y-64689000D01*
X107145000Y-64650000D01*
X107121000Y-64610000D01*
X107098000Y-64569000D01*
X107078000Y-64526000D01*
X107060000Y-64483000D01*
X107044000Y-64438000D01*
X107031000Y-64393000D01*
X107020000Y-64347000D01*
X107011000Y-64301000D01*
X107005000Y-64254000D01*
X107001000Y-64207000D01*
X107000000Y-64160000D01*
X107001000Y-64113000D01*
X107005000Y-64066000D01*
X107011000Y-64019000D01*
X107020000Y-63973000D01*
X107031000Y-63927000D01*
X107044000Y-63882000D01*
X107060000Y-63837000D01*
X107078000Y-63794000D01*
X107098000Y-63751000D01*
X107121000Y-63710000D01*
X107145000Y-63670000D01*
X107172000Y-63631000D01*
X107201000Y-63594000D01*
X107231000Y-63558000D01*
X107264000Y-63524000D01*
X107298000Y-63491000D01*
X107334000Y-63461000D01*
X107371000Y-63432000D01*
X107410000Y-63405000D01*
X107450000Y-63381000D01*
X107491000Y-63358000D01*
X107534000Y-63338000D01*
X107577000Y-63320000D01*
X107622000Y-63304000D01*
X107667000Y-63291000D01*
X107713000Y-63280000D01*
X107759000Y-63271000D01*
X107806000Y-63265000D01*
X107853000Y-63261000D01*
X107900000Y-63260000D01*
X110400000Y-63260000D01*
X110400000Y-65060000D01*
G37*
X110400000Y-70140000D02*
X107900000Y-70140000D01*
X107853000Y-70139000D01*
X107806000Y-70135000D01*
X107759000Y-70129000D01*
X107713000Y-70120000D01*
X107667000Y-70109000D01*
X107622000Y-70096000D01*
X107577000Y-70080000D01*
X107534000Y-70062000D01*
X107491000Y-70042000D01*
X107450000Y-70019000D01*
X107410000Y-69995000D01*
X107371000Y-69968000D01*
X107334000Y-69939000D01*
X107298000Y-69909000D01*
X107264000Y-69876000D01*
X107231000Y-69842000D01*
X107201000Y-69806000D01*
X107172000Y-69769000D01*
X107145000Y-69730000D01*
X107121000Y-69690000D01*
X107098000Y-69649000D01*
X107078000Y-69606000D01*
X107060000Y-69563000D01*
X107044000Y-69518000D01*
X107031000Y-69473000D01*
X107020000Y-69427000D01*
X107011000Y-69381000D01*
X107005000Y-69334000D01*
X107001000Y-69287000D01*
X107000000Y-69240000D01*
X107001000Y-69193000D01*
X107005000Y-69146000D01*
X107011000Y-69099000D01*
X107020000Y-69053000D01*
X107031000Y-69007000D01*
X107044000Y-68962000D01*
X107060000Y-68917000D01*
X107078000Y-68874000D01*
X107098000Y-68831000D01*
X107121000Y-68790000D01*
X107145000Y-68750000D01*
X107172000Y-68711000D01*
X107201000Y-68674000D01*
X107231000Y-68638000D01*
X107264000Y-68604000D01*
X107298000Y-68571000D01*
X107334000Y-68541000D01*
X107371000Y-68512000D01*
X107410000Y-68485000D01*
X107450000Y-68461000D01*
X107491000Y-68438000D01*
X107534000Y-68418000D01*
X107577000Y-68400000D01*
X107622000Y-68384000D01*
X107667000Y-68371000D01*
X107713000Y-68360000D01*
X107759000Y-68351000D01*
X107806000Y-68345000D01*
X107853000Y-68341000D01*
X107900000Y-68340000D01*
X110400000Y-68340000D01*
X110400000Y-70140000D01*
G36*
X110400000Y-70140000D02*
G01*
X107900000Y-70140000D01*
X107853000Y-70139000D01*
X107806000Y-70135000D01*
X107759000Y-70129000D01*
X107713000Y-70120000D01*
X107667000Y-70109000D01*
X107622000Y-70096000D01*
X107577000Y-70080000D01*
X107534000Y-70062000D01*
X107491000Y-70042000D01*
X107450000Y-70019000D01*
X107410000Y-69995000D01*
X107371000Y-69968000D01*
X107334000Y-69939000D01*
X107298000Y-69909000D01*
X107264000Y-69876000D01*
X107231000Y-69842000D01*
X107201000Y-69806000D01*
X107172000Y-69769000D01*
X107145000Y-69730000D01*
X107121000Y-69690000D01*
X107098000Y-69649000D01*
X107078000Y-69606000D01*
X107060000Y-69563000D01*
X107044000Y-69518000D01*
X107031000Y-69473000D01*
X107020000Y-69427000D01*
X107011000Y-69381000D01*
X107005000Y-69334000D01*
X107001000Y-69287000D01*
X107000000Y-69240000D01*
X107001000Y-69193000D01*
X107005000Y-69146000D01*
X107011000Y-69099000D01*
X107020000Y-69053000D01*
X107031000Y-69007000D01*
X107044000Y-68962000D01*
X107060000Y-68917000D01*
X107078000Y-68874000D01*
X107098000Y-68831000D01*
X107121000Y-68790000D01*
X107145000Y-68750000D01*
X107172000Y-68711000D01*
X107201000Y-68674000D01*
X107231000Y-68638000D01*
X107264000Y-68604000D01*
X107298000Y-68571000D01*
X107334000Y-68541000D01*
X107371000Y-68512000D01*
X107410000Y-68485000D01*
X107450000Y-68461000D01*
X107491000Y-68438000D01*
X107534000Y-68418000D01*
X107577000Y-68400000D01*
X107622000Y-68384000D01*
X107667000Y-68371000D01*
X107713000Y-68360000D01*
X107759000Y-68351000D01*
X107806000Y-68345000D01*
X107853000Y-68341000D01*
X107900000Y-68340000D01*
X110400000Y-68340000D01*
X110400000Y-70140000D01*
G37*
X110400000Y-72680000D02*
X107900000Y-72680000D01*
X107853000Y-72679000D01*
X107806000Y-72675000D01*
X107759000Y-72669000D01*
X107713000Y-72660000D01*
X107667000Y-72649000D01*
X107622000Y-72636000D01*
X107577000Y-72620000D01*
X107534000Y-72602000D01*
X107491000Y-72582000D01*
X107450000Y-72559000D01*
X107410000Y-72535000D01*
X107371000Y-72508000D01*
X107334000Y-72479000D01*
X107298000Y-72449000D01*
X107264000Y-72416000D01*
X107231000Y-72382000D01*
X107201000Y-72346000D01*
X107172000Y-72309000D01*
X107145000Y-72270000D01*
X107121000Y-72230000D01*
X107098000Y-72189000D01*
X107078000Y-72146000D01*
X107060000Y-72103000D01*
X107044000Y-72058000D01*
X107031000Y-72013000D01*
X107020000Y-71967000D01*
X107011000Y-71921000D01*
X107005000Y-71874000D01*
X107001000Y-71827000D01*
X107000000Y-71780000D01*
X107001000Y-71733000D01*
X107005000Y-71686000D01*
X107011000Y-71639000D01*
X107020000Y-71593000D01*
X107031000Y-71547000D01*
X107044000Y-71502000D01*
X107060000Y-71457000D01*
X107078000Y-71414000D01*
X107098000Y-71371000D01*
X107121000Y-71330000D01*
X107145000Y-71290000D01*
X107172000Y-71251000D01*
X107201000Y-71214000D01*
X107231000Y-71178000D01*
X107264000Y-71144000D01*
X107298000Y-71111000D01*
X107334000Y-71081000D01*
X107371000Y-71052000D01*
X107410000Y-71025000D01*
X107450000Y-71001000D01*
X107491000Y-70978000D01*
X107534000Y-70958000D01*
X107577000Y-70940000D01*
X107622000Y-70924000D01*
X107667000Y-70911000D01*
X107713000Y-70900000D01*
X107759000Y-70891000D01*
X107806000Y-70885000D01*
X107853000Y-70881000D01*
X107900000Y-70880000D01*
X110400000Y-70880000D01*
X110400000Y-72680000D01*
G36*
X110400000Y-72680000D02*
G01*
X107900000Y-72680000D01*
X107853000Y-72679000D01*
X107806000Y-72675000D01*
X107759000Y-72669000D01*
X107713000Y-72660000D01*
X107667000Y-72649000D01*
X107622000Y-72636000D01*
X107577000Y-72620000D01*
X107534000Y-72602000D01*
X107491000Y-72582000D01*
X107450000Y-72559000D01*
X107410000Y-72535000D01*
X107371000Y-72508000D01*
X107334000Y-72479000D01*
X107298000Y-72449000D01*
X107264000Y-72416000D01*
X107231000Y-72382000D01*
X107201000Y-72346000D01*
X107172000Y-72309000D01*
X107145000Y-72270000D01*
X107121000Y-72230000D01*
X107098000Y-72189000D01*
X107078000Y-72146000D01*
X107060000Y-72103000D01*
X107044000Y-72058000D01*
X107031000Y-72013000D01*
X107020000Y-71967000D01*
X107011000Y-71921000D01*
X107005000Y-71874000D01*
X107001000Y-71827000D01*
X107000000Y-71780000D01*
X107001000Y-71733000D01*
X107005000Y-71686000D01*
X107011000Y-71639000D01*
X107020000Y-71593000D01*
X107031000Y-71547000D01*
X107044000Y-71502000D01*
X107060000Y-71457000D01*
X107078000Y-71414000D01*
X107098000Y-71371000D01*
X107121000Y-71330000D01*
X107145000Y-71290000D01*
X107172000Y-71251000D01*
X107201000Y-71214000D01*
X107231000Y-71178000D01*
X107264000Y-71144000D01*
X107298000Y-71111000D01*
X107334000Y-71081000D01*
X107371000Y-71052000D01*
X107410000Y-71025000D01*
X107450000Y-71001000D01*
X107491000Y-70978000D01*
X107534000Y-70958000D01*
X107577000Y-70940000D01*
X107622000Y-70924000D01*
X107667000Y-70911000D01*
X107713000Y-70900000D01*
X107759000Y-70891000D01*
X107806000Y-70885000D01*
X107853000Y-70881000D01*
X107900000Y-70880000D01*
X110400000Y-70880000D01*
X110400000Y-72680000D01*
G37*
X110400000Y-75220000D02*
X107900000Y-75220000D01*
X107853000Y-75219000D01*
X107806000Y-75215000D01*
X107759000Y-75209000D01*
X107713000Y-75200000D01*
X107667000Y-75189000D01*
X107622000Y-75176000D01*
X107577000Y-75160000D01*
X107534000Y-75142000D01*
X107491000Y-75122000D01*
X107450000Y-75099000D01*
X107410000Y-75075000D01*
X107371000Y-75048000D01*
X107334000Y-75019000D01*
X107298000Y-74989000D01*
X107264000Y-74956000D01*
X107231000Y-74922000D01*
X107201000Y-74886000D01*
X107172000Y-74849000D01*
X107145000Y-74810000D01*
X107121000Y-74770000D01*
X107098000Y-74729000D01*
X107078000Y-74686000D01*
X107060000Y-74643000D01*
X107044000Y-74598000D01*
X107031000Y-74553000D01*
X107020000Y-74507000D01*
X107011000Y-74461000D01*
X107005000Y-74414000D01*
X107001000Y-74367000D01*
X107000000Y-74320000D01*
X107001000Y-74273000D01*
X107005000Y-74226000D01*
X107011000Y-74179000D01*
X107020000Y-74133000D01*
X107031000Y-74087000D01*
X107044000Y-74042000D01*
X107060000Y-73997000D01*
X107078000Y-73954000D01*
X107098000Y-73911000D01*
X107121000Y-73870000D01*
X107145000Y-73830000D01*
X107172000Y-73791000D01*
X107201000Y-73754000D01*
X107231000Y-73718000D01*
X107264000Y-73684000D01*
X107298000Y-73651000D01*
X107334000Y-73621000D01*
X107371000Y-73592000D01*
X107410000Y-73565000D01*
X107450000Y-73541000D01*
X107491000Y-73518000D01*
X107534000Y-73498000D01*
X107577000Y-73480000D01*
X107622000Y-73464000D01*
X107667000Y-73451000D01*
X107713000Y-73440000D01*
X107759000Y-73431000D01*
X107806000Y-73425000D01*
X107853000Y-73421000D01*
X107900000Y-73420000D01*
X110400000Y-73420000D01*
X110400000Y-75220000D01*
G36*
X110400000Y-75220000D02*
G01*
X107900000Y-75220000D01*
X107853000Y-75219000D01*
X107806000Y-75215000D01*
X107759000Y-75209000D01*
X107713000Y-75200000D01*
X107667000Y-75189000D01*
X107622000Y-75176000D01*
X107577000Y-75160000D01*
X107534000Y-75142000D01*
X107491000Y-75122000D01*
X107450000Y-75099000D01*
X107410000Y-75075000D01*
X107371000Y-75048000D01*
X107334000Y-75019000D01*
X107298000Y-74989000D01*
X107264000Y-74956000D01*
X107231000Y-74922000D01*
X107201000Y-74886000D01*
X107172000Y-74849000D01*
X107145000Y-74810000D01*
X107121000Y-74770000D01*
X107098000Y-74729000D01*
X107078000Y-74686000D01*
X107060000Y-74643000D01*
X107044000Y-74598000D01*
X107031000Y-74553000D01*
X107020000Y-74507000D01*
X107011000Y-74461000D01*
X107005000Y-74414000D01*
X107001000Y-74367000D01*
X107000000Y-74320000D01*
X107001000Y-74273000D01*
X107005000Y-74226000D01*
X107011000Y-74179000D01*
X107020000Y-74133000D01*
X107031000Y-74087000D01*
X107044000Y-74042000D01*
X107060000Y-73997000D01*
X107078000Y-73954000D01*
X107098000Y-73911000D01*
X107121000Y-73870000D01*
X107145000Y-73830000D01*
X107172000Y-73791000D01*
X107201000Y-73754000D01*
X107231000Y-73718000D01*
X107264000Y-73684000D01*
X107298000Y-73651000D01*
X107334000Y-73621000D01*
X107371000Y-73592000D01*
X107410000Y-73565000D01*
X107450000Y-73541000D01*
X107491000Y-73518000D01*
X107534000Y-73498000D01*
X107577000Y-73480000D01*
X107622000Y-73464000D01*
X107667000Y-73451000D01*
X107713000Y-73440000D01*
X107759000Y-73431000D01*
X107806000Y-73425000D01*
X107853000Y-73421000D01*
X107900000Y-73420000D01*
X110400000Y-73420000D01*
X110400000Y-75220000D01*
G37*
X110400000Y-77760000D02*
X107900000Y-77760000D01*
X107853000Y-77759000D01*
X107806000Y-77755000D01*
X107759000Y-77749000D01*
X107713000Y-77740000D01*
X107667000Y-77729000D01*
X107622000Y-77716000D01*
X107577000Y-77700000D01*
X107534000Y-77682000D01*
X107491000Y-77662000D01*
X107450000Y-77639000D01*
X107410000Y-77615000D01*
X107371000Y-77588000D01*
X107334000Y-77559000D01*
X107298000Y-77529000D01*
X107264000Y-77496000D01*
X107231000Y-77462000D01*
X107201000Y-77426000D01*
X107172000Y-77389000D01*
X107145000Y-77350000D01*
X107121000Y-77310000D01*
X107098000Y-77269000D01*
X107078000Y-77226000D01*
X107060000Y-77183000D01*
X107044000Y-77138000D01*
X107031000Y-77093000D01*
X107020000Y-77047000D01*
X107011000Y-77001000D01*
X107005000Y-76954000D01*
X107001000Y-76907000D01*
X107000000Y-76860000D01*
X107001000Y-76813000D01*
X107005000Y-76766000D01*
X107011000Y-76719000D01*
X107020000Y-76673000D01*
X107031000Y-76627000D01*
X107044000Y-76582000D01*
X107060000Y-76537000D01*
X107078000Y-76494000D01*
X107098000Y-76451000D01*
X107121000Y-76410000D01*
X107145000Y-76370000D01*
X107172000Y-76331000D01*
X107201000Y-76294000D01*
X107231000Y-76258000D01*
X107264000Y-76224000D01*
X107298000Y-76191000D01*
X107334000Y-76161000D01*
X107371000Y-76132000D01*
X107410000Y-76105000D01*
X107450000Y-76081000D01*
X107491000Y-76058000D01*
X107534000Y-76038000D01*
X107577000Y-76020000D01*
X107622000Y-76004000D01*
X107667000Y-75991000D01*
X107713000Y-75980000D01*
X107759000Y-75971000D01*
X107806000Y-75965000D01*
X107853000Y-75961000D01*
X107900000Y-75960000D01*
X110400000Y-75960000D01*
X110400000Y-77760000D01*
G36*
X110400000Y-77760000D02*
G01*
X107900000Y-77760000D01*
X107853000Y-77759000D01*
X107806000Y-77755000D01*
X107759000Y-77749000D01*
X107713000Y-77740000D01*
X107667000Y-77729000D01*
X107622000Y-77716000D01*
X107577000Y-77700000D01*
X107534000Y-77682000D01*
X107491000Y-77662000D01*
X107450000Y-77639000D01*
X107410000Y-77615000D01*
X107371000Y-77588000D01*
X107334000Y-77559000D01*
X107298000Y-77529000D01*
X107264000Y-77496000D01*
X107231000Y-77462000D01*
X107201000Y-77426000D01*
X107172000Y-77389000D01*
X107145000Y-77350000D01*
X107121000Y-77310000D01*
X107098000Y-77269000D01*
X107078000Y-77226000D01*
X107060000Y-77183000D01*
X107044000Y-77138000D01*
X107031000Y-77093000D01*
X107020000Y-77047000D01*
X107011000Y-77001000D01*
X107005000Y-76954000D01*
X107001000Y-76907000D01*
X107000000Y-76860000D01*
X107001000Y-76813000D01*
X107005000Y-76766000D01*
X107011000Y-76719000D01*
X107020000Y-76673000D01*
X107031000Y-76627000D01*
X107044000Y-76582000D01*
X107060000Y-76537000D01*
X107078000Y-76494000D01*
X107098000Y-76451000D01*
X107121000Y-76410000D01*
X107145000Y-76370000D01*
X107172000Y-76331000D01*
X107201000Y-76294000D01*
X107231000Y-76258000D01*
X107264000Y-76224000D01*
X107298000Y-76191000D01*
X107334000Y-76161000D01*
X107371000Y-76132000D01*
X107410000Y-76105000D01*
X107450000Y-76081000D01*
X107491000Y-76058000D01*
X107534000Y-76038000D01*
X107577000Y-76020000D01*
X107622000Y-76004000D01*
X107667000Y-75991000D01*
X107713000Y-75980000D01*
X107759000Y-75971000D01*
X107806000Y-75965000D01*
X107853000Y-75961000D01*
X107900000Y-75960000D01*
X110400000Y-75960000D01*
X110400000Y-77760000D01*
G37*
X110400000Y-82840000D02*
X107900000Y-82840000D01*
X107853000Y-82839000D01*
X107806000Y-82835000D01*
X107759000Y-82829000D01*
X107713000Y-82820000D01*
X107667000Y-82809000D01*
X107622000Y-82796000D01*
X107577000Y-82780000D01*
X107534000Y-82762000D01*
X107491000Y-82742000D01*
X107450000Y-82719000D01*
X107410000Y-82695000D01*
X107371000Y-82668000D01*
X107334000Y-82639000D01*
X107298000Y-82609000D01*
X107264000Y-82576000D01*
X107231000Y-82542000D01*
X107201000Y-82506000D01*
X107172000Y-82469000D01*
X107145000Y-82430000D01*
X107121000Y-82390000D01*
X107098000Y-82349000D01*
X107078000Y-82306000D01*
X107060000Y-82263000D01*
X107044000Y-82218000D01*
X107031000Y-82173000D01*
X107020000Y-82127000D01*
X107011000Y-82081000D01*
X107005000Y-82034000D01*
X107001000Y-81987000D01*
X107000000Y-81940000D01*
X107001000Y-81893000D01*
X107005000Y-81846000D01*
X107011000Y-81799000D01*
X107020000Y-81753000D01*
X107031000Y-81707000D01*
X107044000Y-81662000D01*
X107060000Y-81617000D01*
X107078000Y-81574000D01*
X107098000Y-81531000D01*
X107121000Y-81490000D01*
X107145000Y-81450000D01*
X107172000Y-81411000D01*
X107201000Y-81374000D01*
X107231000Y-81338000D01*
X107264000Y-81304000D01*
X107298000Y-81271000D01*
X107334000Y-81241000D01*
X107371000Y-81212000D01*
X107410000Y-81185000D01*
X107450000Y-81161000D01*
X107491000Y-81138000D01*
X107534000Y-81118000D01*
X107577000Y-81100000D01*
X107622000Y-81084000D01*
X107667000Y-81071000D01*
X107713000Y-81060000D01*
X107759000Y-81051000D01*
X107806000Y-81045000D01*
X107853000Y-81041000D01*
X107900000Y-81040000D01*
X110400000Y-81040000D01*
X110400000Y-82840000D01*
G36*
X110400000Y-82840000D02*
G01*
X107900000Y-82840000D01*
X107853000Y-82839000D01*
X107806000Y-82835000D01*
X107759000Y-82829000D01*
X107713000Y-82820000D01*
X107667000Y-82809000D01*
X107622000Y-82796000D01*
X107577000Y-82780000D01*
X107534000Y-82762000D01*
X107491000Y-82742000D01*
X107450000Y-82719000D01*
X107410000Y-82695000D01*
X107371000Y-82668000D01*
X107334000Y-82639000D01*
X107298000Y-82609000D01*
X107264000Y-82576000D01*
X107231000Y-82542000D01*
X107201000Y-82506000D01*
X107172000Y-82469000D01*
X107145000Y-82430000D01*
X107121000Y-82390000D01*
X107098000Y-82349000D01*
X107078000Y-82306000D01*
X107060000Y-82263000D01*
X107044000Y-82218000D01*
X107031000Y-82173000D01*
X107020000Y-82127000D01*
X107011000Y-82081000D01*
X107005000Y-82034000D01*
X107001000Y-81987000D01*
X107000000Y-81940000D01*
X107001000Y-81893000D01*
X107005000Y-81846000D01*
X107011000Y-81799000D01*
X107020000Y-81753000D01*
X107031000Y-81707000D01*
X107044000Y-81662000D01*
X107060000Y-81617000D01*
X107078000Y-81574000D01*
X107098000Y-81531000D01*
X107121000Y-81490000D01*
X107145000Y-81450000D01*
X107172000Y-81411000D01*
X107201000Y-81374000D01*
X107231000Y-81338000D01*
X107264000Y-81304000D01*
X107298000Y-81271000D01*
X107334000Y-81241000D01*
X107371000Y-81212000D01*
X107410000Y-81185000D01*
X107450000Y-81161000D01*
X107491000Y-81138000D01*
X107534000Y-81118000D01*
X107577000Y-81100000D01*
X107622000Y-81084000D01*
X107667000Y-81071000D01*
X107713000Y-81060000D01*
X107759000Y-81051000D01*
X107806000Y-81045000D01*
X107853000Y-81041000D01*
X107900000Y-81040000D01*
X110400000Y-81040000D01*
X110400000Y-82840000D01*
G37*
X110400000Y-85380000D02*
X107900000Y-85380000D01*
X107853000Y-85379000D01*
X107806000Y-85375000D01*
X107759000Y-85369000D01*
X107713000Y-85360000D01*
X107667000Y-85349000D01*
X107622000Y-85336000D01*
X107577000Y-85320000D01*
X107534000Y-85302000D01*
X107491000Y-85282000D01*
X107450000Y-85259000D01*
X107410000Y-85235000D01*
X107371000Y-85208000D01*
X107334000Y-85179000D01*
X107298000Y-85149000D01*
X107264000Y-85116000D01*
X107231000Y-85082000D01*
X107201000Y-85046000D01*
X107172000Y-85009000D01*
X107145000Y-84970000D01*
X107121000Y-84930000D01*
X107098000Y-84889000D01*
X107078000Y-84846000D01*
X107060000Y-84803000D01*
X107044000Y-84758000D01*
X107031000Y-84713000D01*
X107020000Y-84667000D01*
X107011000Y-84621000D01*
X107005000Y-84574000D01*
X107001000Y-84527000D01*
X107000000Y-84480000D01*
X107001000Y-84433000D01*
X107005000Y-84386000D01*
X107011000Y-84339000D01*
X107020000Y-84293000D01*
X107031000Y-84247000D01*
X107044000Y-84202000D01*
X107060000Y-84157000D01*
X107078000Y-84114000D01*
X107098000Y-84071000D01*
X107121000Y-84030000D01*
X107145000Y-83990000D01*
X107172000Y-83951000D01*
X107201000Y-83914000D01*
X107231000Y-83878000D01*
X107264000Y-83844000D01*
X107298000Y-83811000D01*
X107334000Y-83781000D01*
X107371000Y-83752000D01*
X107410000Y-83725000D01*
X107450000Y-83701000D01*
X107491000Y-83678000D01*
X107534000Y-83658000D01*
X107577000Y-83640000D01*
X107622000Y-83624000D01*
X107667000Y-83611000D01*
X107713000Y-83600000D01*
X107759000Y-83591000D01*
X107806000Y-83585000D01*
X107853000Y-83581000D01*
X107900000Y-83580000D01*
X110400000Y-83580000D01*
X110400000Y-85380000D01*
G36*
X110400000Y-85380000D02*
G01*
X107900000Y-85380000D01*
X107853000Y-85379000D01*
X107806000Y-85375000D01*
X107759000Y-85369000D01*
X107713000Y-85360000D01*
X107667000Y-85349000D01*
X107622000Y-85336000D01*
X107577000Y-85320000D01*
X107534000Y-85302000D01*
X107491000Y-85282000D01*
X107450000Y-85259000D01*
X107410000Y-85235000D01*
X107371000Y-85208000D01*
X107334000Y-85179000D01*
X107298000Y-85149000D01*
X107264000Y-85116000D01*
X107231000Y-85082000D01*
X107201000Y-85046000D01*
X107172000Y-85009000D01*
X107145000Y-84970000D01*
X107121000Y-84930000D01*
X107098000Y-84889000D01*
X107078000Y-84846000D01*
X107060000Y-84803000D01*
X107044000Y-84758000D01*
X107031000Y-84713000D01*
X107020000Y-84667000D01*
X107011000Y-84621000D01*
X107005000Y-84574000D01*
X107001000Y-84527000D01*
X107000000Y-84480000D01*
X107001000Y-84433000D01*
X107005000Y-84386000D01*
X107011000Y-84339000D01*
X107020000Y-84293000D01*
X107031000Y-84247000D01*
X107044000Y-84202000D01*
X107060000Y-84157000D01*
X107078000Y-84114000D01*
X107098000Y-84071000D01*
X107121000Y-84030000D01*
X107145000Y-83990000D01*
X107172000Y-83951000D01*
X107201000Y-83914000D01*
X107231000Y-83878000D01*
X107264000Y-83844000D01*
X107298000Y-83811000D01*
X107334000Y-83781000D01*
X107371000Y-83752000D01*
X107410000Y-83725000D01*
X107450000Y-83701000D01*
X107491000Y-83678000D01*
X107534000Y-83658000D01*
X107577000Y-83640000D01*
X107622000Y-83624000D01*
X107667000Y-83611000D01*
X107713000Y-83600000D01*
X107759000Y-83591000D01*
X107806000Y-83585000D01*
X107853000Y-83581000D01*
X107900000Y-83580000D01*
X110400000Y-83580000D01*
X110400000Y-85380000D01*
G37*
X110400000Y-87920000D02*
X107900000Y-87920000D01*
X107853000Y-87919000D01*
X107806000Y-87915000D01*
X107759000Y-87909000D01*
X107713000Y-87900000D01*
X107667000Y-87889000D01*
X107622000Y-87876000D01*
X107577000Y-87860000D01*
X107534000Y-87842000D01*
X107491000Y-87822000D01*
X107450000Y-87799000D01*
X107410000Y-87775000D01*
X107371000Y-87748000D01*
X107334000Y-87719000D01*
X107298000Y-87689000D01*
X107264000Y-87656000D01*
X107231000Y-87622000D01*
X107201000Y-87586000D01*
X107172000Y-87549000D01*
X107145000Y-87510000D01*
X107121000Y-87470000D01*
X107098000Y-87429000D01*
X107078000Y-87386000D01*
X107060000Y-87343000D01*
X107044000Y-87298000D01*
X107031000Y-87253000D01*
X107020000Y-87207000D01*
X107011000Y-87161000D01*
X107005000Y-87114000D01*
X107001000Y-87067000D01*
X107000000Y-87020000D01*
X107001000Y-86973000D01*
X107005000Y-86926000D01*
X107011000Y-86879000D01*
X107020000Y-86833000D01*
X107031000Y-86787000D01*
X107044000Y-86742000D01*
X107060000Y-86697000D01*
X107078000Y-86654000D01*
X107098000Y-86611000D01*
X107121000Y-86570000D01*
X107145000Y-86530000D01*
X107172000Y-86491000D01*
X107201000Y-86454000D01*
X107231000Y-86418000D01*
X107264000Y-86384000D01*
X107298000Y-86351000D01*
X107334000Y-86321000D01*
X107371000Y-86292000D01*
X107410000Y-86265000D01*
X107450000Y-86241000D01*
X107491000Y-86218000D01*
X107534000Y-86198000D01*
X107577000Y-86180000D01*
X107622000Y-86164000D01*
X107667000Y-86151000D01*
X107713000Y-86140000D01*
X107759000Y-86131000D01*
X107806000Y-86125000D01*
X107853000Y-86121000D01*
X107900000Y-86120000D01*
X110400000Y-86120000D01*
X110400000Y-87920000D01*
G36*
X110400000Y-87920000D02*
G01*
X107900000Y-87920000D01*
X107853000Y-87919000D01*
X107806000Y-87915000D01*
X107759000Y-87909000D01*
X107713000Y-87900000D01*
X107667000Y-87889000D01*
X107622000Y-87876000D01*
X107577000Y-87860000D01*
X107534000Y-87842000D01*
X107491000Y-87822000D01*
X107450000Y-87799000D01*
X107410000Y-87775000D01*
X107371000Y-87748000D01*
X107334000Y-87719000D01*
X107298000Y-87689000D01*
X107264000Y-87656000D01*
X107231000Y-87622000D01*
X107201000Y-87586000D01*
X107172000Y-87549000D01*
X107145000Y-87510000D01*
X107121000Y-87470000D01*
X107098000Y-87429000D01*
X107078000Y-87386000D01*
X107060000Y-87343000D01*
X107044000Y-87298000D01*
X107031000Y-87253000D01*
X107020000Y-87207000D01*
X107011000Y-87161000D01*
X107005000Y-87114000D01*
X107001000Y-87067000D01*
X107000000Y-87020000D01*
X107001000Y-86973000D01*
X107005000Y-86926000D01*
X107011000Y-86879000D01*
X107020000Y-86833000D01*
X107031000Y-86787000D01*
X107044000Y-86742000D01*
X107060000Y-86697000D01*
X107078000Y-86654000D01*
X107098000Y-86611000D01*
X107121000Y-86570000D01*
X107145000Y-86530000D01*
X107172000Y-86491000D01*
X107201000Y-86454000D01*
X107231000Y-86418000D01*
X107264000Y-86384000D01*
X107298000Y-86351000D01*
X107334000Y-86321000D01*
X107371000Y-86292000D01*
X107410000Y-86265000D01*
X107450000Y-86241000D01*
X107491000Y-86218000D01*
X107534000Y-86198000D01*
X107577000Y-86180000D01*
X107622000Y-86164000D01*
X107667000Y-86151000D01*
X107713000Y-86140000D01*
X107759000Y-86131000D01*
X107806000Y-86125000D01*
X107853000Y-86121000D01*
X107900000Y-86120000D01*
X110400000Y-86120000D01*
X110400000Y-87920000D01*
G37*
X110400000Y-90460000D02*
X107900000Y-90460000D01*
X107853000Y-90459000D01*
X107806000Y-90455000D01*
X107759000Y-90449000D01*
X107713000Y-90440000D01*
X107667000Y-90429000D01*
X107622000Y-90416000D01*
X107577000Y-90400000D01*
X107534000Y-90382000D01*
X107491000Y-90362000D01*
X107450000Y-90339000D01*
X107410000Y-90315000D01*
X107371000Y-90288000D01*
X107334000Y-90259000D01*
X107298000Y-90229000D01*
X107264000Y-90196000D01*
X107231000Y-90162000D01*
X107201000Y-90126000D01*
X107172000Y-90089000D01*
X107145000Y-90050000D01*
X107121000Y-90010000D01*
X107098000Y-89969000D01*
X107078000Y-89926000D01*
X107060000Y-89883000D01*
X107044000Y-89838000D01*
X107031000Y-89793000D01*
X107020000Y-89747000D01*
X107011000Y-89701000D01*
X107005000Y-89654000D01*
X107001000Y-89607000D01*
X107000000Y-89560000D01*
X107001000Y-89513000D01*
X107005000Y-89466000D01*
X107011000Y-89419000D01*
X107020000Y-89373000D01*
X107031000Y-89327000D01*
X107044000Y-89282000D01*
X107060000Y-89237000D01*
X107078000Y-89194000D01*
X107098000Y-89151000D01*
X107121000Y-89110000D01*
X107145000Y-89070000D01*
X107172000Y-89031000D01*
X107201000Y-88994000D01*
X107231000Y-88958000D01*
X107264000Y-88924000D01*
X107298000Y-88891000D01*
X107334000Y-88861000D01*
X107371000Y-88832000D01*
X107410000Y-88805000D01*
X107450000Y-88781000D01*
X107491000Y-88758000D01*
X107534000Y-88738000D01*
X107577000Y-88720000D01*
X107622000Y-88704000D01*
X107667000Y-88691000D01*
X107713000Y-88680000D01*
X107759000Y-88671000D01*
X107806000Y-88665000D01*
X107853000Y-88661000D01*
X107900000Y-88660000D01*
X110400000Y-88660000D01*
X110400000Y-90460000D01*
G36*
X110400000Y-90460000D02*
G01*
X107900000Y-90460000D01*
X107853000Y-90459000D01*
X107806000Y-90455000D01*
X107759000Y-90449000D01*
X107713000Y-90440000D01*
X107667000Y-90429000D01*
X107622000Y-90416000D01*
X107577000Y-90400000D01*
X107534000Y-90382000D01*
X107491000Y-90362000D01*
X107450000Y-90339000D01*
X107410000Y-90315000D01*
X107371000Y-90288000D01*
X107334000Y-90259000D01*
X107298000Y-90229000D01*
X107264000Y-90196000D01*
X107231000Y-90162000D01*
X107201000Y-90126000D01*
X107172000Y-90089000D01*
X107145000Y-90050000D01*
X107121000Y-90010000D01*
X107098000Y-89969000D01*
X107078000Y-89926000D01*
X107060000Y-89883000D01*
X107044000Y-89838000D01*
X107031000Y-89793000D01*
X107020000Y-89747000D01*
X107011000Y-89701000D01*
X107005000Y-89654000D01*
X107001000Y-89607000D01*
X107000000Y-89560000D01*
X107001000Y-89513000D01*
X107005000Y-89466000D01*
X107011000Y-89419000D01*
X107020000Y-89373000D01*
X107031000Y-89327000D01*
X107044000Y-89282000D01*
X107060000Y-89237000D01*
X107078000Y-89194000D01*
X107098000Y-89151000D01*
X107121000Y-89110000D01*
X107145000Y-89070000D01*
X107172000Y-89031000D01*
X107201000Y-88994000D01*
X107231000Y-88958000D01*
X107264000Y-88924000D01*
X107298000Y-88891000D01*
X107334000Y-88861000D01*
X107371000Y-88832000D01*
X107410000Y-88805000D01*
X107450000Y-88781000D01*
X107491000Y-88758000D01*
X107534000Y-88738000D01*
X107577000Y-88720000D01*
X107622000Y-88704000D01*
X107667000Y-88691000D01*
X107713000Y-88680000D01*
X107759000Y-88671000D01*
X107806000Y-88665000D01*
X107853000Y-88661000D01*
X107900000Y-88660000D01*
X110400000Y-88660000D01*
X110400000Y-90460000D01*
G37*
X110400000Y-95540000D02*
X107900000Y-95540000D01*
X107853000Y-95539000D01*
X107806000Y-95535000D01*
X107759000Y-95529000D01*
X107713000Y-95520000D01*
X107667000Y-95509000D01*
X107622000Y-95496000D01*
X107577000Y-95480000D01*
X107534000Y-95462000D01*
X107491000Y-95442000D01*
X107450000Y-95419000D01*
X107410000Y-95395000D01*
X107371000Y-95368000D01*
X107334000Y-95339000D01*
X107298000Y-95309000D01*
X107264000Y-95276000D01*
X107231000Y-95242000D01*
X107201000Y-95206000D01*
X107172000Y-95169000D01*
X107145000Y-95130000D01*
X107121000Y-95090000D01*
X107098000Y-95049000D01*
X107078000Y-95006000D01*
X107060000Y-94963000D01*
X107044000Y-94918000D01*
X107031000Y-94873000D01*
X107020000Y-94827000D01*
X107011000Y-94781000D01*
X107005000Y-94734000D01*
X107001000Y-94687000D01*
X107000000Y-94640000D01*
X107001000Y-94593000D01*
X107005000Y-94546000D01*
X107011000Y-94499000D01*
X107020000Y-94453000D01*
X107031000Y-94407000D01*
X107044000Y-94362000D01*
X107060000Y-94317000D01*
X107078000Y-94274000D01*
X107098000Y-94231000D01*
X107121000Y-94190000D01*
X107145000Y-94150000D01*
X107172000Y-94111000D01*
X107201000Y-94074000D01*
X107231000Y-94038000D01*
X107264000Y-94004000D01*
X107298000Y-93971000D01*
X107334000Y-93941000D01*
X107371000Y-93912000D01*
X107410000Y-93885000D01*
X107450000Y-93861000D01*
X107491000Y-93838000D01*
X107534000Y-93818000D01*
X107577000Y-93800000D01*
X107622000Y-93784000D01*
X107667000Y-93771000D01*
X107713000Y-93760000D01*
X107759000Y-93751000D01*
X107806000Y-93745000D01*
X107853000Y-93741000D01*
X107900000Y-93740000D01*
X110400000Y-93740000D01*
X110400000Y-95540000D01*
G36*
X110400000Y-95540000D02*
G01*
X107900000Y-95540000D01*
X107853000Y-95539000D01*
X107806000Y-95535000D01*
X107759000Y-95529000D01*
X107713000Y-95520000D01*
X107667000Y-95509000D01*
X107622000Y-95496000D01*
X107577000Y-95480000D01*
X107534000Y-95462000D01*
X107491000Y-95442000D01*
X107450000Y-95419000D01*
X107410000Y-95395000D01*
X107371000Y-95368000D01*
X107334000Y-95339000D01*
X107298000Y-95309000D01*
X107264000Y-95276000D01*
X107231000Y-95242000D01*
X107201000Y-95206000D01*
X107172000Y-95169000D01*
X107145000Y-95130000D01*
X107121000Y-95090000D01*
X107098000Y-95049000D01*
X107078000Y-95006000D01*
X107060000Y-94963000D01*
X107044000Y-94918000D01*
X107031000Y-94873000D01*
X107020000Y-94827000D01*
X107011000Y-94781000D01*
X107005000Y-94734000D01*
X107001000Y-94687000D01*
X107000000Y-94640000D01*
X107001000Y-94593000D01*
X107005000Y-94546000D01*
X107011000Y-94499000D01*
X107020000Y-94453000D01*
X107031000Y-94407000D01*
X107044000Y-94362000D01*
X107060000Y-94317000D01*
X107078000Y-94274000D01*
X107098000Y-94231000D01*
X107121000Y-94190000D01*
X107145000Y-94150000D01*
X107172000Y-94111000D01*
X107201000Y-94074000D01*
X107231000Y-94038000D01*
X107264000Y-94004000D01*
X107298000Y-93971000D01*
X107334000Y-93941000D01*
X107371000Y-93912000D01*
X107410000Y-93885000D01*
X107450000Y-93861000D01*
X107491000Y-93838000D01*
X107534000Y-93818000D01*
X107577000Y-93800000D01*
X107622000Y-93784000D01*
X107667000Y-93771000D01*
X107713000Y-93760000D01*
X107759000Y-93751000D01*
X107806000Y-93745000D01*
X107853000Y-93741000D01*
X107900000Y-93740000D01*
X110400000Y-93740000D01*
X110400000Y-95540000D01*
G37*
X110400000Y-98080000D02*
X107900000Y-98080000D01*
X107853000Y-98079000D01*
X107806000Y-98075000D01*
X107759000Y-98069000D01*
X107713000Y-98060000D01*
X107667000Y-98049000D01*
X107622000Y-98036000D01*
X107577000Y-98020000D01*
X107534000Y-98002000D01*
X107491000Y-97982000D01*
X107450000Y-97959000D01*
X107410000Y-97935000D01*
X107371000Y-97908000D01*
X107334000Y-97879000D01*
X107298000Y-97849000D01*
X107264000Y-97816000D01*
X107231000Y-97782000D01*
X107201000Y-97746000D01*
X107172000Y-97709000D01*
X107145000Y-97670000D01*
X107121000Y-97630000D01*
X107098000Y-97589000D01*
X107078000Y-97546000D01*
X107060000Y-97503000D01*
X107044000Y-97458000D01*
X107031000Y-97413000D01*
X107020000Y-97367000D01*
X107011000Y-97321000D01*
X107005000Y-97274000D01*
X107001000Y-97227000D01*
X107000000Y-97180000D01*
X107001000Y-97133000D01*
X107005000Y-97086000D01*
X107011000Y-97039000D01*
X107020000Y-96993000D01*
X107031000Y-96947000D01*
X107044000Y-96902000D01*
X107060000Y-96857000D01*
X107078000Y-96814000D01*
X107098000Y-96771000D01*
X107121000Y-96730000D01*
X107145000Y-96690000D01*
X107172000Y-96651000D01*
X107201000Y-96614000D01*
X107231000Y-96578000D01*
X107264000Y-96544000D01*
X107298000Y-96511000D01*
X107334000Y-96481000D01*
X107371000Y-96452000D01*
X107410000Y-96425000D01*
X107450000Y-96401000D01*
X107491000Y-96378000D01*
X107534000Y-96358000D01*
X107577000Y-96340000D01*
X107622000Y-96324000D01*
X107667000Y-96311000D01*
X107713000Y-96300000D01*
X107759000Y-96291000D01*
X107806000Y-96285000D01*
X107853000Y-96281000D01*
X107900000Y-96280000D01*
X110400000Y-96280000D01*
X110400000Y-98080000D01*
G36*
X110400000Y-98080000D02*
G01*
X107900000Y-98080000D01*
X107853000Y-98079000D01*
X107806000Y-98075000D01*
X107759000Y-98069000D01*
X107713000Y-98060000D01*
X107667000Y-98049000D01*
X107622000Y-98036000D01*
X107577000Y-98020000D01*
X107534000Y-98002000D01*
X107491000Y-97982000D01*
X107450000Y-97959000D01*
X107410000Y-97935000D01*
X107371000Y-97908000D01*
X107334000Y-97879000D01*
X107298000Y-97849000D01*
X107264000Y-97816000D01*
X107231000Y-97782000D01*
X107201000Y-97746000D01*
X107172000Y-97709000D01*
X107145000Y-97670000D01*
X107121000Y-97630000D01*
X107098000Y-97589000D01*
X107078000Y-97546000D01*
X107060000Y-97503000D01*
X107044000Y-97458000D01*
X107031000Y-97413000D01*
X107020000Y-97367000D01*
X107011000Y-97321000D01*
X107005000Y-97274000D01*
X107001000Y-97227000D01*
X107000000Y-97180000D01*
X107001000Y-97133000D01*
X107005000Y-97086000D01*
X107011000Y-97039000D01*
X107020000Y-96993000D01*
X107031000Y-96947000D01*
X107044000Y-96902000D01*
X107060000Y-96857000D01*
X107078000Y-96814000D01*
X107098000Y-96771000D01*
X107121000Y-96730000D01*
X107145000Y-96690000D01*
X107172000Y-96651000D01*
X107201000Y-96614000D01*
X107231000Y-96578000D01*
X107264000Y-96544000D01*
X107298000Y-96511000D01*
X107334000Y-96481000D01*
X107371000Y-96452000D01*
X107410000Y-96425000D01*
X107450000Y-96401000D01*
X107491000Y-96378000D01*
X107534000Y-96358000D01*
X107577000Y-96340000D01*
X107622000Y-96324000D01*
X107667000Y-96311000D01*
X107713000Y-96300000D01*
X107759000Y-96291000D01*
X107806000Y-96285000D01*
X107853000Y-96281000D01*
X107900000Y-96280000D01*
X110400000Y-96280000D01*
X110400000Y-98080000D01*
G37*
X110400000Y-100620000D02*
X107900000Y-100620000D01*
X107853000Y-100619000D01*
X107806000Y-100615000D01*
X107759000Y-100609000D01*
X107713000Y-100600000D01*
X107667000Y-100589000D01*
X107622000Y-100576000D01*
X107577000Y-100560000D01*
X107534000Y-100542000D01*
X107491000Y-100522000D01*
X107450000Y-100499000D01*
X107410000Y-100475000D01*
X107371000Y-100448000D01*
X107334000Y-100419000D01*
X107298000Y-100389000D01*
X107264000Y-100356000D01*
X107231000Y-100322000D01*
X107201000Y-100286000D01*
X107172000Y-100249000D01*
X107145000Y-100210000D01*
X107121000Y-100170000D01*
X107098000Y-100129000D01*
X107078000Y-100086000D01*
X107060000Y-100043000D01*
X107044000Y-99998000D01*
X107031000Y-99953000D01*
X107020000Y-99907000D01*
X107011000Y-99861000D01*
X107005000Y-99814000D01*
X107001000Y-99767000D01*
X107000000Y-99720000D01*
X107001000Y-99673000D01*
X107005000Y-99626000D01*
X107011000Y-99579000D01*
X107020000Y-99533000D01*
X107031000Y-99487000D01*
X107044000Y-99442000D01*
X107060000Y-99397000D01*
X107078000Y-99354000D01*
X107098000Y-99311000D01*
X107121000Y-99270000D01*
X107145000Y-99230000D01*
X107172000Y-99191000D01*
X107201000Y-99154000D01*
X107231000Y-99118000D01*
X107264000Y-99084000D01*
X107298000Y-99051000D01*
X107334000Y-99021000D01*
X107371000Y-98992000D01*
X107410000Y-98965000D01*
X107450000Y-98941000D01*
X107491000Y-98918000D01*
X107534000Y-98898000D01*
X107577000Y-98880000D01*
X107622000Y-98864000D01*
X107667000Y-98851000D01*
X107713000Y-98840000D01*
X107759000Y-98831000D01*
X107806000Y-98825000D01*
X107853000Y-98821000D01*
X107900000Y-98820000D01*
X110400000Y-98820000D01*
X110400000Y-100620000D01*
G36*
X110400000Y-100620000D02*
G01*
X107900000Y-100620000D01*
X107853000Y-100619000D01*
X107806000Y-100615000D01*
X107759000Y-100609000D01*
X107713000Y-100600000D01*
X107667000Y-100589000D01*
X107622000Y-100576000D01*
X107577000Y-100560000D01*
X107534000Y-100542000D01*
X107491000Y-100522000D01*
X107450000Y-100499000D01*
X107410000Y-100475000D01*
X107371000Y-100448000D01*
X107334000Y-100419000D01*
X107298000Y-100389000D01*
X107264000Y-100356000D01*
X107231000Y-100322000D01*
X107201000Y-100286000D01*
X107172000Y-100249000D01*
X107145000Y-100210000D01*
X107121000Y-100170000D01*
X107098000Y-100129000D01*
X107078000Y-100086000D01*
X107060000Y-100043000D01*
X107044000Y-99998000D01*
X107031000Y-99953000D01*
X107020000Y-99907000D01*
X107011000Y-99861000D01*
X107005000Y-99814000D01*
X107001000Y-99767000D01*
X107000000Y-99720000D01*
X107001000Y-99673000D01*
X107005000Y-99626000D01*
X107011000Y-99579000D01*
X107020000Y-99533000D01*
X107031000Y-99487000D01*
X107044000Y-99442000D01*
X107060000Y-99397000D01*
X107078000Y-99354000D01*
X107098000Y-99311000D01*
X107121000Y-99270000D01*
X107145000Y-99230000D01*
X107172000Y-99191000D01*
X107201000Y-99154000D01*
X107231000Y-99118000D01*
X107264000Y-99084000D01*
X107298000Y-99051000D01*
X107334000Y-99021000D01*
X107371000Y-98992000D01*
X107410000Y-98965000D01*
X107450000Y-98941000D01*
X107491000Y-98918000D01*
X107534000Y-98898000D01*
X107577000Y-98880000D01*
X107622000Y-98864000D01*
X107667000Y-98851000D01*
X107713000Y-98840000D01*
X107759000Y-98831000D01*
X107806000Y-98825000D01*
X107853000Y-98821000D01*
X107900000Y-98820000D01*
X110400000Y-98820000D01*
X110400000Y-100620000D01*
G37*
X110400000Y-103160000D02*
X107900000Y-103160000D01*
X107853000Y-103159000D01*
X107806000Y-103155000D01*
X107759000Y-103149000D01*
X107713000Y-103140000D01*
X107667000Y-103129000D01*
X107622000Y-103116000D01*
X107577000Y-103100000D01*
X107534000Y-103082000D01*
X107491000Y-103062000D01*
X107450000Y-103039000D01*
X107410000Y-103015000D01*
X107371000Y-102988000D01*
X107334000Y-102959000D01*
X107298000Y-102929000D01*
X107264000Y-102896000D01*
X107231000Y-102862000D01*
X107201000Y-102826000D01*
X107172000Y-102789000D01*
X107145000Y-102750000D01*
X107121000Y-102710000D01*
X107098000Y-102669000D01*
X107078000Y-102626000D01*
X107060000Y-102583000D01*
X107044000Y-102538000D01*
X107031000Y-102493000D01*
X107020000Y-102447000D01*
X107011000Y-102401000D01*
X107005000Y-102354000D01*
X107001000Y-102307000D01*
X107000000Y-102260000D01*
X107001000Y-102213000D01*
X107005000Y-102166000D01*
X107011000Y-102119000D01*
X107020000Y-102073000D01*
X107031000Y-102027000D01*
X107044000Y-101982000D01*
X107060000Y-101937000D01*
X107078000Y-101894000D01*
X107098000Y-101851000D01*
X107121000Y-101810000D01*
X107145000Y-101770000D01*
X107172000Y-101731000D01*
X107201000Y-101694000D01*
X107231000Y-101658000D01*
X107264000Y-101624000D01*
X107298000Y-101591000D01*
X107334000Y-101561000D01*
X107371000Y-101532000D01*
X107410000Y-101505000D01*
X107450000Y-101481000D01*
X107491000Y-101458000D01*
X107534000Y-101438000D01*
X107577000Y-101420000D01*
X107622000Y-101404000D01*
X107667000Y-101391000D01*
X107713000Y-101380000D01*
X107759000Y-101371000D01*
X107806000Y-101365000D01*
X107853000Y-101361000D01*
X107900000Y-101360000D01*
X110400000Y-101360000D01*
X110400000Y-103160000D01*
G36*
X110400000Y-103160000D02*
G01*
X107900000Y-103160000D01*
X107853000Y-103159000D01*
X107806000Y-103155000D01*
X107759000Y-103149000D01*
X107713000Y-103140000D01*
X107667000Y-103129000D01*
X107622000Y-103116000D01*
X107577000Y-103100000D01*
X107534000Y-103082000D01*
X107491000Y-103062000D01*
X107450000Y-103039000D01*
X107410000Y-103015000D01*
X107371000Y-102988000D01*
X107334000Y-102959000D01*
X107298000Y-102929000D01*
X107264000Y-102896000D01*
X107231000Y-102862000D01*
X107201000Y-102826000D01*
X107172000Y-102789000D01*
X107145000Y-102750000D01*
X107121000Y-102710000D01*
X107098000Y-102669000D01*
X107078000Y-102626000D01*
X107060000Y-102583000D01*
X107044000Y-102538000D01*
X107031000Y-102493000D01*
X107020000Y-102447000D01*
X107011000Y-102401000D01*
X107005000Y-102354000D01*
X107001000Y-102307000D01*
X107000000Y-102260000D01*
X107001000Y-102213000D01*
X107005000Y-102166000D01*
X107011000Y-102119000D01*
X107020000Y-102073000D01*
X107031000Y-102027000D01*
X107044000Y-101982000D01*
X107060000Y-101937000D01*
X107078000Y-101894000D01*
X107098000Y-101851000D01*
X107121000Y-101810000D01*
X107145000Y-101770000D01*
X107172000Y-101731000D01*
X107201000Y-101694000D01*
X107231000Y-101658000D01*
X107264000Y-101624000D01*
X107298000Y-101591000D01*
X107334000Y-101561000D01*
X107371000Y-101532000D01*
X107410000Y-101505000D01*
X107450000Y-101481000D01*
X107491000Y-101458000D01*
X107534000Y-101438000D01*
X107577000Y-101420000D01*
X107622000Y-101404000D01*
X107667000Y-101391000D01*
X107713000Y-101380000D01*
X107759000Y-101371000D01*
X107806000Y-101365000D01*
X107853000Y-101361000D01*
X107900000Y-101360000D01*
X110400000Y-101360000D01*
X110400000Y-103160000D01*
G37*
X110400000Y-108240000D02*
X107900000Y-108240000D01*
X107853000Y-108239000D01*
X107806000Y-108235000D01*
X107759000Y-108229000D01*
X107713000Y-108220000D01*
X107667000Y-108209000D01*
X107622000Y-108196000D01*
X107577000Y-108180000D01*
X107534000Y-108162000D01*
X107491000Y-108142000D01*
X107450000Y-108119000D01*
X107410000Y-108095000D01*
X107371000Y-108068000D01*
X107334000Y-108039000D01*
X107298000Y-108009000D01*
X107264000Y-107976000D01*
X107231000Y-107942000D01*
X107201000Y-107906000D01*
X107172000Y-107869000D01*
X107145000Y-107830000D01*
X107121000Y-107790000D01*
X107098000Y-107749000D01*
X107078000Y-107706000D01*
X107060000Y-107663000D01*
X107044000Y-107618000D01*
X107031000Y-107573000D01*
X107020000Y-107527000D01*
X107011000Y-107481000D01*
X107005000Y-107434000D01*
X107001000Y-107387000D01*
X107000000Y-107340000D01*
X107001000Y-107293000D01*
X107005000Y-107246000D01*
X107011000Y-107199000D01*
X107020000Y-107153000D01*
X107031000Y-107107000D01*
X107044000Y-107062000D01*
X107060000Y-107017000D01*
X107078000Y-106974000D01*
X107098000Y-106931000D01*
X107121000Y-106890000D01*
X107145000Y-106850000D01*
X107172000Y-106811000D01*
X107201000Y-106774000D01*
X107231000Y-106738000D01*
X107264000Y-106704000D01*
X107298000Y-106671000D01*
X107334000Y-106641000D01*
X107371000Y-106612000D01*
X107410000Y-106585000D01*
X107450000Y-106561000D01*
X107491000Y-106538000D01*
X107534000Y-106518000D01*
X107577000Y-106500000D01*
X107622000Y-106484000D01*
X107667000Y-106471000D01*
X107713000Y-106460000D01*
X107759000Y-106451000D01*
X107806000Y-106445000D01*
X107853000Y-106441000D01*
X107900000Y-106440000D01*
X110400000Y-106440000D01*
X110400000Y-108240000D01*
G36*
X110400000Y-108240000D02*
G01*
X107900000Y-108240000D01*
X107853000Y-108239000D01*
X107806000Y-108235000D01*
X107759000Y-108229000D01*
X107713000Y-108220000D01*
X107667000Y-108209000D01*
X107622000Y-108196000D01*
X107577000Y-108180000D01*
X107534000Y-108162000D01*
X107491000Y-108142000D01*
X107450000Y-108119000D01*
X107410000Y-108095000D01*
X107371000Y-108068000D01*
X107334000Y-108039000D01*
X107298000Y-108009000D01*
X107264000Y-107976000D01*
X107231000Y-107942000D01*
X107201000Y-107906000D01*
X107172000Y-107869000D01*
X107145000Y-107830000D01*
X107121000Y-107790000D01*
X107098000Y-107749000D01*
X107078000Y-107706000D01*
X107060000Y-107663000D01*
X107044000Y-107618000D01*
X107031000Y-107573000D01*
X107020000Y-107527000D01*
X107011000Y-107481000D01*
X107005000Y-107434000D01*
X107001000Y-107387000D01*
X107000000Y-107340000D01*
X107001000Y-107293000D01*
X107005000Y-107246000D01*
X107011000Y-107199000D01*
X107020000Y-107153000D01*
X107031000Y-107107000D01*
X107044000Y-107062000D01*
X107060000Y-107017000D01*
X107078000Y-106974000D01*
X107098000Y-106931000D01*
X107121000Y-106890000D01*
X107145000Y-106850000D01*
X107172000Y-106811000D01*
X107201000Y-106774000D01*
X107231000Y-106738000D01*
X107264000Y-106704000D01*
X107298000Y-106671000D01*
X107334000Y-106641000D01*
X107371000Y-106612000D01*
X107410000Y-106585000D01*
X107450000Y-106561000D01*
X107491000Y-106538000D01*
X107534000Y-106518000D01*
X107577000Y-106500000D01*
X107622000Y-106484000D01*
X107667000Y-106471000D01*
X107713000Y-106460000D01*
X107759000Y-106451000D01*
X107806000Y-106445000D01*
X107853000Y-106441000D01*
X107900000Y-106440000D01*
X110400000Y-106440000D01*
X110400000Y-108240000D01*
G37*
X110400000Y-110780000D02*
X107900000Y-110780000D01*
X107853000Y-110779000D01*
X107806000Y-110775000D01*
X107759000Y-110769000D01*
X107713000Y-110760000D01*
X107667000Y-110749000D01*
X107622000Y-110736000D01*
X107577000Y-110720000D01*
X107534000Y-110702000D01*
X107491000Y-110682000D01*
X107450000Y-110659000D01*
X107410000Y-110635000D01*
X107371000Y-110608000D01*
X107334000Y-110579000D01*
X107298000Y-110549000D01*
X107264000Y-110516000D01*
X107231000Y-110482000D01*
X107201000Y-110446000D01*
X107172000Y-110409000D01*
X107145000Y-110370000D01*
X107121000Y-110330000D01*
X107098000Y-110289000D01*
X107078000Y-110246000D01*
X107060000Y-110203000D01*
X107044000Y-110158000D01*
X107031000Y-110113000D01*
X107020000Y-110067000D01*
X107011000Y-110021000D01*
X107005000Y-109974000D01*
X107001000Y-109927000D01*
X107000000Y-109880000D01*
X107001000Y-109833000D01*
X107005000Y-109786000D01*
X107011000Y-109739000D01*
X107020000Y-109693000D01*
X107031000Y-109647000D01*
X107044000Y-109602000D01*
X107060000Y-109557000D01*
X107078000Y-109514000D01*
X107098000Y-109471000D01*
X107121000Y-109430000D01*
X107145000Y-109390000D01*
X107172000Y-109351000D01*
X107201000Y-109314000D01*
X107231000Y-109278000D01*
X107264000Y-109244000D01*
X107298000Y-109211000D01*
X107334000Y-109181000D01*
X107371000Y-109152000D01*
X107410000Y-109125000D01*
X107450000Y-109101000D01*
X107491000Y-109078000D01*
X107534000Y-109058000D01*
X107577000Y-109040000D01*
X107622000Y-109024000D01*
X107667000Y-109011000D01*
X107713000Y-109000000D01*
X107759000Y-108991000D01*
X107806000Y-108985000D01*
X107853000Y-108981000D01*
X107900000Y-108980000D01*
X110400000Y-108980000D01*
X110400000Y-110780000D01*
G36*
X110400000Y-110780000D02*
G01*
X107900000Y-110780000D01*
X107853000Y-110779000D01*
X107806000Y-110775000D01*
X107759000Y-110769000D01*
X107713000Y-110760000D01*
X107667000Y-110749000D01*
X107622000Y-110736000D01*
X107577000Y-110720000D01*
X107534000Y-110702000D01*
X107491000Y-110682000D01*
X107450000Y-110659000D01*
X107410000Y-110635000D01*
X107371000Y-110608000D01*
X107334000Y-110579000D01*
X107298000Y-110549000D01*
X107264000Y-110516000D01*
X107231000Y-110482000D01*
X107201000Y-110446000D01*
X107172000Y-110409000D01*
X107145000Y-110370000D01*
X107121000Y-110330000D01*
X107098000Y-110289000D01*
X107078000Y-110246000D01*
X107060000Y-110203000D01*
X107044000Y-110158000D01*
X107031000Y-110113000D01*
X107020000Y-110067000D01*
X107011000Y-110021000D01*
X107005000Y-109974000D01*
X107001000Y-109927000D01*
X107000000Y-109880000D01*
X107001000Y-109833000D01*
X107005000Y-109786000D01*
X107011000Y-109739000D01*
X107020000Y-109693000D01*
X107031000Y-109647000D01*
X107044000Y-109602000D01*
X107060000Y-109557000D01*
X107078000Y-109514000D01*
X107098000Y-109471000D01*
X107121000Y-109430000D01*
X107145000Y-109390000D01*
X107172000Y-109351000D01*
X107201000Y-109314000D01*
X107231000Y-109278000D01*
X107264000Y-109244000D01*
X107298000Y-109211000D01*
X107334000Y-109181000D01*
X107371000Y-109152000D01*
X107410000Y-109125000D01*
X107450000Y-109101000D01*
X107491000Y-109078000D01*
X107534000Y-109058000D01*
X107577000Y-109040000D01*
X107622000Y-109024000D01*
X107667000Y-109011000D01*
X107713000Y-109000000D01*
X107759000Y-108991000D01*
X107806000Y-108985000D01*
X107853000Y-108981000D01*
X107900000Y-108980000D01*
X110400000Y-108980000D01*
X110400000Y-110780000D01*
G37*
X90751000Y-65802000D02*
X90767000Y-65804000D01*
X90782000Y-65807000D01*
X90798000Y-65810000D01*
X90813000Y-65815000D01*
X90828000Y-65820000D01*
X90842000Y-65826000D01*
X90856000Y-65833000D01*
X90870000Y-65840000D01*
X90883000Y-65848000D01*
X90896000Y-65857000D01*
X90909000Y-65867000D01*
X90921000Y-65877000D01*
X90932000Y-65888000D01*
X90943000Y-65899000D01*
X90953000Y-65911000D01*
X90963000Y-65924000D01*
X90972000Y-65937000D01*
X90980000Y-65950000D01*
X90987000Y-65964000D01*
X90994000Y-65978000D01*
X91000000Y-65992000D01*
X91005000Y-66007000D01*
X91010000Y-66022000D01*
X91013000Y-66038000D01*
X91016000Y-66053000D01*
X91018000Y-66069000D01*
X91020000Y-66084000D01*
X91020000Y-66100000D01*
X91020000Y-67300000D01*
X91020000Y-67316000D01*
X91018000Y-67331000D01*
X91016000Y-67347000D01*
X91013000Y-67362000D01*
X91010000Y-67378000D01*
X91005000Y-67393000D01*
X91000000Y-67408000D01*
X90994000Y-67422000D01*
X90987000Y-67436000D01*
X90980000Y-67450000D01*
X90972000Y-67463000D01*
X90963000Y-67476000D01*
X90953000Y-67489000D01*
X90943000Y-67501000D01*
X90932000Y-67512000D01*
X90921000Y-67523000D01*
X90909000Y-67533000D01*
X90896000Y-67543000D01*
X90883000Y-67552000D01*
X90870000Y-67560000D01*
X90856000Y-67567000D01*
X90842000Y-67574000D01*
X90828000Y-67580000D01*
X90813000Y-67585000D01*
X90798000Y-67590000D01*
X90782000Y-67593000D01*
X90767000Y-67596000D01*
X90751000Y-67598000D01*
X90736000Y-67600000D01*
X90720000Y-67600000D01*
X87620000Y-67600000D01*
X87620000Y-65800000D01*
X90720000Y-65800000D01*
X90736000Y-65800000D01*
X90751000Y-65802000D01*
G36*
X90751000Y-65802000D02*
G01*
X90767000Y-65804000D01*
X90782000Y-65807000D01*
X90798000Y-65810000D01*
X90813000Y-65815000D01*
X90828000Y-65820000D01*
X90842000Y-65826000D01*
X90856000Y-65833000D01*
X90870000Y-65840000D01*
X90883000Y-65848000D01*
X90896000Y-65857000D01*
X90909000Y-65867000D01*
X90921000Y-65877000D01*
X90932000Y-65888000D01*
X90943000Y-65899000D01*
X90953000Y-65911000D01*
X90963000Y-65924000D01*
X90972000Y-65937000D01*
X90980000Y-65950000D01*
X90987000Y-65964000D01*
X90994000Y-65978000D01*
X91000000Y-65992000D01*
X91005000Y-66007000D01*
X91010000Y-66022000D01*
X91013000Y-66038000D01*
X91016000Y-66053000D01*
X91018000Y-66069000D01*
X91020000Y-66084000D01*
X91020000Y-66100000D01*
X91020000Y-67300000D01*
X91020000Y-67316000D01*
X91018000Y-67331000D01*
X91016000Y-67347000D01*
X91013000Y-67362000D01*
X91010000Y-67378000D01*
X91005000Y-67393000D01*
X91000000Y-67408000D01*
X90994000Y-67422000D01*
X90987000Y-67436000D01*
X90980000Y-67450000D01*
X90972000Y-67463000D01*
X90963000Y-67476000D01*
X90953000Y-67489000D01*
X90943000Y-67501000D01*
X90932000Y-67512000D01*
X90921000Y-67523000D01*
X90909000Y-67533000D01*
X90896000Y-67543000D01*
X90883000Y-67552000D01*
X90870000Y-67560000D01*
X90856000Y-67567000D01*
X90842000Y-67574000D01*
X90828000Y-67580000D01*
X90813000Y-67585000D01*
X90798000Y-67590000D01*
X90782000Y-67593000D01*
X90767000Y-67596000D01*
X90751000Y-67598000D01*
X90736000Y-67600000D01*
X90720000Y-67600000D01*
X87620000Y-67600000D01*
X87620000Y-65800000D01*
X90720000Y-65800000D01*
X90736000Y-65800000D01*
X90751000Y-65802000D01*
G37*
X90751000Y-78502000D02*
X90767000Y-78504000D01*
X90782000Y-78507000D01*
X90798000Y-78510000D01*
X90813000Y-78515000D01*
X90828000Y-78520000D01*
X90842000Y-78526000D01*
X90856000Y-78533000D01*
X90870000Y-78540000D01*
X90883000Y-78548000D01*
X90896000Y-78557000D01*
X90909000Y-78567000D01*
X90921000Y-78577000D01*
X90932000Y-78588000D01*
X90943000Y-78599000D01*
X90953000Y-78611000D01*
X90963000Y-78624000D01*
X90972000Y-78637000D01*
X90980000Y-78650000D01*
X90987000Y-78664000D01*
X90994000Y-78678000D01*
X91000000Y-78692000D01*
X91005000Y-78707000D01*
X91010000Y-78722000D01*
X91013000Y-78738000D01*
X91016000Y-78753000D01*
X91018000Y-78769000D01*
X91020000Y-78784000D01*
X91020000Y-78800000D01*
X91020000Y-80000000D01*
X91020000Y-80016000D01*
X91018000Y-80031000D01*
X91016000Y-80047000D01*
X91013000Y-80062000D01*
X91010000Y-80078000D01*
X91005000Y-80093000D01*
X91000000Y-80108000D01*
X90994000Y-80122000D01*
X90987000Y-80136000D01*
X90980000Y-80150000D01*
X90972000Y-80163000D01*
X90963000Y-80176000D01*
X90953000Y-80189000D01*
X90943000Y-80201000D01*
X90932000Y-80212000D01*
X90921000Y-80223000D01*
X90909000Y-80233000D01*
X90896000Y-80243000D01*
X90883000Y-80252000D01*
X90870000Y-80260000D01*
X90856000Y-80267000D01*
X90842000Y-80274000D01*
X90828000Y-80280000D01*
X90813000Y-80285000D01*
X90798000Y-80290000D01*
X90782000Y-80293000D01*
X90767000Y-80296000D01*
X90751000Y-80298000D01*
X90736000Y-80300000D01*
X90720000Y-80300000D01*
X87620000Y-80300000D01*
X87620000Y-78500000D01*
X90720000Y-78500000D01*
X90736000Y-78500000D01*
X90751000Y-78502000D01*
G36*
X90751000Y-78502000D02*
G01*
X90767000Y-78504000D01*
X90782000Y-78507000D01*
X90798000Y-78510000D01*
X90813000Y-78515000D01*
X90828000Y-78520000D01*
X90842000Y-78526000D01*
X90856000Y-78533000D01*
X90870000Y-78540000D01*
X90883000Y-78548000D01*
X90896000Y-78557000D01*
X90909000Y-78567000D01*
X90921000Y-78577000D01*
X90932000Y-78588000D01*
X90943000Y-78599000D01*
X90953000Y-78611000D01*
X90963000Y-78624000D01*
X90972000Y-78637000D01*
X90980000Y-78650000D01*
X90987000Y-78664000D01*
X90994000Y-78678000D01*
X91000000Y-78692000D01*
X91005000Y-78707000D01*
X91010000Y-78722000D01*
X91013000Y-78738000D01*
X91016000Y-78753000D01*
X91018000Y-78769000D01*
X91020000Y-78784000D01*
X91020000Y-78800000D01*
X91020000Y-80000000D01*
X91020000Y-80016000D01*
X91018000Y-80031000D01*
X91016000Y-80047000D01*
X91013000Y-80062000D01*
X91010000Y-80078000D01*
X91005000Y-80093000D01*
X91000000Y-80108000D01*
X90994000Y-80122000D01*
X90987000Y-80136000D01*
X90980000Y-80150000D01*
X90972000Y-80163000D01*
X90963000Y-80176000D01*
X90953000Y-80189000D01*
X90943000Y-80201000D01*
X90932000Y-80212000D01*
X90921000Y-80223000D01*
X90909000Y-80233000D01*
X90896000Y-80243000D01*
X90883000Y-80252000D01*
X90870000Y-80260000D01*
X90856000Y-80267000D01*
X90842000Y-80274000D01*
X90828000Y-80280000D01*
X90813000Y-80285000D01*
X90798000Y-80290000D01*
X90782000Y-80293000D01*
X90767000Y-80296000D01*
X90751000Y-80298000D01*
X90736000Y-80300000D01*
X90720000Y-80300000D01*
X87620000Y-80300000D01*
X87620000Y-78500000D01*
X90720000Y-78500000D01*
X90736000Y-78500000D01*
X90751000Y-78502000D01*
G37*
X90751000Y-91202000D02*
X90767000Y-91204000D01*
X90782000Y-91207000D01*
X90798000Y-91210000D01*
X90813000Y-91215000D01*
X90828000Y-91220000D01*
X90842000Y-91226000D01*
X90856000Y-91233000D01*
X90870000Y-91240000D01*
X90883000Y-91248000D01*
X90896000Y-91257000D01*
X90909000Y-91267000D01*
X90921000Y-91277000D01*
X90932000Y-91288000D01*
X90943000Y-91299000D01*
X90953000Y-91311000D01*
X90963000Y-91324000D01*
X90972000Y-91337000D01*
X90980000Y-91350000D01*
X90987000Y-91364000D01*
X90994000Y-91378000D01*
X91000000Y-91392000D01*
X91005000Y-91407000D01*
X91010000Y-91422000D01*
X91013000Y-91438000D01*
X91016000Y-91453000D01*
X91018000Y-91469000D01*
X91020000Y-91484000D01*
X91020000Y-91500000D01*
X91020000Y-92700000D01*
X91020000Y-92716000D01*
X91018000Y-92731000D01*
X91016000Y-92747000D01*
X91013000Y-92762000D01*
X91010000Y-92778000D01*
X91005000Y-92793000D01*
X91000000Y-92808000D01*
X90994000Y-92822000D01*
X90987000Y-92836000D01*
X90980000Y-92850000D01*
X90972000Y-92863000D01*
X90963000Y-92876000D01*
X90953000Y-92889000D01*
X90943000Y-92901000D01*
X90932000Y-92912000D01*
X90921000Y-92923000D01*
X90909000Y-92933000D01*
X90896000Y-92943000D01*
X90883000Y-92952000D01*
X90870000Y-92960000D01*
X90856000Y-92967000D01*
X90842000Y-92974000D01*
X90828000Y-92980000D01*
X90813000Y-92985000D01*
X90798000Y-92990000D01*
X90782000Y-92993000D01*
X90767000Y-92996000D01*
X90751000Y-92998000D01*
X90736000Y-93000000D01*
X90720000Y-93000000D01*
X87620000Y-93000000D01*
X87620000Y-91200000D01*
X90720000Y-91200000D01*
X90736000Y-91200000D01*
X90751000Y-91202000D01*
G36*
X90751000Y-91202000D02*
G01*
X90767000Y-91204000D01*
X90782000Y-91207000D01*
X90798000Y-91210000D01*
X90813000Y-91215000D01*
X90828000Y-91220000D01*
X90842000Y-91226000D01*
X90856000Y-91233000D01*
X90870000Y-91240000D01*
X90883000Y-91248000D01*
X90896000Y-91257000D01*
X90909000Y-91267000D01*
X90921000Y-91277000D01*
X90932000Y-91288000D01*
X90943000Y-91299000D01*
X90953000Y-91311000D01*
X90963000Y-91324000D01*
X90972000Y-91337000D01*
X90980000Y-91350000D01*
X90987000Y-91364000D01*
X90994000Y-91378000D01*
X91000000Y-91392000D01*
X91005000Y-91407000D01*
X91010000Y-91422000D01*
X91013000Y-91438000D01*
X91016000Y-91453000D01*
X91018000Y-91469000D01*
X91020000Y-91484000D01*
X91020000Y-91500000D01*
X91020000Y-92700000D01*
X91020000Y-92716000D01*
X91018000Y-92731000D01*
X91016000Y-92747000D01*
X91013000Y-92762000D01*
X91010000Y-92778000D01*
X91005000Y-92793000D01*
X91000000Y-92808000D01*
X90994000Y-92822000D01*
X90987000Y-92836000D01*
X90980000Y-92850000D01*
X90972000Y-92863000D01*
X90963000Y-92876000D01*
X90953000Y-92889000D01*
X90943000Y-92901000D01*
X90932000Y-92912000D01*
X90921000Y-92923000D01*
X90909000Y-92933000D01*
X90896000Y-92943000D01*
X90883000Y-92952000D01*
X90870000Y-92960000D01*
X90856000Y-92967000D01*
X90842000Y-92974000D01*
X90828000Y-92980000D01*
X90813000Y-92985000D01*
X90798000Y-92990000D01*
X90782000Y-92993000D01*
X90767000Y-92996000D01*
X90751000Y-92998000D01*
X90736000Y-93000000D01*
X90720000Y-93000000D01*
X87620000Y-93000000D01*
X87620000Y-91200000D01*
X90720000Y-91200000D01*
X90736000Y-91200000D01*
X90751000Y-91202000D01*
G37*
X90751000Y-103902000D02*
X90767000Y-103904000D01*
X90782000Y-103907000D01*
X90798000Y-103910000D01*
X90813000Y-103915000D01*
X90828000Y-103920000D01*
X90842000Y-103926000D01*
X90856000Y-103933000D01*
X90870000Y-103940000D01*
X90883000Y-103948000D01*
X90896000Y-103957000D01*
X90909000Y-103967000D01*
X90921000Y-103977000D01*
X90932000Y-103988000D01*
X90943000Y-103999000D01*
X90953000Y-104011000D01*
X90963000Y-104024000D01*
X90972000Y-104037000D01*
X90980000Y-104050000D01*
X90987000Y-104064000D01*
X90994000Y-104078000D01*
X91000000Y-104092000D01*
X91005000Y-104107000D01*
X91010000Y-104122000D01*
X91013000Y-104138000D01*
X91016000Y-104153000D01*
X91018000Y-104169000D01*
X91020000Y-104184000D01*
X91020000Y-104200000D01*
X91020000Y-105400000D01*
X91020000Y-105416000D01*
X91018000Y-105431000D01*
X91016000Y-105447000D01*
X91013000Y-105462000D01*
X91010000Y-105478000D01*
X91005000Y-105493000D01*
X91000000Y-105508000D01*
X90994000Y-105522000D01*
X90987000Y-105536000D01*
X90980000Y-105550000D01*
X90972000Y-105563000D01*
X90963000Y-105576000D01*
X90953000Y-105589000D01*
X90943000Y-105601000D01*
X90932000Y-105612000D01*
X90921000Y-105623000D01*
X90909000Y-105633000D01*
X90896000Y-105643000D01*
X90883000Y-105652000D01*
X90870000Y-105660000D01*
X90856000Y-105667000D01*
X90842000Y-105674000D01*
X90828000Y-105680000D01*
X90813000Y-105685000D01*
X90798000Y-105690000D01*
X90782000Y-105693000D01*
X90767000Y-105696000D01*
X90751000Y-105698000D01*
X90736000Y-105700000D01*
X90720000Y-105700000D01*
X87620000Y-105700000D01*
X87620000Y-103900000D01*
X90720000Y-103900000D01*
X90736000Y-103900000D01*
X90751000Y-103902000D01*
G36*
X90751000Y-103902000D02*
G01*
X90767000Y-103904000D01*
X90782000Y-103907000D01*
X90798000Y-103910000D01*
X90813000Y-103915000D01*
X90828000Y-103920000D01*
X90842000Y-103926000D01*
X90856000Y-103933000D01*
X90870000Y-103940000D01*
X90883000Y-103948000D01*
X90896000Y-103957000D01*
X90909000Y-103967000D01*
X90921000Y-103977000D01*
X90932000Y-103988000D01*
X90943000Y-103999000D01*
X90953000Y-104011000D01*
X90963000Y-104024000D01*
X90972000Y-104037000D01*
X90980000Y-104050000D01*
X90987000Y-104064000D01*
X90994000Y-104078000D01*
X91000000Y-104092000D01*
X91005000Y-104107000D01*
X91010000Y-104122000D01*
X91013000Y-104138000D01*
X91016000Y-104153000D01*
X91018000Y-104169000D01*
X91020000Y-104184000D01*
X91020000Y-104200000D01*
X91020000Y-105400000D01*
X91020000Y-105416000D01*
X91018000Y-105431000D01*
X91016000Y-105447000D01*
X91013000Y-105462000D01*
X91010000Y-105478000D01*
X91005000Y-105493000D01*
X91000000Y-105508000D01*
X90994000Y-105522000D01*
X90987000Y-105536000D01*
X90980000Y-105550000D01*
X90972000Y-105563000D01*
X90963000Y-105576000D01*
X90953000Y-105589000D01*
X90943000Y-105601000D01*
X90932000Y-105612000D01*
X90921000Y-105623000D01*
X90909000Y-105633000D01*
X90896000Y-105643000D01*
X90883000Y-105652000D01*
X90870000Y-105660000D01*
X90856000Y-105667000D01*
X90842000Y-105674000D01*
X90828000Y-105680000D01*
X90813000Y-105685000D01*
X90798000Y-105690000D01*
X90782000Y-105693000D01*
X90767000Y-105696000D01*
X90751000Y-105698000D01*
X90736000Y-105700000D01*
X90720000Y-105700000D01*
X87620000Y-105700000D01*
X87620000Y-103900000D01*
X90720000Y-103900000D01*
X90736000Y-103900000D01*
X90751000Y-103902000D01*
G37*
X99641000Y-108752000D02*
X99657000Y-108754000D01*
X99672000Y-108757000D01*
X99688000Y-108760000D01*
X99703000Y-108765000D01*
X99718000Y-108770000D01*
X99732000Y-108776000D01*
X99746000Y-108783000D01*
X99760000Y-108790000D01*
X99773000Y-108798000D01*
X99786000Y-108807000D01*
X99799000Y-108817000D01*
X99811000Y-108827000D01*
X99822000Y-108838000D01*
X99833000Y-108849000D01*
X99843000Y-108861000D01*
X99853000Y-108874000D01*
X99862000Y-108887000D01*
X99870000Y-108900000D01*
X99877000Y-108914000D01*
X99884000Y-108928000D01*
X99890000Y-108942000D01*
X99895000Y-108957000D01*
X99900000Y-108972000D01*
X99903000Y-108988000D01*
X99906000Y-109003000D01*
X99908000Y-109019000D01*
X99910000Y-109034000D01*
X99910000Y-109050000D01*
X99910000Y-112150000D01*
X98110000Y-112150000D01*
X98110000Y-109050000D01*
X98110000Y-109034000D01*
X98112000Y-109019000D01*
X98114000Y-109003000D01*
X98117000Y-108988000D01*
X98120000Y-108972000D01*
X98125000Y-108957000D01*
X98130000Y-108942000D01*
X98136000Y-108928000D01*
X98143000Y-108914000D01*
X98150000Y-108900000D01*
X98158000Y-108887000D01*
X98167000Y-108874000D01*
X98177000Y-108861000D01*
X98187000Y-108849000D01*
X98198000Y-108838000D01*
X98209000Y-108827000D01*
X98221000Y-108817000D01*
X98234000Y-108807000D01*
X98247000Y-108798000D01*
X98260000Y-108790000D01*
X98274000Y-108783000D01*
X98288000Y-108776000D01*
X98302000Y-108770000D01*
X98317000Y-108765000D01*
X98332000Y-108760000D01*
X98348000Y-108757000D01*
X98363000Y-108754000D01*
X98379000Y-108752000D01*
X98394000Y-108750000D01*
X98410000Y-108750000D01*
X99610000Y-108750000D01*
X99626000Y-108750000D01*
X99641000Y-108752000D01*
G36*
X99641000Y-108752000D02*
G01*
X99657000Y-108754000D01*
X99672000Y-108757000D01*
X99688000Y-108760000D01*
X99703000Y-108765000D01*
X99718000Y-108770000D01*
X99732000Y-108776000D01*
X99746000Y-108783000D01*
X99760000Y-108790000D01*
X99773000Y-108798000D01*
X99786000Y-108807000D01*
X99799000Y-108817000D01*
X99811000Y-108827000D01*
X99822000Y-108838000D01*
X99833000Y-108849000D01*
X99843000Y-108861000D01*
X99853000Y-108874000D01*
X99862000Y-108887000D01*
X99870000Y-108900000D01*
X99877000Y-108914000D01*
X99884000Y-108928000D01*
X99890000Y-108942000D01*
X99895000Y-108957000D01*
X99900000Y-108972000D01*
X99903000Y-108988000D01*
X99906000Y-109003000D01*
X99908000Y-109019000D01*
X99910000Y-109034000D01*
X99910000Y-109050000D01*
X99910000Y-112150000D01*
X98110000Y-112150000D01*
X98110000Y-109050000D01*
X98110000Y-109034000D01*
X98112000Y-109019000D01*
X98114000Y-109003000D01*
X98117000Y-108988000D01*
X98120000Y-108972000D01*
X98125000Y-108957000D01*
X98130000Y-108942000D01*
X98136000Y-108928000D01*
X98143000Y-108914000D01*
X98150000Y-108900000D01*
X98158000Y-108887000D01*
X98167000Y-108874000D01*
X98177000Y-108861000D01*
X98187000Y-108849000D01*
X98198000Y-108838000D01*
X98209000Y-108827000D01*
X98221000Y-108817000D01*
X98234000Y-108807000D01*
X98247000Y-108798000D01*
X98260000Y-108790000D01*
X98274000Y-108783000D01*
X98288000Y-108776000D01*
X98302000Y-108770000D01*
X98317000Y-108765000D01*
X98332000Y-108760000D01*
X98348000Y-108757000D01*
X98363000Y-108754000D01*
X98379000Y-108752000D01*
X98394000Y-108750000D01*
X98410000Y-108750000D01*
X99610000Y-108750000D01*
X99626000Y-108750000D01*
X99641000Y-108752000D01*
G37*
X110400000Y-67600000D02*
X107300000Y-67600000D01*
X107284000Y-67600000D01*
X107269000Y-67598000D01*
X107253000Y-67596000D01*
X107238000Y-67593000D01*
X107222000Y-67590000D01*
X107207000Y-67585000D01*
X107192000Y-67580000D01*
X107178000Y-67574000D01*
X107164000Y-67567000D01*
X107150000Y-67560000D01*
X107137000Y-67552000D01*
X107124000Y-67543000D01*
X107111000Y-67533000D01*
X107099000Y-67523000D01*
X107088000Y-67512000D01*
X107077000Y-67501000D01*
X107067000Y-67489000D01*
X107057000Y-67476000D01*
X107048000Y-67463000D01*
X107040000Y-67450000D01*
X107033000Y-67436000D01*
X107026000Y-67422000D01*
X107020000Y-67408000D01*
X107015000Y-67393000D01*
X107010000Y-67378000D01*
X107007000Y-67362000D01*
X107004000Y-67347000D01*
X107002000Y-67331000D01*
X107000000Y-67316000D01*
X107000000Y-67300000D01*
X107000000Y-66100000D01*
X107000000Y-66084000D01*
X107002000Y-66069000D01*
X107004000Y-66053000D01*
X107007000Y-66038000D01*
X107010000Y-66022000D01*
X107015000Y-66007000D01*
X107020000Y-65992000D01*
X107026000Y-65978000D01*
X107033000Y-65964000D01*
X107040000Y-65950000D01*
X107048000Y-65937000D01*
X107057000Y-65924000D01*
X107067000Y-65911000D01*
X107077000Y-65899000D01*
X107088000Y-65888000D01*
X107099000Y-65877000D01*
X107111000Y-65867000D01*
X107124000Y-65857000D01*
X107137000Y-65848000D01*
X107150000Y-65840000D01*
X107164000Y-65833000D01*
X107178000Y-65826000D01*
X107192000Y-65820000D01*
X107207000Y-65815000D01*
X107222000Y-65810000D01*
X107238000Y-65807000D01*
X107253000Y-65804000D01*
X107269000Y-65802000D01*
X107284000Y-65800000D01*
X107300000Y-65800000D01*
X110400000Y-65800000D01*
X110400000Y-67600000D01*
G36*
X110400000Y-67600000D02*
G01*
X107300000Y-67600000D01*
X107284000Y-67600000D01*
X107269000Y-67598000D01*
X107253000Y-67596000D01*
X107238000Y-67593000D01*
X107222000Y-67590000D01*
X107207000Y-67585000D01*
X107192000Y-67580000D01*
X107178000Y-67574000D01*
X107164000Y-67567000D01*
X107150000Y-67560000D01*
X107137000Y-67552000D01*
X107124000Y-67543000D01*
X107111000Y-67533000D01*
X107099000Y-67523000D01*
X107088000Y-67512000D01*
X107077000Y-67501000D01*
X107067000Y-67489000D01*
X107057000Y-67476000D01*
X107048000Y-67463000D01*
X107040000Y-67450000D01*
X107033000Y-67436000D01*
X107026000Y-67422000D01*
X107020000Y-67408000D01*
X107015000Y-67393000D01*
X107010000Y-67378000D01*
X107007000Y-67362000D01*
X107004000Y-67347000D01*
X107002000Y-67331000D01*
X107000000Y-67316000D01*
X107000000Y-67300000D01*
X107000000Y-66100000D01*
X107000000Y-66084000D01*
X107002000Y-66069000D01*
X107004000Y-66053000D01*
X107007000Y-66038000D01*
X107010000Y-66022000D01*
X107015000Y-66007000D01*
X107020000Y-65992000D01*
X107026000Y-65978000D01*
X107033000Y-65964000D01*
X107040000Y-65950000D01*
X107048000Y-65937000D01*
X107057000Y-65924000D01*
X107067000Y-65911000D01*
X107077000Y-65899000D01*
X107088000Y-65888000D01*
X107099000Y-65877000D01*
X107111000Y-65867000D01*
X107124000Y-65857000D01*
X107137000Y-65848000D01*
X107150000Y-65840000D01*
X107164000Y-65833000D01*
X107178000Y-65826000D01*
X107192000Y-65820000D01*
X107207000Y-65815000D01*
X107222000Y-65810000D01*
X107238000Y-65807000D01*
X107253000Y-65804000D01*
X107269000Y-65802000D01*
X107284000Y-65800000D01*
X107300000Y-65800000D01*
X110400000Y-65800000D01*
X110400000Y-67600000D01*
G37*
X110400000Y-80300000D02*
X107300000Y-80300000D01*
X107284000Y-80300000D01*
X107269000Y-80298000D01*
X107253000Y-80296000D01*
X107238000Y-80293000D01*
X107222000Y-80290000D01*
X107207000Y-80285000D01*
X107192000Y-80280000D01*
X107178000Y-80274000D01*
X107164000Y-80267000D01*
X107150000Y-80260000D01*
X107137000Y-80252000D01*
X107124000Y-80243000D01*
X107111000Y-80233000D01*
X107099000Y-80223000D01*
X107088000Y-80212000D01*
X107077000Y-80201000D01*
X107067000Y-80189000D01*
X107057000Y-80176000D01*
X107048000Y-80163000D01*
X107040000Y-80150000D01*
X107033000Y-80136000D01*
X107026000Y-80122000D01*
X107020000Y-80108000D01*
X107015000Y-80093000D01*
X107010000Y-80078000D01*
X107007000Y-80062000D01*
X107004000Y-80047000D01*
X107002000Y-80031000D01*
X107000000Y-80016000D01*
X107000000Y-80000000D01*
X107000000Y-78800000D01*
X107000000Y-78784000D01*
X107002000Y-78769000D01*
X107004000Y-78753000D01*
X107007000Y-78738000D01*
X107010000Y-78722000D01*
X107015000Y-78707000D01*
X107020000Y-78692000D01*
X107026000Y-78678000D01*
X107033000Y-78664000D01*
X107040000Y-78650000D01*
X107048000Y-78637000D01*
X107057000Y-78624000D01*
X107067000Y-78611000D01*
X107077000Y-78599000D01*
X107088000Y-78588000D01*
X107099000Y-78577000D01*
X107111000Y-78567000D01*
X107124000Y-78557000D01*
X107137000Y-78548000D01*
X107150000Y-78540000D01*
X107164000Y-78533000D01*
X107178000Y-78526000D01*
X107192000Y-78520000D01*
X107207000Y-78515000D01*
X107222000Y-78510000D01*
X107238000Y-78507000D01*
X107253000Y-78504000D01*
X107269000Y-78502000D01*
X107284000Y-78500000D01*
X107300000Y-78500000D01*
X110400000Y-78500000D01*
X110400000Y-80300000D01*
G36*
X110400000Y-80300000D02*
G01*
X107300000Y-80300000D01*
X107284000Y-80300000D01*
X107269000Y-80298000D01*
X107253000Y-80296000D01*
X107238000Y-80293000D01*
X107222000Y-80290000D01*
X107207000Y-80285000D01*
X107192000Y-80280000D01*
X107178000Y-80274000D01*
X107164000Y-80267000D01*
X107150000Y-80260000D01*
X107137000Y-80252000D01*
X107124000Y-80243000D01*
X107111000Y-80233000D01*
X107099000Y-80223000D01*
X107088000Y-80212000D01*
X107077000Y-80201000D01*
X107067000Y-80189000D01*
X107057000Y-80176000D01*
X107048000Y-80163000D01*
X107040000Y-80150000D01*
X107033000Y-80136000D01*
X107026000Y-80122000D01*
X107020000Y-80108000D01*
X107015000Y-80093000D01*
X107010000Y-80078000D01*
X107007000Y-80062000D01*
X107004000Y-80047000D01*
X107002000Y-80031000D01*
X107000000Y-80016000D01*
X107000000Y-80000000D01*
X107000000Y-78800000D01*
X107000000Y-78784000D01*
X107002000Y-78769000D01*
X107004000Y-78753000D01*
X107007000Y-78738000D01*
X107010000Y-78722000D01*
X107015000Y-78707000D01*
X107020000Y-78692000D01*
X107026000Y-78678000D01*
X107033000Y-78664000D01*
X107040000Y-78650000D01*
X107048000Y-78637000D01*
X107057000Y-78624000D01*
X107067000Y-78611000D01*
X107077000Y-78599000D01*
X107088000Y-78588000D01*
X107099000Y-78577000D01*
X107111000Y-78567000D01*
X107124000Y-78557000D01*
X107137000Y-78548000D01*
X107150000Y-78540000D01*
X107164000Y-78533000D01*
X107178000Y-78526000D01*
X107192000Y-78520000D01*
X107207000Y-78515000D01*
X107222000Y-78510000D01*
X107238000Y-78507000D01*
X107253000Y-78504000D01*
X107269000Y-78502000D01*
X107284000Y-78500000D01*
X107300000Y-78500000D01*
X110400000Y-78500000D01*
X110400000Y-80300000D01*
G37*
X110400000Y-93000000D02*
X107300000Y-93000000D01*
X107284000Y-93000000D01*
X107269000Y-92998000D01*
X107253000Y-92996000D01*
X107238000Y-92993000D01*
X107222000Y-92990000D01*
X107207000Y-92985000D01*
X107192000Y-92980000D01*
X107178000Y-92974000D01*
X107164000Y-92967000D01*
X107150000Y-92960000D01*
X107137000Y-92952000D01*
X107124000Y-92943000D01*
X107111000Y-92933000D01*
X107099000Y-92923000D01*
X107088000Y-92912000D01*
X107077000Y-92901000D01*
X107067000Y-92889000D01*
X107057000Y-92876000D01*
X107048000Y-92863000D01*
X107040000Y-92850000D01*
X107033000Y-92836000D01*
X107026000Y-92822000D01*
X107020000Y-92808000D01*
X107015000Y-92793000D01*
X107010000Y-92778000D01*
X107007000Y-92762000D01*
X107004000Y-92747000D01*
X107002000Y-92731000D01*
X107000000Y-92716000D01*
X107000000Y-92700000D01*
X107000000Y-91500000D01*
X107000000Y-91484000D01*
X107002000Y-91469000D01*
X107004000Y-91453000D01*
X107007000Y-91438000D01*
X107010000Y-91422000D01*
X107015000Y-91407000D01*
X107020000Y-91392000D01*
X107026000Y-91378000D01*
X107033000Y-91364000D01*
X107040000Y-91350000D01*
X107048000Y-91337000D01*
X107057000Y-91324000D01*
X107067000Y-91311000D01*
X107077000Y-91299000D01*
X107088000Y-91288000D01*
X107099000Y-91277000D01*
X107111000Y-91267000D01*
X107124000Y-91257000D01*
X107137000Y-91248000D01*
X107150000Y-91240000D01*
X107164000Y-91233000D01*
X107178000Y-91226000D01*
X107192000Y-91220000D01*
X107207000Y-91215000D01*
X107222000Y-91210000D01*
X107238000Y-91207000D01*
X107253000Y-91204000D01*
X107269000Y-91202000D01*
X107284000Y-91200000D01*
X107300000Y-91200000D01*
X110400000Y-91200000D01*
X110400000Y-93000000D01*
G36*
X110400000Y-93000000D02*
G01*
X107300000Y-93000000D01*
X107284000Y-93000000D01*
X107269000Y-92998000D01*
X107253000Y-92996000D01*
X107238000Y-92993000D01*
X107222000Y-92990000D01*
X107207000Y-92985000D01*
X107192000Y-92980000D01*
X107178000Y-92974000D01*
X107164000Y-92967000D01*
X107150000Y-92960000D01*
X107137000Y-92952000D01*
X107124000Y-92943000D01*
X107111000Y-92933000D01*
X107099000Y-92923000D01*
X107088000Y-92912000D01*
X107077000Y-92901000D01*
X107067000Y-92889000D01*
X107057000Y-92876000D01*
X107048000Y-92863000D01*
X107040000Y-92850000D01*
X107033000Y-92836000D01*
X107026000Y-92822000D01*
X107020000Y-92808000D01*
X107015000Y-92793000D01*
X107010000Y-92778000D01*
X107007000Y-92762000D01*
X107004000Y-92747000D01*
X107002000Y-92731000D01*
X107000000Y-92716000D01*
X107000000Y-92700000D01*
X107000000Y-91500000D01*
X107000000Y-91484000D01*
X107002000Y-91469000D01*
X107004000Y-91453000D01*
X107007000Y-91438000D01*
X107010000Y-91422000D01*
X107015000Y-91407000D01*
X107020000Y-91392000D01*
X107026000Y-91378000D01*
X107033000Y-91364000D01*
X107040000Y-91350000D01*
X107048000Y-91337000D01*
X107057000Y-91324000D01*
X107067000Y-91311000D01*
X107077000Y-91299000D01*
X107088000Y-91288000D01*
X107099000Y-91277000D01*
X107111000Y-91267000D01*
X107124000Y-91257000D01*
X107137000Y-91248000D01*
X107150000Y-91240000D01*
X107164000Y-91233000D01*
X107178000Y-91226000D01*
X107192000Y-91220000D01*
X107207000Y-91215000D01*
X107222000Y-91210000D01*
X107238000Y-91207000D01*
X107253000Y-91204000D01*
X107269000Y-91202000D01*
X107284000Y-91200000D01*
X107300000Y-91200000D01*
X110400000Y-91200000D01*
X110400000Y-93000000D01*
G37*
X110400000Y-105700000D02*
X107300000Y-105700000D01*
X107284000Y-105700000D01*
X107269000Y-105698000D01*
X107253000Y-105696000D01*
X107238000Y-105693000D01*
X107222000Y-105690000D01*
X107207000Y-105685000D01*
X107192000Y-105680000D01*
X107178000Y-105674000D01*
X107164000Y-105667000D01*
X107150000Y-105660000D01*
X107137000Y-105652000D01*
X107124000Y-105643000D01*
X107111000Y-105633000D01*
X107099000Y-105623000D01*
X107088000Y-105612000D01*
X107077000Y-105601000D01*
X107067000Y-105589000D01*
X107057000Y-105576000D01*
X107048000Y-105563000D01*
X107040000Y-105550000D01*
X107033000Y-105536000D01*
X107026000Y-105522000D01*
X107020000Y-105508000D01*
X107015000Y-105493000D01*
X107010000Y-105478000D01*
X107007000Y-105462000D01*
X107004000Y-105447000D01*
X107002000Y-105431000D01*
X107000000Y-105416000D01*
X107000000Y-105400000D01*
X107000000Y-104200000D01*
X107000000Y-104184000D01*
X107002000Y-104169000D01*
X107004000Y-104153000D01*
X107007000Y-104138000D01*
X107010000Y-104122000D01*
X107015000Y-104107000D01*
X107020000Y-104092000D01*
X107026000Y-104078000D01*
X107033000Y-104064000D01*
X107040000Y-104050000D01*
X107048000Y-104037000D01*
X107057000Y-104024000D01*
X107067000Y-104011000D01*
X107077000Y-103999000D01*
X107088000Y-103988000D01*
X107099000Y-103977000D01*
X107111000Y-103967000D01*
X107124000Y-103957000D01*
X107137000Y-103948000D01*
X107150000Y-103940000D01*
X107164000Y-103933000D01*
X107178000Y-103926000D01*
X107192000Y-103920000D01*
X107207000Y-103915000D01*
X107222000Y-103910000D01*
X107238000Y-103907000D01*
X107253000Y-103904000D01*
X107269000Y-103902000D01*
X107284000Y-103900000D01*
X107300000Y-103900000D01*
X110400000Y-103900000D01*
X110400000Y-105700000D01*
G36*
X110400000Y-105700000D02*
G01*
X107300000Y-105700000D01*
X107284000Y-105700000D01*
X107269000Y-105698000D01*
X107253000Y-105696000D01*
X107238000Y-105693000D01*
X107222000Y-105690000D01*
X107207000Y-105685000D01*
X107192000Y-105680000D01*
X107178000Y-105674000D01*
X107164000Y-105667000D01*
X107150000Y-105660000D01*
X107137000Y-105652000D01*
X107124000Y-105643000D01*
X107111000Y-105633000D01*
X107099000Y-105623000D01*
X107088000Y-105612000D01*
X107077000Y-105601000D01*
X107067000Y-105589000D01*
X107057000Y-105576000D01*
X107048000Y-105563000D01*
X107040000Y-105550000D01*
X107033000Y-105536000D01*
X107026000Y-105522000D01*
X107020000Y-105508000D01*
X107015000Y-105493000D01*
X107010000Y-105478000D01*
X107007000Y-105462000D01*
X107004000Y-105447000D01*
X107002000Y-105431000D01*
X107000000Y-105416000D01*
X107000000Y-105400000D01*
X107000000Y-104200000D01*
X107000000Y-104184000D01*
X107002000Y-104169000D01*
X107004000Y-104153000D01*
X107007000Y-104138000D01*
X107010000Y-104122000D01*
X107015000Y-104107000D01*
X107020000Y-104092000D01*
X107026000Y-104078000D01*
X107033000Y-104064000D01*
X107040000Y-104050000D01*
X107048000Y-104037000D01*
X107057000Y-104024000D01*
X107067000Y-104011000D01*
X107077000Y-103999000D01*
X107088000Y-103988000D01*
X107099000Y-103977000D01*
X107111000Y-103967000D01*
X107124000Y-103957000D01*
X107137000Y-103948000D01*
X107150000Y-103940000D01*
X107164000Y-103933000D01*
X107178000Y-103926000D01*
X107192000Y-103920000D01*
X107207000Y-103915000D01*
X107222000Y-103910000D01*
X107238000Y-103907000D01*
X107253000Y-103904000D01*
X107269000Y-103902000D01*
X107284000Y-103900000D01*
X107300000Y-103900000D01*
X110400000Y-103900000D01*
X110400000Y-105700000D01*
G37*
%TD*%
D12*
%TO.C,U1*%
X68144800Y-120074999D03*
X68144800Y-119425000D03*
X68144800Y-118775002D03*
X68144800Y-118125001D03*
X68144800Y-117475002D03*
X68144800Y-116825001D03*
X68144800Y-116175002D03*
X68144800Y-115525001D03*
X68144800Y-114875002D03*
X68144800Y-114225001D03*
X68144800Y-113575002D03*
X68144800Y-112925001D03*
X62455200Y-112925001D03*
X62455200Y-113575000D03*
X62455200Y-114225001D03*
X62455200Y-114874999D03*
X62455200Y-115525001D03*
X62455200Y-116174999D03*
X62455200Y-116824998D03*
X62455200Y-117474999D03*
X62455200Y-118124998D03*
X62455200Y-118774999D03*
X62455200Y-119424998D03*
X62455200Y-120074999D03*
%TD*%
D13*
%TO.C,D5*%
X66100000Y-81124284D03*
X68000000Y-81124284D03*
X67050000Y-79249284D03*
%TD*%
D14*
%TO.C,U6*%
X74250000Y-59850000D03*
X74250000Y-61120000D03*
X74250000Y-62390000D03*
X74250000Y-63660000D03*
X74250000Y-64930000D03*
X74250000Y-66200000D03*
X74250000Y-67470000D03*
X79200000Y-67470000D03*
X79200000Y-66200000D03*
X79200000Y-64930000D03*
X79200000Y-63660000D03*
X79200000Y-62390000D03*
X79200000Y-61120000D03*
X79200000Y-59850000D03*
%TD*%
D13*
%TO.C,D4*%
X66100000Y-75058213D03*
X68000000Y-75058213D03*
X67050000Y-73183213D03*
%TD*%
D15*
%TO.C,R3*%
X51925000Y-122309999D03*
X55025000Y-122309999D03*
%TD*%
D16*
%TO.C,H1*%
X53000000Y-137000000D03*
%TD*%
D17*
%TO.C,C14*%
X64750000Y-104112500D03*
X64750000Y-106187500D03*
%TD*%
D18*
%TO.C,Q5*%
X60677500Y-81136784D03*
X60677500Y-79236784D03*
X58802500Y-80186784D03*
%TD*%
D19*
%TO.C,IC1*%
X73485000Y-120525000D03*
X74755000Y-120525000D03*
X76025000Y-120525000D03*
X77295000Y-120525000D03*
X78565000Y-120525000D03*
X79835000Y-120525000D03*
X81105000Y-120525000D03*
X82375000Y-120525000D03*
X83645000Y-120525000D03*
X84915000Y-120525000D03*
X84915000Y-111075000D03*
X83645000Y-111075000D03*
X82375000Y-111075000D03*
X81105000Y-111075000D03*
X79835000Y-111075000D03*
X78565000Y-111075000D03*
X77295000Y-111075000D03*
X76025000Y-111075000D03*
X74755000Y-111075000D03*
X73485000Y-111075000D03*
%TD*%
D20*
%TO.C,R5*%
X117500000Y-78800000D03*
X114400000Y-78800000D03*
%TD*%
D18*
%TO.C,Q4*%
X60677500Y-75070713D03*
X60677500Y-73170713D03*
X58802500Y-74120713D03*
%TD*%
D21*
%TO.C,C15*%
X114412500Y-82100000D03*
X116487500Y-82100000D03*
%TD*%
D16*
%TO.C,H2*%
X127000000Y-137000000D03*
%TD*%
D22*
%TO.C,C13*%
X68850000Y-106175000D03*
X68850000Y-102925000D03*
%TD*%
D18*
%TO.C,Q7*%
X60677500Y-93268926D03*
X60677500Y-91368926D03*
X58802500Y-92318926D03*
%TD*%
D23*
%TO.C,F1*%
X113100000Y-61700000D03*
X113100000Y-58725000D03*
%TD*%
D13*
%TO.C,D7*%
X66100000Y-93256426D03*
X68000000Y-93256426D03*
X67050000Y-91381426D03*
%TD*%
D18*
%TO.C,Q3*%
X60677500Y-69004642D03*
X60677500Y-67104642D03*
X58802500Y-68054642D03*
%TD*%
D24*
%TO.C,J1*%
X51890000Y-60785000D03*
D25*
X51890000Y-63325000D03*
X51890000Y-65865000D03*
X51890000Y-68405000D03*
X51890000Y-70945000D03*
X51890000Y-73485000D03*
X51890000Y-76025000D03*
X51890000Y-78565000D03*
X51890000Y-81105000D03*
%TD*%
D26*
%TO.C,U4*%
X57175000Y-117805000D03*
X57175000Y-116535000D03*
X57175000Y-115265000D03*
X57175000Y-113995000D03*
X52225000Y-113995000D03*
X52225000Y-115265000D03*
X52225000Y-116535000D03*
X52225000Y-117805000D03*
%TD*%
D27*
%TO.C,C4*%
X54390000Y-131222500D03*
X54390000Y-129147500D03*
%TD*%
D15*
%TO.C,R4*%
X57125000Y-122309999D03*
X60225000Y-122309999D03*
%TD*%
D22*
%TO.C,C1*%
X82640000Y-133560000D03*
X82640000Y-130310000D03*
%TD*%
D16*
%TO.C,H4*%
X127000000Y-53000000D03*
%TD*%
D28*
%TO.C,U3*%
X96285000Y-61750000D03*
X101735000Y-61750000D03*
D29*
X96585000Y-64780000D03*
X101435000Y-64780000D03*
D30*
X99010000Y-64750000D03*
X100010000Y-61450000D03*
X98010000Y-61450000D03*
X96510000Y-68250000D03*
X96510000Y-70750000D03*
X96510000Y-73250000D03*
%TD*%
D15*
%TO.C,R1*%
X57700000Y-109549999D03*
X60800000Y-109549999D03*
%TD*%
D13*
%TO.C,D8*%
X66150000Y-99322500D03*
X68050000Y-99322500D03*
X67100000Y-97447500D03*
%TD*%
D21*
%TO.C,C8*%
X121362500Y-83200000D03*
X123437500Y-83200000D03*
%TD*%
D16*
%TO.C,H3*%
X53000000Y-53000000D03*
%TD*%
D31*
%TO.C,C12*%
X100400000Y-115600000D03*
X100400000Y-118850000D03*
%TD*%
D32*
%TO.C,IC2*%
X59850000Y-103850000D03*
X58900000Y-103850000D03*
X57950000Y-103850000D03*
X57950000Y-106350000D03*
X59850000Y-106350000D03*
%TD*%
D33*
%TO.C,L2*%
X73990000Y-131285000D03*
X64090000Y-131285000D03*
%TD*%
D34*
%TO.C,C5*%
X119900000Y-65800000D03*
X119900000Y-60400000D03*
%TD*%
D18*
%TO.C,Q1*%
X60677500Y-56872500D03*
X60677500Y-54972500D03*
X58802500Y-55922500D03*
%TD*%
D35*
%TO.C,U5*%
X123850000Y-74900000D03*
X123850000Y-72600000D03*
D36*
X117550000Y-72600000D03*
D35*
X123850000Y-70300000D03*
%TD*%
D18*
%TO.C,Q6*%
X60677500Y-87202855D03*
X60677500Y-85302855D03*
X58802500Y-86252855D03*
%TD*%
D17*
%TO.C,C11*%
X95600000Y-115862500D03*
X95600000Y-117937500D03*
%TD*%
D13*
%TO.C,D6*%
X66100000Y-87190355D03*
X68000000Y-87190355D03*
X67050000Y-85315355D03*
%TD*%
%TO.C,D2*%
X66100000Y-62926071D03*
X68000000Y-62926071D03*
X67050000Y-61051071D03*
%TD*%
%TO.C,D1*%
X66100000Y-56860000D03*
X68000000Y-56860000D03*
X67050000Y-54985000D03*
%TD*%
D37*
%TO.C,J2*%
X116800000Y-93540000D03*
D38*
X116800000Y-88460000D03*
%TD*%
D13*
%TO.C,D3*%
X66100000Y-68992142D03*
X68000000Y-68992142D03*
X67050000Y-67117142D03*
%TD*%
D22*
%TO.C,C3*%
X59090000Y-131285000D03*
X59090000Y-128035000D03*
%TD*%
D27*
%TO.C,C6*%
X125500000Y-65587500D03*
X125500000Y-63512500D03*
%TD*%
D14*
%TO.C,U7*%
X74150000Y-78150000D03*
X74150000Y-79420000D03*
X74150000Y-80690000D03*
X74150000Y-81960000D03*
X74150000Y-83230000D03*
X74150000Y-84500000D03*
X74150000Y-85770000D03*
X79100000Y-85770000D03*
X79100000Y-84500000D03*
X79100000Y-83230000D03*
X79100000Y-81960000D03*
X79100000Y-80690000D03*
X79100000Y-79420000D03*
X79100000Y-78150000D03*
%TD*%
D18*
%TO.C,Q2*%
X60677500Y-62938571D03*
X60677500Y-61038571D03*
X58802500Y-61988571D03*
%TD*%
D39*
%TO.C,U8*%
X120215000Y-99775000D03*
X118945000Y-99775000D03*
X117675000Y-99775000D03*
X116405000Y-99775000D03*
X116405000Y-104725000D03*
X117675000Y-104725000D03*
X118945000Y-104725000D03*
X120215000Y-104725000D03*
%TD*%
D27*
%TO.C,C2*%
X78340000Y-133535000D03*
X78340000Y-131460000D03*
%TD*%
D40*
%TO.C,C7*%
X121487500Y-79300000D03*
X124737500Y-79300000D03*
%TD*%
D41*
%TO.C,L1*%
X91490000Y-126035000D03*
X91490000Y-135935000D03*
%TD*%
D18*
%TO.C,Q8*%
X60727500Y-99335000D03*
X60727500Y-97435000D03*
X58852500Y-98385000D03*
%TD*%
D15*
%TO.C,R2*%
X63250000Y-109549999D03*
X66350000Y-109549999D03*
%TD*%
D42*
X50000000Y-50000000D02*
X130000000Y-50000000D01*
X130000000Y-140000000D01*
X50000000Y-140000000D01*
X50000000Y-50000000D01*
M02*
