%TF.GenerationSoftware,KiCad,Pcbnew,7.0.9*%
%TF.CreationDate,2024-04-10T12:45:34-03:00*%
%TF.ProjectId,v0.3,76302e33-2e6b-4696-9361-645f70636258,rev?*%
%TF.SameCoordinates,Original*%
%TF.FileFunction,Legend,Top*%
%TF.FilePolarity,Positive*%
%FSLAX46Y46*%
G04 Gerber Fmt 4.6, Leading zero omitted, Abs format (unit mm)*
G04 Created by KiCad (PCBNEW 7.0.9) date 2024-04-10 12:45:34*
%MOMM*%
%LPD*%
G01*
G04 APERTURE LIST*
%ADD10C,0.150000*%
%ADD11C,0.254000*%
%ADD12C,0.152400*%
%ADD13C,0.120000*%
%ADD14C,0.127000*%
%ADD15C,0.200000*%
%TA.AperFunction,Profile*%
%ADD16C,0.200000*%
%TD*%
G04 APERTURE END LIST*
D10*
X66306704Y-124170181D02*
X66306704Y-123360658D01*
X66306704Y-123360658D02*
X66259085Y-123265420D01*
X66259085Y-123265420D02*
X66211466Y-123217801D01*
X66211466Y-123217801D02*
X66116228Y-123170181D01*
X66116228Y-123170181D02*
X65925752Y-123170181D01*
X65925752Y-123170181D02*
X65830514Y-123217801D01*
X65830514Y-123217801D02*
X65782895Y-123265420D01*
X65782895Y-123265420D02*
X65735276Y-123360658D01*
X65735276Y-123360658D02*
X65735276Y-124170181D01*
X64735276Y-123170181D02*
X65306704Y-123170181D01*
X65020990Y-123170181D02*
X65020990Y-124170181D01*
X65020990Y-124170181D02*
X65116228Y-124027324D01*
X65116228Y-124027324D02*
X65211466Y-123932086D01*
X65211466Y-123932086D02*
X65306704Y-123884467D01*
X70054819Y-80924878D02*
X69054819Y-80924878D01*
X69054819Y-80924878D02*
X69054819Y-80686783D01*
X69054819Y-80686783D02*
X69102438Y-80543926D01*
X69102438Y-80543926D02*
X69197676Y-80448688D01*
X69197676Y-80448688D02*
X69292914Y-80401069D01*
X69292914Y-80401069D02*
X69483390Y-80353450D01*
X69483390Y-80353450D02*
X69626247Y-80353450D01*
X69626247Y-80353450D02*
X69816723Y-80401069D01*
X69816723Y-80401069D02*
X69911961Y-80448688D01*
X69911961Y-80448688D02*
X70007200Y-80543926D01*
X70007200Y-80543926D02*
X70054819Y-80686783D01*
X70054819Y-80686783D02*
X70054819Y-80924878D01*
X69054819Y-79448688D02*
X69054819Y-79924878D01*
X69054819Y-79924878D02*
X69531009Y-79972497D01*
X69531009Y-79972497D02*
X69483390Y-79924878D01*
X69483390Y-79924878D02*
X69435771Y-79829640D01*
X69435771Y-79829640D02*
X69435771Y-79591545D01*
X69435771Y-79591545D02*
X69483390Y-79496307D01*
X69483390Y-79496307D02*
X69531009Y-79448688D01*
X69531009Y-79448688D02*
X69626247Y-79401069D01*
X69626247Y-79401069D02*
X69864342Y-79401069D01*
X69864342Y-79401069D02*
X69959580Y-79448688D01*
X69959580Y-79448688D02*
X70007200Y-79496307D01*
X70007200Y-79496307D02*
X70054819Y-79591545D01*
X70054819Y-79591545D02*
X70054819Y-79829640D01*
X70054819Y-79829640D02*
X70007200Y-79924878D01*
X70007200Y-79924878D02*
X69959580Y-79972497D01*
X75168095Y-57877819D02*
X75168095Y-58687342D01*
X75168095Y-58687342D02*
X75215714Y-58782580D01*
X75215714Y-58782580D02*
X75263333Y-58830200D01*
X75263333Y-58830200D02*
X75358571Y-58877819D01*
X75358571Y-58877819D02*
X75549047Y-58877819D01*
X75549047Y-58877819D02*
X75644285Y-58830200D01*
X75644285Y-58830200D02*
X75691904Y-58782580D01*
X75691904Y-58782580D02*
X75739523Y-58687342D01*
X75739523Y-58687342D02*
X75739523Y-57877819D01*
X76644285Y-57877819D02*
X76453809Y-57877819D01*
X76453809Y-57877819D02*
X76358571Y-57925438D01*
X76358571Y-57925438D02*
X76310952Y-57973057D01*
X76310952Y-57973057D02*
X76215714Y-58115914D01*
X76215714Y-58115914D02*
X76168095Y-58306390D01*
X76168095Y-58306390D02*
X76168095Y-58687342D01*
X76168095Y-58687342D02*
X76215714Y-58782580D01*
X76215714Y-58782580D02*
X76263333Y-58830200D01*
X76263333Y-58830200D02*
X76358571Y-58877819D01*
X76358571Y-58877819D02*
X76549047Y-58877819D01*
X76549047Y-58877819D02*
X76644285Y-58830200D01*
X76644285Y-58830200D02*
X76691904Y-58782580D01*
X76691904Y-58782580D02*
X76739523Y-58687342D01*
X76739523Y-58687342D02*
X76739523Y-58449247D01*
X76739523Y-58449247D02*
X76691904Y-58354009D01*
X76691904Y-58354009D02*
X76644285Y-58306390D01*
X76644285Y-58306390D02*
X76549047Y-58258771D01*
X76549047Y-58258771D02*
X76358571Y-58258771D01*
X76358571Y-58258771D02*
X76263333Y-58306390D01*
X76263333Y-58306390D02*
X76215714Y-58354009D01*
X76215714Y-58354009D02*
X76168095Y-58449247D01*
X70054819Y-74858807D02*
X69054819Y-74858807D01*
X69054819Y-74858807D02*
X69054819Y-74620712D01*
X69054819Y-74620712D02*
X69102438Y-74477855D01*
X69102438Y-74477855D02*
X69197676Y-74382617D01*
X69197676Y-74382617D02*
X69292914Y-74334998D01*
X69292914Y-74334998D02*
X69483390Y-74287379D01*
X69483390Y-74287379D02*
X69626247Y-74287379D01*
X69626247Y-74287379D02*
X69816723Y-74334998D01*
X69816723Y-74334998D02*
X69911961Y-74382617D01*
X69911961Y-74382617D02*
X70007200Y-74477855D01*
X70007200Y-74477855D02*
X70054819Y-74620712D01*
X70054819Y-74620712D02*
X70054819Y-74858807D01*
X69388152Y-73430236D02*
X70054819Y-73430236D01*
X69007200Y-73668331D02*
X69721485Y-73906426D01*
X69721485Y-73906426D02*
X69721485Y-73287379D01*
X53308333Y-120944818D02*
X52975000Y-120468627D01*
X52736905Y-120944818D02*
X52736905Y-119944818D01*
X52736905Y-119944818D02*
X53117857Y-119944818D01*
X53117857Y-119944818D02*
X53213095Y-119992437D01*
X53213095Y-119992437D02*
X53260714Y-120040056D01*
X53260714Y-120040056D02*
X53308333Y-120135294D01*
X53308333Y-120135294D02*
X53308333Y-120278151D01*
X53308333Y-120278151D02*
X53260714Y-120373389D01*
X53260714Y-120373389D02*
X53213095Y-120421008D01*
X53213095Y-120421008D02*
X53117857Y-120468627D01*
X53117857Y-120468627D02*
X52736905Y-120468627D01*
X53641667Y-119944818D02*
X54260714Y-119944818D01*
X54260714Y-119944818D02*
X53927381Y-120325770D01*
X53927381Y-120325770D02*
X54070238Y-120325770D01*
X54070238Y-120325770D02*
X54165476Y-120373389D01*
X54165476Y-120373389D02*
X54213095Y-120421008D01*
X54213095Y-120421008D02*
X54260714Y-120516246D01*
X54260714Y-120516246D02*
X54260714Y-120754341D01*
X54260714Y-120754341D02*
X54213095Y-120849579D01*
X54213095Y-120849579D02*
X54165476Y-120897199D01*
X54165476Y-120897199D02*
X54070238Y-120944818D01*
X54070238Y-120944818D02*
X53784524Y-120944818D01*
X53784524Y-120944818D02*
X53689286Y-120897199D01*
X53689286Y-120897199D02*
X53641667Y-120849579D01*
X66789580Y-105792857D02*
X66837200Y-105840476D01*
X66837200Y-105840476D02*
X66884819Y-105983333D01*
X66884819Y-105983333D02*
X66884819Y-106078571D01*
X66884819Y-106078571D02*
X66837200Y-106221428D01*
X66837200Y-106221428D02*
X66741961Y-106316666D01*
X66741961Y-106316666D02*
X66646723Y-106364285D01*
X66646723Y-106364285D02*
X66456247Y-106411904D01*
X66456247Y-106411904D02*
X66313390Y-106411904D01*
X66313390Y-106411904D02*
X66122914Y-106364285D01*
X66122914Y-106364285D02*
X66027676Y-106316666D01*
X66027676Y-106316666D02*
X65932438Y-106221428D01*
X65932438Y-106221428D02*
X65884819Y-106078571D01*
X65884819Y-106078571D02*
X65884819Y-105983333D01*
X65884819Y-105983333D02*
X65932438Y-105840476D01*
X65932438Y-105840476D02*
X65980057Y-105792857D01*
X66884819Y-104840476D02*
X66884819Y-105411904D01*
X66884819Y-105126190D02*
X65884819Y-105126190D01*
X65884819Y-105126190D02*
X66027676Y-105221428D01*
X66027676Y-105221428D02*
X66122914Y-105316666D01*
X66122914Y-105316666D02*
X66170533Y-105411904D01*
X66218152Y-103983333D02*
X66884819Y-103983333D01*
X65837200Y-104221428D02*
X66551485Y-104459523D01*
X66551485Y-104459523D02*
X66551485Y-103840476D01*
X60504761Y-83414341D02*
X60409523Y-83366722D01*
X60409523Y-83366722D02*
X60314285Y-83271484D01*
X60314285Y-83271484D02*
X60171428Y-83128626D01*
X60171428Y-83128626D02*
X60076190Y-83081007D01*
X60076190Y-83081007D02*
X59980952Y-83081007D01*
X60028571Y-83319103D02*
X59933333Y-83271484D01*
X59933333Y-83271484D02*
X59838095Y-83176245D01*
X59838095Y-83176245D02*
X59790476Y-82985769D01*
X59790476Y-82985769D02*
X59790476Y-82652436D01*
X59790476Y-82652436D02*
X59838095Y-82461960D01*
X59838095Y-82461960D02*
X59933333Y-82366722D01*
X59933333Y-82366722D02*
X60028571Y-82319103D01*
X60028571Y-82319103D02*
X60219047Y-82319103D01*
X60219047Y-82319103D02*
X60314285Y-82366722D01*
X60314285Y-82366722D02*
X60409523Y-82461960D01*
X60409523Y-82461960D02*
X60457142Y-82652436D01*
X60457142Y-82652436D02*
X60457142Y-82985769D01*
X60457142Y-82985769D02*
X60409523Y-83176245D01*
X60409523Y-83176245D02*
X60314285Y-83271484D01*
X60314285Y-83271484D02*
X60219047Y-83319103D01*
X60219047Y-83319103D02*
X60028571Y-83319103D01*
X61361904Y-82319103D02*
X60885714Y-82319103D01*
X60885714Y-82319103D02*
X60838095Y-82795293D01*
X60838095Y-82795293D02*
X60885714Y-82747674D01*
X60885714Y-82747674D02*
X60980952Y-82700055D01*
X60980952Y-82700055D02*
X61219047Y-82700055D01*
X61219047Y-82700055D02*
X61314285Y-82747674D01*
X61314285Y-82747674D02*
X61361904Y-82795293D01*
X61361904Y-82795293D02*
X61409523Y-82890531D01*
X61409523Y-82890531D02*
X61409523Y-83128626D01*
X61409523Y-83128626D02*
X61361904Y-83223864D01*
X61361904Y-83223864D02*
X61314285Y-83271484D01*
X61314285Y-83271484D02*
X61219047Y-83319103D01*
X61219047Y-83319103D02*
X60980952Y-83319103D01*
X60980952Y-83319103D02*
X60885714Y-83271484D01*
X60885714Y-83271484D02*
X60838095Y-83223864D01*
D11*
X79774318Y-117039762D02*
X78504318Y-117039762D01*
X79653365Y-115709285D02*
X79713842Y-115769761D01*
X79713842Y-115769761D02*
X79774318Y-115951190D01*
X79774318Y-115951190D02*
X79774318Y-116072142D01*
X79774318Y-116072142D02*
X79713842Y-116253571D01*
X79713842Y-116253571D02*
X79592889Y-116374523D01*
X79592889Y-116374523D02*
X79471937Y-116435000D01*
X79471937Y-116435000D02*
X79230032Y-116495476D01*
X79230032Y-116495476D02*
X79048603Y-116495476D01*
X79048603Y-116495476D02*
X78806699Y-116435000D01*
X78806699Y-116435000D02*
X78685746Y-116374523D01*
X78685746Y-116374523D02*
X78564794Y-116253571D01*
X78564794Y-116253571D02*
X78504318Y-116072142D01*
X78504318Y-116072142D02*
X78504318Y-115951190D01*
X78504318Y-115951190D02*
X78564794Y-115769761D01*
X78564794Y-115769761D02*
X78625270Y-115709285D01*
X79774318Y-114499761D02*
X79774318Y-115225476D01*
X79774318Y-114862619D02*
X78504318Y-114862619D01*
X78504318Y-114862619D02*
X78685746Y-114983571D01*
X78685746Y-114983571D02*
X78806699Y-115104523D01*
X78806699Y-115104523D02*
X78867175Y-115225476D01*
D10*
X113933333Y-77354819D02*
X113600000Y-76878628D01*
X113361905Y-77354819D02*
X113361905Y-76354819D01*
X113361905Y-76354819D02*
X113742857Y-76354819D01*
X113742857Y-76354819D02*
X113838095Y-76402438D01*
X113838095Y-76402438D02*
X113885714Y-76450057D01*
X113885714Y-76450057D02*
X113933333Y-76545295D01*
X113933333Y-76545295D02*
X113933333Y-76688152D01*
X113933333Y-76688152D02*
X113885714Y-76783390D01*
X113885714Y-76783390D02*
X113838095Y-76831009D01*
X113838095Y-76831009D02*
X113742857Y-76878628D01*
X113742857Y-76878628D02*
X113361905Y-76878628D01*
X114838095Y-76354819D02*
X114361905Y-76354819D01*
X114361905Y-76354819D02*
X114314286Y-76831009D01*
X114314286Y-76831009D02*
X114361905Y-76783390D01*
X114361905Y-76783390D02*
X114457143Y-76735771D01*
X114457143Y-76735771D02*
X114695238Y-76735771D01*
X114695238Y-76735771D02*
X114790476Y-76783390D01*
X114790476Y-76783390D02*
X114838095Y-76831009D01*
X114838095Y-76831009D02*
X114885714Y-76926247D01*
X114885714Y-76926247D02*
X114885714Y-77164342D01*
X114885714Y-77164342D02*
X114838095Y-77259580D01*
X114838095Y-77259580D02*
X114790476Y-77307200D01*
X114790476Y-77307200D02*
X114695238Y-77354819D01*
X114695238Y-77354819D02*
X114457143Y-77354819D01*
X114457143Y-77354819D02*
X114361905Y-77307200D01*
X114361905Y-77307200D02*
X114314286Y-77259580D01*
X60504761Y-77348270D02*
X60409523Y-77300651D01*
X60409523Y-77300651D02*
X60314285Y-77205413D01*
X60314285Y-77205413D02*
X60171428Y-77062555D01*
X60171428Y-77062555D02*
X60076190Y-77014936D01*
X60076190Y-77014936D02*
X59980952Y-77014936D01*
X60028571Y-77253032D02*
X59933333Y-77205413D01*
X59933333Y-77205413D02*
X59838095Y-77110174D01*
X59838095Y-77110174D02*
X59790476Y-76919698D01*
X59790476Y-76919698D02*
X59790476Y-76586365D01*
X59790476Y-76586365D02*
X59838095Y-76395889D01*
X59838095Y-76395889D02*
X59933333Y-76300651D01*
X59933333Y-76300651D02*
X60028571Y-76253032D01*
X60028571Y-76253032D02*
X60219047Y-76253032D01*
X60219047Y-76253032D02*
X60314285Y-76300651D01*
X60314285Y-76300651D02*
X60409523Y-76395889D01*
X60409523Y-76395889D02*
X60457142Y-76586365D01*
X60457142Y-76586365D02*
X60457142Y-76919698D01*
X60457142Y-76919698D02*
X60409523Y-77110174D01*
X60409523Y-77110174D02*
X60314285Y-77205413D01*
X60314285Y-77205413D02*
X60219047Y-77253032D01*
X60219047Y-77253032D02*
X60028571Y-77253032D01*
X61314285Y-76586365D02*
X61314285Y-77253032D01*
X61076190Y-76205413D02*
X60838095Y-76919698D01*
X60838095Y-76919698D02*
X61457142Y-76919698D01*
X116057142Y-84359580D02*
X116009523Y-84407200D01*
X116009523Y-84407200D02*
X115866666Y-84454819D01*
X115866666Y-84454819D02*
X115771428Y-84454819D01*
X115771428Y-84454819D02*
X115628571Y-84407200D01*
X115628571Y-84407200D02*
X115533333Y-84311961D01*
X115533333Y-84311961D02*
X115485714Y-84216723D01*
X115485714Y-84216723D02*
X115438095Y-84026247D01*
X115438095Y-84026247D02*
X115438095Y-83883390D01*
X115438095Y-83883390D02*
X115485714Y-83692914D01*
X115485714Y-83692914D02*
X115533333Y-83597676D01*
X115533333Y-83597676D02*
X115628571Y-83502438D01*
X115628571Y-83502438D02*
X115771428Y-83454819D01*
X115771428Y-83454819D02*
X115866666Y-83454819D01*
X115866666Y-83454819D02*
X116009523Y-83502438D01*
X116009523Y-83502438D02*
X116057142Y-83550057D01*
X117009523Y-84454819D02*
X116438095Y-84454819D01*
X116723809Y-84454819D02*
X116723809Y-83454819D01*
X116723809Y-83454819D02*
X116628571Y-83597676D01*
X116628571Y-83597676D02*
X116533333Y-83692914D01*
X116533333Y-83692914D02*
X116438095Y-83740533D01*
X117914285Y-83454819D02*
X117438095Y-83454819D01*
X117438095Y-83454819D02*
X117390476Y-83931009D01*
X117390476Y-83931009D02*
X117438095Y-83883390D01*
X117438095Y-83883390D02*
X117533333Y-83835771D01*
X117533333Y-83835771D02*
X117771428Y-83835771D01*
X117771428Y-83835771D02*
X117866666Y-83883390D01*
X117866666Y-83883390D02*
X117914285Y-83931009D01*
X117914285Y-83931009D02*
X117961904Y-84026247D01*
X117961904Y-84026247D02*
X117961904Y-84264342D01*
X117961904Y-84264342D02*
X117914285Y-84359580D01*
X117914285Y-84359580D02*
X117866666Y-84407200D01*
X117866666Y-84407200D02*
X117771428Y-84454819D01*
X117771428Y-84454819D02*
X117533333Y-84454819D01*
X117533333Y-84454819D02*
X117438095Y-84407200D01*
X117438095Y-84407200D02*
X117390476Y-84359580D01*
X71509580Y-105192857D02*
X71557200Y-105240476D01*
X71557200Y-105240476D02*
X71604819Y-105383333D01*
X71604819Y-105383333D02*
X71604819Y-105478571D01*
X71604819Y-105478571D02*
X71557200Y-105621428D01*
X71557200Y-105621428D02*
X71461961Y-105716666D01*
X71461961Y-105716666D02*
X71366723Y-105764285D01*
X71366723Y-105764285D02*
X71176247Y-105811904D01*
X71176247Y-105811904D02*
X71033390Y-105811904D01*
X71033390Y-105811904D02*
X70842914Y-105764285D01*
X70842914Y-105764285D02*
X70747676Y-105716666D01*
X70747676Y-105716666D02*
X70652438Y-105621428D01*
X70652438Y-105621428D02*
X70604819Y-105478571D01*
X70604819Y-105478571D02*
X70604819Y-105383333D01*
X70604819Y-105383333D02*
X70652438Y-105240476D01*
X70652438Y-105240476D02*
X70700057Y-105192857D01*
X71604819Y-104240476D02*
X71604819Y-104811904D01*
X71604819Y-104526190D02*
X70604819Y-104526190D01*
X70604819Y-104526190D02*
X70747676Y-104621428D01*
X70747676Y-104621428D02*
X70842914Y-104716666D01*
X70842914Y-104716666D02*
X70890533Y-104811904D01*
X70604819Y-103907142D02*
X70604819Y-103288095D01*
X70604819Y-103288095D02*
X70985771Y-103621428D01*
X70985771Y-103621428D02*
X70985771Y-103478571D01*
X70985771Y-103478571D02*
X71033390Y-103383333D01*
X71033390Y-103383333D02*
X71081009Y-103335714D01*
X71081009Y-103335714D02*
X71176247Y-103288095D01*
X71176247Y-103288095D02*
X71414342Y-103288095D01*
X71414342Y-103288095D02*
X71509580Y-103335714D01*
X71509580Y-103335714D02*
X71557200Y-103383333D01*
X71557200Y-103383333D02*
X71604819Y-103478571D01*
X71604819Y-103478571D02*
X71604819Y-103764285D01*
X71604819Y-103764285D02*
X71557200Y-103859523D01*
X71557200Y-103859523D02*
X71509580Y-103907142D01*
X60504761Y-95546483D02*
X60409523Y-95498864D01*
X60409523Y-95498864D02*
X60314285Y-95403626D01*
X60314285Y-95403626D02*
X60171428Y-95260768D01*
X60171428Y-95260768D02*
X60076190Y-95213149D01*
X60076190Y-95213149D02*
X59980952Y-95213149D01*
X60028571Y-95451245D02*
X59933333Y-95403626D01*
X59933333Y-95403626D02*
X59838095Y-95308387D01*
X59838095Y-95308387D02*
X59790476Y-95117911D01*
X59790476Y-95117911D02*
X59790476Y-94784578D01*
X59790476Y-94784578D02*
X59838095Y-94594102D01*
X59838095Y-94594102D02*
X59933333Y-94498864D01*
X59933333Y-94498864D02*
X60028571Y-94451245D01*
X60028571Y-94451245D02*
X60219047Y-94451245D01*
X60219047Y-94451245D02*
X60314285Y-94498864D01*
X60314285Y-94498864D02*
X60409523Y-94594102D01*
X60409523Y-94594102D02*
X60457142Y-94784578D01*
X60457142Y-94784578D02*
X60457142Y-95117911D01*
X60457142Y-95117911D02*
X60409523Y-95308387D01*
X60409523Y-95308387D02*
X60314285Y-95403626D01*
X60314285Y-95403626D02*
X60219047Y-95451245D01*
X60219047Y-95451245D02*
X60028571Y-95451245D01*
X60790476Y-94451245D02*
X61457142Y-94451245D01*
X61457142Y-94451245D02*
X61028571Y-95451245D01*
X111211009Y-60545833D02*
X111211009Y-60879166D01*
X111734819Y-60879166D02*
X110734819Y-60879166D01*
X110734819Y-60879166D02*
X110734819Y-60402976D01*
X111734819Y-59498214D02*
X111734819Y-60069642D01*
X111734819Y-59783928D02*
X110734819Y-59783928D01*
X110734819Y-59783928D02*
X110877676Y-59879166D01*
X110877676Y-59879166D02*
X110972914Y-59974404D01*
X110972914Y-59974404D02*
X111020533Y-60069642D01*
X70054819Y-93057020D02*
X69054819Y-93057020D01*
X69054819Y-93057020D02*
X69054819Y-92818925D01*
X69054819Y-92818925D02*
X69102438Y-92676068D01*
X69102438Y-92676068D02*
X69197676Y-92580830D01*
X69197676Y-92580830D02*
X69292914Y-92533211D01*
X69292914Y-92533211D02*
X69483390Y-92485592D01*
X69483390Y-92485592D02*
X69626247Y-92485592D01*
X69626247Y-92485592D02*
X69816723Y-92533211D01*
X69816723Y-92533211D02*
X69911961Y-92580830D01*
X69911961Y-92580830D02*
X70007200Y-92676068D01*
X70007200Y-92676068D02*
X70054819Y-92818925D01*
X70054819Y-92818925D02*
X70054819Y-93057020D01*
X69054819Y-92152258D02*
X69054819Y-91485592D01*
X69054819Y-91485592D02*
X70054819Y-91914163D01*
X60504761Y-71282199D02*
X60409523Y-71234580D01*
X60409523Y-71234580D02*
X60314285Y-71139342D01*
X60314285Y-71139342D02*
X60171428Y-70996484D01*
X60171428Y-70996484D02*
X60076190Y-70948865D01*
X60076190Y-70948865D02*
X59980952Y-70948865D01*
X60028571Y-71186961D02*
X59933333Y-71139342D01*
X59933333Y-71139342D02*
X59838095Y-71044103D01*
X59838095Y-71044103D02*
X59790476Y-70853627D01*
X59790476Y-70853627D02*
X59790476Y-70520294D01*
X59790476Y-70520294D02*
X59838095Y-70329818D01*
X59838095Y-70329818D02*
X59933333Y-70234580D01*
X59933333Y-70234580D02*
X60028571Y-70186961D01*
X60028571Y-70186961D02*
X60219047Y-70186961D01*
X60219047Y-70186961D02*
X60314285Y-70234580D01*
X60314285Y-70234580D02*
X60409523Y-70329818D01*
X60409523Y-70329818D02*
X60457142Y-70520294D01*
X60457142Y-70520294D02*
X60457142Y-70853627D01*
X60457142Y-70853627D02*
X60409523Y-71044103D01*
X60409523Y-71044103D02*
X60314285Y-71139342D01*
X60314285Y-71139342D02*
X60219047Y-71186961D01*
X60219047Y-71186961D02*
X60028571Y-71186961D01*
X60790476Y-70186961D02*
X61409523Y-70186961D01*
X61409523Y-70186961D02*
X61076190Y-70567913D01*
X61076190Y-70567913D02*
X61219047Y-70567913D01*
X61219047Y-70567913D02*
X61314285Y-70615532D01*
X61314285Y-70615532D02*
X61361904Y-70663151D01*
X61361904Y-70663151D02*
X61409523Y-70758389D01*
X61409523Y-70758389D02*
X61409523Y-70996484D01*
X61409523Y-70996484D02*
X61361904Y-71091722D01*
X61361904Y-71091722D02*
X61314285Y-71139342D01*
X61314285Y-71139342D02*
X61219047Y-71186961D01*
X61219047Y-71186961D02*
X60933333Y-71186961D01*
X60933333Y-71186961D02*
X60838095Y-71139342D01*
X60838095Y-71139342D02*
X60790476Y-71091722D01*
X51556666Y-57909819D02*
X51556666Y-58624104D01*
X51556666Y-58624104D02*
X51509047Y-58766961D01*
X51509047Y-58766961D02*
X51413809Y-58862200D01*
X51413809Y-58862200D02*
X51270952Y-58909819D01*
X51270952Y-58909819D02*
X51175714Y-58909819D01*
X52556666Y-58909819D02*
X51985238Y-58909819D01*
X52270952Y-58909819D02*
X52270952Y-57909819D01*
X52270952Y-57909819D02*
X52175714Y-58052676D01*
X52175714Y-58052676D02*
X52080476Y-58147914D01*
X52080476Y-58147914D02*
X51985238Y-58195533D01*
X53938095Y-118754819D02*
X53938095Y-119564342D01*
X53938095Y-119564342D02*
X53985714Y-119659580D01*
X53985714Y-119659580D02*
X54033333Y-119707200D01*
X54033333Y-119707200D02*
X54128571Y-119754819D01*
X54128571Y-119754819D02*
X54319047Y-119754819D01*
X54319047Y-119754819D02*
X54414285Y-119707200D01*
X54414285Y-119707200D02*
X54461904Y-119659580D01*
X54461904Y-119659580D02*
X54509523Y-119564342D01*
X54509523Y-119564342D02*
X54509523Y-118754819D01*
X55414285Y-119088152D02*
X55414285Y-119754819D01*
X55176190Y-118707200D02*
X54938095Y-119421485D01*
X54938095Y-119421485D02*
X55557142Y-119421485D01*
X53069580Y-130351666D02*
X53117200Y-130399285D01*
X53117200Y-130399285D02*
X53164819Y-130542142D01*
X53164819Y-130542142D02*
X53164819Y-130637380D01*
X53164819Y-130637380D02*
X53117200Y-130780237D01*
X53117200Y-130780237D02*
X53021961Y-130875475D01*
X53021961Y-130875475D02*
X52926723Y-130923094D01*
X52926723Y-130923094D02*
X52736247Y-130970713D01*
X52736247Y-130970713D02*
X52593390Y-130970713D01*
X52593390Y-130970713D02*
X52402914Y-130923094D01*
X52402914Y-130923094D02*
X52307676Y-130875475D01*
X52307676Y-130875475D02*
X52212438Y-130780237D01*
X52212438Y-130780237D02*
X52164819Y-130637380D01*
X52164819Y-130637380D02*
X52164819Y-130542142D01*
X52164819Y-130542142D02*
X52212438Y-130399285D01*
X52212438Y-130399285D02*
X52260057Y-130351666D01*
X52498152Y-129494523D02*
X53164819Y-129494523D01*
X52117200Y-129732618D02*
X52831485Y-129970713D01*
X52831485Y-129970713D02*
X52831485Y-129351666D01*
X58508333Y-120944818D02*
X58175000Y-120468627D01*
X57936905Y-120944818D02*
X57936905Y-119944818D01*
X57936905Y-119944818D02*
X58317857Y-119944818D01*
X58317857Y-119944818D02*
X58413095Y-119992437D01*
X58413095Y-119992437D02*
X58460714Y-120040056D01*
X58460714Y-120040056D02*
X58508333Y-120135294D01*
X58508333Y-120135294D02*
X58508333Y-120278151D01*
X58508333Y-120278151D02*
X58460714Y-120373389D01*
X58460714Y-120373389D02*
X58413095Y-120421008D01*
X58413095Y-120421008D02*
X58317857Y-120468627D01*
X58317857Y-120468627D02*
X57936905Y-120468627D01*
X59365476Y-120278151D02*
X59365476Y-120944818D01*
X59127381Y-119897199D02*
X58889286Y-120611484D01*
X58889286Y-120611484D02*
X59508333Y-120611484D01*
X80649580Y-132101666D02*
X80697200Y-132149285D01*
X80697200Y-132149285D02*
X80744819Y-132292142D01*
X80744819Y-132292142D02*
X80744819Y-132387380D01*
X80744819Y-132387380D02*
X80697200Y-132530237D01*
X80697200Y-132530237D02*
X80601961Y-132625475D01*
X80601961Y-132625475D02*
X80506723Y-132673094D01*
X80506723Y-132673094D02*
X80316247Y-132720713D01*
X80316247Y-132720713D02*
X80173390Y-132720713D01*
X80173390Y-132720713D02*
X79982914Y-132673094D01*
X79982914Y-132673094D02*
X79887676Y-132625475D01*
X79887676Y-132625475D02*
X79792438Y-132530237D01*
X79792438Y-132530237D02*
X79744819Y-132387380D01*
X79744819Y-132387380D02*
X79744819Y-132292142D01*
X79744819Y-132292142D02*
X79792438Y-132149285D01*
X79792438Y-132149285D02*
X79840057Y-132101666D01*
X80744819Y-131149285D02*
X80744819Y-131720713D01*
X80744819Y-131434999D02*
X79744819Y-131434999D01*
X79744819Y-131434999D02*
X79887676Y-131530237D01*
X79887676Y-131530237D02*
X79982914Y-131625475D01*
X79982914Y-131625475D02*
X80030533Y-131720713D01*
X89923095Y-56569819D02*
X89923095Y-57379342D01*
X89923095Y-57379342D02*
X89970714Y-57474580D01*
X89970714Y-57474580D02*
X90018333Y-57522200D01*
X90018333Y-57522200D02*
X90113571Y-57569819D01*
X90113571Y-57569819D02*
X90304047Y-57569819D01*
X90304047Y-57569819D02*
X90399285Y-57522200D01*
X90399285Y-57522200D02*
X90446904Y-57474580D01*
X90446904Y-57474580D02*
X90494523Y-57379342D01*
X90494523Y-57379342D02*
X90494523Y-56569819D01*
X90875476Y-56569819D02*
X91494523Y-56569819D01*
X91494523Y-56569819D02*
X91161190Y-56950771D01*
X91161190Y-56950771D02*
X91304047Y-56950771D01*
X91304047Y-56950771D02*
X91399285Y-56998390D01*
X91399285Y-56998390D02*
X91446904Y-57046009D01*
X91446904Y-57046009D02*
X91494523Y-57141247D01*
X91494523Y-57141247D02*
X91494523Y-57379342D01*
X91494523Y-57379342D02*
X91446904Y-57474580D01*
X91446904Y-57474580D02*
X91399285Y-57522200D01*
X91399285Y-57522200D02*
X91304047Y-57569819D01*
X91304047Y-57569819D02*
X91018333Y-57569819D01*
X91018333Y-57569819D02*
X90923095Y-57522200D01*
X90923095Y-57522200D02*
X90875476Y-57474580D01*
X59083333Y-108184818D02*
X58750000Y-107708627D01*
X58511905Y-108184818D02*
X58511905Y-107184818D01*
X58511905Y-107184818D02*
X58892857Y-107184818D01*
X58892857Y-107184818D02*
X58988095Y-107232437D01*
X58988095Y-107232437D02*
X59035714Y-107280056D01*
X59035714Y-107280056D02*
X59083333Y-107375294D01*
X59083333Y-107375294D02*
X59083333Y-107518151D01*
X59083333Y-107518151D02*
X59035714Y-107613389D01*
X59035714Y-107613389D02*
X58988095Y-107661008D01*
X58988095Y-107661008D02*
X58892857Y-107708627D01*
X58892857Y-107708627D02*
X58511905Y-107708627D01*
X60035714Y-108184818D02*
X59464286Y-108184818D01*
X59750000Y-108184818D02*
X59750000Y-107184818D01*
X59750000Y-107184818D02*
X59654762Y-107327675D01*
X59654762Y-107327675D02*
X59559524Y-107422913D01*
X59559524Y-107422913D02*
X59464286Y-107470532D01*
X70104819Y-99123094D02*
X69104819Y-99123094D01*
X69104819Y-99123094D02*
X69104819Y-98884999D01*
X69104819Y-98884999D02*
X69152438Y-98742142D01*
X69152438Y-98742142D02*
X69247676Y-98646904D01*
X69247676Y-98646904D02*
X69342914Y-98599285D01*
X69342914Y-98599285D02*
X69533390Y-98551666D01*
X69533390Y-98551666D02*
X69676247Y-98551666D01*
X69676247Y-98551666D02*
X69866723Y-98599285D01*
X69866723Y-98599285D02*
X69961961Y-98646904D01*
X69961961Y-98646904D02*
X70057200Y-98742142D01*
X70057200Y-98742142D02*
X70104819Y-98884999D01*
X70104819Y-98884999D02*
X70104819Y-99123094D01*
X69533390Y-97980237D02*
X69485771Y-98075475D01*
X69485771Y-98075475D02*
X69438152Y-98123094D01*
X69438152Y-98123094D02*
X69342914Y-98170713D01*
X69342914Y-98170713D02*
X69295295Y-98170713D01*
X69295295Y-98170713D02*
X69200057Y-98123094D01*
X69200057Y-98123094D02*
X69152438Y-98075475D01*
X69152438Y-98075475D02*
X69104819Y-97980237D01*
X69104819Y-97980237D02*
X69104819Y-97789761D01*
X69104819Y-97789761D02*
X69152438Y-97694523D01*
X69152438Y-97694523D02*
X69200057Y-97646904D01*
X69200057Y-97646904D02*
X69295295Y-97599285D01*
X69295295Y-97599285D02*
X69342914Y-97599285D01*
X69342914Y-97599285D02*
X69438152Y-97646904D01*
X69438152Y-97646904D02*
X69485771Y-97694523D01*
X69485771Y-97694523D02*
X69533390Y-97789761D01*
X69533390Y-97789761D02*
X69533390Y-97980237D01*
X69533390Y-97980237D02*
X69581009Y-98075475D01*
X69581009Y-98075475D02*
X69628628Y-98123094D01*
X69628628Y-98123094D02*
X69723866Y-98170713D01*
X69723866Y-98170713D02*
X69914342Y-98170713D01*
X69914342Y-98170713D02*
X70009580Y-98123094D01*
X70009580Y-98123094D02*
X70057200Y-98075475D01*
X70057200Y-98075475D02*
X70104819Y-97980237D01*
X70104819Y-97980237D02*
X70104819Y-97789761D01*
X70104819Y-97789761D02*
X70057200Y-97694523D01*
X70057200Y-97694523D02*
X70009580Y-97646904D01*
X70009580Y-97646904D02*
X69914342Y-97599285D01*
X69914342Y-97599285D02*
X69723866Y-97599285D01*
X69723866Y-97599285D02*
X69628628Y-97646904D01*
X69628628Y-97646904D02*
X69581009Y-97694523D01*
X69581009Y-97694523D02*
X69533390Y-97789761D01*
X125433333Y-84559580D02*
X125385714Y-84607200D01*
X125385714Y-84607200D02*
X125242857Y-84654819D01*
X125242857Y-84654819D02*
X125147619Y-84654819D01*
X125147619Y-84654819D02*
X125004762Y-84607200D01*
X125004762Y-84607200D02*
X124909524Y-84511961D01*
X124909524Y-84511961D02*
X124861905Y-84416723D01*
X124861905Y-84416723D02*
X124814286Y-84226247D01*
X124814286Y-84226247D02*
X124814286Y-84083390D01*
X124814286Y-84083390D02*
X124861905Y-83892914D01*
X124861905Y-83892914D02*
X124909524Y-83797676D01*
X124909524Y-83797676D02*
X125004762Y-83702438D01*
X125004762Y-83702438D02*
X125147619Y-83654819D01*
X125147619Y-83654819D02*
X125242857Y-83654819D01*
X125242857Y-83654819D02*
X125385714Y-83702438D01*
X125385714Y-83702438D02*
X125433333Y-83750057D01*
X126004762Y-84083390D02*
X125909524Y-84035771D01*
X125909524Y-84035771D02*
X125861905Y-83988152D01*
X125861905Y-83988152D02*
X125814286Y-83892914D01*
X125814286Y-83892914D02*
X125814286Y-83845295D01*
X125814286Y-83845295D02*
X125861905Y-83750057D01*
X125861905Y-83750057D02*
X125909524Y-83702438D01*
X125909524Y-83702438D02*
X126004762Y-83654819D01*
X126004762Y-83654819D02*
X126195238Y-83654819D01*
X126195238Y-83654819D02*
X126290476Y-83702438D01*
X126290476Y-83702438D02*
X126338095Y-83750057D01*
X126338095Y-83750057D02*
X126385714Y-83845295D01*
X126385714Y-83845295D02*
X126385714Y-83892914D01*
X126385714Y-83892914D02*
X126338095Y-83988152D01*
X126338095Y-83988152D02*
X126290476Y-84035771D01*
X126290476Y-84035771D02*
X126195238Y-84083390D01*
X126195238Y-84083390D02*
X126004762Y-84083390D01*
X126004762Y-84083390D02*
X125909524Y-84131009D01*
X125909524Y-84131009D02*
X125861905Y-84178628D01*
X125861905Y-84178628D02*
X125814286Y-84273866D01*
X125814286Y-84273866D02*
X125814286Y-84464342D01*
X125814286Y-84464342D02*
X125861905Y-84559580D01*
X125861905Y-84559580D02*
X125909524Y-84607200D01*
X125909524Y-84607200D02*
X126004762Y-84654819D01*
X126004762Y-84654819D02*
X126195238Y-84654819D01*
X126195238Y-84654819D02*
X126290476Y-84607200D01*
X126290476Y-84607200D02*
X126338095Y-84559580D01*
X126338095Y-84559580D02*
X126385714Y-84464342D01*
X126385714Y-84464342D02*
X126385714Y-84273866D01*
X126385714Y-84273866D02*
X126338095Y-84178628D01*
X126338095Y-84178628D02*
X126290476Y-84131009D01*
X126290476Y-84131009D02*
X126195238Y-84083390D01*
X103109580Y-117867857D02*
X103157200Y-117915476D01*
X103157200Y-117915476D02*
X103204819Y-118058333D01*
X103204819Y-118058333D02*
X103204819Y-118153571D01*
X103204819Y-118153571D02*
X103157200Y-118296428D01*
X103157200Y-118296428D02*
X103061961Y-118391666D01*
X103061961Y-118391666D02*
X102966723Y-118439285D01*
X102966723Y-118439285D02*
X102776247Y-118486904D01*
X102776247Y-118486904D02*
X102633390Y-118486904D01*
X102633390Y-118486904D02*
X102442914Y-118439285D01*
X102442914Y-118439285D02*
X102347676Y-118391666D01*
X102347676Y-118391666D02*
X102252438Y-118296428D01*
X102252438Y-118296428D02*
X102204819Y-118153571D01*
X102204819Y-118153571D02*
X102204819Y-118058333D01*
X102204819Y-118058333D02*
X102252438Y-117915476D01*
X102252438Y-117915476D02*
X102300057Y-117867857D01*
X103204819Y-116915476D02*
X103204819Y-117486904D01*
X103204819Y-117201190D02*
X102204819Y-117201190D01*
X102204819Y-117201190D02*
X102347676Y-117296428D01*
X102347676Y-117296428D02*
X102442914Y-117391666D01*
X102442914Y-117391666D02*
X102490533Y-117486904D01*
X102300057Y-116534523D02*
X102252438Y-116486904D01*
X102252438Y-116486904D02*
X102204819Y-116391666D01*
X102204819Y-116391666D02*
X102204819Y-116153571D01*
X102204819Y-116153571D02*
X102252438Y-116058333D01*
X102252438Y-116058333D02*
X102300057Y-116010714D01*
X102300057Y-116010714D02*
X102395295Y-115963095D01*
X102395295Y-115963095D02*
X102490533Y-115963095D01*
X102490533Y-115963095D02*
X102633390Y-116010714D01*
X102633390Y-116010714D02*
X103204819Y-116582142D01*
X103204819Y-116582142D02*
X103204819Y-115963095D01*
D11*
X56374318Y-106239762D02*
X55104318Y-106239762D01*
X56253365Y-104909285D02*
X56313842Y-104969761D01*
X56313842Y-104969761D02*
X56374318Y-105151190D01*
X56374318Y-105151190D02*
X56374318Y-105272142D01*
X56374318Y-105272142D02*
X56313842Y-105453571D01*
X56313842Y-105453571D02*
X56192889Y-105574523D01*
X56192889Y-105574523D02*
X56071937Y-105635000D01*
X56071937Y-105635000D02*
X55830032Y-105695476D01*
X55830032Y-105695476D02*
X55648603Y-105695476D01*
X55648603Y-105695476D02*
X55406699Y-105635000D01*
X55406699Y-105635000D02*
X55285746Y-105574523D01*
X55285746Y-105574523D02*
X55164794Y-105453571D01*
X55164794Y-105453571D02*
X55104318Y-105272142D01*
X55104318Y-105272142D02*
X55104318Y-105151190D01*
X55104318Y-105151190D02*
X55164794Y-104969761D01*
X55164794Y-104969761D02*
X55225270Y-104909285D01*
X55225270Y-104425476D02*
X55164794Y-104365000D01*
X55164794Y-104365000D02*
X55104318Y-104244047D01*
X55104318Y-104244047D02*
X55104318Y-103941666D01*
X55104318Y-103941666D02*
X55164794Y-103820714D01*
X55164794Y-103820714D02*
X55225270Y-103760238D01*
X55225270Y-103760238D02*
X55346222Y-103699761D01*
X55346222Y-103699761D02*
X55467175Y-103699761D01*
X55467175Y-103699761D02*
X55648603Y-103760238D01*
X55648603Y-103760238D02*
X56374318Y-104485952D01*
X56374318Y-104485952D02*
X56374318Y-103699761D01*
D10*
X68873333Y-138989819D02*
X68397143Y-138989819D01*
X68397143Y-138989819D02*
X68397143Y-137989819D01*
X69159048Y-138085057D02*
X69206667Y-138037438D01*
X69206667Y-138037438D02*
X69301905Y-137989819D01*
X69301905Y-137989819D02*
X69540000Y-137989819D01*
X69540000Y-137989819D02*
X69635238Y-138037438D01*
X69635238Y-138037438D02*
X69682857Y-138085057D01*
X69682857Y-138085057D02*
X69730476Y-138180295D01*
X69730476Y-138180295D02*
X69730476Y-138275533D01*
X69730476Y-138275533D02*
X69682857Y-138418390D01*
X69682857Y-138418390D02*
X69111429Y-138989819D01*
X69111429Y-138989819D02*
X69730476Y-138989819D01*
X115909580Y-63266666D02*
X115957200Y-63314285D01*
X115957200Y-63314285D02*
X116004819Y-63457142D01*
X116004819Y-63457142D02*
X116004819Y-63552380D01*
X116004819Y-63552380D02*
X115957200Y-63695237D01*
X115957200Y-63695237D02*
X115861961Y-63790475D01*
X115861961Y-63790475D02*
X115766723Y-63838094D01*
X115766723Y-63838094D02*
X115576247Y-63885713D01*
X115576247Y-63885713D02*
X115433390Y-63885713D01*
X115433390Y-63885713D02*
X115242914Y-63838094D01*
X115242914Y-63838094D02*
X115147676Y-63790475D01*
X115147676Y-63790475D02*
X115052438Y-63695237D01*
X115052438Y-63695237D02*
X115004819Y-63552380D01*
X115004819Y-63552380D02*
X115004819Y-63457142D01*
X115004819Y-63457142D02*
X115052438Y-63314285D01*
X115052438Y-63314285D02*
X115100057Y-63266666D01*
X115004819Y-62361904D02*
X115004819Y-62838094D01*
X115004819Y-62838094D02*
X115481009Y-62885713D01*
X115481009Y-62885713D02*
X115433390Y-62838094D01*
X115433390Y-62838094D02*
X115385771Y-62742856D01*
X115385771Y-62742856D02*
X115385771Y-62504761D01*
X115385771Y-62504761D02*
X115433390Y-62409523D01*
X115433390Y-62409523D02*
X115481009Y-62361904D01*
X115481009Y-62361904D02*
X115576247Y-62314285D01*
X115576247Y-62314285D02*
X115814342Y-62314285D01*
X115814342Y-62314285D02*
X115909580Y-62361904D01*
X115909580Y-62361904D02*
X115957200Y-62409523D01*
X115957200Y-62409523D02*
X116004819Y-62504761D01*
X116004819Y-62504761D02*
X116004819Y-62742856D01*
X116004819Y-62742856D02*
X115957200Y-62838094D01*
X115957200Y-62838094D02*
X115909580Y-62885713D01*
X60504761Y-59150057D02*
X60409523Y-59102438D01*
X60409523Y-59102438D02*
X60314285Y-59007200D01*
X60314285Y-59007200D02*
X60171428Y-58864342D01*
X60171428Y-58864342D02*
X60076190Y-58816723D01*
X60076190Y-58816723D02*
X59980952Y-58816723D01*
X60028571Y-59054819D02*
X59933333Y-59007200D01*
X59933333Y-59007200D02*
X59838095Y-58911961D01*
X59838095Y-58911961D02*
X59790476Y-58721485D01*
X59790476Y-58721485D02*
X59790476Y-58388152D01*
X59790476Y-58388152D02*
X59838095Y-58197676D01*
X59838095Y-58197676D02*
X59933333Y-58102438D01*
X59933333Y-58102438D02*
X60028571Y-58054819D01*
X60028571Y-58054819D02*
X60219047Y-58054819D01*
X60219047Y-58054819D02*
X60314285Y-58102438D01*
X60314285Y-58102438D02*
X60409523Y-58197676D01*
X60409523Y-58197676D02*
X60457142Y-58388152D01*
X60457142Y-58388152D02*
X60457142Y-58721485D01*
X60457142Y-58721485D02*
X60409523Y-58911961D01*
X60409523Y-58911961D02*
X60314285Y-59007200D01*
X60314285Y-59007200D02*
X60219047Y-59054819D01*
X60219047Y-59054819D02*
X60028571Y-59054819D01*
X61409523Y-59054819D02*
X60838095Y-59054819D01*
X61123809Y-59054819D02*
X61123809Y-58054819D01*
X61123809Y-58054819D02*
X61028571Y-58197676D01*
X61028571Y-58197676D02*
X60933333Y-58292914D01*
X60933333Y-58292914D02*
X60838095Y-58340533D01*
X114338095Y-72054819D02*
X114338095Y-72864342D01*
X114338095Y-72864342D02*
X114385714Y-72959580D01*
X114385714Y-72959580D02*
X114433333Y-73007200D01*
X114433333Y-73007200D02*
X114528571Y-73054819D01*
X114528571Y-73054819D02*
X114719047Y-73054819D01*
X114719047Y-73054819D02*
X114814285Y-73007200D01*
X114814285Y-73007200D02*
X114861904Y-72959580D01*
X114861904Y-72959580D02*
X114909523Y-72864342D01*
X114909523Y-72864342D02*
X114909523Y-72054819D01*
X115861904Y-72054819D02*
X115385714Y-72054819D01*
X115385714Y-72054819D02*
X115338095Y-72531009D01*
X115338095Y-72531009D02*
X115385714Y-72483390D01*
X115385714Y-72483390D02*
X115480952Y-72435771D01*
X115480952Y-72435771D02*
X115719047Y-72435771D01*
X115719047Y-72435771D02*
X115814285Y-72483390D01*
X115814285Y-72483390D02*
X115861904Y-72531009D01*
X115861904Y-72531009D02*
X115909523Y-72626247D01*
X115909523Y-72626247D02*
X115909523Y-72864342D01*
X115909523Y-72864342D02*
X115861904Y-72959580D01*
X115861904Y-72959580D02*
X115814285Y-73007200D01*
X115814285Y-73007200D02*
X115719047Y-73054819D01*
X115719047Y-73054819D02*
X115480952Y-73054819D01*
X115480952Y-73054819D02*
X115385714Y-73007200D01*
X115385714Y-73007200D02*
X115338095Y-72959580D01*
X60504761Y-89480412D02*
X60409523Y-89432793D01*
X60409523Y-89432793D02*
X60314285Y-89337555D01*
X60314285Y-89337555D02*
X60171428Y-89194697D01*
X60171428Y-89194697D02*
X60076190Y-89147078D01*
X60076190Y-89147078D02*
X59980952Y-89147078D01*
X60028571Y-89385174D02*
X59933333Y-89337555D01*
X59933333Y-89337555D02*
X59838095Y-89242316D01*
X59838095Y-89242316D02*
X59790476Y-89051840D01*
X59790476Y-89051840D02*
X59790476Y-88718507D01*
X59790476Y-88718507D02*
X59838095Y-88528031D01*
X59838095Y-88528031D02*
X59933333Y-88432793D01*
X59933333Y-88432793D02*
X60028571Y-88385174D01*
X60028571Y-88385174D02*
X60219047Y-88385174D01*
X60219047Y-88385174D02*
X60314285Y-88432793D01*
X60314285Y-88432793D02*
X60409523Y-88528031D01*
X60409523Y-88528031D02*
X60457142Y-88718507D01*
X60457142Y-88718507D02*
X60457142Y-89051840D01*
X60457142Y-89051840D02*
X60409523Y-89242316D01*
X60409523Y-89242316D02*
X60314285Y-89337555D01*
X60314285Y-89337555D02*
X60219047Y-89385174D01*
X60219047Y-89385174D02*
X60028571Y-89385174D01*
X61314285Y-88385174D02*
X61123809Y-88385174D01*
X61123809Y-88385174D02*
X61028571Y-88432793D01*
X61028571Y-88432793D02*
X60980952Y-88480412D01*
X60980952Y-88480412D02*
X60885714Y-88623269D01*
X60885714Y-88623269D02*
X60838095Y-88813745D01*
X60838095Y-88813745D02*
X60838095Y-89194697D01*
X60838095Y-89194697D02*
X60885714Y-89289935D01*
X60885714Y-89289935D02*
X60933333Y-89337555D01*
X60933333Y-89337555D02*
X61028571Y-89385174D01*
X61028571Y-89385174D02*
X61219047Y-89385174D01*
X61219047Y-89385174D02*
X61314285Y-89337555D01*
X61314285Y-89337555D02*
X61361904Y-89289935D01*
X61361904Y-89289935D02*
X61409523Y-89194697D01*
X61409523Y-89194697D02*
X61409523Y-88956602D01*
X61409523Y-88956602D02*
X61361904Y-88861364D01*
X61361904Y-88861364D02*
X61314285Y-88813745D01*
X61314285Y-88813745D02*
X61219047Y-88766126D01*
X61219047Y-88766126D02*
X61028571Y-88766126D01*
X61028571Y-88766126D02*
X60933333Y-88813745D01*
X60933333Y-88813745D02*
X60885714Y-88861364D01*
X60885714Y-88861364D02*
X60838095Y-88956602D01*
X97639580Y-117542857D02*
X97687200Y-117590476D01*
X97687200Y-117590476D02*
X97734819Y-117733333D01*
X97734819Y-117733333D02*
X97734819Y-117828571D01*
X97734819Y-117828571D02*
X97687200Y-117971428D01*
X97687200Y-117971428D02*
X97591961Y-118066666D01*
X97591961Y-118066666D02*
X97496723Y-118114285D01*
X97496723Y-118114285D02*
X97306247Y-118161904D01*
X97306247Y-118161904D02*
X97163390Y-118161904D01*
X97163390Y-118161904D02*
X96972914Y-118114285D01*
X96972914Y-118114285D02*
X96877676Y-118066666D01*
X96877676Y-118066666D02*
X96782438Y-117971428D01*
X96782438Y-117971428D02*
X96734819Y-117828571D01*
X96734819Y-117828571D02*
X96734819Y-117733333D01*
X96734819Y-117733333D02*
X96782438Y-117590476D01*
X96782438Y-117590476D02*
X96830057Y-117542857D01*
X97734819Y-116590476D02*
X97734819Y-117161904D01*
X97734819Y-116876190D02*
X96734819Y-116876190D01*
X96734819Y-116876190D02*
X96877676Y-116971428D01*
X96877676Y-116971428D02*
X96972914Y-117066666D01*
X96972914Y-117066666D02*
X97020533Y-117161904D01*
X97734819Y-115638095D02*
X97734819Y-116209523D01*
X97734819Y-115923809D02*
X96734819Y-115923809D01*
X96734819Y-115923809D02*
X96877676Y-116019047D01*
X96877676Y-116019047D02*
X96972914Y-116114285D01*
X96972914Y-116114285D02*
X97020533Y-116209523D01*
X70054819Y-86990949D02*
X69054819Y-86990949D01*
X69054819Y-86990949D02*
X69054819Y-86752854D01*
X69054819Y-86752854D02*
X69102438Y-86609997D01*
X69102438Y-86609997D02*
X69197676Y-86514759D01*
X69197676Y-86514759D02*
X69292914Y-86467140D01*
X69292914Y-86467140D02*
X69483390Y-86419521D01*
X69483390Y-86419521D02*
X69626247Y-86419521D01*
X69626247Y-86419521D02*
X69816723Y-86467140D01*
X69816723Y-86467140D02*
X69911961Y-86514759D01*
X69911961Y-86514759D02*
X70007200Y-86609997D01*
X70007200Y-86609997D02*
X70054819Y-86752854D01*
X70054819Y-86752854D02*
X70054819Y-86990949D01*
X69054819Y-85562378D02*
X69054819Y-85752854D01*
X69054819Y-85752854D02*
X69102438Y-85848092D01*
X69102438Y-85848092D02*
X69150057Y-85895711D01*
X69150057Y-85895711D02*
X69292914Y-85990949D01*
X69292914Y-85990949D02*
X69483390Y-86038568D01*
X69483390Y-86038568D02*
X69864342Y-86038568D01*
X69864342Y-86038568D02*
X69959580Y-85990949D01*
X69959580Y-85990949D02*
X70007200Y-85943330D01*
X70007200Y-85943330D02*
X70054819Y-85848092D01*
X70054819Y-85848092D02*
X70054819Y-85657616D01*
X70054819Y-85657616D02*
X70007200Y-85562378D01*
X70007200Y-85562378D02*
X69959580Y-85514759D01*
X69959580Y-85514759D02*
X69864342Y-85467140D01*
X69864342Y-85467140D02*
X69626247Y-85467140D01*
X69626247Y-85467140D02*
X69531009Y-85514759D01*
X69531009Y-85514759D02*
X69483390Y-85562378D01*
X69483390Y-85562378D02*
X69435771Y-85657616D01*
X69435771Y-85657616D02*
X69435771Y-85848092D01*
X69435771Y-85848092D02*
X69483390Y-85943330D01*
X69483390Y-85943330D02*
X69531009Y-85990949D01*
X69531009Y-85990949D02*
X69626247Y-86038568D01*
X70054819Y-62726665D02*
X69054819Y-62726665D01*
X69054819Y-62726665D02*
X69054819Y-62488570D01*
X69054819Y-62488570D02*
X69102438Y-62345713D01*
X69102438Y-62345713D02*
X69197676Y-62250475D01*
X69197676Y-62250475D02*
X69292914Y-62202856D01*
X69292914Y-62202856D02*
X69483390Y-62155237D01*
X69483390Y-62155237D02*
X69626247Y-62155237D01*
X69626247Y-62155237D02*
X69816723Y-62202856D01*
X69816723Y-62202856D02*
X69911961Y-62250475D01*
X69911961Y-62250475D02*
X70007200Y-62345713D01*
X70007200Y-62345713D02*
X70054819Y-62488570D01*
X70054819Y-62488570D02*
X70054819Y-62726665D01*
X69150057Y-61774284D02*
X69102438Y-61726665D01*
X69102438Y-61726665D02*
X69054819Y-61631427D01*
X69054819Y-61631427D02*
X69054819Y-61393332D01*
X69054819Y-61393332D02*
X69102438Y-61298094D01*
X69102438Y-61298094D02*
X69150057Y-61250475D01*
X69150057Y-61250475D02*
X69245295Y-61202856D01*
X69245295Y-61202856D02*
X69340533Y-61202856D01*
X69340533Y-61202856D02*
X69483390Y-61250475D01*
X69483390Y-61250475D02*
X70054819Y-61821903D01*
X70054819Y-61821903D02*
X70054819Y-61202856D01*
X70054819Y-56660594D02*
X69054819Y-56660594D01*
X69054819Y-56660594D02*
X69054819Y-56422499D01*
X69054819Y-56422499D02*
X69102438Y-56279642D01*
X69102438Y-56279642D02*
X69197676Y-56184404D01*
X69197676Y-56184404D02*
X69292914Y-56136785D01*
X69292914Y-56136785D02*
X69483390Y-56089166D01*
X69483390Y-56089166D02*
X69626247Y-56089166D01*
X69626247Y-56089166D02*
X69816723Y-56136785D01*
X69816723Y-56136785D02*
X69911961Y-56184404D01*
X69911961Y-56184404D02*
X70007200Y-56279642D01*
X70007200Y-56279642D02*
X70054819Y-56422499D01*
X70054819Y-56422499D02*
X70054819Y-56660594D01*
X70054819Y-55136785D02*
X70054819Y-55708213D01*
X70054819Y-55422499D02*
X69054819Y-55422499D01*
X69054819Y-55422499D02*
X69197676Y-55517737D01*
X69197676Y-55517737D02*
X69292914Y-55612975D01*
X69292914Y-55612975D02*
X69340533Y-55708213D01*
X111174819Y-91333333D02*
X111889104Y-91333333D01*
X111889104Y-91333333D02*
X112031961Y-91380952D01*
X112031961Y-91380952D02*
X112127200Y-91476190D01*
X112127200Y-91476190D02*
X112174819Y-91619047D01*
X112174819Y-91619047D02*
X112174819Y-91714285D01*
X111270057Y-90904761D02*
X111222438Y-90857142D01*
X111222438Y-90857142D02*
X111174819Y-90761904D01*
X111174819Y-90761904D02*
X111174819Y-90523809D01*
X111174819Y-90523809D02*
X111222438Y-90428571D01*
X111222438Y-90428571D02*
X111270057Y-90380952D01*
X111270057Y-90380952D02*
X111365295Y-90333333D01*
X111365295Y-90333333D02*
X111460533Y-90333333D01*
X111460533Y-90333333D02*
X111603390Y-90380952D01*
X111603390Y-90380952D02*
X112174819Y-90952380D01*
X112174819Y-90952380D02*
X112174819Y-90333333D01*
X70054819Y-68792736D02*
X69054819Y-68792736D01*
X69054819Y-68792736D02*
X69054819Y-68554641D01*
X69054819Y-68554641D02*
X69102438Y-68411784D01*
X69102438Y-68411784D02*
X69197676Y-68316546D01*
X69197676Y-68316546D02*
X69292914Y-68268927D01*
X69292914Y-68268927D02*
X69483390Y-68221308D01*
X69483390Y-68221308D02*
X69626247Y-68221308D01*
X69626247Y-68221308D02*
X69816723Y-68268927D01*
X69816723Y-68268927D02*
X69911961Y-68316546D01*
X69911961Y-68316546D02*
X70007200Y-68411784D01*
X70007200Y-68411784D02*
X70054819Y-68554641D01*
X70054819Y-68554641D02*
X70054819Y-68792736D01*
X69054819Y-67887974D02*
X69054819Y-67268927D01*
X69054819Y-67268927D02*
X69435771Y-67602260D01*
X69435771Y-67602260D02*
X69435771Y-67459403D01*
X69435771Y-67459403D02*
X69483390Y-67364165D01*
X69483390Y-67364165D02*
X69531009Y-67316546D01*
X69531009Y-67316546D02*
X69626247Y-67268927D01*
X69626247Y-67268927D02*
X69864342Y-67268927D01*
X69864342Y-67268927D02*
X69959580Y-67316546D01*
X69959580Y-67316546D02*
X70007200Y-67364165D01*
X70007200Y-67364165D02*
X70054819Y-67459403D01*
X70054819Y-67459403D02*
X70054819Y-67745117D01*
X70054819Y-67745117D02*
X70007200Y-67840355D01*
X70007200Y-67840355D02*
X69959580Y-67887974D01*
X57099580Y-129826666D02*
X57147200Y-129874285D01*
X57147200Y-129874285D02*
X57194819Y-130017142D01*
X57194819Y-130017142D02*
X57194819Y-130112380D01*
X57194819Y-130112380D02*
X57147200Y-130255237D01*
X57147200Y-130255237D02*
X57051961Y-130350475D01*
X57051961Y-130350475D02*
X56956723Y-130398094D01*
X56956723Y-130398094D02*
X56766247Y-130445713D01*
X56766247Y-130445713D02*
X56623390Y-130445713D01*
X56623390Y-130445713D02*
X56432914Y-130398094D01*
X56432914Y-130398094D02*
X56337676Y-130350475D01*
X56337676Y-130350475D02*
X56242438Y-130255237D01*
X56242438Y-130255237D02*
X56194819Y-130112380D01*
X56194819Y-130112380D02*
X56194819Y-130017142D01*
X56194819Y-130017142D02*
X56242438Y-129874285D01*
X56242438Y-129874285D02*
X56290057Y-129826666D01*
X56194819Y-129493332D02*
X56194819Y-128874285D01*
X56194819Y-128874285D02*
X56575771Y-129207618D01*
X56575771Y-129207618D02*
X56575771Y-129064761D01*
X56575771Y-129064761D02*
X56623390Y-128969523D01*
X56623390Y-128969523D02*
X56671009Y-128921904D01*
X56671009Y-128921904D02*
X56766247Y-128874285D01*
X56766247Y-128874285D02*
X57004342Y-128874285D01*
X57004342Y-128874285D02*
X57099580Y-128921904D01*
X57099580Y-128921904D02*
X57147200Y-128969523D01*
X57147200Y-128969523D02*
X57194819Y-129064761D01*
X57194819Y-129064761D02*
X57194819Y-129350475D01*
X57194819Y-129350475D02*
X57147200Y-129445713D01*
X57147200Y-129445713D02*
X57099580Y-129493332D01*
X127959580Y-64766666D02*
X128007200Y-64814285D01*
X128007200Y-64814285D02*
X128054819Y-64957142D01*
X128054819Y-64957142D02*
X128054819Y-65052380D01*
X128054819Y-65052380D02*
X128007200Y-65195237D01*
X128007200Y-65195237D02*
X127911961Y-65290475D01*
X127911961Y-65290475D02*
X127816723Y-65338094D01*
X127816723Y-65338094D02*
X127626247Y-65385713D01*
X127626247Y-65385713D02*
X127483390Y-65385713D01*
X127483390Y-65385713D02*
X127292914Y-65338094D01*
X127292914Y-65338094D02*
X127197676Y-65290475D01*
X127197676Y-65290475D02*
X127102438Y-65195237D01*
X127102438Y-65195237D02*
X127054819Y-65052380D01*
X127054819Y-65052380D02*
X127054819Y-64957142D01*
X127054819Y-64957142D02*
X127102438Y-64814285D01*
X127102438Y-64814285D02*
X127150057Y-64766666D01*
X127054819Y-63909523D02*
X127054819Y-64099999D01*
X127054819Y-64099999D02*
X127102438Y-64195237D01*
X127102438Y-64195237D02*
X127150057Y-64242856D01*
X127150057Y-64242856D02*
X127292914Y-64338094D01*
X127292914Y-64338094D02*
X127483390Y-64385713D01*
X127483390Y-64385713D02*
X127864342Y-64385713D01*
X127864342Y-64385713D02*
X127959580Y-64338094D01*
X127959580Y-64338094D02*
X128007200Y-64290475D01*
X128007200Y-64290475D02*
X128054819Y-64195237D01*
X128054819Y-64195237D02*
X128054819Y-64004761D01*
X128054819Y-64004761D02*
X128007200Y-63909523D01*
X128007200Y-63909523D02*
X127959580Y-63861904D01*
X127959580Y-63861904D02*
X127864342Y-63814285D01*
X127864342Y-63814285D02*
X127626247Y-63814285D01*
X127626247Y-63814285D02*
X127531009Y-63861904D01*
X127531009Y-63861904D02*
X127483390Y-63909523D01*
X127483390Y-63909523D02*
X127435771Y-64004761D01*
X127435771Y-64004761D02*
X127435771Y-64195237D01*
X127435771Y-64195237D02*
X127483390Y-64290475D01*
X127483390Y-64290475D02*
X127531009Y-64338094D01*
X127531009Y-64338094D02*
X127626247Y-64385713D01*
X75068095Y-76177819D02*
X75068095Y-76987342D01*
X75068095Y-76987342D02*
X75115714Y-77082580D01*
X75115714Y-77082580D02*
X75163333Y-77130200D01*
X75163333Y-77130200D02*
X75258571Y-77177819D01*
X75258571Y-77177819D02*
X75449047Y-77177819D01*
X75449047Y-77177819D02*
X75544285Y-77130200D01*
X75544285Y-77130200D02*
X75591904Y-77082580D01*
X75591904Y-77082580D02*
X75639523Y-76987342D01*
X75639523Y-76987342D02*
X75639523Y-76177819D01*
X76020476Y-76177819D02*
X76687142Y-76177819D01*
X76687142Y-76177819D02*
X76258571Y-77177819D01*
X60504761Y-65216128D02*
X60409523Y-65168509D01*
X60409523Y-65168509D02*
X60314285Y-65073271D01*
X60314285Y-65073271D02*
X60171428Y-64930413D01*
X60171428Y-64930413D02*
X60076190Y-64882794D01*
X60076190Y-64882794D02*
X59980952Y-64882794D01*
X60028571Y-65120890D02*
X59933333Y-65073271D01*
X59933333Y-65073271D02*
X59838095Y-64978032D01*
X59838095Y-64978032D02*
X59790476Y-64787556D01*
X59790476Y-64787556D02*
X59790476Y-64454223D01*
X59790476Y-64454223D02*
X59838095Y-64263747D01*
X59838095Y-64263747D02*
X59933333Y-64168509D01*
X59933333Y-64168509D02*
X60028571Y-64120890D01*
X60028571Y-64120890D02*
X60219047Y-64120890D01*
X60219047Y-64120890D02*
X60314285Y-64168509D01*
X60314285Y-64168509D02*
X60409523Y-64263747D01*
X60409523Y-64263747D02*
X60457142Y-64454223D01*
X60457142Y-64454223D02*
X60457142Y-64787556D01*
X60457142Y-64787556D02*
X60409523Y-64978032D01*
X60409523Y-64978032D02*
X60314285Y-65073271D01*
X60314285Y-65073271D02*
X60219047Y-65120890D01*
X60219047Y-65120890D02*
X60028571Y-65120890D01*
X60838095Y-64216128D02*
X60885714Y-64168509D01*
X60885714Y-64168509D02*
X60980952Y-64120890D01*
X60980952Y-64120890D02*
X61219047Y-64120890D01*
X61219047Y-64120890D02*
X61314285Y-64168509D01*
X61314285Y-64168509D02*
X61361904Y-64216128D01*
X61361904Y-64216128D02*
X61409523Y-64311366D01*
X61409523Y-64311366D02*
X61409523Y-64406604D01*
X61409523Y-64406604D02*
X61361904Y-64549461D01*
X61361904Y-64549461D02*
X60790476Y-65120890D01*
X60790476Y-65120890D02*
X61409523Y-65120890D01*
X121164819Y-103011904D02*
X121974342Y-103011904D01*
X121974342Y-103011904D02*
X122069580Y-102964285D01*
X122069580Y-102964285D02*
X122117200Y-102916666D01*
X122117200Y-102916666D02*
X122164819Y-102821428D01*
X122164819Y-102821428D02*
X122164819Y-102630952D01*
X122164819Y-102630952D02*
X122117200Y-102535714D01*
X122117200Y-102535714D02*
X122069580Y-102488095D01*
X122069580Y-102488095D02*
X121974342Y-102440476D01*
X121974342Y-102440476D02*
X121164819Y-102440476D01*
X121593390Y-101821428D02*
X121545771Y-101916666D01*
X121545771Y-101916666D02*
X121498152Y-101964285D01*
X121498152Y-101964285D02*
X121402914Y-102011904D01*
X121402914Y-102011904D02*
X121355295Y-102011904D01*
X121355295Y-102011904D02*
X121260057Y-101964285D01*
X121260057Y-101964285D02*
X121212438Y-101916666D01*
X121212438Y-101916666D02*
X121164819Y-101821428D01*
X121164819Y-101821428D02*
X121164819Y-101630952D01*
X121164819Y-101630952D02*
X121212438Y-101535714D01*
X121212438Y-101535714D02*
X121260057Y-101488095D01*
X121260057Y-101488095D02*
X121355295Y-101440476D01*
X121355295Y-101440476D02*
X121402914Y-101440476D01*
X121402914Y-101440476D02*
X121498152Y-101488095D01*
X121498152Y-101488095D02*
X121545771Y-101535714D01*
X121545771Y-101535714D02*
X121593390Y-101630952D01*
X121593390Y-101630952D02*
X121593390Y-101821428D01*
X121593390Y-101821428D02*
X121641009Y-101916666D01*
X121641009Y-101916666D02*
X121688628Y-101964285D01*
X121688628Y-101964285D02*
X121783866Y-102011904D01*
X121783866Y-102011904D02*
X121974342Y-102011904D01*
X121974342Y-102011904D02*
X122069580Y-101964285D01*
X122069580Y-101964285D02*
X122117200Y-101916666D01*
X122117200Y-101916666D02*
X122164819Y-101821428D01*
X122164819Y-101821428D02*
X122164819Y-101630952D01*
X122164819Y-101630952D02*
X122117200Y-101535714D01*
X122117200Y-101535714D02*
X122069580Y-101488095D01*
X122069580Y-101488095D02*
X121974342Y-101440476D01*
X121974342Y-101440476D02*
X121783866Y-101440476D01*
X121783866Y-101440476D02*
X121688628Y-101488095D01*
X121688628Y-101488095D02*
X121641009Y-101535714D01*
X121641009Y-101535714D02*
X121593390Y-101630952D01*
X77019580Y-132664166D02*
X77067200Y-132711785D01*
X77067200Y-132711785D02*
X77114819Y-132854642D01*
X77114819Y-132854642D02*
X77114819Y-132949880D01*
X77114819Y-132949880D02*
X77067200Y-133092737D01*
X77067200Y-133092737D02*
X76971961Y-133187975D01*
X76971961Y-133187975D02*
X76876723Y-133235594D01*
X76876723Y-133235594D02*
X76686247Y-133283213D01*
X76686247Y-133283213D02*
X76543390Y-133283213D01*
X76543390Y-133283213D02*
X76352914Y-133235594D01*
X76352914Y-133235594D02*
X76257676Y-133187975D01*
X76257676Y-133187975D02*
X76162438Y-133092737D01*
X76162438Y-133092737D02*
X76114819Y-132949880D01*
X76114819Y-132949880D02*
X76114819Y-132854642D01*
X76114819Y-132854642D02*
X76162438Y-132711785D01*
X76162438Y-132711785D02*
X76210057Y-132664166D01*
X76210057Y-132283213D02*
X76162438Y-132235594D01*
X76162438Y-132235594D02*
X76114819Y-132140356D01*
X76114819Y-132140356D02*
X76114819Y-131902261D01*
X76114819Y-131902261D02*
X76162438Y-131807023D01*
X76162438Y-131807023D02*
X76210057Y-131759404D01*
X76210057Y-131759404D02*
X76305295Y-131711785D01*
X76305295Y-131711785D02*
X76400533Y-131711785D01*
X76400533Y-131711785D02*
X76543390Y-131759404D01*
X76543390Y-131759404D02*
X77114819Y-132330832D01*
X77114819Y-132330832D02*
X77114819Y-131711785D01*
X126733333Y-81459580D02*
X126685714Y-81507200D01*
X126685714Y-81507200D02*
X126542857Y-81554819D01*
X126542857Y-81554819D02*
X126447619Y-81554819D01*
X126447619Y-81554819D02*
X126304762Y-81507200D01*
X126304762Y-81507200D02*
X126209524Y-81411961D01*
X126209524Y-81411961D02*
X126161905Y-81316723D01*
X126161905Y-81316723D02*
X126114286Y-81126247D01*
X126114286Y-81126247D02*
X126114286Y-80983390D01*
X126114286Y-80983390D02*
X126161905Y-80792914D01*
X126161905Y-80792914D02*
X126209524Y-80697676D01*
X126209524Y-80697676D02*
X126304762Y-80602438D01*
X126304762Y-80602438D02*
X126447619Y-80554819D01*
X126447619Y-80554819D02*
X126542857Y-80554819D01*
X126542857Y-80554819D02*
X126685714Y-80602438D01*
X126685714Y-80602438D02*
X126733333Y-80650057D01*
X127066667Y-80554819D02*
X127733333Y-80554819D01*
X127733333Y-80554819D02*
X127304762Y-81554819D01*
X99194819Y-131151666D02*
X99194819Y-131627856D01*
X99194819Y-131627856D02*
X98194819Y-131627856D01*
X99194819Y-130294523D02*
X99194819Y-130865951D01*
X99194819Y-130580237D02*
X98194819Y-130580237D01*
X98194819Y-130580237D02*
X98337676Y-130675475D01*
X98337676Y-130675475D02*
X98432914Y-130770713D01*
X98432914Y-130770713D02*
X98480533Y-130865951D01*
X60554761Y-101612557D02*
X60459523Y-101564938D01*
X60459523Y-101564938D02*
X60364285Y-101469700D01*
X60364285Y-101469700D02*
X60221428Y-101326842D01*
X60221428Y-101326842D02*
X60126190Y-101279223D01*
X60126190Y-101279223D02*
X60030952Y-101279223D01*
X60078571Y-101517319D02*
X59983333Y-101469700D01*
X59983333Y-101469700D02*
X59888095Y-101374461D01*
X59888095Y-101374461D02*
X59840476Y-101183985D01*
X59840476Y-101183985D02*
X59840476Y-100850652D01*
X59840476Y-100850652D02*
X59888095Y-100660176D01*
X59888095Y-100660176D02*
X59983333Y-100564938D01*
X59983333Y-100564938D02*
X60078571Y-100517319D01*
X60078571Y-100517319D02*
X60269047Y-100517319D01*
X60269047Y-100517319D02*
X60364285Y-100564938D01*
X60364285Y-100564938D02*
X60459523Y-100660176D01*
X60459523Y-100660176D02*
X60507142Y-100850652D01*
X60507142Y-100850652D02*
X60507142Y-101183985D01*
X60507142Y-101183985D02*
X60459523Y-101374461D01*
X60459523Y-101374461D02*
X60364285Y-101469700D01*
X60364285Y-101469700D02*
X60269047Y-101517319D01*
X60269047Y-101517319D02*
X60078571Y-101517319D01*
X61078571Y-100945890D02*
X60983333Y-100898271D01*
X60983333Y-100898271D02*
X60935714Y-100850652D01*
X60935714Y-100850652D02*
X60888095Y-100755414D01*
X60888095Y-100755414D02*
X60888095Y-100707795D01*
X60888095Y-100707795D02*
X60935714Y-100612557D01*
X60935714Y-100612557D02*
X60983333Y-100564938D01*
X60983333Y-100564938D02*
X61078571Y-100517319D01*
X61078571Y-100517319D02*
X61269047Y-100517319D01*
X61269047Y-100517319D02*
X61364285Y-100564938D01*
X61364285Y-100564938D02*
X61411904Y-100612557D01*
X61411904Y-100612557D02*
X61459523Y-100707795D01*
X61459523Y-100707795D02*
X61459523Y-100755414D01*
X61459523Y-100755414D02*
X61411904Y-100850652D01*
X61411904Y-100850652D02*
X61364285Y-100898271D01*
X61364285Y-100898271D02*
X61269047Y-100945890D01*
X61269047Y-100945890D02*
X61078571Y-100945890D01*
X61078571Y-100945890D02*
X60983333Y-100993509D01*
X60983333Y-100993509D02*
X60935714Y-101041128D01*
X60935714Y-101041128D02*
X60888095Y-101136366D01*
X60888095Y-101136366D02*
X60888095Y-101326842D01*
X60888095Y-101326842D02*
X60935714Y-101422080D01*
X60935714Y-101422080D02*
X60983333Y-101469700D01*
X60983333Y-101469700D02*
X61078571Y-101517319D01*
X61078571Y-101517319D02*
X61269047Y-101517319D01*
X61269047Y-101517319D02*
X61364285Y-101469700D01*
X61364285Y-101469700D02*
X61411904Y-101422080D01*
X61411904Y-101422080D02*
X61459523Y-101326842D01*
X61459523Y-101326842D02*
X61459523Y-101136366D01*
X61459523Y-101136366D02*
X61411904Y-101041128D01*
X61411904Y-101041128D02*
X61364285Y-100993509D01*
X61364285Y-100993509D02*
X61269047Y-100945890D01*
X64633333Y-108184818D02*
X64300000Y-107708627D01*
X64061905Y-108184818D02*
X64061905Y-107184818D01*
X64061905Y-107184818D02*
X64442857Y-107184818D01*
X64442857Y-107184818D02*
X64538095Y-107232437D01*
X64538095Y-107232437D02*
X64585714Y-107280056D01*
X64585714Y-107280056D02*
X64633333Y-107375294D01*
X64633333Y-107375294D02*
X64633333Y-107518151D01*
X64633333Y-107518151D02*
X64585714Y-107613389D01*
X64585714Y-107613389D02*
X64538095Y-107661008D01*
X64538095Y-107661008D02*
X64442857Y-107708627D01*
X64442857Y-107708627D02*
X64061905Y-107708627D01*
X65014286Y-107280056D02*
X65061905Y-107232437D01*
X65061905Y-107232437D02*
X65157143Y-107184818D01*
X65157143Y-107184818D02*
X65395238Y-107184818D01*
X65395238Y-107184818D02*
X65490476Y-107232437D01*
X65490476Y-107232437D02*
X65538095Y-107280056D01*
X65538095Y-107280056D02*
X65585714Y-107375294D01*
X65585714Y-107375294D02*
X65585714Y-107470532D01*
X65585714Y-107470532D02*
X65538095Y-107613389D01*
X65538095Y-107613389D02*
X64966667Y-108184818D01*
X64966667Y-108184818D02*
X65585714Y-108184818D01*
D12*
%TO.C,U1*%
X67345591Y-112423300D02*
X63254409Y-112423300D01*
X63254409Y-120576700D02*
X67345591Y-120576700D01*
X69353199Y-120075000D02*
G75*
G03*
X69353199Y-120075000I-76200J0D01*
G01*
D13*
%TO.C,D5*%
X65490000Y-80186784D02*
X65490000Y-81861784D01*
X65490000Y-80186784D02*
X65490000Y-79536784D01*
X68610000Y-80186784D02*
X68610000Y-80836784D01*
X68610000Y-80186784D02*
X68610000Y-79536784D01*
D14*
%TO.C,U6*%
X74725000Y-59235000D02*
X78725000Y-59235000D01*
X74725000Y-68085000D02*
X78725000Y-68085000D01*
D15*
X72380000Y-59260000D02*
G75*
G03*
X72380000Y-59260000I-100000J0D01*
G01*
D13*
%TO.C,D4*%
X65490000Y-74120713D02*
X65490000Y-75795713D01*
X65490000Y-74120713D02*
X65490000Y-73470713D01*
X68610000Y-74120713D02*
X68610000Y-74770713D01*
X68610000Y-74120713D02*
X68610000Y-73470713D01*
%TO.C,R3*%
X52747936Y-121399999D02*
X54202064Y-121399999D01*
X52747936Y-123219999D02*
X54202064Y-123219999D01*
%TO.C,C14*%
X65485000Y-104888748D02*
X65485000Y-105411252D01*
X64015000Y-104888748D02*
X64015000Y-105411252D01*
%TO.C,Q5*%
X59740000Y-81746784D02*
X61415000Y-81746784D01*
X59740000Y-81746784D02*
X59090000Y-81746784D01*
X59740000Y-78626784D02*
X60390000Y-78626784D01*
X59740000Y-78626784D02*
X59090000Y-78626784D01*
D15*
%TO.C,IC1*%
X72810000Y-121500000D02*
X72810000Y-119550000D01*
X72800000Y-119200000D02*
X72800000Y-112400000D01*
X85600000Y-119200000D02*
X72800000Y-119200000D01*
X72800000Y-112400000D02*
X85600000Y-112400000D01*
X85600000Y-112400000D02*
X85600000Y-119200000D01*
D13*
%TO.C,R5*%
X116677064Y-79710000D02*
X115222936Y-79710000D01*
X116677064Y-77890000D02*
X115222936Y-77890000D01*
%TO.C,Q4*%
X59740000Y-75680713D02*
X61415000Y-75680713D01*
X59740000Y-75680713D02*
X59090000Y-75680713D01*
X59740000Y-72560713D02*
X60390000Y-72560713D01*
X59740000Y-72560713D02*
X59090000Y-72560713D01*
%TO.C,C15*%
X115188748Y-81365000D02*
X115711252Y-81365000D01*
X115188748Y-82835000D02*
X115711252Y-82835000D01*
%TO.C,C13*%
X67340000Y-107185000D02*
X70360000Y-107185000D01*
X70360000Y-107185000D02*
X70360000Y-102800000D01*
X67340000Y-102800000D02*
X67340000Y-107185000D01*
%TO.C,Q7*%
X59740000Y-93878926D02*
X61415000Y-93878926D01*
X59740000Y-93878926D02*
X59090000Y-93878926D01*
X59740000Y-90758926D02*
X60390000Y-90758926D01*
X59740000Y-90758926D02*
X59090000Y-90758926D01*
%TO.C,F1*%
X112190000Y-60814564D02*
X112190000Y-59610436D01*
X114010000Y-60814564D02*
X114010000Y-59610436D01*
%TO.C,D7*%
X65490000Y-92318926D02*
X65490000Y-93993926D01*
X65490000Y-92318926D02*
X65490000Y-91668926D01*
X68610000Y-92318926D02*
X68610000Y-92968926D01*
X68610000Y-92318926D02*
X68610000Y-91668926D01*
%TO.C,Q3*%
X59740000Y-69614642D02*
X61415000Y-69614642D01*
X59740000Y-69614642D02*
X59090000Y-69614642D01*
X59740000Y-66494642D02*
X60390000Y-66494642D01*
X59740000Y-66494642D02*
X59090000Y-66494642D01*
%TO.C,J1*%
X50560000Y-59455000D02*
X51890000Y-59455000D01*
X50560000Y-60785000D02*
X50560000Y-59455000D01*
X50560000Y-62055000D02*
X50560000Y-82435000D01*
X50560000Y-62055000D02*
X53220000Y-62055000D01*
X50560000Y-82435000D02*
X53220000Y-82435000D01*
X53220000Y-62055000D02*
X53220000Y-82435000D01*
%TO.C,U4*%
X54700000Y-118460000D02*
X58150000Y-118460000D01*
X54700000Y-118460000D02*
X52750000Y-118460000D01*
X54700000Y-113340000D02*
X56650000Y-113340000D01*
X54700000Y-113340000D02*
X52750000Y-113340000D01*
%TO.C,C4*%
X53655000Y-130446252D02*
X53655000Y-129923748D01*
X55125000Y-130446252D02*
X55125000Y-129923748D01*
%TO.C,R4*%
X57947936Y-121399999D02*
X59402064Y-121399999D01*
X57947936Y-123219999D02*
X59402064Y-123219999D01*
%TO.C,C1*%
X81130000Y-134570000D02*
X84150000Y-134570000D01*
X84150000Y-134570000D02*
X84150000Y-130185000D01*
X81130000Y-130185000D02*
X81130000Y-134570000D01*
D14*
%TO.C,U3*%
X88510000Y-60250000D02*
X95010000Y-60250000D01*
X88510000Y-60500000D02*
X88510000Y-60250000D01*
X88510000Y-111250000D02*
X88510000Y-111000000D01*
X95010000Y-58950000D02*
X103010000Y-58950000D01*
X95010000Y-60250000D02*
X95010000Y-58950000D01*
X95350000Y-111250000D02*
X88510000Y-111250000D01*
X103010000Y-58950000D02*
X103010000Y-60250000D01*
X103010000Y-60250000D02*
X109510000Y-60250000D01*
X109510000Y-60250000D02*
X109510000Y-60500000D01*
X109510000Y-111250000D02*
X102670000Y-111250000D01*
X109510000Y-111250000D02*
X109510000Y-111000000D01*
D15*
X86920000Y-61620000D02*
G75*
G03*
X86920000Y-61620000I-100000J0D01*
G01*
D13*
%TO.C,R1*%
X58522936Y-108639999D02*
X59977064Y-108639999D01*
X58522936Y-110459999D02*
X59977064Y-110459999D01*
%TO.C,D8*%
X65540000Y-98385000D02*
X65540000Y-100060000D01*
X65540000Y-98385000D02*
X65540000Y-97735000D01*
X68660000Y-98385000D02*
X68660000Y-99035000D01*
X68660000Y-98385000D02*
X68660000Y-97735000D01*
%TO.C,C8*%
X122138748Y-82465000D02*
X122661252Y-82465000D01*
X122138748Y-83935000D02*
X122661252Y-83935000D01*
%TO.C,C12*%
X101910000Y-114590000D02*
X98890000Y-114590000D01*
X98890000Y-114590000D02*
X98890000Y-118975000D01*
X101910000Y-118975000D02*
X101910000Y-114590000D01*
D15*
%TO.C,IC2*%
X60400000Y-103250000D02*
X60400000Y-104450000D01*
X60350000Y-104800000D02*
X60350000Y-105400000D01*
X57450000Y-104800000D02*
X60350000Y-104800000D01*
X60350000Y-105400000D02*
X57450000Y-105400000D01*
X57450000Y-105400000D02*
X57450000Y-104800000D01*
D13*
%TO.C,L2*%
X75550000Y-137795000D02*
X75550000Y-134245000D01*
X75550000Y-137795000D02*
X62530000Y-137795000D01*
X75550000Y-124775000D02*
X75550000Y-128325000D01*
X75550000Y-124775000D02*
X62530000Y-124775000D01*
X62530000Y-137795000D02*
X62530000Y-134245000D01*
X62530000Y-124775000D02*
X62530000Y-128325000D01*
%TO.C,C5*%
X118052500Y-67537500D02*
X118052500Y-66750000D01*
X117658750Y-67143750D02*
X118446250Y-67143750D01*
X117554437Y-66510000D02*
X118840000Y-66510000D01*
X117554437Y-66510000D02*
X116490000Y-65445563D01*
X122245563Y-66510000D02*
X120960000Y-66510000D01*
X122245563Y-66510000D02*
X123310000Y-65445563D01*
X116490000Y-65445563D02*
X116490000Y-59690000D01*
X123310000Y-65445563D02*
X123310000Y-59690000D01*
X116490000Y-59690000D02*
X118840000Y-59690000D01*
X123310000Y-59690000D02*
X120960000Y-59690000D01*
%TO.C,Q1*%
X59740000Y-57482500D02*
X61415000Y-57482500D01*
X59740000Y-57482500D02*
X59090000Y-57482500D01*
X59740000Y-54362500D02*
X60390000Y-54362500D01*
X59740000Y-54362500D02*
X59090000Y-54362500D01*
%TO.C,U5*%
X124800000Y-76010000D02*
X118790000Y-76010000D01*
X122550000Y-69190000D02*
X118790000Y-69190000D01*
X118790000Y-76010000D02*
X118790000Y-74750000D01*
X118790000Y-69190000D02*
X118790000Y-70450000D01*
%TO.C,Q6*%
X59740000Y-87812855D02*
X61415000Y-87812855D01*
X59740000Y-87812855D02*
X59090000Y-87812855D01*
X59740000Y-84692855D02*
X60390000Y-84692855D01*
X59740000Y-84692855D02*
X59090000Y-84692855D01*
%TO.C,C11*%
X96335000Y-116638748D02*
X96335000Y-117161252D01*
X94865000Y-116638748D02*
X94865000Y-117161252D01*
%TO.C,D6*%
X65490000Y-86252855D02*
X65490000Y-87927855D01*
X65490000Y-86252855D02*
X65490000Y-85602855D01*
X68610000Y-86252855D02*
X68610000Y-86902855D01*
X68610000Y-86252855D02*
X68610000Y-85602855D01*
%TO.C,D2*%
X65490000Y-61988571D02*
X65490000Y-63663571D01*
X65490000Y-61988571D02*
X65490000Y-61338571D01*
X68610000Y-61988571D02*
X68610000Y-62638571D01*
X68610000Y-61988571D02*
X68610000Y-61338571D01*
%TO.C,D1*%
X65490000Y-55922500D02*
X65490000Y-57597500D01*
X65490000Y-55922500D02*
X65490000Y-55272500D01*
X68610000Y-55922500D02*
X68610000Y-56572500D01*
X68610000Y-55922500D02*
X68610000Y-55272500D01*
%TO.C,J2*%
X112990000Y-96080000D02*
X120610000Y-96080000D01*
X120610000Y-96080000D02*
X120610000Y-85920000D01*
X112990000Y-85920000D02*
X112990000Y-96080000D01*
X119340000Y-85920000D02*
X119340000Y-96080000D01*
X120610000Y-85920000D02*
X112990000Y-85920000D01*
%TO.C,D3*%
X65490000Y-68054642D02*
X65490000Y-69729642D01*
X65490000Y-68054642D02*
X65490000Y-67404642D01*
X68610000Y-68054642D02*
X68610000Y-68704642D01*
X68610000Y-68054642D02*
X68610000Y-67404642D01*
%TO.C,C3*%
X57580000Y-132295000D02*
X60600000Y-132295000D01*
X60600000Y-132295000D02*
X60600000Y-127910000D01*
X57580000Y-127910000D02*
X57580000Y-132295000D01*
%TO.C,C6*%
X124765000Y-64811252D02*
X124765000Y-64288748D01*
X126235000Y-64811252D02*
X126235000Y-64288748D01*
D14*
%TO.C,U7*%
X74625000Y-77535000D02*
X78625000Y-77535000D01*
X74625000Y-86385000D02*
X78625000Y-86385000D01*
D15*
X72280000Y-77560000D02*
G75*
G03*
X72280000Y-77560000I-100000J0D01*
G01*
D13*
%TO.C,Q2*%
X59740000Y-63548571D02*
X61415000Y-63548571D01*
X59740000Y-63548571D02*
X59090000Y-63548571D01*
X59740000Y-60428571D02*
X60390000Y-60428571D01*
X59740000Y-60428571D02*
X59090000Y-60428571D01*
%TO.C,U8*%
X120870000Y-102250000D02*
X120870000Y-98800000D01*
X120870000Y-102250000D02*
X120870000Y-104200000D01*
X115750000Y-102250000D02*
X115750000Y-100300000D01*
X115750000Y-102250000D02*
X115750000Y-104200000D01*
%TO.C,C2*%
X77605000Y-132758752D02*
X77605000Y-132236248D01*
X79075000Y-132758752D02*
X79075000Y-132236248D01*
%TO.C,C7*%
X120477500Y-77790000D02*
X120477500Y-80810000D01*
X120477500Y-80810000D02*
X124862500Y-80810000D01*
X124862500Y-77790000D02*
X120477500Y-77790000D01*
%TO.C,L1*%
X98000000Y-124475000D02*
X94450000Y-124475000D01*
X98000000Y-124475000D02*
X98000000Y-137495000D01*
X84980000Y-124475000D02*
X88530000Y-124475000D01*
X84980000Y-124475000D02*
X84980000Y-137495000D01*
X98000000Y-137495000D02*
X94450000Y-137495000D01*
X84980000Y-137495000D02*
X88530000Y-137495000D01*
%TO.C,Q8*%
X59790000Y-99945000D02*
X61465000Y-99945000D01*
X59790000Y-99945000D02*
X59140000Y-99945000D01*
X59790000Y-96825000D02*
X60440000Y-96825000D01*
X59790000Y-96825000D02*
X59140000Y-96825000D01*
%TO.C,R2*%
X64072936Y-108639999D02*
X65527064Y-108639999D01*
X64072936Y-110459999D02*
X65527064Y-110459999D01*
%TD*%
D16*
X50000000Y-50000000D02*
X130000000Y-50000000D01*
X130000000Y-140000000D01*
X50000000Y-140000000D01*
X50000000Y-50000000D01*
M02*
