<?xml version="1.0" standalone="no"?>
 <!DOCTYPE svg PUBLIC "-//W3C//DTD SVG 1.1//EN" 
 "http://www.w3.org/Graphics/SVG/1.1/DTD/svg11.dtd"> 
<svg
  xmlns:svg="http://www.w3.org/2000/svg"
  xmlns="http://www.w3.org/2000/svg"
  xmlns:xlink="http://www.w3.org/1999/xlink"
  version="1.1"
  width="297.0022mm" height="210.0072mm" viewBox="0.0000 0.0000 297.0022 210.0072">
<title>SVG Image created as Adaptador SN74LVTH245A-F_Cu.svg date 2024/03/01 17:48:43 </title>
  <desc>Image generated by PCBNEW </desc>
<g style="fill:#000000; fill-opacity:1.0000;stroke:#000000; stroke-opacity:1.0000;
stroke-linecap:round; stroke-linejoin:round;"
 transform="translate(0 0) scale(1 1)">
</g>
<g style="fill:#000000; fill-opacity:0.0; 
stroke:#000000; stroke-width:0.0000; stroke-opacity:1; 
stroke-linecap:round; stroke-linejoin:round;">
</g>
<g style="fill:#000000; fill-opacity:1.0000; 
stroke:#000000; stroke-width:0.0212; stroke-opacity:1; 
stroke-linecap:round; stroke-linejoin:round;">
<rect x="124.750000" y="38.750000" width="35.500000" height="41.500000" rx="0.000000" />
</g>
<g style="fill:#FFFFFF; fill-opacity:1.0000; 
stroke:#FFFFFF; stroke-width:0.0212; stroke-opacity:1; 
stroke-linecap:round; stroke-linejoin:round;">
<g >
</g>
<g style="fill:#FFFFFF; fill-opacity:1.0000; 
stroke:#FFFFFF; stroke-width:0.0000; stroke-opacity:1; 
stroke-linecap:round; stroke-linejoin:round;">
<path style="fill:#FFFFFF; fill-opacity:1.0000; 
stroke:#FFFFFF; stroke-width:0.0000; stroke-opacity:1; 
stroke-linecap:round; stroke-linejoin:round;fill-rule:evenodd;"
d="M 131.5250,49.1300
131.5250,47.1300
133.5250,47.1300
133.5250,49.1300
Z" /> 
<circle cx="132.5250" cy="50.6700" r="1.0000" /> 
<circle cx="132.5250" cy="53.2100" r="1.0000" /> 
<circle cx="132.5250" cy="55.7500" r="1.0000" /> 
<circle cx="132.5250" cy="58.2900" r="1.0000" /> 
<circle cx="132.5250" cy="60.8300" r="1.0000" /> 
<circle cx="132.5250" cy="63.3700" r="1.0000" /> 
<circle cx="132.5250" cy="65.9100" r="1.0000" /> 
<circle cx="132.5250" cy="68.4500" r="1.0000" /> 
<circle cx="132.5250" cy="70.9900" r="1.0000" /> 
</g>
<g >
</g>
<g style="fill:#FFFFFF; fill-opacity:1.0000; 
stroke:#FFFFFF; stroke-width:0.0000; stroke-opacity:1; 
stroke-linecap:round; stroke-linejoin:round;">
<circle cx="152.5250" cy="70.9900" r="1.0000" /> 
<circle cx="152.5250" cy="68.4500" r="1.0000" /> 
<circle cx="152.5250" cy="65.9100" r="1.0000" /> 
<circle cx="152.5250" cy="63.3700" r="1.0000" /> 
<circle cx="152.5250" cy="60.8300" r="1.0000" /> 
<circle cx="152.5250" cy="58.2900" r="1.0000" /> 
<circle cx="152.5250" cy="55.7500" r="1.0000" /> 
<circle cx="152.5250" cy="53.2100" r="1.0000" /> 
<circle cx="152.5250" cy="50.6700" r="1.0000" /> 
<path style="fill:#FFFFFF; fill-opacity:1.0000; 
stroke:#FFFFFF; stroke-width:0.0000; stroke-opacity:1; 
stroke-linecap:round; stroke-linejoin:round;fill-rule:evenodd;"
d="M 151.5250,49.1300
151.5250,47.1300
153.5250,47.1300
153.5250,49.1300
Z" /> 
</g>
<g >
</g>
<g style="fill:#FFFFFF; fill-opacity:1.0000; 
stroke:#FFFFFF; stroke-width:0.0000; stroke-opacity:1; 
stroke-linecap:round; stroke-linejoin:round;">
<path style="fill:#FFFFFF; fill-opacity:1.0000; 
stroke:#FFFFFF; stroke-width:0.0000; stroke-opacity:1; 
stroke-linecap:round; stroke-linejoin:round;fill-rule:evenodd;"
d="M 148.2250,54.1650
146.2750,54.1650
146.2750,53.5150
148.2250,53.5150
Z" /> 
<path style="fill:#FFFFFF; fill-opacity:1.0000; 
stroke:#FFFFFF; stroke-width:0.0000; stroke-opacity:1; 
stroke-linecap:round; stroke-linejoin:round;fill-rule:evenodd;"
d="M 148.2250,55.4350
146.2750,55.4350
146.2750,54.7850
148.2250,54.7850
Z" /> 
<path style="fill:#FFFFFF; fill-opacity:1.0000; 
stroke:#FFFFFF; stroke-width:0.0000; stroke-opacity:1; 
stroke-linecap:round; stroke-linejoin:round;fill-rule:evenodd;"
d="M 148.2250,56.7050
146.2750,56.7050
146.2750,56.0550
148.2250,56.0550
Z" /> 
<path style="fill:#FFFFFF; fill-opacity:1.0000; 
stroke:#FFFFFF; stroke-width:0.0000; stroke-opacity:1; 
stroke-linecap:round; stroke-linejoin:round;fill-rule:evenodd;"
d="M 148.2250,57.9750
146.2750,57.9750
146.2750,57.3250
148.2250,57.3250
Z" /> 
<path style="fill:#FFFFFF; fill-opacity:1.0000; 
stroke:#FFFFFF; stroke-width:0.0000; stroke-opacity:1; 
stroke-linecap:round; stroke-linejoin:round;fill-rule:evenodd;"
d="M 148.2250,59.2450
146.2750,59.2450
146.2750,58.5950
148.2250,58.5950
Z" /> 
<path style="fill:#FFFFFF; fill-opacity:1.0000; 
stroke:#FFFFFF; stroke-width:0.0000; stroke-opacity:1; 
stroke-linecap:round; stroke-linejoin:round;fill-rule:evenodd;"
d="M 148.2250,60.5150
146.2750,60.5150
146.2750,59.8650
148.2250,59.8650
Z" /> 
<path style="fill:#FFFFFF; fill-opacity:1.0000; 
stroke:#FFFFFF; stroke-width:0.0000; stroke-opacity:1; 
stroke-linecap:round; stroke-linejoin:round;fill-rule:evenodd;"
d="M 148.2250,61.7850
146.2750,61.7850
146.2750,61.1350
148.2250,61.1350
Z" /> 
<path style="fill:#FFFFFF; fill-opacity:1.0000; 
stroke:#FFFFFF; stroke-width:0.0000; stroke-opacity:1; 
stroke-linecap:round; stroke-linejoin:round;fill-rule:evenodd;"
d="M 148.2250,63.0550
146.2750,63.0550
146.2750,62.4050
148.2250,62.4050
Z" /> 
<path style="fill:#FFFFFF; fill-opacity:1.0000; 
stroke:#FFFFFF; stroke-width:0.0000; stroke-opacity:1; 
stroke-linecap:round; stroke-linejoin:round;fill-rule:evenodd;"
d="M 148.2250,64.3250
146.2750,64.3250
146.2750,63.6750
148.2250,63.6750
Z" /> 
<path style="fill:#FFFFFF; fill-opacity:1.0000; 
stroke:#FFFFFF; stroke-width:0.0000; stroke-opacity:1; 
stroke-linecap:round; stroke-linejoin:round;fill-rule:evenodd;"
d="M 148.2250,65.5950
146.2750,65.5950
146.2750,64.9450
148.2250,64.9450
Z" /> 
<path style="fill:#FFFFFF; fill-opacity:1.0000; 
stroke:#FFFFFF; stroke-width:0.0000; stroke-opacity:1; 
stroke-linecap:round; stroke-linejoin:round;fill-rule:evenodd;"
d="M 138.7750,65.5950
136.8250,65.5950
136.8250,64.9450
138.7750,64.9450
Z" /> 
<path style="fill:#FFFFFF; fill-opacity:1.0000; 
stroke:#FFFFFF; stroke-width:0.0000; stroke-opacity:1; 
stroke-linecap:round; stroke-linejoin:round;fill-rule:evenodd;"
d="M 138.7750,64.3250
136.8250,64.3250
136.8250,63.6750
138.7750,63.6750
Z" /> 
<path style="fill:#FFFFFF; fill-opacity:1.0000; 
stroke:#FFFFFF; stroke-width:0.0000; stroke-opacity:1; 
stroke-linecap:round; stroke-linejoin:round;fill-rule:evenodd;"
d="M 138.7750,63.0550
136.8250,63.0550
136.8250,62.4050
138.7750,62.4050
Z" /> 
<path style="fill:#FFFFFF; fill-opacity:1.0000; 
stroke:#FFFFFF; stroke-width:0.0000; stroke-opacity:1; 
stroke-linecap:round; stroke-linejoin:round;fill-rule:evenodd;"
d="M 138.7750,61.7850
136.8250,61.7850
136.8250,61.1350
138.7750,61.1350
Z" /> 
<path style="fill:#FFFFFF; fill-opacity:1.0000; 
stroke:#FFFFFF; stroke-width:0.0000; stroke-opacity:1; 
stroke-linecap:round; stroke-linejoin:round;fill-rule:evenodd;"
d="M 138.7750,60.5150
136.8250,60.5150
136.8250,59.8650
138.7750,59.8650
Z" /> 
<path style="fill:#FFFFFF; fill-opacity:1.0000; 
stroke:#FFFFFF; stroke-width:0.0000; stroke-opacity:1; 
stroke-linecap:round; stroke-linejoin:round;fill-rule:evenodd;"
d="M 138.7750,59.2450
136.8250,59.2450
136.8250,58.5950
138.7750,58.5950
Z" /> 
<path style="fill:#FFFFFF; fill-opacity:1.0000; 
stroke:#FFFFFF; stroke-width:0.0000; stroke-opacity:1; 
stroke-linecap:round; stroke-linejoin:round;fill-rule:evenodd;"
d="M 138.7750,57.9750
136.8250,57.9750
136.8250,57.3250
138.7750,57.3250
Z" /> 
<path style="fill:#FFFFFF; fill-opacity:1.0000; 
stroke:#FFFFFF; stroke-width:0.0000; stroke-opacity:1; 
stroke-linecap:round; stroke-linejoin:round;fill-rule:evenodd;"
d="M 138.7750,56.7050
136.8250,56.7050
136.8250,56.0550
138.7750,56.0550
Z" /> 
<path style="fill:#FFFFFF; fill-opacity:1.0000; 
stroke:#FFFFFF; stroke-width:0.0000; stroke-opacity:1; 
stroke-linecap:round; stroke-linejoin:round;fill-rule:evenodd;"
d="M 138.7750,55.4350
136.8250,55.4350
136.8250,54.7850
138.7750,54.7850
Z" /> 
<path style="fill:#FFFFFF; fill-opacity:1.0000; 
stroke:#FFFFFF; stroke-width:0.0000; stroke-opacity:1; 
stroke-linecap:round; stroke-linejoin:round;fill-rule:evenodd;"
d="M 138.7750,54.1650
136.8250,54.1650
136.8250,53.5150
138.7750,53.5150
Z" /> 
</g>
<g >
</g>
<g >
</g>
<g style="fill:#FFFFFF; fill-opacity:1.0000; 
stroke:#FFFFFF; stroke-width:0.0000; stroke-opacity:1; 
stroke-linecap:round; stroke-linejoin:round;">
</g>
<g style="fill:#FFFFFF; fill-opacity:1.0000; 
stroke:#FFFFFF; stroke-width:0.5000; stroke-opacity:1; 
stroke-linecap:round; stroke-linejoin:round;">
</g>
<g style="fill:#FFFFFF; fill-opacity:0.0; 
stroke:#FFFFFF; stroke-width:0.5000; stroke-opacity:1; 
stroke-linecap:round; stroke-linejoin:round;">
<path d="M150.8500 52.0000
L152.1800 50.6700
" />
<path d="M152.1800 50.6700
L152.5250 50.6700
" />
<path d="M150.8500 53.3500
L150.8500 52.0000
" />
<path d="M149.0900 55.1100
L150.8500 53.3500
" />
<path d="M147.2500 55.1100
L149.0900 55.1100
" />
<path d="M132.7050 50.8500
L132.5250 50.6700
" />
<path d="M133.8000 50.8500
L132.7050 50.8500
" />
<path d="M134.3500 51.4000
L133.8000 50.8500
" />
<path d="M134.3500 53.4000
L134.3500 51.4000
" />
<path d="M136.0600 55.1100
L134.3500 53.4000
" />
<path d="M137.8000 55.1100
L136.0600 55.1100
" />
<path d="M150.8700 48.1300
L152.5250 48.1300
" />
<path d="M149.5000 49.5000
L150.8700 48.1300
" />
<path d="M149.5000 52.9000
L149.5000 49.5000
" />
<path d="M148.5600 53.8400
L149.5000 52.9000
" />
<path d="M147.2500 53.8400
L148.5600 53.8400
" />
<path d="M135.8500 49.7000
L134.2800 48.1300
" />
<path d="M135.8500 53.2000
L135.8500 49.7000
" />
<path d="M134.2800 48.1300
L132.5250 48.1300
" />
<path d="M136.4900 53.8400
L135.8500 53.2000
" />
<path d="M137.8000 53.8400
L136.4900 53.8400
" />
<path d="M135.7800 56.3800
L132.6100 53.2100
" />
<path d="M137.8000 56.3800
L135.7800 56.3800
" />
<path d="M132.6100 53.2100
L132.5250 53.2100
" />
<path d="M147.2500 56.3800
L149.4700 56.3800
" />
<path d="M149.4700 56.3800
L152.5250 53.3250
" />
<path d="M152.5250 53.3250
L152.5250 53.2100
" />
<path d="M132.5250 55.8250
L132.5250 55.7500
" />
<path d="M134.3500 57.6500
L132.5250 55.8250
" />
<path d="M137.8000 57.6500
L134.3500 57.6500
" />
<path d="M150.6625 57.6500
L152.5250 55.7875
" />
<path d="M147.2500 57.6500
L150.6625 57.6500
" />
<path d="M152.5250 55.7875
L152.5250 55.7500
" />
<path d="M151.8950 58.9200
L152.5250 58.2900
" />
<path d="M147.2500 58.9200
L151.8950 58.9200
" />
<path d="M151.0900 70.9900
L152.5250 70.9900
" />
<path d="M149.7000 66.4000
L149.7000 69.6000
" />
<path d="M148.5700 65.2700
L149.7000 66.4000
" />
<path d="M147.2500 65.2700
L148.5700 65.2700
" />
<path d="M149.7000 69.6000
L151.0900 70.9900
" />
<path d="M150.6500 61.4500
L147.2600 61.4500
" />
<path d="M147.2600 61.4500
L147.2500 61.4600
" />
<path d="M152.5250 63.3250
L150.6500 61.4500
" />
<path d="M152.5250 63.3700
L152.5250 63.3250
" />
<path d="M151.8850 60.1900
L152.5250 60.8300
" />
<path d="M147.2500 60.1900
L151.8850 60.1900
" />
<path d="M152.4100 65.9100
L152.5250 65.9100
" />
<path d="M149.2300 62.7300
L152.4100 65.9100
" />
<path d="M147.2500 62.7300
L149.2300 62.7300
" />
<path d="M150.8000 67.6000
L151.6500 68.4500
" />
<path d="M150.8000 65.9899
L150.8000 67.6000
" />
<path d="M147.2500 64.0000
L148.8100 64.0000
" />
<path d="M148.8100 64.0000
L150.8000 65.9899
" />
<path d="M151.6500 68.4500
L152.5250 68.4500
" />
<path d="M133.2500 68.4500
L132.5250 68.4500
" />
<path d="M134.2000 67.5000
L133.2500 68.4500
" />
<path d="M134.2000 65.9000
L134.2000 67.5000
" />
<path d="M136.1000 64.0000
L134.2000 65.9000
" />
<path d="M137.8000 64.0000
L136.1000 64.0000
" />
<path d="M135.2000 66.5774
L135.2000 69.9000
" />
<path d="M136.5075 65.2700
L135.2000 66.5774
" />
<path d="M135.2000 69.9000
L134.1100 70.9900
" />
<path d="M134.1100 70.9900
L132.5250 70.9900
" />
<path d="M137.8000 65.2700
L136.5075 65.2700
" />
<path d="M132.5900 65.9100
L132.5250 65.9100
" />
<path d="M137.8000 62.7300
L135.7700 62.7300
" />
<path d="M135.7700 62.7300
L132.5900 65.9100
" />
<path d="M134.4400 61.4600
L132.5300 63.3700
" />
<path d="M137.8000 61.4600
L134.4400 61.4600
" />
<path d="M132.5300 63.3700
L132.5250 63.3700
" />
<path d="M133.1650 60.1900
L132.5250 60.8300
" />
<path d="M137.8000 60.1900
L133.1650 60.1900
" />
<path d="M132.5900 58.2900
L132.5250 58.2900
" />
<path d="M137.8000 58.9200
L133.2200 58.9200
" />
<path d="M133.2200 58.9200
L132.5900 58.2900
" />
</g>
<g >
</g>
</g>
<g style="fill:#000000; fill-opacity:0.0; 
stroke:#000000; stroke-width:0.5000; stroke-opacity:1; 
stroke-linecap:round; stroke-linejoin:round;">
</g>
<g style="fill:#000000; fill-opacity:1.0000; 
stroke:#000000; stroke-width:0.0000; stroke-opacity:1; 
stroke-linecap:round; stroke-linejoin:round;">
<circle cx="132.5250" cy="48.1300" r="0.6250" /> 
</g>
<g style="fill:#000000; fill-opacity:1.0000; 
stroke:#000000; stroke-width:0.0212; stroke-opacity:1; 
stroke-linecap:round; stroke-linejoin:round;">
</g>
<g style="fill:#000000; fill-opacity:1.0000; 
stroke:#000000; stroke-width:0.0000; stroke-opacity:1; 
stroke-linecap:round; stroke-linejoin:round;">
<circle cx="132.5250" cy="50.6700" r="0.6250" /> 
</g>
<g style="fill:#000000; fill-opacity:1.0000; 
stroke:#000000; stroke-width:0.0212; stroke-opacity:1; 
stroke-linecap:round; stroke-linejoin:round;">
</g>
<g style="fill:#000000; fill-opacity:1.0000; 
stroke:#000000; stroke-width:0.0000; stroke-opacity:1; 
stroke-linecap:round; stroke-linejoin:round;">
<circle cx="132.5250" cy="53.2100" r="0.6250" /> 
</g>
<g style="fill:#000000; fill-opacity:1.0000; 
stroke:#000000; stroke-width:0.0212; stroke-opacity:1; 
stroke-linecap:round; stroke-linejoin:round;">
</g>
<g style="fill:#000000; fill-opacity:1.0000; 
stroke:#000000; stroke-width:0.0000; stroke-opacity:1; 
stroke-linecap:round; stroke-linejoin:round;">
<circle cx="132.5250" cy="55.7500" r="0.6250" /> 
</g>
<g style="fill:#000000; fill-opacity:1.0000; 
stroke:#000000; stroke-width:0.0212; stroke-opacity:1; 
stroke-linecap:round; stroke-linejoin:round;">
</g>
<g style="fill:#000000; fill-opacity:1.0000; 
stroke:#000000; stroke-width:0.0000; stroke-opacity:1; 
stroke-linecap:round; stroke-linejoin:round;">
<circle cx="132.5250" cy="58.2900" r="0.6250" /> 
</g>
<g style="fill:#000000; fill-opacity:1.0000; 
stroke:#000000; stroke-width:0.0212; stroke-opacity:1; 
stroke-linecap:round; stroke-linejoin:round;">
</g>
<g style="fill:#000000; fill-opacity:1.0000; 
stroke:#000000; stroke-width:0.0000; stroke-opacity:1; 
stroke-linecap:round; stroke-linejoin:round;">
<circle cx="132.5250" cy="60.8300" r="0.6250" /> 
</g>
<g style="fill:#000000; fill-opacity:1.0000; 
stroke:#000000; stroke-width:0.0212; stroke-opacity:1; 
stroke-linecap:round; stroke-linejoin:round;">
</g>
<g style="fill:#000000; fill-opacity:1.0000; 
stroke:#000000; stroke-width:0.0000; stroke-opacity:1; 
stroke-linecap:round; stroke-linejoin:round;">
<circle cx="132.5250" cy="63.3700" r="0.6250" /> 
</g>
<g style="fill:#000000; fill-opacity:1.0000; 
stroke:#000000; stroke-width:0.0212; stroke-opacity:1; 
stroke-linecap:round; stroke-linejoin:round;">
</g>
<g style="fill:#000000; fill-opacity:1.0000; 
stroke:#000000; stroke-width:0.0000; stroke-opacity:1; 
stroke-linecap:round; stroke-linejoin:round;">
<circle cx="132.5250" cy="65.9100" r="0.6250" /> 
</g>
<g style="fill:#000000; fill-opacity:1.0000; 
stroke:#000000; stroke-width:0.0212; stroke-opacity:1; 
stroke-linecap:round; stroke-linejoin:round;">
</g>
<g style="fill:#000000; fill-opacity:1.0000; 
stroke:#000000; stroke-width:0.0000; stroke-opacity:1; 
stroke-linecap:round; stroke-linejoin:round;">
<circle cx="132.5250" cy="68.4500" r="0.6250" /> 
</g>
<g style="fill:#000000; fill-opacity:1.0000; 
stroke:#000000; stroke-width:0.0212; stroke-opacity:1; 
stroke-linecap:round; stroke-linejoin:round;">
</g>
<g style="fill:#000000; fill-opacity:1.0000; 
stroke:#000000; stroke-width:0.0000; stroke-opacity:1; 
stroke-linecap:round; stroke-linejoin:round;">
<circle cx="132.5250" cy="70.9900" r="0.6250" /> 
</g>
<g style="fill:#000000; fill-opacity:1.0000; 
stroke:#000000; stroke-width:0.0212; stroke-opacity:1; 
stroke-linecap:round; stroke-linejoin:round;">
</g>
<g style="fill:#000000; fill-opacity:1.0000; 
stroke:#000000; stroke-width:0.0000; stroke-opacity:1; 
stroke-linecap:round; stroke-linejoin:round;">
<circle cx="152.5250" cy="70.9900" r="0.6250" /> 
</g>
<g style="fill:#000000; fill-opacity:1.0000; 
stroke:#000000; stroke-width:0.0212; stroke-opacity:1; 
stroke-linecap:round; stroke-linejoin:round;">
</g>
<g style="fill:#000000; fill-opacity:1.0000; 
stroke:#000000; stroke-width:0.0000; stroke-opacity:1; 
stroke-linecap:round; stroke-linejoin:round;">
<circle cx="152.5250" cy="68.4500" r="0.6250" /> 
</g>
<g style="fill:#000000; fill-opacity:1.0000; 
stroke:#000000; stroke-width:0.0212; stroke-opacity:1; 
stroke-linecap:round; stroke-linejoin:round;">
</g>
<g style="fill:#000000; fill-opacity:1.0000; 
stroke:#000000; stroke-width:0.0000; stroke-opacity:1; 
stroke-linecap:round; stroke-linejoin:round;">
<circle cx="152.5250" cy="65.9100" r="0.6250" /> 
</g>
<g style="fill:#000000; fill-opacity:1.0000; 
stroke:#000000; stroke-width:0.0212; stroke-opacity:1; 
stroke-linecap:round; stroke-linejoin:round;">
</g>
<g style="fill:#000000; fill-opacity:1.0000; 
stroke:#000000; stroke-width:0.0000; stroke-opacity:1; 
stroke-linecap:round; stroke-linejoin:round;">
<circle cx="152.5250" cy="63.3700" r="0.6250" /> 
</g>
<g style="fill:#000000; fill-opacity:1.0000; 
stroke:#000000; stroke-width:0.0212; stroke-opacity:1; 
stroke-linecap:round; stroke-linejoin:round;">
</g>
<g style="fill:#000000; fill-opacity:1.0000; 
stroke:#000000; stroke-width:0.0000; stroke-opacity:1; 
stroke-linecap:round; stroke-linejoin:round;">
<circle cx="152.5250" cy="60.8300" r="0.6250" /> 
</g>
<g style="fill:#000000; fill-opacity:1.0000; 
stroke:#000000; stroke-width:0.0212; stroke-opacity:1; 
stroke-linecap:round; stroke-linejoin:round;">
</g>
<g style="fill:#000000; fill-opacity:1.0000; 
stroke:#000000; stroke-width:0.0000; stroke-opacity:1; 
stroke-linecap:round; stroke-linejoin:round;">
<circle cx="152.5250" cy="58.2900" r="0.6250" /> 
</g>
<g style="fill:#000000; fill-opacity:1.0000; 
stroke:#000000; stroke-width:0.0212; stroke-opacity:1; 
stroke-linecap:round; stroke-linejoin:round;">
</g>
<g style="fill:#000000; fill-opacity:1.0000; 
stroke:#000000; stroke-width:0.0000; stroke-opacity:1; 
stroke-linecap:round; stroke-linejoin:round;">
<circle cx="152.5250" cy="55.7500" r="0.6250" /> 
</g>
<g style="fill:#000000; fill-opacity:1.0000; 
stroke:#000000; stroke-width:0.0212; stroke-opacity:1; 
stroke-linecap:round; stroke-linejoin:round;">
</g>
<g style="fill:#000000; fill-opacity:1.0000; 
stroke:#000000; stroke-width:0.0000; stroke-opacity:1; 
stroke-linecap:round; stroke-linejoin:round;">
<circle cx="152.5250" cy="53.2100" r="0.6250" /> 
</g>
<g style="fill:#000000; fill-opacity:1.0000; 
stroke:#000000; stroke-width:0.0212; stroke-opacity:1; 
stroke-linecap:round; stroke-linejoin:round;">
</g>
<g style="fill:#000000; fill-opacity:1.0000; 
stroke:#000000; stroke-width:0.0000; stroke-opacity:1; 
stroke-linecap:round; stroke-linejoin:round;">
<circle cx="152.5250" cy="50.6700" r="0.6250" /> 
</g>
<g style="fill:#000000; fill-opacity:1.0000; 
stroke:#000000; stroke-width:0.0212; stroke-opacity:1; 
stroke-linecap:round; stroke-linejoin:round;">
</g>
<g style="fill:#000000; fill-opacity:1.0000; 
stroke:#000000; stroke-width:0.0000; stroke-opacity:1; 
stroke-linecap:round; stroke-linejoin:round;">
<circle cx="152.5250" cy="48.1300" r="0.6250" /> 
</g>
<g style="fill:#000000; fill-opacity:1.0000; 
stroke:#000000; stroke-width:0.0212; stroke-opacity:1; 
stroke-linecap:round; stroke-linejoin:round;">
</g>
<g style="fill:#FFFFFF; fill-opacity:1.0000; 
stroke:#FFFFFF; stroke-width:0.0212; stroke-opacity:1; 
stroke-linecap:round; stroke-linejoin:round;">
</g>
<g style="fill:#FFFFFF; fill-opacity:0.0; 
stroke:#FFFFFF; stroke-width:0.5000; stroke-opacity:1; 
stroke-linecap:round; stroke-linejoin:round;">
<path style="fill:#FFFFFF; fill-opacity:0.0; 
stroke:#FFFFFF; stroke-width:0.5000; stroke-opacity:1; 
stroke-linecap:round; stroke-linejoin:round;fill:none"
d="M 130.0000,44.0000
155.0000,44.0000
155.0000,75.0000
130.0000,75.0000
Z" /> 
<g >
</g>
<g >
</g>
<g >
</g>
<g >
</g>
<g >
</g>
<g >
</g>
</g> 
</svg>
