<?xml version="1.0" standalone="no"?>
 <!DOCTYPE svg PUBLIC "-//W3C//DTD SVG 1.1//EN" 
 "http://www.w3.org/Graphics/SVG/1.1/DTD/svg11.dtd"> 
<svg
  xmlns:svg="http://www.w3.org/2000/svg"
  xmlns="http://www.w3.org/2000/svg"
  xmlns:xlink="http://www.w3.org/1999/xlink"
  version="1.1"
  width="297.0022mm" height="210.0072mm" viewBox="0.0000 0.0000 297.0022 210.0072">
<title>SVG Image created as Adaptador SOT-23-F_Cu.svg date 2024/02/19 15:16:39 </title>
  <desc>Image generated by PCBNEW </desc>
<g style="fill:#000000; fill-opacity:1.0000;stroke:#000000; stroke-opacity:1.0000;
stroke-linecap:round; stroke-linejoin:round;"
 transform="translate(0 0) scale(1 1)">
</g>
<g style="fill:#000000; fill-opacity:0.0; 
stroke:#000000; stroke-width:0.0000; stroke-opacity:1; 
stroke-linecap:round; stroke-linejoin:round;">
</g>
<g style="fill:#000000; fill-opacity:1.0000; 
stroke:#000000; stroke-width:0.0212; stroke-opacity:1; 
stroke-linecap:round; stroke-linejoin:round;">
<rect x="115.750000" y="51.750000" width="30.500000" height="35.500000" rx="0.000000" />
</g>
<g style="fill:#FFFFFF; fill-opacity:1.0000; 
stroke:#FFFFFF; stroke-width:0.0212; stroke-opacity:1; 
stroke-linecap:round; stroke-linejoin:round;">
<g >
</g>
<g style="fill:#FFFFFF; fill-opacity:1.0000; 
stroke:#FFFFFF; stroke-width:0.0000; stroke-opacity:1; 
stroke-linecap:round; stroke-linejoin:round;">
<path style="fill:#FFFFFF; fill-opacity:1.0000; 
stroke:#FFFFFF; stroke-width:0.0000; stroke-opacity:1; 
stroke-linecap:round; stroke-linejoin:round;fill-rule:evenodd;"
d="M 122.8000,61.8200
122.8000,59.8200
124.8000,59.8200
124.8000,61.8200
Z" /> 
<circle cx="123.8000" cy="63.3600" r="1.0000" /> 
</g>
<g style="fill:#FFFFFF; fill-opacity:1.0000; 
stroke:#FFFFFF; stroke-width:0.0212; stroke-opacity:1; 
stroke-linecap:round; stroke-linejoin:round;">
</g>
<g style="fill:#FFFFFF; fill-opacity:1.0000; 
stroke:#FFFFFF; stroke-width:0.0000; stroke-opacity:1; 
stroke-linecap:round; stroke-linejoin:round;">
<circle cx="123.8000" cy="65.9000" r="1.0000" /> 
<circle cx="123.8000" cy="68.4400" r="1.0000" /> 
<circle cx="123.8000" cy="70.9800" r="1.0000" /> 
</g>
<g style="fill:#FFFFFF; fill-opacity:1.0000; 
stroke:#FFFFFF; stroke-width:0.0212; stroke-opacity:1; 
stroke-linecap:round; stroke-linejoin:round;">
</g>
<g style="fill:#FFFFFF; fill-opacity:1.0000; 
stroke:#FFFFFF; stroke-width:0.0000; stroke-opacity:1; 
stroke-linecap:round; stroke-linejoin:round;">
<circle cx="123.8000" cy="73.5200" r="1.0000" /> 
</g>
<g style="fill:#FFFFFF; fill-opacity:1.0000; 
stroke:#FFFFFF; stroke-width:0.0212; stroke-opacity:1; 
stroke-linecap:round; stroke-linejoin:round;">
</g>
<g style="fill:#FFFFFF; fill-opacity:1.0000; 
stroke:#FFFFFF; stroke-width:0.0000; stroke-opacity:1; 
stroke-linecap:round; stroke-linejoin:round;">
<circle cx="123.8000" cy="76.0600" r="1.0000" /> 
</g>
<g style="fill:#FFFFFF; fill-opacity:1.0000; 
stroke:#FFFFFF; stroke-width:0.0212; stroke-opacity:1; 
stroke-linecap:round; stroke-linejoin:round;">
</g>
<g style="fill:#FFFFFF; fill-opacity:1.0000; 
stroke:#FFFFFF; stroke-width:0.0000; stroke-opacity:1; 
stroke-linecap:round; stroke-linejoin:round;">
<circle cx="123.8000" cy="78.6000" r="1.0000" /> 
</g>
<g style="fill:#FFFFFF; fill-opacity:1.0000; 
stroke:#FFFFFF; stroke-width:0.0212; stroke-opacity:1; 
stroke-linecap:round; stroke-linejoin:round;">
</g>
<g >
</g>
<g style="fill:#FFFFFF; fill-opacity:1.0000; 
stroke:#FFFFFF; stroke-width:0.0212; stroke-opacity:1; 
stroke-linecap:round; stroke-linejoin:round;">
</g>
<g style="fill:#FFFFFF; fill-opacity:1.0000; 
stroke:#FFFFFF; stroke-width:0.0000; stroke-opacity:1; 
stroke-linecap:round; stroke-linejoin:round;">
<path style="fill:#FFFFFF; fill-opacity:1.0000; 
stroke:#FFFFFF; stroke-width:0.0000; stroke-opacity:1; 
stroke-linecap:round; stroke-linejoin:round;fill-rule:evenodd;"
d="M 129.7625,77.4000
129.7739,77.3426
129.8064,77.2939
129.8551,77.2614
129.9125,77.2500
131.0875,77.2500
131.1449,77.2614
131.1936,77.2939
131.2261,77.3426
131.2375,77.4000
131.2375,77.7000
131.2261,77.7574
131.1936,77.8061
131.1449,77.8386
131.0875,77.8500
129.9125,77.8500
129.8551,77.8386
129.8064,77.8061
129.7739,77.7574
129.7625,77.7000
Z" /> 
<path style="fill:#FFFFFF; fill-opacity:1.0000; 
stroke:#FFFFFF; stroke-width:0.0000; stroke-opacity:1; 
stroke-linecap:round; stroke-linejoin:round;fill-rule:evenodd;"
d="M 129.7625,79.3000
129.7739,79.2426
129.8064,79.1939
129.8551,79.1614
129.9125,79.1500
131.0875,79.1500
131.1449,79.1614
131.1936,79.1939
131.2261,79.2426
131.2375,79.3000
131.2375,79.6000
131.2261,79.6574
131.1936,79.7061
131.1449,79.7386
131.0875,79.7500
129.9125,79.7500
129.8551,79.7386
129.8064,79.7061
129.7739,79.6574
129.7625,79.6000
Z" /> 
<path style="fill:#FFFFFF; fill-opacity:1.0000; 
stroke:#FFFFFF; stroke-width:0.0000; stroke-opacity:1; 
stroke-linecap:round; stroke-linejoin:round;fill-rule:evenodd;"
d="M 131.6375,78.3500
131.6489,78.2926
131.6814,78.2439
131.7301,78.2114
131.7875,78.2000
132.9625,78.2000
133.0199,78.2114
133.0686,78.2439
133.1011,78.2926
133.1125,78.3500
133.1125,78.6500
133.1011,78.7074
133.0686,78.7561
133.0199,78.7886
132.9625,78.8000
131.7875,78.8000
131.7301,78.7886
131.6814,78.7561
131.6489,78.7074
131.6375,78.6500
Z" /> 
</g>
<g >
</g>
<g style="fill:#FFFFFF; fill-opacity:1.0000; 
stroke:#FFFFFF; stroke-width:0.0000; stroke-opacity:1; 
stroke-linecap:round; stroke-linejoin:round;">
<path style="fill:#FFFFFF; fill-opacity:1.0000; 
stroke:#FFFFFF; stroke-width:0.0000; stroke-opacity:1; 
stroke-linecap:round; stroke-linejoin:round;fill-rule:evenodd;"
d="M 129.7625,71.9000
129.7739,71.8426
129.8064,71.7939
129.8551,71.7614
129.9125,71.7500
131.0875,71.7500
131.1449,71.7614
131.1936,71.7939
131.2261,71.8426
131.2375,71.9000
131.2375,72.2000
131.2261,72.2574
131.1936,72.3061
131.1449,72.3386
131.0875,72.3500
129.9125,72.3500
129.8551,72.3386
129.8064,72.3061
129.7739,72.2574
129.7625,72.2000
Z" /> 
<path style="fill:#FFFFFF; fill-opacity:1.0000; 
stroke:#FFFFFF; stroke-width:0.0000; stroke-opacity:1; 
stroke-linecap:round; stroke-linejoin:round;fill-rule:evenodd;"
d="M 129.7625,73.8000
129.7739,73.7426
129.8064,73.6939
129.8551,73.6614
129.9125,73.6500
131.0875,73.6500
131.1449,73.6614
131.1936,73.6939
131.2261,73.7426
131.2375,73.8000
131.2375,74.1000
131.2261,74.1574
131.1936,74.2061
131.1449,74.2386
131.0875,74.2500
129.9125,74.2500
129.8551,74.2386
129.8064,74.2061
129.7739,74.1574
129.7625,74.1000
Z" /> 
<path style="fill:#FFFFFF; fill-opacity:1.0000; 
stroke:#FFFFFF; stroke-width:0.0000; stroke-opacity:1; 
stroke-linecap:round; stroke-linejoin:round;fill-rule:evenodd;"
d="M 131.6375,72.8500
131.6489,72.7926
131.6814,72.7439
131.7301,72.7114
131.7875,72.7000
132.9625,72.7000
133.0199,72.7114
133.0686,72.7439
133.1011,72.7926
133.1125,72.8500
133.1125,73.1500
133.1011,73.2074
133.0686,73.2561
133.0199,73.2886
132.9625,73.3000
131.7875,73.3000
131.7301,73.2886
131.6814,73.2561
131.6489,73.2074
131.6375,73.1500
Z" /> 
</g>
<g >
</g>
<g style="fill:#FFFFFF; fill-opacity:1.0000; 
stroke:#FFFFFF; stroke-width:0.0000; stroke-opacity:1; 
stroke-linecap:round; stroke-linejoin:round;">
<path style="fill:#FFFFFF; fill-opacity:1.0000; 
stroke:#FFFFFF; stroke-width:0.0000; stroke-opacity:1; 
stroke-linecap:round; stroke-linejoin:round;fill-rule:evenodd;"
d="M 129.7625,66.4000
129.7739,66.3426
129.8064,66.2939
129.8551,66.2614
129.9125,66.2500
131.0875,66.2500
131.1449,66.2614
131.1936,66.2939
131.2261,66.3426
131.2375,66.4000
131.2375,66.7000
131.2261,66.7574
131.1936,66.8061
131.1449,66.8386
131.0875,66.8500
129.9125,66.8500
129.8551,66.8386
129.8064,66.8061
129.7739,66.7574
129.7625,66.7000
Z" /> 
<path style="fill:#FFFFFF; fill-opacity:1.0000; 
stroke:#FFFFFF; stroke-width:0.0000; stroke-opacity:1; 
stroke-linecap:round; stroke-linejoin:round;fill-rule:evenodd;"
d="M 129.7625,68.3000
129.7739,68.2426
129.8064,68.1939
129.8551,68.1614
129.9125,68.1500
131.0875,68.1500
131.1449,68.1614
131.1936,68.1939
131.2261,68.2426
131.2375,68.3000
131.2375,68.6000
131.2261,68.6574
131.1936,68.7061
131.1449,68.7386
131.0875,68.7500
129.9125,68.7500
129.8551,68.7386
129.8064,68.7061
129.7739,68.6574
129.7625,68.6000
Z" /> 
<path style="fill:#FFFFFF; fill-opacity:1.0000; 
stroke:#FFFFFF; stroke-width:0.0000; stroke-opacity:1; 
stroke-linecap:round; stroke-linejoin:round;fill-rule:evenodd;"
d="M 131.6375,67.3500
131.6489,67.2926
131.6814,67.2439
131.7301,67.2114
131.7875,67.2000
132.9625,67.2000
133.0199,67.2114
133.0686,67.2439
133.1011,67.2926
133.1125,67.3500
133.1125,67.6500
133.1011,67.7074
133.0686,67.7561
133.0199,67.7886
132.9625,67.8000
131.7875,67.8000
131.7301,67.7886
131.6814,67.7561
131.6489,67.7074
131.6375,67.6500
Z" /> 
</g>
<g >
</g>
<g style="fill:#FFFFFF; fill-opacity:1.0000; 
stroke:#FFFFFF; stroke-width:0.0000; stroke-opacity:1; 
stroke-linecap:round; stroke-linejoin:round;">
<path style="fill:#FFFFFF; fill-opacity:1.0000; 
stroke:#FFFFFF; stroke-width:0.0000; stroke-opacity:1; 
stroke-linecap:round; stroke-linejoin:round;fill-rule:evenodd;"
d="M 131.6375,61.8500
131.6489,61.7926
131.6814,61.7439
131.7301,61.7114
131.7875,61.7000
132.9625,61.7000
133.0199,61.7114
133.0686,61.7439
133.1011,61.7926
133.1125,61.8500
133.1125,62.1500
133.1011,62.2074
133.0686,62.2561
133.0199,62.2886
132.9625,62.3000
131.7875,62.3000
131.7301,62.2886
131.6814,62.2561
131.6489,62.2074
131.6375,62.1500
Z" /> 
<path style="fill:#FFFFFF; fill-opacity:1.0000; 
stroke:#FFFFFF; stroke-width:0.0000; stroke-opacity:1; 
stroke-linecap:round; stroke-linejoin:round;fill-rule:evenodd;"
d="M 129.7625,62.8000
129.7739,62.7426
129.8064,62.6939
129.8551,62.6614
129.9125,62.6500
131.0875,62.6500
131.1449,62.6614
131.1936,62.6939
131.2261,62.7426
131.2375,62.8000
131.2375,63.1000
131.2261,63.1574
131.1936,63.2061
131.1449,63.2386
131.0875,63.2500
129.9125,63.2500
129.8551,63.2386
129.8064,63.2061
129.7739,63.1574
129.7625,63.1000
Z" /> 
<path style="fill:#FFFFFF; fill-opacity:1.0000; 
stroke:#FFFFFF; stroke-width:0.0000; stroke-opacity:1; 
stroke-linecap:round; stroke-linejoin:round;fill-rule:evenodd;"
d="M 129.7625,60.9000
129.7739,60.8426
129.8064,60.7939
129.8551,60.7614
129.9125,60.7500
131.0875,60.7500
131.1449,60.7614
131.1936,60.7939
131.2261,60.8426
131.2375,60.9000
131.2375,61.2000
131.2261,61.2574
131.1936,61.3061
131.1449,61.3386
131.0875,61.3500
129.9125,61.3500
129.8551,61.3386
129.8064,61.3061
129.7739,61.2574
129.7625,61.2000
Z" /> 
</g>
<g >
</g>
<g style="fill:#FFFFFF; fill-opacity:1.0000; 
stroke:#FFFFFF; stroke-width:0.0000; stroke-opacity:1; 
stroke-linecap:round; stroke-linejoin:round;">
<circle cx="138.8000" cy="60.8200" r="1.0000" /> 
</g>
<g style="fill:#FFFFFF; fill-opacity:1.0000; 
stroke:#FFFFFF; stroke-width:0.0212; stroke-opacity:1; 
stroke-linecap:round; stroke-linejoin:round;">
</g>
<g style="fill:#FFFFFF; fill-opacity:1.0000; 
stroke:#FFFFFF; stroke-width:0.0000; stroke-opacity:1; 
stroke-linecap:round; stroke-linejoin:round;">
<circle cx="138.8000" cy="63.3600" r="1.0000" /> 
</g>
<g style="fill:#FFFFFF; fill-opacity:1.0000; 
stroke:#FFFFFF; stroke-width:0.0212; stroke-opacity:1; 
stroke-linecap:round; stroke-linejoin:round;">
</g>
<g style="fill:#FFFFFF; fill-opacity:1.0000; 
stroke:#FFFFFF; stroke-width:0.0000; stroke-opacity:1; 
stroke-linecap:round; stroke-linejoin:round;">
<circle cx="138.8000" cy="65.9000" r="1.0000" /> 
</g>
<g style="fill:#FFFFFF; fill-opacity:1.0000; 
stroke:#FFFFFF; stroke-width:0.0212; stroke-opacity:1; 
stroke-linecap:round; stroke-linejoin:round;">
</g>
<g style="fill:#FFFFFF; fill-opacity:1.0000; 
stroke:#FFFFFF; stroke-width:0.0000; stroke-opacity:1; 
stroke-linecap:round; stroke-linejoin:round;">
<circle cx="138.8000" cy="68.4400" r="1.0000" /> 
</g>
<g style="fill:#FFFFFF; fill-opacity:1.0000; 
stroke:#FFFFFF; stroke-width:0.0212; stroke-opacity:1; 
stroke-linecap:round; stroke-linejoin:round;">
</g>
<g >
</g>
<g >
</g>
<g style="fill:#FFFFFF; fill-opacity:1.0000; 
stroke:#FFFFFF; stroke-width:0.0212; stroke-opacity:1; 
stroke-linecap:round; stroke-linejoin:round;">
</g>
<g style="fill:#FFFFFF; fill-opacity:1.0000; 
stroke:#FFFFFF; stroke-width:0.6000; stroke-opacity:1; 
stroke-linecap:round; stroke-linejoin:round;">
</g>
<g style="fill:#FFFFFF; fill-opacity:0.0; 
stroke:#FFFFFF; stroke-width:0.6000; stroke-opacity:1; 
stroke-linecap:round; stroke-linejoin:round;">
<path d="M136.2800 60.8200
L138.8000 60.8200
" />
<path d="M135.1000 62.0000
L136.2800 60.8200
" />
<path d="M132.3750 62.0000
L135.1000 62.0000
" />
<path d="M136.3000 63.6000
L136.5400 63.3600
" />
<path d="M136.2750 63.6000
L136.3000 63.6000
" />
<path d="M132.3750 67.5000
L136.2750 63.6000
" />
<path d="M136.5400 63.3600
L138.8000 63.3600
" />
<path d="M135.4000 68.1000
L137.6000 65.9000
" />
<path d="M137.6000 65.9000
L138.8000 65.9000
" />
<path d="M132.3750 73.0000
L135.4000 69.9750
" />
<path d="M135.4000 69.9750
L135.4000 68.1000
" />
<path d="M132.3750 78.5000
L138.8000 72.0750
" />
<path d="M138.8000 72.0750
L138.8000 68.4400
" />
<path d="M126.9000 78.6000
L123.8000 78.6000
" />
<path d="M127.7500 79.4500
L126.9000 78.6000
" />
<path d="M130.5000 79.4500
L127.7500 79.4500
" />
<path d="M127.3600 76.0600
L123.8000 76.0600
" />
<path d="M128.8500 77.5500
L127.3600 76.0600
" />
<path d="M130.5000 77.5500
L128.8500 77.5500
" />
<path d="M127.2200 73.5200
L123.8000 73.5200
" />
<path d="M127.6500 73.9500
L127.2200 73.5200
" />
<path d="M130.5000 73.9500
L127.6500 73.9500
" />
<path d="M127.1800 70.9800
L123.8000 70.9800
" />
<path d="M128.2500 72.0500
L127.1800 70.9800
" />
<path d="M130.5000 72.0500
L128.2500 72.0500
" />
<path d="M123.8100 68.4500
L123.8000 68.4400
" />
<path d="M130.5000 68.4500
L123.8100 68.4500
" />
<path d="M127.9500 66.5500
L127.3000 65.9000
" />
<path d="M127.3000 65.9000
L123.8000 65.9000
" />
<path d="M130.5000 66.5500
L127.9500 66.5500
" />
<path d="M128.3500 62.9500
L130.5000 62.9500
" />
<path d="M127.9400 63.3600
L128.3500 62.9500
" />
<path d="M123.8000 63.3600
L127.9400 63.3600
" />
<path d="M130.5000 61.0500
L124.0300 61.0500
" />
<path d="M124.0300 61.0500
L123.8000 60.8200
" />
</g>
<g >
</g>
</g>
<g style="fill:#000000; fill-opacity:0.0; 
stroke:#000000; stroke-width:0.6000; stroke-opacity:1; 
stroke-linecap:round; stroke-linejoin:round;">
</g>
<g style="fill:#000000; fill-opacity:1.0000; 
stroke:#000000; stroke-width:0.0000; stroke-opacity:1; 
stroke-linecap:round; stroke-linejoin:round;">
<circle cx="123.8000" cy="60.8200" r="0.6250" /> 
</g>
<g style="fill:#000000; fill-opacity:1.0000; 
stroke:#000000; stroke-width:0.0212; stroke-opacity:1; 
stroke-linecap:round; stroke-linejoin:round;">
</g>
<g style="fill:#000000; fill-opacity:1.0000; 
stroke:#000000; stroke-width:0.0000; stroke-opacity:1; 
stroke-linecap:round; stroke-linejoin:round;">
<circle cx="123.8000" cy="63.3600" r="0.6250" /> 
</g>
<g style="fill:#000000; fill-opacity:1.0000; 
stroke:#000000; stroke-width:0.0212; stroke-opacity:1; 
stroke-linecap:round; stroke-linejoin:round;">
</g>
<g style="fill:#000000; fill-opacity:1.0000; 
stroke:#000000; stroke-width:0.0000; stroke-opacity:1; 
stroke-linecap:round; stroke-linejoin:round;">
<circle cx="123.8000" cy="65.9000" r="0.6250" /> 
</g>
<g style="fill:#000000; fill-opacity:1.0000; 
stroke:#000000; stroke-width:0.0212; stroke-opacity:1; 
stroke-linecap:round; stroke-linejoin:round;">
</g>
<g style="fill:#000000; fill-opacity:1.0000; 
stroke:#000000; stroke-width:0.0000; stroke-opacity:1; 
stroke-linecap:round; stroke-linejoin:round;">
<circle cx="123.8000" cy="68.4400" r="0.6250" /> 
</g>
<g style="fill:#000000; fill-opacity:1.0000; 
stroke:#000000; stroke-width:0.0212; stroke-opacity:1; 
stroke-linecap:round; stroke-linejoin:round;">
</g>
<g style="fill:#000000; fill-opacity:1.0000; 
stroke:#000000; stroke-width:0.0000; stroke-opacity:1; 
stroke-linecap:round; stroke-linejoin:round;">
<circle cx="123.8000" cy="70.9800" r="0.6250" /> 
</g>
<g style="fill:#000000; fill-opacity:1.0000; 
stroke:#000000; stroke-width:0.0212; stroke-opacity:1; 
stroke-linecap:round; stroke-linejoin:round;">
</g>
<g style="fill:#000000; fill-opacity:1.0000; 
stroke:#000000; stroke-width:0.0000; stroke-opacity:1; 
stroke-linecap:round; stroke-linejoin:round;">
<circle cx="123.8000" cy="73.5200" r="0.6250" /> 
</g>
<g style="fill:#000000; fill-opacity:1.0000; 
stroke:#000000; stroke-width:0.0212; stroke-opacity:1; 
stroke-linecap:round; stroke-linejoin:round;">
</g>
<g style="fill:#000000; fill-opacity:1.0000; 
stroke:#000000; stroke-width:0.0000; stroke-opacity:1; 
stroke-linecap:round; stroke-linejoin:round;">
<circle cx="123.8000" cy="76.0600" r="0.6250" /> 
</g>
<g style="fill:#000000; fill-opacity:1.0000; 
stroke:#000000; stroke-width:0.0212; stroke-opacity:1; 
stroke-linecap:round; stroke-linejoin:round;">
</g>
<g style="fill:#000000; fill-opacity:1.0000; 
stroke:#000000; stroke-width:0.0000; stroke-opacity:1; 
stroke-linecap:round; stroke-linejoin:round;">
<circle cx="123.8000" cy="78.6000" r="0.6250" /> 
</g>
<g style="fill:#000000; fill-opacity:1.0000; 
stroke:#000000; stroke-width:0.0212; stroke-opacity:1; 
stroke-linecap:round; stroke-linejoin:round;">
</g>
<g style="fill:#000000; fill-opacity:1.0000; 
stroke:#000000; stroke-width:0.0000; stroke-opacity:1; 
stroke-linecap:round; stroke-linejoin:round;">
<circle cx="138.8000" cy="60.8200" r="0.6250" /> 
</g>
<g style="fill:#000000; fill-opacity:1.0000; 
stroke:#000000; stroke-width:0.0212; stroke-opacity:1; 
stroke-linecap:round; stroke-linejoin:round;">
</g>
<g style="fill:#000000; fill-opacity:1.0000; 
stroke:#000000; stroke-width:0.0000; stroke-opacity:1; 
stroke-linecap:round; stroke-linejoin:round;">
<circle cx="138.8000" cy="63.3600" r="0.6250" /> 
</g>
<g style="fill:#000000; fill-opacity:1.0000; 
stroke:#000000; stroke-width:0.0212; stroke-opacity:1; 
stroke-linecap:round; stroke-linejoin:round;">
</g>
<g style="fill:#000000; fill-opacity:1.0000; 
stroke:#000000; stroke-width:0.0000; stroke-opacity:1; 
stroke-linecap:round; stroke-linejoin:round;">
<circle cx="138.8000" cy="65.9000" r="0.6250" /> 
</g>
<g style="fill:#000000; fill-opacity:1.0000; 
stroke:#000000; stroke-width:0.0212; stroke-opacity:1; 
stroke-linecap:round; stroke-linejoin:round;">
</g>
<g style="fill:#000000; fill-opacity:1.0000; 
stroke:#000000; stroke-width:0.0000; stroke-opacity:1; 
stroke-linecap:round; stroke-linejoin:round;">
<circle cx="138.8000" cy="68.4400" r="0.6250" /> 
</g>
<g style="fill:#000000; fill-opacity:1.0000; 
stroke:#000000; stroke-width:0.0212; stroke-opacity:1; 
stroke-linecap:round; stroke-linejoin:round;">
</g>
<g style="fill:#FFFFFF; fill-opacity:1.0000; 
stroke:#FFFFFF; stroke-width:0.0212; stroke-opacity:1; 
stroke-linecap:round; stroke-linejoin:round;">
</g>
<g style="fill:#FFFFFF; fill-opacity:0.0; 
stroke:#FFFFFF; stroke-width:0.5000; stroke-opacity:1; 
stroke-linecap:round; stroke-linejoin:round;">
<path style="fill:#FFFFFF; fill-opacity:0.0; 
stroke:#FFFFFF; stroke-width:0.5000; stroke-opacity:1; 
stroke-linecap:round; stroke-linejoin:round;fill:none"
d="M 121.0000,57.0000
141.0000,57.0000
141.0000,82.0000
121.0000,82.0000
Z" /> 
<g >
</g>
<g >
</g>
<g >
</g>
<g >
</g>
<g >
</g>
<g >
</g>
<g >
</g>
<g >
</g>
<g >
</g>
</g> 
</svg>
