<?xml version="1.0" standalone="no"?>
 <!DOCTYPE svg PUBLIC "-//W3C//DTD SVG 1.1//EN" 
 "http://www.w3.org/Graphics/SVG/1.1/DTD/svg11.dtd"> 
<svg
  xmlns:svg="http://www.w3.org/2000/svg"
  xmlns="http://www.w3.org/2000/svg"
  xmlns:xlink="http://www.w3.org/1999/xlink"
  version="1.1"
  width="297.0022mm" height="210.0072mm" viewBox="0.0000 0.0000 297.0022 210.0072">
<title>SVG Image created as Adaptador SOT-23-5-F_Cu.svg date 2024/02/27 09:54:56 </title>
  <desc>Image generated by PCBNEW </desc>
<g style="fill:#000000; fill-opacity:1.0000;stroke:#000000; stroke-opacity:1.0000;
stroke-linecap:round; stroke-linejoin:round;"
 transform="translate(0 0) scale(1 1)">
</g>
<g style="fill:#000000; fill-opacity:0.0; 
stroke:#000000; stroke-width:0.0000; stroke-opacity:1; 
stroke-linecap:round; stroke-linejoin:round;">
</g>
<g style="fill:#000000; fill-opacity:1.0000; 
stroke:#000000; stroke-width:0.0212; stroke-opacity:1; 
stroke-linecap:round; stroke-linejoin:round;">
<rect x="114.750000" y="64.750000" width="26.500000" height="30.500000" rx="0.000000" />
</g>
<g style="fill:#FFFFFF; fill-opacity:1.0000; 
stroke:#FFFFFF; stroke-width:0.0212; stroke-opacity:1; 
stroke-linecap:round; stroke-linejoin:round;">
<g >
</g>
<g style="fill:#FFFFFF; fill-opacity:1.0000; 
stroke:#FFFFFF; stroke-width:0.0000; stroke-opacity:1; 
stroke-linecap:round; stroke-linejoin:round;">
<path style="fill:#FFFFFF; fill-opacity:1.0000; 
stroke:#FFFFFF; stroke-width:0.0000; stroke-opacity:1; 
stroke-linecap:round; stroke-linejoin:round;fill-rule:evenodd;"
d="M 127.5100,84.9100
127.5031,84.9444
127.4836,84.9736
127.4544,84.9931
127.4200,85.0000
126.3800,85.0000
126.3456,84.9931
126.3164,84.9736
126.2969,84.9444
126.2900,84.9100
126.2900,84.4900
126.2969,84.4556
126.3164,84.4264
126.3456,84.4069
126.3800,84.4000
127.4200,84.4000
127.4544,84.4069
127.4836,84.4264
127.5031,84.4556
127.5100,84.4900
Z" /> 
<path style="fill:#FFFFFF; fill-opacity:1.0000; 
stroke:#FFFFFF; stroke-width:0.0000; stroke-opacity:1; 
stroke-linecap:round; stroke-linejoin:round;fill-rule:evenodd;"
d="M 127.5100,83.0100
127.5031,83.0444
127.4836,83.0736
127.4544,83.0931
127.4200,83.1000
126.3800,83.1000
126.3456,83.0931
126.3164,83.0736
126.2969,83.0444
126.2900,83.0100
126.2900,82.5900
126.2969,82.5556
126.3164,82.5264
126.3456,82.5069
126.3800,82.5000
127.4200,82.5000
127.4544,82.5069
127.4836,82.5264
127.5031,82.5556
127.5100,82.5900
Z" /> 
<path style="fill:#FFFFFF; fill-opacity:1.0000; 
stroke:#FFFFFF; stroke-width:0.0000; stroke-opacity:1; 
stroke-linecap:round; stroke-linejoin:round;fill-rule:evenodd;"
d="M 130.0000,83.0100
129.9931,83.0444
129.9736,83.0736
129.9444,83.0931
129.9100,83.1000
128.8700,83.1000
128.8356,83.0931
128.8064,83.0736
128.7869,83.0444
128.7800,83.0100
128.7800,82.5900
128.7869,82.5556
128.8064,82.5264
128.8356,82.5069
128.8700,82.5000
129.9100,82.5000
129.9444,82.5069
129.9736,82.5264
129.9931,82.5556
130.0000,82.5900
Z" /> 
<path style="fill:#FFFFFF; fill-opacity:1.0000; 
stroke:#FFFFFF; stroke-width:0.0000; stroke-opacity:1; 
stroke-linecap:round; stroke-linejoin:round;fill-rule:evenodd;"
d="M 130.0000,83.9600
129.9931,83.9944
129.9736,84.0236
129.9444,84.0431
129.9100,84.0500
128.8700,84.0500
128.8356,84.0431
128.8064,84.0236
128.7869,83.9944
128.7800,83.9600
128.7800,83.5400
128.7869,83.5056
128.8064,83.4764
128.8356,83.4569
128.8700,83.4500
129.9100,83.4500
129.9444,83.4569
129.9736,83.4764
129.9931,83.5056
130.0000,83.5400
Z" /> 
<path style="fill:#FFFFFF; fill-opacity:1.0000; 
stroke:#FFFFFF; stroke-width:0.0000; stroke-opacity:1; 
stroke-linecap:round; stroke-linejoin:round;fill-rule:evenodd;"
d="M 130.0000,84.9100
129.9931,84.9444
129.9736,84.9736
129.9444,84.9931
129.9100,85.0000
128.8700,85.0000
128.8356,84.9931
128.8064,84.9736
128.7869,84.9444
128.7800,84.9100
128.7800,84.4900
128.7869,84.4556
128.8064,84.4264
128.8356,84.4069
128.8700,84.4000
129.9100,84.4000
129.9444,84.4069
129.9736,84.4264
129.9931,84.4556
130.0000,84.4900
Z" /> 
</g>
<g >
</g>
<g style="fill:#FFFFFF; fill-opacity:1.0000; 
stroke:#FFFFFF; stroke-width:0.0000; stroke-opacity:1; 
stroke-linecap:round; stroke-linejoin:round;">
<path style="fill:#FFFFFF; fill-opacity:1.0000; 
stroke:#FFFFFF; stroke-width:0.0000; stroke-opacity:1; 
stroke-linecap:round; stroke-linejoin:round;fill-rule:evenodd;"
d="M 128.6800,76.1900
128.6869,76.1556
128.7064,76.1264
128.7356,76.1069
128.7700,76.1000
129.8100,76.1000
129.8444,76.1069
129.8736,76.1264
129.8931,76.1556
129.9000,76.1900
129.9000,76.6100
129.8931,76.6444
129.8736,76.6736
129.8444,76.6931
129.8100,76.7000
128.7700,76.7000
128.7356,76.6931
128.7064,76.6736
128.6869,76.6444
128.6800,76.6100
Z" /> 
<path style="fill:#FFFFFF; fill-opacity:1.0000; 
stroke:#FFFFFF; stroke-width:0.0000; stroke-opacity:1; 
stroke-linecap:round; stroke-linejoin:round;fill-rule:evenodd;"
d="M 128.6800,78.0900
128.6869,78.0556
128.7064,78.0264
128.7356,78.0069
128.7700,78.0000
129.8100,78.0000
129.8444,78.0069
129.8736,78.0264
129.8931,78.0556
129.9000,78.0900
129.9000,78.5100
129.8931,78.5444
129.8736,78.5736
129.8444,78.5931
129.8100,78.6000
128.7700,78.6000
128.7356,78.5931
128.7064,78.5736
128.6869,78.5444
128.6800,78.5100
Z" /> 
<path style="fill:#FFFFFF; fill-opacity:1.0000; 
stroke:#FFFFFF; stroke-width:0.0000; stroke-opacity:1; 
stroke-linecap:round; stroke-linejoin:round;fill-rule:evenodd;"
d="M 126.1900,78.0900
126.1969,78.0556
126.2164,78.0264
126.2456,78.0069
126.2800,78.0000
127.3200,78.0000
127.3544,78.0069
127.3836,78.0264
127.4031,78.0556
127.4100,78.0900
127.4100,78.5100
127.4031,78.5444
127.3836,78.5736
127.3544,78.5931
127.3200,78.6000
126.2800,78.6000
126.2456,78.5931
126.2164,78.5736
126.1969,78.5444
126.1900,78.5100
Z" /> 
<path style="fill:#FFFFFF; fill-opacity:1.0000; 
stroke:#FFFFFF; stroke-width:0.0000; stroke-opacity:1; 
stroke-linecap:round; stroke-linejoin:round;fill-rule:evenodd;"
d="M 126.1900,77.1400
126.1969,77.1056
126.2164,77.0764
126.2456,77.0569
126.2800,77.0500
127.3200,77.0500
127.3544,77.0569
127.3836,77.0764
127.4031,77.1056
127.4100,77.1400
127.4100,77.5600
127.4031,77.5944
127.3836,77.6236
127.3544,77.6431
127.3200,77.6500
126.2800,77.6500
126.2456,77.6431
126.2164,77.6236
126.1969,77.5944
126.1900,77.5600
Z" /> 
<path style="fill:#FFFFFF; fill-opacity:1.0000; 
stroke:#FFFFFF; stroke-width:0.0000; stroke-opacity:1; 
stroke-linecap:round; stroke-linejoin:round;fill-rule:evenodd;"
d="M 126.1900,76.1900
126.1969,76.1556
126.2164,76.1264
126.2456,76.1069
126.2800,76.1000
127.3200,76.1000
127.3544,76.1069
127.3836,76.1264
127.4031,76.1556
127.4100,76.1900
127.4100,76.6100
127.4031,76.6444
127.3836,76.6736
127.3544,76.6931
127.3200,76.7000
126.2800,76.7000
126.2456,76.6931
126.2164,76.6736
126.1969,76.6444
126.1900,76.6100
Z" /> 
</g>
<g >
</g>
<g style="fill:#FFFFFF; fill-opacity:1.0000; 
stroke:#FFFFFF; stroke-width:0.0000; stroke-opacity:1; 
stroke-linecap:round; stroke-linejoin:round;">
<path style="fill:#FFFFFF; fill-opacity:1.0000; 
stroke:#FFFFFF; stroke-width:0.0000; stroke-opacity:1; 
stroke-linecap:round; stroke-linejoin:round;fill-rule:evenodd;"
d="M 133.2550,76.3200
133.2550,74.3200
135.2550,74.3200
135.2550,76.3200
Z" /> 
<circle cx="134.2550" cy="77.8600" r="1.0000" /> 
<circle cx="134.2550" cy="80.4000" r="1.0000" /> 
<circle cx="134.2550" cy="82.9400" r="1.0000" /> 
<circle cx="134.2550" cy="85.4800" r="1.0000" /> 
</g>
<g >
</g>
<g style="fill:#FFFFFF; fill-opacity:1.0000; 
stroke:#FFFFFF; stroke-width:0.0000; stroke-opacity:1; 
stroke-linecap:round; stroke-linejoin:round;">
<path style="fill:#FFFFFF; fill-opacity:1.0000; 
stroke:#FFFFFF; stroke-width:0.0000; stroke-opacity:1; 
stroke-linecap:round; stroke-linejoin:round;fill-rule:evenodd;"
d="M 120.7800,76.3500
120.7800,74.3500
122.7800,74.3500
122.7800,76.3500
Z" /> 
<circle cx="121.7800" cy="77.8900" r="1.0000" /> 
<circle cx="121.7800" cy="80.4300" r="1.0000" /> 
<circle cx="121.7800" cy="82.9700" r="1.0000" /> 
<circle cx="121.7800" cy="85.5100" r="1.0000" /> 
</g>
<g >
</g>
<g >
</g>
<g style="fill:#FFFFFF; fill-opacity:1.0000; 
stroke:#FFFFFF; stroke-width:0.0000; stroke-opacity:1; 
stroke-linecap:round; stroke-linejoin:round;">
</g>
<g style="fill:#FFFFFF; fill-opacity:1.0000; 
stroke:#FFFFFF; stroke-width:0.5000; stroke-opacity:1; 
stroke-linecap:round; stroke-linejoin:round;">
</g>
<g style="fill:#FFFFFF; fill-opacity:0.0; 
stroke:#FFFFFF; stroke-width:0.5000; stroke-opacity:1; 
stroke-linecap:round; stroke-linejoin:round;">
<path d="M133.2000 80.4000
L134.2550 80.4000
" />
<path d="M130.8000 82.8000
L133.2000 80.4000
" />
<path d="M129.3900 82.8000
L130.8000 82.8000
" />
<path d="M132.3600 82.9400
L134.2550 82.9400
" />
<path d="M131.5500 83.7500
L132.3600 82.9400
" />
<path d="M129.3900 83.7500
L131.5500 83.7500
" />
<path d="M132.3800 85.4800
L134.2550 85.4800
" />
<path d="M131.6000 84.7000
L132.3800 85.4800
" />
<path d="M129.3900 84.7000
L131.6000 84.7000
" />
<path d="M124.6900 85.5100
L121.7800 85.5100
" />
<path d="M125.5000 84.7000
L124.6900 85.5100
" />
<path d="M126.9000 84.7000
L125.5000 84.7000
" />
<path d="M124.3300 82.9700
L121.7800 82.9700
" />
<path d="M124.5000 82.8000
L124.3300 82.9700
" />
<path d="M126.9000 82.8000
L124.5000 82.8000
" />
<path d="M131.9400 77.8600
L134.2550 77.8600
" />
<path d="M131.5000 78.3000
L131.9400 77.8600
" />
<path d="M129.2900 78.3000
L131.5000 78.3000
" />
<path d="M132.6800 75.3200
L134.2550 75.3200
" />
<path d="M131.6000 76.4000
L132.6800 75.3200
" />
<path d="M129.2900 76.4000
L131.6000 76.4000
" />
<path d="M123.7700 80.4300
L121.7800 80.4300
" />
<path d="M125.9000 78.3000
L123.7700 80.4300
" />
<path d="M126.8000 78.3000
L125.9000 78.3000
" />
<path d="M124.6500 77.3500
L124.1100 77.8900
" />
<path d="M126.8000 77.3500
L124.6500 77.3500
" />
<path d="M124.1100 77.8900
L121.7800 77.8900
" />
<path d="M124.7000 76.4000
L126.8000 76.4000
" />
<path d="M123.6500 75.3500
L124.7000 76.4000
" />
<path d="M121.7800 75.3500
L123.6500 75.3500
" />
</g>
<g >
</g>
</g>
<g style="fill:#000000; fill-opacity:0.0; 
stroke:#000000; stroke-width:0.5000; stroke-opacity:1; 
stroke-linecap:round; stroke-linejoin:round;">
</g>
<g style="fill:#000000; fill-opacity:1.0000; 
stroke:#000000; stroke-width:0.0000; stroke-opacity:1; 
stroke-linecap:round; stroke-linejoin:round;">
<circle cx="134.2550" cy="75.3200" r="0.6250" /> 
</g>
<g style="fill:#000000; fill-opacity:1.0000; 
stroke:#000000; stroke-width:0.0212; stroke-opacity:1; 
stroke-linecap:round; stroke-linejoin:round;">
</g>
<g style="fill:#000000; fill-opacity:1.0000; 
stroke:#000000; stroke-width:0.0000; stroke-opacity:1; 
stroke-linecap:round; stroke-linejoin:round;">
<circle cx="134.2550" cy="77.8600" r="0.6250" /> 
</g>
<g style="fill:#000000; fill-opacity:1.0000; 
stroke:#000000; stroke-width:0.0212; stroke-opacity:1; 
stroke-linecap:round; stroke-linejoin:round;">
</g>
<g style="fill:#000000; fill-opacity:1.0000; 
stroke:#000000; stroke-width:0.0000; stroke-opacity:1; 
stroke-linecap:round; stroke-linejoin:round;">
<circle cx="134.2550" cy="80.4000" r="0.6250" /> 
</g>
<g style="fill:#000000; fill-opacity:1.0000; 
stroke:#000000; stroke-width:0.0212; stroke-opacity:1; 
stroke-linecap:round; stroke-linejoin:round;">
</g>
<g style="fill:#000000; fill-opacity:1.0000; 
stroke:#000000; stroke-width:0.0000; stroke-opacity:1; 
stroke-linecap:round; stroke-linejoin:round;">
<circle cx="134.2550" cy="82.9400" r="0.6250" /> 
</g>
<g style="fill:#000000; fill-opacity:1.0000; 
stroke:#000000; stroke-width:0.0212; stroke-opacity:1; 
stroke-linecap:round; stroke-linejoin:round;">
</g>
<g style="fill:#000000; fill-opacity:1.0000; 
stroke:#000000; stroke-width:0.0000; stroke-opacity:1; 
stroke-linecap:round; stroke-linejoin:round;">
<circle cx="134.2550" cy="85.4800" r="0.6250" /> 
</g>
<g style="fill:#000000; fill-opacity:1.0000; 
stroke:#000000; stroke-width:0.0212; stroke-opacity:1; 
stroke-linecap:round; stroke-linejoin:round;">
</g>
<g style="fill:#000000; fill-opacity:1.0000; 
stroke:#000000; stroke-width:0.0000; stroke-opacity:1; 
stroke-linecap:round; stroke-linejoin:round;">
<circle cx="121.7800" cy="75.3500" r="0.6250" /> 
</g>
<g style="fill:#000000; fill-opacity:1.0000; 
stroke:#000000; stroke-width:0.0212; stroke-opacity:1; 
stroke-linecap:round; stroke-linejoin:round;">
</g>
<g style="fill:#000000; fill-opacity:1.0000; 
stroke:#000000; stroke-width:0.0000; stroke-opacity:1; 
stroke-linecap:round; stroke-linejoin:round;">
<circle cx="121.7800" cy="77.8900" r="0.6250" /> 
</g>
<g style="fill:#000000; fill-opacity:1.0000; 
stroke:#000000; stroke-width:0.0212; stroke-opacity:1; 
stroke-linecap:round; stroke-linejoin:round;">
</g>
<g style="fill:#000000; fill-opacity:1.0000; 
stroke:#000000; stroke-width:0.0000; stroke-opacity:1; 
stroke-linecap:round; stroke-linejoin:round;">
<circle cx="121.7800" cy="80.4300" r="0.6250" /> 
</g>
<g style="fill:#000000; fill-opacity:1.0000; 
stroke:#000000; stroke-width:0.0212; stroke-opacity:1; 
stroke-linecap:round; stroke-linejoin:round;">
</g>
<g style="fill:#000000; fill-opacity:1.0000; 
stroke:#000000; stroke-width:0.0000; stroke-opacity:1; 
stroke-linecap:round; stroke-linejoin:round;">
<circle cx="121.7800" cy="82.9700" r="0.6250" /> 
</g>
<g style="fill:#000000; fill-opacity:1.0000; 
stroke:#000000; stroke-width:0.0212; stroke-opacity:1; 
stroke-linecap:round; stroke-linejoin:round;">
</g>
<g style="fill:#000000; fill-opacity:1.0000; 
stroke:#000000; stroke-width:0.0000; stroke-opacity:1; 
stroke-linecap:round; stroke-linejoin:round;">
<circle cx="121.7800" cy="85.5100" r="0.6250" /> 
</g>
<g style="fill:#000000; fill-opacity:1.0000; 
stroke:#000000; stroke-width:0.0212; stroke-opacity:1; 
stroke-linecap:round; stroke-linejoin:round;">
</g>
<g style="fill:#FFFFFF; fill-opacity:1.0000; 
stroke:#FFFFFF; stroke-width:0.0212; stroke-opacity:1; 
stroke-linecap:round; stroke-linejoin:round;">
</g>
<g style="fill:#FFFFFF; fill-opacity:0.0; 
stroke:#FFFFFF; stroke-width:0.5000; stroke-opacity:1; 
stroke-linecap:round; stroke-linejoin:round;">
<path style="fill:#FFFFFF; fill-opacity:0.0; 
stroke:#FFFFFF; stroke-width:0.5000; stroke-opacity:1; 
stroke-linecap:round; stroke-linejoin:round;fill:none"
d="M 120.0000,70.0000
136.0000,70.0000
136.0000,90.0000
120.0000,90.0000
Z" /> 
<g >
</g>
<g >
</g>
<g >
</g>
<g >
</g>
<g >
</g>
<g >
</g>
<g >
</g>
</g> 
</svg>
