<?xml version="1.0" standalone="no"?>
 <!DOCTYPE svg PUBLIC "-//W3C//DTD SVG 1.1//EN" 
 "http://www.w3.org/Graphics/SVG/1.1/DTD/svg11.dtd"> 
<svg
  xmlns:svg="http://www.w3.org/2000/svg"
  xmlns="http://www.w3.org/2000/svg"
  xmlns:xlink="http://www.w3.org/1999/xlink"
  version="1.1"
  width="297.0022mm" height="210.0072mm" viewBox="0.0000 0.0000 297.0022 210.0072">
<title>SVG Image created as comparador op amp.svg date 2024/07/05 11:27:00 </title>
  <desc>Image generated by Eeschema-SVG </desc>
<g style="fill:#000000; fill-opacity:1.0000;stroke:#000000; stroke-opacity:1.0000;
stroke-linecap:round; stroke-linejoin:round;"
 transform="translate(0 0) scale(1 1)">
</g>
<g style="fill:#840000; fill-opacity:0.0; 
stroke:#840000; stroke-width:0.0000; stroke-opacity:1; 
stroke-linecap:round; stroke-linejoin:round;">
</g>
<g style="fill:#840000; fill-opacity:0.0; 
stroke:#840000; stroke-width:0.1524; stroke-opacity:1; 
stroke-linecap:round; stroke-linejoin:round;">
<path d="M177.0022 166.0072
L285.0022 166.0072
L285.0022 198.0072
L177.0022 198.0072
L177.0022 166.0072
" />
<path d="M10.0000 10.0000
L287.0022 10.0000
L287.0022 200.0072
L10.0000 200.0072
L10.0000 10.0000
" />
<path d="M12.0000 12.0000
L285.0022 12.0000
L285.0022 198.0072
L12.0000 198.0072
L12.0000 12.0000
" />
<path d="M60.0000 12.0000
L60.0000 10.0000
" />
<path d="M110.0000 12.0000
L110.0000 10.0000
" />
<path d="M160.0000 12.0000
L160.0000 10.0000
" />
<path d="M210.0000 12.0000
L210.0000 10.0000
" />
<path d="M260.0000 12.0000
L260.0000 10.0000
" />
<text x="35.0000" y="11.6500"
textLength="1.4353" font-size="1.7333" lengthAdjust="spacingAndGlyphs"
text-anchor="start" opacity="0">1</text>
<g class="stroked-text"><desc>1</desc>
<path d="M36.0906 11.5935
L35.3478 11.5935
" />
<path d="M35.7192 11.5935
L35.7192 10.2935
" />
<path d="M35.7192 10.2935
L35.5954 10.4792
" />
<path d="M35.5954 10.4792
L35.4716 10.6030
" />
<path d="M35.4716 10.6030
L35.3478 10.6649
" />
</g><text x="85.0000" y="11.6500"
textLength="1.4353" font-size="1.7333" lengthAdjust="spacingAndGlyphs"
text-anchor="start" opacity="0">2</text>
<g class="stroked-text"><desc>2</desc>
<path d="M85.3478 10.4173
L85.4097 10.3554
" />
<path d="M85.4097 10.3554
L85.5335 10.2935
" />
<path d="M85.5335 10.2935
L85.8430 10.2935
" />
<path d="M85.8430 10.2935
L85.9668 10.3554
" />
<path d="M85.9668 10.3554
L86.0287 10.4173
" />
<path d="M86.0287 10.4173
L86.0906 10.5411
" />
<path d="M86.0906 10.5411
L86.0906 10.6649
" />
<path d="M86.0906 10.6649
L86.0287 10.8506
" />
<path d="M86.0287 10.8506
L85.2859 11.5935
" />
<path d="M85.2859 11.5935
L86.0906 11.5935
" />
</g><text x="135.0000" y="11.6500"
textLength="1.4353" font-size="1.7333" lengthAdjust="spacingAndGlyphs"
text-anchor="start" opacity="0">3</text>
<g class="stroked-text"><desc>3</desc>
<path d="M135.2859 10.2935
L136.0906 10.2935
" />
<path d="M136.0906 10.2935
L135.6573 10.7887
" />
<path d="M135.6573 10.7887
L135.8430 10.7887
" />
<path d="M135.8430 10.7887
L135.9668 10.8506
" />
<path d="M135.9668 10.8506
L136.0287 10.9125
" />
<path d="M136.0287 10.9125
L136.0906 11.0363
" />
<path d="M136.0906 11.0363
L136.0906 11.3458
" />
<path d="M136.0906 11.3458
L136.0287 11.4696
" />
<path d="M136.0287 11.4696
L135.9668 11.5316
" />
<path d="M135.9668 11.5316
L135.8430 11.5935
" />
<path d="M135.8430 11.5935
L135.4716 11.5935
" />
<path d="M135.4716 11.5935
L135.3478 11.5316
" />
<path d="M135.3478 11.5316
L135.2859 11.4696
" />
</g><text x="185.0000" y="11.6500"
textLength="1.4353" font-size="1.7333" lengthAdjust="spacingAndGlyphs"
text-anchor="start" opacity="0">4</text>
<g class="stroked-text"><desc>4</desc>
<path d="M185.9668 10.7268
L185.9668 11.5935
" />
<path d="M185.6573 10.2316
L185.3478 11.1601
" />
<path d="M185.3478 11.1601
L186.1525 11.1601
" />
</g><text x="235.0000" y="11.6500"
textLength="1.4353" font-size="1.7333" lengthAdjust="spacingAndGlyphs"
text-anchor="start" opacity="0">5</text>
<g class="stroked-text"><desc>5</desc>
<path d="M236.0287 10.2935
L235.4097 10.2935
" />
<path d="M235.4097 10.2935
L235.3478 10.9125
" />
<path d="M235.3478 10.9125
L235.4097 10.8506
" />
<path d="M235.4097 10.8506
L235.5335 10.7887
" />
<path d="M235.5335 10.7887
L235.8430 10.7887
" />
<path d="M235.8430 10.7887
L235.9668 10.8506
" />
<path d="M235.9668 10.8506
L236.0287 10.9125
" />
<path d="M236.0287 10.9125
L236.0906 11.0363
" />
<path d="M236.0906 11.0363
L236.0906 11.3458
" />
<path d="M236.0906 11.3458
L236.0287 11.4696
" />
<path d="M236.0287 11.4696
L235.9668 11.5316
" />
<path d="M235.9668 11.5316
L235.8430 11.5935
" />
<path d="M235.8430 11.5935
L235.5335 11.5935
" />
<path d="M235.5335 11.5935
L235.4097 11.5316
" />
<path d="M235.4097 11.5316
L235.3478 11.4696
" />
</g><text x="285.0000" y="11.6500"
textLength="1.4353" font-size="1.7333" lengthAdjust="spacingAndGlyphs"
text-anchor="start" opacity="0">6</text>
<g class="stroked-text"><desc>6</desc>
<path d="M285.9668 10.2935
L285.7192 10.2935
" />
<path d="M285.7192 10.2935
L285.5954 10.3554
" />
<path d="M285.5954 10.3554
L285.5335 10.4173
" />
<path d="M285.5335 10.4173
L285.4097 10.6030
" />
<path d="M285.4097 10.6030
L285.3478 10.8506
" />
<path d="M285.3478 10.8506
L285.3478 11.3458
" />
<path d="M285.3478 11.3458
L285.4097 11.4696
" />
<path d="M285.4097 11.4696
L285.4716 11.5316
" />
<path d="M285.4716 11.5316
L285.5954 11.5935
" />
<path d="M285.5954 11.5935
L285.8430 11.5935
" />
<path d="M285.8430 11.5935
L285.9668 11.5316
" />
<path d="M285.9668 11.5316
L286.0287 11.4696
" />
<path d="M286.0287 11.4696
L286.0906 11.3458
" />
<path d="M286.0906 11.3458
L286.0906 11.0363
" />
<path d="M286.0906 11.0363
L286.0287 10.9125
" />
<path d="M286.0287 10.9125
L285.9668 10.8506
" />
<path d="M285.9668 10.8506
L285.8430 10.7887
" />
<path d="M285.8430 10.7887
L285.5954 10.7887
" />
<path d="M285.5954 10.7887
L285.4716 10.8506
" />
<path d="M285.4716 10.8506
L285.4097 10.9125
" />
<path d="M285.4097 10.9125
L285.3478 11.0363
" />
</g><path d="M60.0000 198.0072
L60.0000 200.0072
" />
<path d="M110.0000 198.0072
L110.0000 200.0072
" />
<path d="M160.0000 198.0072
L160.0000 200.0072
" />
<path d="M210.0000 198.0072
L210.0000 200.0072
" />
<path d="M260.0000 198.0072
L260.0000 200.0072
" />
<text x="35.0000" y="199.6572"
textLength="1.4353" font-size="1.7333" lengthAdjust="spacingAndGlyphs"
text-anchor="start" opacity="0">1</text>
<g class="stroked-text"><desc>1</desc>
<path d="M36.0906 199.6007
L35.3478 199.6007
" />
<path d="M35.7192 199.6007
L35.7192 198.3007
" />
<path d="M35.7192 198.3007
L35.5954 198.4864
" />
<path d="M35.5954 198.4864
L35.4716 198.6102
" />
<path d="M35.4716 198.6102
L35.3478 198.6721
" />
</g><text x="85.0000" y="199.6572"
textLength="1.4353" font-size="1.7333" lengthAdjust="spacingAndGlyphs"
text-anchor="start" opacity="0">2</text>
<g class="stroked-text"><desc>2</desc>
<path d="M85.3478 198.4245
L85.4097 198.3626
" />
<path d="M85.4097 198.3626
L85.5335 198.3007
" />
<path d="M85.5335 198.3007
L85.8430 198.3007
" />
<path d="M85.8430 198.3007
L85.9668 198.3626
" />
<path d="M85.9668 198.3626
L86.0287 198.4245
" />
<path d="M86.0287 198.4245
L86.0906 198.5483
" />
<path d="M86.0906 198.5483
L86.0906 198.6721
" />
<path d="M86.0906 198.6721
L86.0287 198.8578
" />
<path d="M86.0287 198.8578
L85.2859 199.6007
" />
<path d="M85.2859 199.6007
L86.0906 199.6007
" />
</g><text x="135.0000" y="199.6572"
textLength="1.4353" font-size="1.7333" lengthAdjust="spacingAndGlyphs"
text-anchor="start" opacity="0">3</text>
<g class="stroked-text"><desc>3</desc>
<path d="M135.2859 198.3007
L136.0906 198.3007
" />
<path d="M136.0906 198.3007
L135.6573 198.7959
" />
<path d="M135.6573 198.7959
L135.8430 198.7959
" />
<path d="M135.8430 198.7959
L135.9668 198.8578
" />
<path d="M135.9668 198.8578
L136.0287 198.9197
" />
<path d="M136.0287 198.9197
L136.0906 199.0435
" />
<path d="M136.0906 199.0435
L136.0906 199.3530
" />
<path d="M136.0906 199.3530
L136.0287 199.4768
" />
<path d="M136.0287 199.4768
L135.9668 199.5388
" />
<path d="M135.9668 199.5388
L135.8430 199.6007
" />
<path d="M135.8430 199.6007
L135.4716 199.6007
" />
<path d="M135.4716 199.6007
L135.3478 199.5388
" />
<path d="M135.3478 199.5388
L135.2859 199.4768
" />
</g><text x="185.0000" y="199.6572"
textLength="1.4353" font-size="1.7333" lengthAdjust="spacingAndGlyphs"
text-anchor="start" opacity="0">4</text>
<g class="stroked-text"><desc>4</desc>
<path d="M185.9668 198.7340
L185.9668 199.6007
" />
<path d="M185.6573 198.2388
L185.3478 199.1673
" />
<path d="M185.3478 199.1673
L186.1525 199.1673
" />
</g><text x="235.0000" y="199.6572"
textLength="1.4353" font-size="1.7333" lengthAdjust="spacingAndGlyphs"
text-anchor="start" opacity="0">5</text>
<g class="stroked-text"><desc>5</desc>
<path d="M236.0287 198.3007
L235.4097 198.3007
" />
<path d="M235.4097 198.3007
L235.3478 198.9197
" />
<path d="M235.3478 198.9197
L235.4097 198.8578
" />
<path d="M235.4097 198.8578
L235.5335 198.7959
" />
<path d="M235.5335 198.7959
L235.8430 198.7959
" />
<path d="M235.8430 198.7959
L235.9668 198.8578
" />
<path d="M235.9668 198.8578
L236.0287 198.9197
" />
<path d="M236.0287 198.9197
L236.0906 199.0435
" />
<path d="M236.0906 199.0435
L236.0906 199.3530
" />
<path d="M236.0906 199.3530
L236.0287 199.4768
" />
<path d="M236.0287 199.4768
L235.9668 199.5388
" />
<path d="M235.9668 199.5388
L235.8430 199.6007
" />
<path d="M235.8430 199.6007
L235.5335 199.6007
" />
<path d="M235.5335 199.6007
L235.4097 199.5388
" />
<path d="M235.4097 199.5388
L235.3478 199.4768
" />
</g><text x="285.0000" y="199.6572"
textLength="1.4353" font-size="1.7333" lengthAdjust="spacingAndGlyphs"
text-anchor="start" opacity="0">6</text>
<g class="stroked-text"><desc>6</desc>
<path d="M285.9668 198.3007
L285.7192 198.3007
" />
<path d="M285.7192 198.3007
L285.5954 198.3626
" />
<path d="M285.5954 198.3626
L285.5335 198.4245
" />
<path d="M285.5335 198.4245
L285.4097 198.6102
" />
<path d="M285.4097 198.6102
L285.3478 198.8578
" />
<path d="M285.3478 198.8578
L285.3478 199.3530
" />
<path d="M285.3478 199.3530
L285.4097 199.4768
" />
<path d="M285.4097 199.4768
L285.4716 199.5388
" />
<path d="M285.4716 199.5388
L285.5954 199.6007
" />
<path d="M285.5954 199.6007
L285.8430 199.6007
" />
<path d="M285.8430 199.6007
L285.9668 199.5388
" />
<path d="M285.9668 199.5388
L286.0287 199.4768
" />
<path d="M286.0287 199.4768
L286.0906 199.3530
" />
<path d="M286.0906 199.3530
L286.0906 199.0435
" />
<path d="M286.0906 199.0435
L286.0287 198.9197
" />
<path d="M286.0287 198.9197
L285.9668 198.8578
" />
<path d="M285.9668 198.8578
L285.8430 198.7959
" />
<path d="M285.8430 198.7959
L285.5954 198.7959
" />
<path d="M285.5954 198.7959
L285.4716 198.8578
" />
<path d="M285.4716 198.8578
L285.4097 198.9197
" />
<path d="M285.4097 198.9197
L285.3478 199.0435
" />
</g><path d="M10.0000 60.0000
L12.0000 60.0000
" />
<path d="M10.0000 110.0000
L12.0000 110.0000
" />
<path d="M10.0000 160.0000
L12.0000 160.0000
" />
<text x="11.0000" y="35.6500"
textLength="1.3115" font-size="1.7333" lengthAdjust="spacingAndGlyphs"
text-anchor="middle" opacity="0">A</text>
<g class="stroked-text"><desc>A</desc>
<path d="M10.6905 35.2220
L11.3095 35.2220
" />
<path d="M10.5667 35.5935
L11.0000 34.2935
" />
<path d="M11.0000 34.2935
L11.4333 35.5935
" />
</g><text x="11.0000" y="85.6500"
textLength="1.4972" font-size="1.7333" lengthAdjust="spacingAndGlyphs"
text-anchor="middle" opacity="0">B</text>
<g class="stroked-text"><desc>B</desc>
<path d="M11.0928 84.9125
L11.2785 84.9744
" />
<path d="M11.2785 84.9744
L11.3404 85.0363
" />
<path d="M11.3404 85.0363
L11.4023 85.1601
" />
<path d="M11.4023 85.1601
L11.4023 85.3458
" />
<path d="M11.4023 85.3458
L11.3404 85.4696
" />
<path d="M11.3404 85.4696
L11.2785 85.5316
" />
<path d="M11.2785 85.5316
L11.1547 85.5935
" />
<path d="M11.1547 85.5935
L10.6595 85.5935
" />
<path d="M10.6595 85.5935
L10.6595 84.2935
" />
<path d="M10.6595 84.2935
L11.0928 84.2935
" />
<path d="M11.0928 84.2935
L11.2166 84.3554
" />
<path d="M11.2166 84.3554
L11.2785 84.4173
" />
<path d="M11.2785 84.4173
L11.3404 84.5411
" />
<path d="M11.3404 84.5411
L11.3404 84.6649
" />
<path d="M11.3404 84.6649
L11.2785 84.7887
" />
<path d="M11.2785 84.7887
L11.2166 84.8506
" />
<path d="M11.2166 84.8506
L11.0928 84.9125
" />
<path d="M11.0928 84.9125
L10.6595 84.9125
" />
</g><text x="11.0000" y="135.6500"
textLength="1.4972" font-size="1.7333" lengthAdjust="spacingAndGlyphs"
text-anchor="middle" opacity="0">C</text>
<g class="stroked-text"><desc>C</desc>
<path d="M11.4023 135.4696
L11.3404 135.5316
" />
<path d="M11.3404 135.5316
L11.1547 135.5935
" />
<path d="M11.1547 135.5935
L11.0309 135.5935
" />
<path d="M11.0309 135.5935
L10.8452 135.5316
" />
<path d="M10.8452 135.5316
L10.7214 135.4077
" />
<path d="M10.7214 135.4077
L10.6595 135.2839
" />
<path d="M10.6595 135.2839
L10.5976 135.0363
" />
<path d="M10.5976 135.0363
L10.5976 134.8506
" />
<path d="M10.5976 134.8506
L10.6595 134.6030
" />
<path d="M10.6595 134.6030
L10.7214 134.4792
" />
<path d="M10.7214 134.4792
L10.8452 134.3554
" />
<path d="M10.8452 134.3554
L11.0309 134.2935
" />
<path d="M11.0309 134.2935
L11.1547 134.2935
" />
<path d="M11.1547 134.2935
L11.3404 134.3554
" />
<path d="M11.3404 134.3554
L11.4023 134.4173
" />
</g><text x="11.0000" y="185.6500"
textLength="1.4972" font-size="1.7333" lengthAdjust="spacingAndGlyphs"
text-anchor="middle" opacity="0">D</text>
<g class="stroked-text"><desc>D</desc>
<path d="M10.6595 185.5935
L10.6595 184.2935
" />
<path d="M10.6595 184.2935
L10.9690 184.2935
" />
<path d="M10.9690 184.2935
L11.1547 184.3554
" />
<path d="M11.1547 184.3554
L11.2785 184.4792
" />
<path d="M11.2785 184.4792
L11.3404 184.6030
" />
<path d="M11.3404 184.6030
L11.4023 184.8506
" />
<path d="M11.4023 184.8506
L11.4023 185.0363
" />
<path d="M11.4023 185.0363
L11.3404 185.2839
" />
<path d="M11.3404 185.2839
L11.2785 185.4077
" />
<path d="M11.2785 185.4077
L11.1547 185.5316
" />
<path d="M11.1547 185.5316
L10.9690 185.5935
" />
<path d="M10.9690 185.5935
L10.6595 185.5935
" />
</g><path d="M287.0022 60.0000
L285.0022 60.0000
" />
<path d="M287.0022 110.0000
L285.0022 110.0000
" />
<path d="M287.0022 160.0000
L285.0022 160.0000
" />
<text x="286.0022" y="35.6500"
textLength="1.3115" font-size="1.7333" lengthAdjust="spacingAndGlyphs"
text-anchor="middle" opacity="0">A</text>
<g class="stroked-text"><desc>A</desc>
<path d="M285.6927 35.2220
L286.3117 35.2220
" />
<path d="M285.5689 35.5935
L286.0022 34.2935
" />
<path d="M286.0022 34.2935
L286.4355 35.5935
" />
</g><text x="286.0022" y="85.6500"
textLength="1.4972" font-size="1.7333" lengthAdjust="spacingAndGlyphs"
text-anchor="middle" opacity="0">B</text>
<g class="stroked-text"><desc>B</desc>
<path d="M286.0950 84.9125
L286.2807 84.9744
" />
<path d="M286.2807 84.9744
L286.3426 85.0363
" />
<path d="M286.3426 85.0363
L286.4045 85.1601
" />
<path d="M286.4045 85.1601
L286.4045 85.3458
" />
<path d="M286.4045 85.3458
L286.3426 85.4696
" />
<path d="M286.3426 85.4696
L286.2807 85.5316
" />
<path d="M286.2807 85.5316
L286.1569 85.5935
" />
<path d="M286.1569 85.5935
L285.6617 85.5935
" />
<path d="M285.6617 85.5935
L285.6617 84.2935
" />
<path d="M285.6617 84.2935
L286.0950 84.2935
" />
<path d="M286.0950 84.2935
L286.2188 84.3554
" />
<path d="M286.2188 84.3554
L286.2807 84.4173
" />
<path d="M286.2807 84.4173
L286.3426 84.5411
" />
<path d="M286.3426 84.5411
L286.3426 84.6649
" />
<path d="M286.3426 84.6649
L286.2807 84.7887
" />
<path d="M286.2807 84.7887
L286.2188 84.8506
" />
<path d="M286.2188 84.8506
L286.0950 84.9125
" />
<path d="M286.0950 84.9125
L285.6617 84.9125
" />
</g><text x="286.0022" y="135.6500"
textLength="1.4972" font-size="1.7333" lengthAdjust="spacingAndGlyphs"
text-anchor="middle" opacity="0">C</text>
<g class="stroked-text"><desc>C</desc>
<path d="M286.4045 135.4696
L286.3426 135.5316
" />
<path d="M286.3426 135.5316
L286.1569 135.5935
" />
<path d="M286.1569 135.5935
L286.0331 135.5935
" />
<path d="M286.0331 135.5935
L285.8474 135.5316
" />
<path d="M285.8474 135.5316
L285.7236 135.4077
" />
<path d="M285.7236 135.4077
L285.6617 135.2839
" />
<path d="M285.6617 135.2839
L285.5998 135.0363
" />
<path d="M285.5998 135.0363
L285.5998 134.8506
" />
<path d="M285.5998 134.8506
L285.6617 134.6030
" />
<path d="M285.6617 134.6030
L285.7236 134.4792
" />
<path d="M285.7236 134.4792
L285.8474 134.3554
" />
<path d="M285.8474 134.3554
L286.0331 134.2935
" />
<path d="M286.0331 134.2935
L286.1569 134.2935
" />
<path d="M286.1569 134.2935
L286.3426 134.3554
" />
<path d="M286.3426 134.3554
L286.4045 134.4173
" />
</g><text x="286.0022" y="185.6500"
textLength="1.4972" font-size="1.7333" lengthAdjust="spacingAndGlyphs"
text-anchor="middle" opacity="0">D</text>
<g class="stroked-text"><desc>D</desc>
<path d="M285.6617 185.5935
L285.6617 184.2935
" />
<path d="M285.6617 184.2935
L285.9712 184.2935
" />
<path d="M285.9712 184.2935
L286.1569 184.3554
" />
<path d="M286.1569 184.3554
L286.2807 184.4792
" />
<path d="M286.2807 184.4792
L286.3426 184.6030
" />
<path d="M286.3426 184.6030
L286.4045 184.8506
" />
<path d="M286.4045 184.8506
L286.4045 185.0363
" />
<path d="M286.4045 185.0363
L286.3426 185.2839
" />
<path d="M286.3426 185.2839
L286.2807 185.4077
" />
<path d="M286.2807 185.4077
L286.1569 185.5316
" />
<path d="M286.1569 185.5316
L285.9712 185.5935
" />
<path d="M285.9712 185.5935
L285.6617 185.5935
" />
</g><text x="200.0022" y="193.8572"
textLength="7.0143" font-size="2.0000" lengthAdjust="spacingAndGlyphs"
text-anchor="start" opacity="0">Date: </text>
<g class="stroked-text"><desc>Date: </desc>
<path d="M200.4595 193.7931
L200.4595 192.2931
" />
<path d="M200.4595 192.2931
L200.8166 192.2931
" />
<path d="M200.8166 192.2931
L201.0309 192.3645
" />
<path d="M201.0309 192.3645
L201.1738 192.5074
" />
<path d="M201.1738 192.5074
L201.2452 192.6502
" />
<path d="M201.2452 192.6502
L201.3166 192.9359
" />
<path d="M201.3166 192.9359
L201.3166 193.1502
" />
<path d="M201.3166 193.1502
L201.2452 193.4359
" />
<path d="M201.2452 193.4359
L201.1738 193.5788
" />
<path d="M201.1738 193.5788
L201.0309 193.7217
" />
<path d="M201.0309 193.7217
L200.8166 193.7931
" />
<path d="M200.8166 193.7931
L200.4595 193.7931
" />
<path d="M202.6024 193.7931
L202.6024 193.0074
" />
<path d="M202.6024 193.0074
L202.5309 192.8645
" />
<path d="M202.5309 192.8645
L202.3881 192.7931
" />
<path d="M202.3881 192.7931
L202.1024 192.7931
" />
<path d="M202.1024 192.7931
L201.9595 192.8645
" />
<path d="M202.6024 193.7217
L202.4595 193.7931
" />
<path d="M202.4595 193.7931
L202.1024 193.7931
" />
<path d="M202.1024 193.7931
L201.9595 193.7217
" />
<path d="M201.9595 193.7217
L201.8881 193.5788
" />
<path d="M201.8881 193.5788
L201.8881 193.4359
" />
<path d="M201.8881 193.4359
L201.9595 193.2931
" />
<path d="M201.9595 193.2931
L202.1024 193.2217
" />
<path d="M202.1024 193.2217
L202.4595 193.2217
" />
<path d="M202.4595 193.2217
L202.6024 193.1502
" />
<path d="M203.1023 192.7931
L203.6737 192.7931
" />
<path d="M203.3166 192.2931
L203.3166 193.5788
" />
<path d="M203.3166 193.5788
L203.3880 193.7217
" />
<path d="M203.3880 193.7217
L203.5309 193.7931
" />
<path d="M203.5309 193.7931
L203.6737 193.7931
" />
<path d="M204.7451 193.7217
L204.6023 193.7931
" />
<path d="M204.6023 193.7931
L204.3166 193.7931
" />
<path d="M204.3166 193.7931
L204.1737 193.7217
" />
<path d="M204.1737 193.7217
L204.1023 193.5788
" />
<path d="M204.1023 193.5788
L204.1023 193.0074
" />
<path d="M204.1023 193.0074
L204.1737 192.8645
" />
<path d="M204.1737 192.8645
L204.3166 192.7931
" />
<path d="M204.3166 192.7931
L204.6023 192.7931
" />
<path d="M204.6023 192.7931
L204.7451 192.8645
" />
<path d="M204.7451 192.8645
L204.8166 193.0074
" />
<path d="M204.8166 193.0074
L204.8166 193.1502
" />
<path d="M204.8166 193.1502
L204.1023 193.2931
" />
<path d="M205.4594 193.6502
L205.5308 193.7217
" />
<path d="M205.5308 193.7217
L205.4594 193.7931
" />
<path d="M205.4594 193.7931
L205.3880 193.7217
" />
<path d="M205.3880 193.7217
L205.4594 193.6502
" />
<path d="M205.4594 193.6502
L205.4594 193.7931
" />
<path d="M205.4594 192.8645
L205.5308 192.9359
" />
<path d="M205.5308 192.9359
L205.4594 193.0074
" />
<path d="M205.4594 193.0074
L205.3880 192.9359
" />
<path d="M205.3880 192.9359
L205.4594 192.8645
" />
<path d="M205.4594 192.8645
L205.4594 193.0074
" />
</g><path d="M177.0022 194.5072
L285.0022 194.5072
" />
<text x="178.0022" y="196.6572"
textLength="29.0859" font-size="2.0000" lengthAdjust="spacingAndGlyphs"
text-anchor="start" opacity="0">KiCad E.D.A.  kicad 7.0.9</text>
<g class="stroked-text"><desc>KiCad E.D.A.  kicad 7.0.9</desc>
<path d="M178.4595 196.5931
L178.4595 195.0931
" />
<path d="M179.3166 196.5931
L178.6738 195.7359
" />
<path d="M179.3166 195.0931
L178.4595 195.9502
" />
<path d="M179.9595 196.5931
L179.9595 195.5931
" />
<path d="M179.9595 195.0931
L179.8881 195.1645
" />
<path d="M179.8881 195.1645
L179.9595 195.2359
" />
<path d="M179.9595 195.2359
L180.0309 195.1645
" />
<path d="M180.0309 195.1645
L179.9595 195.0931
" />
<path d="M179.9595 195.0931
L179.9595 195.2359
" />
<path d="M181.5309 196.4502
L181.4595 196.5217
" />
<path d="M181.4595 196.5217
L181.2452 196.5931
" />
<path d="M181.2452 196.5931
L181.1024 196.5931
" />
<path d="M181.1024 196.5931
L180.8881 196.5217
" />
<path d="M180.8881 196.5217
L180.7452 196.3788
" />
<path d="M180.7452 196.3788
L180.6738 196.2359
" />
<path d="M180.6738 196.2359
L180.6024 195.9502
" />
<path d="M180.6024 195.9502
L180.6024 195.7359
" />
<path d="M180.6024 195.7359
L180.6738 195.4502
" />
<path d="M180.6738 195.4502
L180.7452 195.3074
" />
<path d="M180.7452 195.3074
L180.8881 195.1645
" />
<path d="M180.8881 195.1645
L181.1024 195.0931
" />
<path d="M181.1024 195.0931
L181.2452 195.0931
" />
<path d="M181.2452 195.0931
L181.4595 195.1645
" />
<path d="M181.4595 195.1645
L181.5309 195.2359
" />
<path d="M182.8167 196.5931
L182.8167 195.8074
" />
<path d="M182.8167 195.8074
L182.7452 195.6645
" />
<path d="M182.7452 195.6645
L182.6024 195.5931
" />
<path d="M182.6024 195.5931
L182.3167 195.5931
" />
<path d="M182.3167 195.5931
L182.1738 195.6645
" />
<path d="M182.8167 196.5217
L182.6738 196.5931
" />
<path d="M182.6738 196.5931
L182.3167 196.5931
" />
<path d="M182.3167 196.5931
L182.1738 196.5217
" />
<path d="M182.1738 196.5217
L182.1024 196.3788
" />
<path d="M182.1024 196.3788
L182.1024 196.2359
" />
<path d="M182.1024 196.2359
L182.1738 196.0931
" />
<path d="M182.1738 196.0931
L182.3167 196.0217
" />
<path d="M182.3167 196.0217
L182.6738 196.0217
" />
<path d="M182.6738 196.0217
L182.8167 195.9502
" />
<path d="M184.1738 196.5931
L184.1738 195.0931
" />
<path d="M184.1738 196.5217
L184.0309 196.5931
" />
<path d="M184.0309 196.5931
L183.7452 196.5931
" />
<path d="M183.7452 196.5931
L183.6023 196.5217
" />
<path d="M183.6023 196.5217
L183.5309 196.4502
" />
<path d="M183.5309 196.4502
L183.4595 196.3074
" />
<path d="M183.4595 196.3074
L183.4595 195.8788
" />
<path d="M183.4595 195.8788
L183.5309 195.7359
" />
<path d="M183.5309 195.7359
L183.6023 195.6645
" />
<path d="M183.6023 195.6645
L183.7452 195.5931
" />
<path d="M183.7452 195.5931
L184.0309 195.5931
" />
<path d="M184.0309 195.5931
L184.1738 195.6645
" />
<path d="M186.0309 195.8074
L186.5309 195.8074
" />
<path d="M186.7452 196.5931
L186.0309 196.5931
" />
<path d="M186.0309 196.5931
L186.0309 195.0931
" />
<path d="M186.0309 195.0931
L186.7452 195.0931
" />
<path d="M187.3880 196.4502
L187.4594 196.5217
" />
<path d="M187.4594 196.5217
L187.3880 196.5931
" />
<path d="M187.3880 196.5931
L187.3166 196.5217
" />
<path d="M187.3166 196.5217
L187.3880 196.4502
" />
<path d="M187.3880 196.4502
L187.3880 196.5931
" />
<path d="M188.1023 196.5931
L188.1023 195.0931
" />
<path d="M188.1023 195.0931
L188.4594 195.0931
" />
<path d="M188.4594 195.0931
L188.6737 195.1645
" />
<path d="M188.6737 195.1645
L188.8166 195.3074
" />
<path d="M188.8166 195.3074
L188.8880 195.4502
" />
<path d="M188.8880 195.4502
L188.9594 195.7359
" />
<path d="M188.9594 195.7359
L188.9594 195.9502
" />
<path d="M188.9594 195.9502
L188.8880 196.2359
" />
<path d="M188.8880 196.2359
L188.8166 196.3788
" />
<path d="M188.8166 196.3788
L188.6737 196.5217
" />
<path d="M188.6737 196.5217
L188.4594 196.5931
" />
<path d="M188.4594 196.5931
L188.1023 196.5931
" />
<path d="M189.6023 196.4502
L189.6737 196.5217
" />
<path d="M189.6737 196.5217
L189.6023 196.5931
" />
<path d="M189.6023 196.5931
L189.5309 196.5217
" />
<path d="M189.5309 196.5217
L189.6023 196.4502
" />
<path d="M189.6023 196.4502
L189.6023 196.5931
" />
<path d="M190.2452 196.1645
L190.9595 196.1645
" />
<path d="M190.1023 196.5931
L190.6023 195.0931
" />
<path d="M190.6023 195.0931
L191.1023 196.5931
" />
<path d="M191.6023 196.4502
L191.6737 196.5217
" />
<path d="M191.6737 196.5217
L191.6023 196.5931
" />
<path d="M191.6023 196.5931
L191.5309 196.5217
" />
<path d="M191.5309 196.5217
L191.6023 196.4502
" />
<path d="M191.6023 196.4502
L191.6023 196.5931
" />
<path d="M194.6024 196.5931
L194.6024 195.0931
" />
<path d="M194.7453 196.0217
L195.1738 196.5931
" />
<path d="M195.1738 195.5931
L194.6024 196.1645
" />
<path d="M195.8167 196.5931
L195.8167 195.5931
" />
<path d="M195.8167 195.0931
L195.7453 195.1645
" />
<path d="M195.7453 195.1645
L195.8167 195.2359
" />
<path d="M195.8167 195.2359
L195.8881 195.1645
" />
<path d="M195.8881 195.1645
L195.8167 195.0931
" />
<path d="M195.8167 195.0931
L195.8167 195.2359
" />
<path d="M197.1739 196.5217
L197.0310 196.5931
" />
<path d="M197.0310 196.5931
L196.7453 196.5931
" />
<path d="M196.7453 196.5931
L196.6024 196.5217
" />
<path d="M196.6024 196.5217
L196.5310 196.4502
" />
<path d="M196.5310 196.4502
L196.4596 196.3074
" />
<path d="M196.4596 196.3074
L196.4596 195.8788
" />
<path d="M196.4596 195.8788
L196.5310 195.7359
" />
<path d="M196.5310 195.7359
L196.6024 195.6645
" />
<path d="M196.6024 195.6645
L196.7453 195.5931
" />
<path d="M196.7453 195.5931
L197.0310 195.5931
" />
<path d="M197.0310 195.5931
L197.1739 195.6645
" />
<path d="M198.4596 196.5931
L198.4596 195.8074
" />
<path d="M198.4596 195.8074
L198.3881 195.6645
" />
<path d="M198.3881 195.6645
L198.2453 195.5931
" />
<path d="M198.2453 195.5931
L197.9596 195.5931
" />
<path d="M197.9596 195.5931
L197.8167 195.6645
" />
<path d="M198.4596 196.5217
L198.3167 196.5931
" />
<path d="M198.3167 196.5931
L197.9596 196.5931
" />
<path d="M197.9596 196.5931
L197.8167 196.5217
" />
<path d="M197.8167 196.5217
L197.7453 196.3788
" />
<path d="M197.7453 196.3788
L197.7453 196.2359
" />
<path d="M197.7453 196.2359
L197.8167 196.0931
" />
<path d="M197.8167 196.0931
L197.9596 196.0217
" />
<path d="M197.9596 196.0217
L198.3167 196.0217
" />
<path d="M198.3167 196.0217
L198.4596 195.9502
" />
<path d="M199.8167 196.5931
L199.8167 195.0931
" />
<path d="M199.8167 196.5217
L199.6738 196.5931
" />
<path d="M199.6738 196.5931
L199.3881 196.5931
" />
<path d="M199.3881 196.5931
L199.2452 196.5217
" />
<path d="M199.2452 196.5217
L199.1738 196.4502
" />
<path d="M199.1738 196.4502
L199.1024 196.3074
" />
<path d="M199.1024 196.3074
L199.1024 195.8788
" />
<path d="M199.1024 195.8788
L199.1738 195.7359
" />
<path d="M199.1738 195.7359
L199.2452 195.6645
" />
<path d="M199.2452 195.6645
L199.3881 195.5931
" />
<path d="M199.3881 195.5931
L199.6738 195.5931
" />
<path d="M199.6738 195.5931
L199.8167 195.6645
" />
<path d="M201.5309 195.0931
L202.5309 195.0931
" />
<path d="M202.5309 195.0931
L201.8881 196.5931
" />
<path d="M203.1024 196.4502
L203.1738 196.5217
" />
<path d="M203.1738 196.5217
L203.1024 196.5931
" />
<path d="M203.1024 196.5931
L203.0310 196.5217
" />
<path d="M203.0310 196.5217
L203.1024 196.4502
" />
<path d="M203.1024 196.4502
L203.1024 196.5931
" />
<path d="M204.1024 195.0931
L204.2453 195.0931
" />
<path d="M204.2453 195.0931
L204.3881 195.1645
" />
<path d="M204.3881 195.1645
L204.4596 195.2359
" />
<path d="M204.4596 195.2359
L204.5310 195.3788
" />
<path d="M204.5310 195.3788
L204.6024 195.6645
" />
<path d="M204.6024 195.6645
L204.6024 196.0217
" />
<path d="M204.6024 196.0217
L204.5310 196.3074
" />
<path d="M204.5310 196.3074
L204.4596 196.4502
" />
<path d="M204.4596 196.4502
L204.3881 196.5217
" />
<path d="M204.3881 196.5217
L204.2453 196.5931
" />
<path d="M204.2453 196.5931
L204.1024 196.5931
" />
<path d="M204.1024 196.5931
L203.9596 196.5217
" />
<path d="M203.9596 196.5217
L203.8881 196.4502
" />
<path d="M203.8881 196.4502
L203.8167 196.3074
" />
<path d="M203.8167 196.3074
L203.7453 196.0217
" />
<path d="M203.7453 196.0217
L203.7453 195.6645
" />
<path d="M203.7453 195.6645
L203.8167 195.3788
" />
<path d="M203.8167 195.3788
L203.8881 195.2359
" />
<path d="M203.8881 195.2359
L203.9596 195.1645
" />
<path d="M203.9596 195.1645
L204.1024 195.0931
" />
<path d="M205.2453 196.4502
L205.3167 196.5217
" />
<path d="M205.3167 196.5217
L205.2453 196.5931
" />
<path d="M205.2453 196.5931
L205.1739 196.5217
" />
<path d="M205.1739 196.5217
L205.2453 196.4502
" />
<path d="M205.2453 196.4502
L205.2453 196.5931
" />
<path d="M206.0310 196.5931
L206.3167 196.5931
" />
<path d="M206.3167 196.5931
L206.4596 196.5217
" />
<path d="M206.4596 196.5217
L206.5310 196.4502
" />
<path d="M206.5310 196.4502
L206.6739 196.2359
" />
<path d="M206.6739 196.2359
L206.7453 195.9502
" />
<path d="M206.7453 195.9502
L206.7453 195.3788
" />
<path d="M206.7453 195.3788
L206.6739 195.2359
" />
<path d="M206.6739 195.2359
L206.6025 195.1645
" />
<path d="M206.6025 195.1645
L206.4596 195.0931
" />
<path d="M206.4596 195.0931
L206.1739 195.0931
" />
<path d="M206.1739 195.0931
L206.0310 195.1645
" />
<path d="M206.0310 195.1645
L205.9596 195.2359
" />
<path d="M205.9596 195.2359
L205.8882 195.3788
" />
<path d="M205.8882 195.3788
L205.8882 195.7359
" />
<path d="M205.8882 195.7359
L205.9596 195.8788
" />
<path d="M205.9596 195.8788
L206.0310 195.9502
" />
<path d="M206.0310 195.9502
L206.1739 196.0217
" />
<path d="M206.1739 196.0217
L206.4596 196.0217
" />
<path d="M206.4596 196.0217
L206.6025 195.9502
" />
<path d="M206.6025 195.9502
L206.6739 195.8788
" />
<path d="M206.6739 195.8788
L206.7453 195.7359
" />
</g><path d="M177.0022 191.5072
L285.0022 191.5072
" />
</g>
<g style="fill:#840000; fill-opacity:0.0; 
stroke:#840000; stroke-width:0.3000; stroke-opacity:1; 
stroke-linecap:round; stroke-linejoin:round;">
<text x="263.0022" y="193.8572"
textLength="6.3858" font-size="2.0000" lengthAdjust="spacingAndGlyphs"
text-anchor="start" opacity="0">Rev: </text>
<g class="stroked-text"><desc>Rev: </desc>
<path d="M264.4137 193.7855
L263.9137 193.0712
" />
<path d="M263.5566 193.7855
L263.5566 192.2855
" />
<path d="M263.5566 192.2855
L264.1280 192.2855
" />
<path d="M264.1280 192.2855
L264.2709 192.3569
" />
<path d="M264.2709 192.3569
L264.3423 192.4283
" />
<path d="M264.3423 192.4283
L264.4137 192.5712
" />
<path d="M264.4137 192.5712
L264.4137 192.7855
" />
<path d="M264.4137 192.7855
L264.3423 192.9283
" />
<path d="M264.3423 192.9283
L264.2709 192.9998
" />
<path d="M264.2709 192.9998
L264.1280 193.0712
" />
<path d="M264.1280 193.0712
L263.5566 193.0712
" />
<path d="M265.6280 193.7141
L265.4852 193.7855
" />
<path d="M265.4852 193.7855
L265.1995 193.7855
" />
<path d="M265.1995 193.7855
L265.0566 193.7141
" />
<path d="M265.0566 193.7141
L264.9852 193.5712
" />
<path d="M264.9852 193.5712
L264.9852 192.9998
" />
<path d="M264.9852 192.9998
L265.0566 192.8569
" />
<path d="M265.0566 192.8569
L265.1995 192.7855
" />
<path d="M265.1995 192.7855
L265.4852 192.7855
" />
<path d="M265.4852 192.7855
L265.6280 192.8569
" />
<path d="M265.6280 192.8569
L265.6995 192.9998
" />
<path d="M265.6995 192.9998
L265.6995 193.1426
" />
<path d="M265.6995 193.1426
L264.9852 193.2855
" />
<path d="M266.1994 192.7855
L266.5566 193.7855
" />
<path d="M266.5566 193.7855
L266.9137 192.7855
" />
<path d="M267.4852 193.6426
L267.5566 193.7141
" />
<path d="M267.5566 193.7141
L267.4852 193.7855
" />
<path d="M267.4852 193.7855
L267.4138 193.7141
" />
<path d="M267.4138 193.7141
L267.4852 193.6426
" />
<path d="M267.4852 193.6426
L267.4852 193.7855
" />
<path d="M267.4852 192.8569
L267.5566 192.9283
" />
<path d="M267.5566 192.9283
L267.4852 192.9998
" />
<path d="M267.4852 192.9998
L267.4138 192.9283
" />
<path d="M267.4138 192.9283
L267.4852 192.8569
" />
<path d="M267.4852 192.8569
L267.4852 192.9998
" />
</g></g>
<g style="fill:#840000; fill-opacity:0.0; 
stroke:#840000; stroke-width:0.1524; stroke-opacity:1; 
stroke-linecap:round; stroke-linejoin:round;">
<text x="178.0022" y="193.8572"
textLength="9.3716" font-size="2.0000" lengthAdjust="spacingAndGlyphs"
text-anchor="start" opacity="0">Size: A4</text>
<g class="stroked-text"><desc>Size: A4</desc>
<path d="M178.3881 193.7217
L178.6024 193.7931
" />
<path d="M178.6024 193.7931
L178.9595 193.7931
" />
<path d="M178.9595 193.7931
L179.1024 193.7217
" />
<path d="M179.1024 193.7217
L179.1738 193.6502
" />
<path d="M179.1738 193.6502
L179.2452 193.5074
" />
<path d="M179.2452 193.5074
L179.2452 193.3645
" />
<path d="M179.2452 193.3645
L179.1738 193.2217
" />
<path d="M179.1738 193.2217
L179.1024 193.1502
" />
<path d="M179.1024 193.1502
L178.9595 193.0788
" />
<path d="M178.9595 193.0788
L178.6738 193.0074
" />
<path d="M178.6738 193.0074
L178.5309 192.9359
" />
<path d="M178.5309 192.9359
L178.4595 192.8645
" />
<path d="M178.4595 192.8645
L178.3881 192.7217
" />
<path d="M178.3881 192.7217
L178.3881 192.5788
" />
<path d="M178.3881 192.5788
L178.4595 192.4359
" />
<path d="M178.4595 192.4359
L178.5309 192.3645
" />
<path d="M178.5309 192.3645
L178.6738 192.2931
" />
<path d="M178.6738 192.2931
L179.0309 192.2931
" />
<path d="M179.0309 192.2931
L179.2452 192.3645
" />
<path d="M179.8881 193.7931
L179.8881 192.7931
" />
<path d="M179.8881 192.2931
L179.8167 192.3645
" />
<path d="M179.8167 192.3645
L179.8881 192.4359
" />
<path d="M179.8881 192.4359
L179.9595 192.3645
" />
<path d="M179.9595 192.3645
L179.8881 192.2931
" />
<path d="M179.8881 192.2931
L179.8881 192.4359
" />
<path d="M180.4595 192.7931
L181.2453 192.7931
" />
<path d="M181.2453 192.7931
L180.4595 193.7931
" />
<path d="M180.4595 193.7931
L181.2453 193.7931
" />
<path d="M182.3881 193.7217
L182.2453 193.7931
" />
<path d="M182.2453 193.7931
L181.9596 193.7931
" />
<path d="M181.9596 193.7931
L181.8167 193.7217
" />
<path d="M181.8167 193.7217
L181.7453 193.5788
" />
<path d="M181.7453 193.5788
L181.7453 193.0074
" />
<path d="M181.7453 193.0074
L181.8167 192.8645
" />
<path d="M181.8167 192.8645
L181.9596 192.7931
" />
<path d="M181.9596 192.7931
L182.2453 192.7931
" />
<path d="M182.2453 192.7931
L182.3881 192.8645
" />
<path d="M182.3881 192.8645
L182.4596 193.0074
" />
<path d="M182.4596 193.0074
L182.4596 193.1502
" />
<path d="M182.4596 193.1502
L181.7453 193.2931
" />
<path d="M183.1024 193.6502
L183.1738 193.7217
" />
<path d="M183.1738 193.7217
L183.1024 193.7931
" />
<path d="M183.1024 193.7931
L183.0310 193.7217
" />
<path d="M183.0310 193.7217
L183.1024 193.6502
" />
<path d="M183.1024 193.6502
L183.1024 193.7931
" />
<path d="M183.1024 192.8645
L183.1738 192.9359
" />
<path d="M183.1738 192.9359
L183.1024 193.0074
" />
<path d="M183.1024 193.0074
L183.0310 192.9359
" />
<path d="M183.0310 192.9359
L183.1024 192.8645
" />
<path d="M183.1024 192.8645
L183.1024 193.0074
" />
<path d="M184.8882 193.3645
L185.6025 193.3645
" />
<path d="M184.7453 193.7931
L185.2453 192.2931
" />
<path d="M185.2453 192.2931
L185.7453 193.7931
" />
<path d="M186.8882 192.7931
L186.8882 193.7931
" />
<path d="M186.5310 192.2217
L186.1739 193.2931
" />
<path d="M186.1739 193.2931
L187.1024 193.2931
" />
</g><text x="263.0022" y="196.6572"
textLength="8.5144" font-size="2.0000" lengthAdjust="spacingAndGlyphs"
text-anchor="start" opacity="0">Id: 1/1</text>
<g class="stroked-text"><desc>Id: 1/1</desc>
<path d="M263.4595 196.5931
L263.4595 195.0931
" />
<path d="M264.8167 196.5931
L264.8167 195.0931
" />
<path d="M264.8167 196.5217
L264.6738 196.5931
" />
<path d="M264.6738 196.5931
L264.3881 196.5931
" />
<path d="M264.3881 196.5931
L264.2452 196.5217
" />
<path d="M264.2452 196.5217
L264.1738 196.4502
" />
<path d="M264.1738 196.4502
L264.1024 196.3074
" />
<path d="M264.1024 196.3074
L264.1024 195.8788
" />
<path d="M264.1024 195.8788
L264.1738 195.7359
" />
<path d="M264.1738 195.7359
L264.2452 195.6645
" />
<path d="M264.2452 195.6645
L264.3881 195.5931
" />
<path d="M264.3881 195.5931
L264.6738 195.5931
" />
<path d="M264.6738 195.5931
L264.8167 195.6645
" />
<path d="M265.5309 196.4502
L265.6023 196.5217
" />
<path d="M265.6023 196.5217
L265.5309 196.5931
" />
<path d="M265.5309 196.5931
L265.4595 196.5217
" />
<path d="M265.4595 196.5217
L265.5309 196.4502
" />
<path d="M265.5309 196.4502
L265.5309 196.5931
" />
<path d="M265.5309 195.6645
L265.6023 195.7359
" />
<path d="M265.6023 195.7359
L265.5309 195.8074
" />
<path d="M265.5309 195.8074
L265.4595 195.7359
" />
<path d="M265.4595 195.7359
L265.5309 195.6645
" />
<path d="M265.5309 195.6645
L265.5309 195.8074
" />
<path d="M268.1738 196.5931
L267.3167 196.5931
" />
<path d="M267.7452 196.5931
L267.7452 195.0931
" />
<path d="M267.7452 195.0931
L267.6024 195.3074
" />
<path d="M267.6024 195.3074
L267.4595 195.4502
" />
<path d="M267.4595 195.4502
L267.3167 195.5217
" />
<path d="M269.8881 195.0217
L268.6024 196.9502
" />
<path d="M271.1738 196.5931
L270.3167 196.5931
" />
<path d="M270.7452 196.5931
L270.7452 195.0931
" />
<path d="M270.7452 195.0931
L270.6024 195.3074
" />
<path d="M270.6024 195.3074
L270.4595 195.4502
" />
<path d="M270.4595 195.4502
L270.3167 195.5217
" />
</g><path d="M177.0022 187.5072
L285.0022 187.5072
" />
</g>
<g style="fill:#840000; fill-opacity:0.0; 
stroke:#840000; stroke-width:0.4000; stroke-opacity:1; 
stroke-linecap:round; stroke-linejoin:round;">
<text x="178.0022" y="190.3072"
textLength="9.6572" font-size="2.6666" lengthAdjust="spacingAndGlyphs"
text-anchor="start" opacity="0">Title: </text>
<g class="stroked-text"><desc>Title: </desc>
<path d="M178.6938 188.2116
L179.8367 188.2116
" />
<path d="M179.0153 190.2116
L179.2653 188.2116
" />
<path d="M180.2533 190.2116
L180.4200 188.8783
" />
<path d="M180.5033 188.2116
L180.3962 188.3068
" />
<path d="M180.3962 188.3068
L180.4795 188.4021
" />
<path d="M180.4795 188.4021
L180.5867 188.3068
" />
<path d="M180.5867 188.3068
L180.5033 188.2116
" />
<path d="M180.5033 188.2116
L180.4795 188.4021
" />
<path d="M181.0867 188.8783
L181.8486 188.8783
" />
<path d="M181.4557 188.2116
L181.2415 189.9259
" />
<path d="M181.2415 189.9259
L181.3129 190.1164
" />
<path d="M181.3129 190.1164
L181.4915 190.2116
" />
<path d="M181.4915 190.2116
L181.6819 190.2116
" />
<path d="M182.6344 190.2116
L182.4558 190.1164
" />
<path d="M182.4558 190.1164
L182.3844 189.9259
" />
<path d="M182.3844 189.9259
L182.5986 188.2116
" />
<path d="M184.1700 190.1164
L183.9677 190.2116
" />
<path d="M183.9677 190.2116
L183.5867 190.2116
" />
<path d="M183.5867 190.2116
L183.4081 190.1164
" />
<path d="M183.4081 190.1164
L183.3367 189.9259
" />
<path d="M183.3367 189.9259
L183.4320 189.1640
" />
<path d="M183.4320 189.1640
L183.5510 188.9735
" />
<path d="M183.5510 188.9735
L183.7534 188.8783
" />
<path d="M183.7534 188.8783
L184.1343 188.8783
" />
<path d="M184.1343 188.8783
L184.3129 188.9735
" />
<path d="M184.3129 188.9735
L184.3843 189.1640
" />
<path d="M184.3843 189.1640
L184.3605 189.3544
" />
<path d="M184.3605 189.3544
L183.3843 189.5449
" />
<path d="M185.1343 190.0211
L185.2177 190.1164
" />
<path d="M185.2177 190.1164
L185.1105 190.2116
" />
<path d="M185.1105 190.2116
L185.0272 190.1164
" />
<path d="M185.0272 190.1164
L185.1343 190.0211
" />
<path d="M185.1343 190.0211
L185.1105 190.2116
" />
<path d="M185.2653 188.9735
L185.3486 189.0687
" />
<path d="M185.3486 189.0687
L185.2415 189.1640
" />
<path d="M185.2415 189.1640
L185.1582 189.0687
" />
<path d="M185.1582 189.0687
L185.2653 188.9735
" />
<path d="M185.2653 188.9735
L185.2415 189.1640
" />
</g></g>
<g style="fill:#840000; fill-opacity:0.0; 
stroke:#840000; stroke-width:0.1524; stroke-opacity:1; 
stroke-linecap:round; stroke-linejoin:round;">
<text x="178.0022" y="186.4572"
textLength="40.7283" font-size="2.0000" lengthAdjust="spacingAndGlyphs"
text-anchor="start" opacity="0">File: comparador op amp.kicad_sch</text>
<g class="stroked-text"><desc>File: comparador op amp.kicad_sch</desc>
<path d="M178.9595 185.6074
L178.4595 185.6074
" />
<path d="M178.4595 186.3931
L178.4595 184.8931
" />
<path d="M178.4595 184.8931
L179.1738 184.8931
" />
<path d="M179.7452 186.3931
L179.7452 185.3931
" />
<path d="M179.7452 184.8931
L179.6738 184.9645
" />
<path d="M179.6738 184.9645
L179.7452 185.0359
" />
<path d="M179.7452 185.0359
L179.8166 184.9645
" />
<path d="M179.8166 184.9645
L179.7452 184.8931
" />
<path d="M179.7452 184.8931
L179.7452 185.0359
" />
<path d="M180.6738 186.3931
L180.5309 186.3217
" />
<path d="M180.5309 186.3217
L180.4595 186.1788
" />
<path d="M180.4595 186.1788
L180.4595 184.8931
" />
<path d="M181.8166 186.3217
L181.6738 186.3931
" />
<path d="M181.6738 186.3931
L181.3881 186.3931
" />
<path d="M181.3881 186.3931
L181.2452 186.3217
" />
<path d="M181.2452 186.3217
L181.1738 186.1788
" />
<path d="M181.1738 186.1788
L181.1738 185.6074
" />
<path d="M181.1738 185.6074
L181.2452 185.4645
" />
<path d="M181.2452 185.4645
L181.3881 185.3931
" />
<path d="M181.3881 185.3931
L181.6738 185.3931
" />
<path d="M181.6738 185.3931
L181.8166 185.4645
" />
<path d="M181.8166 185.4645
L181.8881 185.6074
" />
<path d="M181.8881 185.6074
L181.8881 185.7502
" />
<path d="M181.8881 185.7502
L181.1738 185.8931
" />
<path d="M182.5309 186.2502
L182.6023 186.3217
" />
<path d="M182.6023 186.3217
L182.5309 186.3931
" />
<path d="M182.5309 186.3931
L182.4595 186.3217
" />
<path d="M182.4595 186.3217
L182.5309 186.2502
" />
<path d="M182.5309 186.2502
L182.5309 186.3931
" />
<path d="M182.5309 185.4645
L182.6023 185.5359
" />
<path d="M182.6023 185.5359
L182.5309 185.6074
" />
<path d="M182.5309 185.6074
L182.4595 185.5359
" />
<path d="M182.4595 185.5359
L182.5309 185.4645
" />
<path d="M182.5309 185.4645
L182.5309 185.6074
" />
<path d="M185.0310 186.3217
L184.8881 186.3931
" />
<path d="M184.8881 186.3931
L184.6024 186.3931
" />
<path d="M184.6024 186.3931
L184.4595 186.3217
" />
<path d="M184.4595 186.3217
L184.3881 186.2502
" />
<path d="M184.3881 186.2502
L184.3167 186.1074
" />
<path d="M184.3167 186.1074
L184.3167 185.6788
" />
<path d="M184.3167 185.6788
L184.3881 185.5359
" />
<path d="M184.3881 185.5359
L184.4595 185.4645
" />
<path d="M184.4595 185.4645
L184.6024 185.3931
" />
<path d="M184.6024 185.3931
L184.8881 185.3931
" />
<path d="M184.8881 185.3931
L185.0310 185.4645
" />
<path d="M185.8881 186.3931
L185.7452 186.3217
" />
<path d="M185.7452 186.3217
L185.6738 186.2502
" />
<path d="M185.6738 186.2502
L185.6024 186.1074
" />
<path d="M185.6024 186.1074
L185.6024 185.6788
" />
<path d="M185.6024 185.6788
L185.6738 185.5359
" />
<path d="M185.6738 185.5359
L185.7452 185.4645
" />
<path d="M185.7452 185.4645
L185.8881 185.3931
" />
<path d="M185.8881 185.3931
L186.1024 185.3931
" />
<path d="M186.1024 185.3931
L186.2452 185.4645
" />
<path d="M186.2452 185.4645
L186.3167 185.5359
" />
<path d="M186.3167 185.5359
L186.3881 185.6788
" />
<path d="M186.3881 185.6788
L186.3881 186.1074
" />
<path d="M186.3881 186.1074
L186.3167 186.2502
" />
<path d="M186.3167 186.2502
L186.2452 186.3217
" />
<path d="M186.2452 186.3217
L186.1024 186.3931
" />
<path d="M186.1024 186.3931
L185.8881 186.3931
" />
<path d="M187.0309 186.3931
L187.0309 185.3931
" />
<path d="M187.0309 185.5359
L187.1023 185.4645
" />
<path d="M187.1023 185.4645
L187.2452 185.3931
" />
<path d="M187.2452 185.3931
L187.4595 185.3931
" />
<path d="M187.4595 185.3931
L187.6023 185.4645
" />
<path d="M187.6023 185.4645
L187.6738 185.6074
" />
<path d="M187.6738 185.6074
L187.6738 186.3931
" />
<path d="M187.6738 185.6074
L187.7452 185.4645
" />
<path d="M187.7452 185.4645
L187.8880 185.3931
" />
<path d="M187.8880 185.3931
L188.1023 185.3931
" />
<path d="M188.1023 185.3931
L188.2452 185.4645
" />
<path d="M188.2452 185.4645
L188.3166 185.6074
" />
<path d="M188.3166 185.6074
L188.3166 186.3931
" />
<path d="M189.0309 185.3931
L189.0309 186.8931
" />
<path d="M189.0309 185.4645
L189.1738 185.3931
" />
<path d="M189.1738 185.3931
L189.4595 185.3931
" />
<path d="M189.4595 185.3931
L189.6023 185.4645
" />
<path d="M189.6023 185.4645
L189.6738 185.5359
" />
<path d="M189.6738 185.5359
L189.7452 185.6788
" />
<path d="M189.7452 185.6788
L189.7452 186.1074
" />
<path d="M189.7452 186.1074
L189.6738 186.2502
" />
<path d="M189.6738 186.2502
L189.6023 186.3217
" />
<path d="M189.6023 186.3217
L189.4595 186.3931
" />
<path d="M189.4595 186.3931
L189.1738 186.3931
" />
<path d="M189.1738 186.3931
L189.0309 186.3217
" />
<path d="M191.0309 186.3931
L191.0309 185.6074
" />
<path d="M191.0309 185.6074
L190.9594 185.4645
" />
<path d="M190.9594 185.4645
L190.8166 185.3931
" />
<path d="M190.8166 185.3931
L190.5309 185.3931
" />
<path d="M190.5309 185.3931
L190.3880 185.4645
" />
<path d="M191.0309 186.3217
L190.8880 186.3931
" />
<path d="M190.8880 186.3931
L190.5309 186.3931
" />
<path d="M190.5309 186.3931
L190.3880 186.3217
" />
<path d="M190.3880 186.3217
L190.3166 186.1788
" />
<path d="M190.3166 186.1788
L190.3166 186.0359
" />
<path d="M190.3166 186.0359
L190.3880 185.8931
" />
<path d="M190.3880 185.8931
L190.5309 185.8217
" />
<path d="M190.5309 185.8217
L190.8880 185.8217
" />
<path d="M190.8880 185.8217
L191.0309 185.7502
" />
<path d="M191.7451 186.3931
L191.7451 185.3931
" />
<path d="M191.7451 185.6788
L191.8165 185.5359
" />
<path d="M191.8165 185.5359
L191.8880 185.4645
" />
<path d="M191.8880 185.4645
L192.0308 185.3931
" />
<path d="M192.0308 185.3931
L192.1737 185.3931
" />
<path d="M193.3166 186.3931
L193.3166 185.6074
" />
<path d="M193.3166 185.6074
L193.2451 185.4645
" />
<path d="M193.2451 185.4645
L193.1023 185.3931
" />
<path d="M193.1023 185.3931
L192.8166 185.3931
" />
<path d="M192.8166 185.3931
L192.6737 185.4645
" />
<path d="M193.3166 186.3217
L193.1737 186.3931
" />
<path d="M193.1737 186.3931
L192.8166 186.3931
" />
<path d="M192.8166 186.3931
L192.6737 186.3217
" />
<path d="M192.6737 186.3217
L192.6023 186.1788
" />
<path d="M192.6023 186.1788
L192.6023 186.0359
" />
<path d="M192.6023 186.0359
L192.6737 185.8931
" />
<path d="M192.6737 185.8931
L192.8166 185.8217
" />
<path d="M192.8166 185.8217
L193.1737 185.8217
" />
<path d="M193.1737 185.8217
L193.3166 185.7502
" />
<path d="M194.6737 186.3931
L194.6737 184.8931
" />
<path d="M194.6737 186.3217
L194.5308 186.3931
" />
<path d="M194.5308 186.3931
L194.2451 186.3931
" />
<path d="M194.2451 186.3931
L194.1022 186.3217
" />
<path d="M194.1022 186.3217
L194.0308 186.2502
" />
<path d="M194.0308 186.2502
L193.9594 186.1074
" />
<path d="M193.9594 186.1074
L193.9594 185.6788
" />
<path d="M193.9594 185.6788
L194.0308 185.5359
" />
<path d="M194.0308 185.5359
L194.1022 185.4645
" />
<path d="M194.1022 185.4645
L194.2451 185.3931
" />
<path d="M194.2451 185.3931
L194.5308 185.3931
" />
<path d="M194.5308 185.3931
L194.6737 185.4645
" />
<path d="M195.6022 186.3931
L195.4593 186.3217
" />
<path d="M195.4593 186.3217
L195.3879 186.2502
" />
<path d="M195.3879 186.2502
L195.3165 186.1074
" />
<path d="M195.3165 186.1074
L195.3165 185.6788
" />
<path d="M195.3165 185.6788
L195.3879 185.5359
" />
<path d="M195.3879 185.5359
L195.4593 185.4645
" />
<path d="M195.4593 185.4645
L195.6022 185.3931
" />
<path d="M195.6022 185.3931
L195.8165 185.3931
" />
<path d="M195.8165 185.3931
L195.9593 185.4645
" />
<path d="M195.9593 185.4645
L196.0308 185.5359
" />
<path d="M196.0308 185.5359
L196.1022 185.6788
" />
<path d="M196.1022 185.6788
L196.1022 186.1074
" />
<path d="M196.1022 186.1074
L196.0308 186.2502
" />
<path d="M196.0308 186.2502
L195.9593 186.3217
" />
<path d="M195.9593 186.3217
L195.8165 186.3931
" />
<path d="M195.8165 186.3931
L195.6022 186.3931
" />
<path d="M196.7450 186.3931
L196.7450 185.3931
" />
<path d="M196.7450 185.6788
L196.8164 185.5359
" />
<path d="M196.8164 185.5359
L196.8879 185.4645
" />
<path d="M196.8879 185.4645
L197.0307 185.3931
" />
<path d="M197.0307 185.3931
L197.1736 185.3931
" />
<path d="M199.0308 186.3931
L198.8879 186.3217
" />
<path d="M198.8879 186.3217
L198.8165 186.2502
" />
<path d="M198.8165 186.2502
L198.7451 186.1074
" />
<path d="M198.7451 186.1074
L198.7451 185.6788
" />
<path d="M198.7451 185.6788
L198.8165 185.5359
" />
<path d="M198.8165 185.5359
L198.8879 185.4645
" />
<path d="M198.8879 185.4645
L199.0308 185.3931
" />
<path d="M199.0308 185.3931
L199.2451 185.3931
" />
<path d="M199.2451 185.3931
L199.3879 185.4645
" />
<path d="M199.3879 185.4645
L199.4594 185.5359
" />
<path d="M199.4594 185.5359
L199.5308 185.6788
" />
<path d="M199.5308 185.6788
L199.5308 186.1074
" />
<path d="M199.5308 186.1074
L199.4594 186.2502
" />
<path d="M199.4594 186.2502
L199.3879 186.3217
" />
<path d="M199.3879 186.3217
L199.2451 186.3931
" />
<path d="M199.2451 186.3931
L199.0308 186.3931
" />
<path d="M200.1736 185.3931
L200.1736 186.8931
" />
<path d="M200.1736 185.4645
L200.3165 185.3931
" />
<path d="M200.3165 185.3931
L200.6022 185.3931
" />
<path d="M200.6022 185.3931
L200.7450 185.4645
" />
<path d="M200.7450 185.4645
L200.8165 185.5359
" />
<path d="M200.8165 185.5359
L200.8879 185.6788
" />
<path d="M200.8879 185.6788
L200.8879 186.1074
" />
<path d="M200.8879 186.1074
L200.8165 186.2502
" />
<path d="M200.8165 186.2502
L200.7450 186.3217
" />
<path d="M200.7450 186.3217
L200.6022 186.3931
" />
<path d="M200.6022 186.3931
L200.3165 186.3931
" />
<path d="M200.3165 186.3931
L200.1736 186.3217
" />
<path d="M203.3165 186.3931
L203.3165 185.6074
" />
<path d="M203.3165 185.6074
L203.2450 185.4645
" />
<path d="M203.2450 185.4645
L203.1022 185.3931
" />
<path d="M203.1022 185.3931
L202.8165 185.3931
" />
<path d="M202.8165 185.3931
L202.6736 185.4645
" />
<path d="M203.3165 186.3217
L203.1736 186.3931
" />
<path d="M203.1736 186.3931
L202.8165 186.3931
" />
<path d="M202.8165 186.3931
L202.6736 186.3217
" />
<path d="M202.6736 186.3217
L202.6022 186.1788
" />
<path d="M202.6022 186.1788
L202.6022 186.0359
" />
<path d="M202.6022 186.0359
L202.6736 185.8931
" />
<path d="M202.6736 185.8931
L202.8165 185.8217
" />
<path d="M202.8165 185.8217
L203.1736 185.8217
" />
<path d="M203.1736 185.8217
L203.3165 185.7502
" />
<path d="M204.0307 186.3931
L204.0307 185.3931
" />
<path d="M204.0307 185.5359
L204.1021 185.4645
" />
<path d="M204.1021 185.4645
L204.2450 185.3931
" />
<path d="M204.2450 185.3931
L204.4593 185.3931
" />
<path d="M204.4593 185.3931
L204.6021 185.4645
" />
<path d="M204.6021 185.4645
L204.6736 185.6074
" />
<path d="M204.6736 185.6074
L204.6736 186.3931
" />
<path d="M204.6736 185.6074
L204.7450 185.4645
" />
<path d="M204.7450 185.4645
L204.8878 185.3931
" />
<path d="M204.8878 185.3931
L205.1021 185.3931
" />
<path d="M205.1021 185.3931
L205.2450 185.4645
" />
<path d="M205.2450 185.4645
L205.3164 185.6074
" />
<path d="M205.3164 185.6074
L205.3164 186.3931
" />
<path d="M206.0307 185.3931
L206.0307 186.8931
" />
<path d="M206.0307 185.4645
L206.1736 185.3931
" />
<path d="M206.1736 185.3931
L206.4593 185.3931
" />
<path d="M206.4593 185.3931
L206.6021 185.4645
" />
<path d="M206.6021 185.4645
L206.6736 185.5359
" />
<path d="M206.6736 185.5359
L206.7450 185.6788
" />
<path d="M206.7450 185.6788
L206.7450 186.1074
" />
<path d="M206.7450 186.1074
L206.6736 186.2502
" />
<path d="M206.6736 186.2502
L206.6021 186.3217
" />
<path d="M206.6021 186.3217
L206.4593 186.3931
" />
<path d="M206.4593 186.3931
L206.1736 186.3931
" />
<path d="M206.1736 186.3931
L206.0307 186.3217
" />
<path d="M207.3878 186.2502
L207.4592 186.3217
" />
<path d="M207.4592 186.3217
L207.3878 186.3931
" />
<path d="M207.3878 186.3931
L207.3164 186.3217
" />
<path d="M207.3164 186.3217
L207.3878 186.2502
" />
<path d="M207.3878 186.2502
L207.3878 186.3931
" />
<path d="M208.1021 186.3931
L208.1021 184.8931
" />
<path d="M208.2450 185.8217
L208.6735 186.3931
" />
<path d="M208.6735 185.3931
L208.1021 185.9645
" />
<path d="M209.3164 186.3931
L209.3164 185.3931
" />
<path d="M209.3164 184.8931
L209.2450 184.9645
" />
<path d="M209.2450 184.9645
L209.3164 185.0359
" />
<path d="M209.3164 185.0359
L209.3878 184.9645
" />
<path d="M209.3878 184.9645
L209.3164 184.8931
" />
<path d="M209.3164 184.8931
L209.3164 185.0359
" />
<path d="M210.6736 186.3217
L210.5307 186.3931
" />
<path d="M210.5307 186.3931
L210.2450 186.3931
" />
<path d="M210.2450 186.3931
L210.1021 186.3217
" />
<path d="M210.1021 186.3217
L210.0307 186.2502
" />
<path d="M210.0307 186.2502
L209.9593 186.1074
" />
<path d="M209.9593 186.1074
L209.9593 185.6788
" />
<path d="M209.9593 185.6788
L210.0307 185.5359
" />
<path d="M210.0307 185.5359
L210.1021 185.4645
" />
<path d="M210.1021 185.4645
L210.2450 185.3931
" />
<path d="M210.2450 185.3931
L210.5307 185.3931
" />
<path d="M210.5307 185.3931
L210.6736 185.4645
" />
<path d="M211.9593 186.3931
L211.9593 185.6074
" />
<path d="M211.9593 185.6074
L211.8878 185.4645
" />
<path d="M211.8878 185.4645
L211.7450 185.3931
" />
<path d="M211.7450 185.3931
L211.4593 185.3931
" />
<path d="M211.4593 185.3931
L211.3164 185.4645
" />
<path d="M211.9593 186.3217
L211.8164 186.3931
" />
<path d="M211.8164 186.3931
L211.4593 186.3931
" />
<path d="M211.4593 186.3931
L211.3164 186.3217
" />
<path d="M211.3164 186.3217
L211.2450 186.1788
" />
<path d="M211.2450 186.1788
L211.2450 186.0359
" />
<path d="M211.2450 186.0359
L211.3164 185.8931
" />
<path d="M211.3164 185.8931
L211.4593 185.8217
" />
<path d="M211.4593 185.8217
L211.8164 185.8217
" />
<path d="M211.8164 185.8217
L211.9593 185.7502
" />
<path d="M213.3164 186.3931
L213.3164 184.8931
" />
<path d="M213.3164 186.3217
L213.1735 186.3931
" />
<path d="M213.1735 186.3931
L212.8878 186.3931
" />
<path d="M212.8878 186.3931
L212.7449 186.3217
" />
<path d="M212.7449 186.3217
L212.6735 186.2502
" />
<path d="M212.6735 186.2502
L212.6021 186.1074
" />
<path d="M212.6021 186.1074
L212.6021 185.6788
" />
<path d="M212.6021 185.6788
L212.6735 185.5359
" />
<path d="M212.6735 185.5359
L212.7449 185.4645
" />
<path d="M212.7449 185.4645
L212.8878 185.3931
" />
<path d="M212.8878 185.3931
L213.1735 185.3931
" />
<path d="M213.1735 185.3931
L213.3164 185.4645
" />
<path d="M213.6735 186.5359
L214.8163 186.5359
" />
<path d="M215.1021 186.3217
L215.2449 186.3931
" />
<path d="M215.2449 186.3931
L215.5306 186.3931
" />
<path d="M215.5306 186.3931
L215.6735 186.3217
" />
<path d="M215.6735 186.3217
L215.7449 186.1788
" />
<path d="M215.7449 186.1788
L215.7449 186.1074
" />
<path d="M215.7449 186.1074
L215.6735 185.9645
" />
<path d="M215.6735 185.9645
L215.5306 185.8931
" />
<path d="M215.5306 185.8931
L215.3164 185.8931
" />
<path d="M215.3164 185.8931
L215.1735 185.8217
" />
<path d="M215.1735 185.8217
L215.1021 185.6788
" />
<path d="M215.1021 185.6788
L215.1021 185.6074
" />
<path d="M215.1021 185.6074
L215.1735 185.4645
" />
<path d="M215.1735 185.4645
L215.3164 185.3931
" />
<path d="M215.3164 185.3931
L215.5306 185.3931
" />
<path d="M215.5306 185.3931
L215.6735 185.4645
" />
<path d="M217.0307 186.3217
L216.8878 186.3931
" />
<path d="M216.8878 186.3931
L216.6021 186.3931
" />
<path d="M216.6021 186.3931
L216.4592 186.3217
" />
<path d="M216.4592 186.3217
L216.3878 186.2502
" />
<path d="M216.3878 186.2502
L216.3164 186.1074
" />
<path d="M216.3164 186.1074
L216.3164 185.6788
" />
<path d="M216.3164 185.6788
L216.3878 185.5359
" />
<path d="M216.3878 185.5359
L216.4592 185.4645
" />
<path d="M216.4592 185.4645
L216.6021 185.3931
" />
<path d="M216.6021 185.3931
L216.8878 185.3931
" />
<path d="M216.8878 185.3931
L217.0307 185.4645
" />
<path d="M217.6735 186.3931
L217.6735 184.8931
" />
<path d="M218.3164 186.3931
L218.3164 185.6074
" />
<path d="M218.3164 185.6074
L218.2449 185.4645
" />
<path d="M218.2449 185.4645
L218.1021 185.3931
" />
<path d="M218.1021 185.3931
L217.8878 185.3931
" />
<path d="M217.8878 185.3931
L217.7449 185.4645
" />
<path d="M217.7449 185.4645
L217.6735 185.5359
" />
</g><path d="M177.0022 181.5072
L285.0022 181.5072
" />
<text x="178.0022" y="183.7572"
textLength="9.8000" font-size="2.0000" lengthAdjust="spacingAndGlyphs"
text-anchor="start" opacity="0">Sheet: /</text>
<g class="stroked-text"><desc>Sheet: /</desc>
<path d="M178.3881 183.6217
L178.6024 183.6931
" />
<path d="M178.6024 183.6931
L178.9595 183.6931
" />
<path d="M178.9595 183.6931
L179.1024 183.6217
" />
<path d="M179.1024 183.6217
L179.1738 183.5502
" />
<path d="M179.1738 183.5502
L179.2452 183.4074
" />
<path d="M179.2452 183.4074
L179.2452 183.2645
" />
<path d="M179.2452 183.2645
L179.1738 183.1217
" />
<path d="M179.1738 183.1217
L179.1024 183.0502
" />
<path d="M179.1024 183.0502
L178.9595 182.9788
" />
<path d="M178.9595 182.9788
L178.6738 182.9074
" />
<path d="M178.6738 182.9074
L178.5309 182.8359
" />
<path d="M178.5309 182.8359
L178.4595 182.7645
" />
<path d="M178.4595 182.7645
L178.3881 182.6217
" />
<path d="M178.3881 182.6217
L178.3881 182.4788
" />
<path d="M178.3881 182.4788
L178.4595 182.3359
" />
<path d="M178.4595 182.3359
L178.5309 182.2645
" />
<path d="M178.5309 182.2645
L178.6738 182.1931
" />
<path d="M178.6738 182.1931
L179.0309 182.1931
" />
<path d="M179.0309 182.1931
L179.2452 182.2645
" />
<path d="M179.8881 183.6931
L179.8881 182.1931
" />
<path d="M180.5310 183.6931
L180.5310 182.9074
" />
<path d="M180.5310 182.9074
L180.4595 182.7645
" />
<path d="M180.4595 182.7645
L180.3167 182.6931
" />
<path d="M180.3167 182.6931
L180.1024 182.6931
" />
<path d="M180.1024 182.6931
L179.9595 182.7645
" />
<path d="M179.9595 182.7645
L179.8881 182.8359
" />
<path d="M181.8166 183.6217
L181.6738 183.6931
" />
<path d="M181.6738 183.6931
L181.3881 183.6931
" />
<path d="M181.3881 183.6931
L181.2452 183.6217
" />
<path d="M181.2452 183.6217
L181.1738 183.4788
" />
<path d="M181.1738 183.4788
L181.1738 182.9074
" />
<path d="M181.1738 182.9074
L181.2452 182.7645
" />
<path d="M181.2452 182.7645
L181.3881 182.6931
" />
<path d="M181.3881 182.6931
L181.6738 182.6931
" />
<path d="M181.6738 182.6931
L181.8166 182.7645
" />
<path d="M181.8166 182.7645
L181.8881 182.9074
" />
<path d="M181.8881 182.9074
L181.8881 183.0502
" />
<path d="M181.8881 183.0502
L181.1738 183.1931
" />
<path d="M183.1023 183.6217
L182.9595 183.6931
" />
<path d="M182.9595 183.6931
L182.6738 183.6931
" />
<path d="M182.6738 183.6931
L182.5309 183.6217
" />
<path d="M182.5309 183.6217
L182.4595 183.4788
" />
<path d="M182.4595 183.4788
L182.4595 182.9074
" />
<path d="M182.4595 182.9074
L182.5309 182.7645
" />
<path d="M182.5309 182.7645
L182.6738 182.6931
" />
<path d="M182.6738 182.6931
L182.9595 182.6931
" />
<path d="M182.9595 182.6931
L183.1023 182.7645
" />
<path d="M183.1023 182.7645
L183.1738 182.9074
" />
<path d="M183.1738 182.9074
L183.1738 183.0502
" />
<path d="M183.1738 183.0502
L182.4595 183.1931
" />
<path d="M183.6023 182.6931
L184.1737 182.6931
" />
<path d="M183.8166 182.1931
L183.8166 183.4788
" />
<path d="M183.8166 183.4788
L183.8880 183.6217
" />
<path d="M183.8880 183.6217
L184.0309 183.6931
" />
<path d="M184.0309 183.6931
L184.1737 183.6931
" />
<path d="M184.6737 183.5502
L184.7451 183.6217
" />
<path d="M184.7451 183.6217
L184.6737 183.6931
" />
<path d="M184.6737 183.6931
L184.6023 183.6217
" />
<path d="M184.6023 183.6217
L184.6737 183.5502
" />
<path d="M184.6737 183.5502
L184.6737 183.6931
" />
<path d="M184.6737 182.7645
L184.7451 182.8359
" />
<path d="M184.7451 182.8359
L184.6737 182.9074
" />
<path d="M184.6737 182.9074
L184.6023 182.8359
" />
<path d="M184.6023 182.8359
L184.6737 182.7645
" />
<path d="M184.6737 182.7645
L184.6737 182.9074
" />
<path d="M187.6023 182.1217
L186.3166 184.0502
" />
</g></g>
<g style="fill:#840000; fill-opacity:0.0; 
stroke:#840000; stroke-width:0.3000; stroke-opacity:1; 
stroke-linecap:round; stroke-linejoin:round;">
<text x="178.0022" y="180.7572"
textLength="0.9000" font-size="2.0000" lengthAdjust="spacingAndGlyphs"
text-anchor="start" opacity="0"></text>
<g class="stroked-text"><desc></desc>
</g></g>
<g style="fill:#840000; fill-opacity:0.0; 
stroke:#840000; stroke-width:0.1524; stroke-opacity:1; 
stroke-linecap:round; stroke-linejoin:round;">
<text x="178.0022" y="177.7572"
textLength="0.4572" font-size="2.0000" lengthAdjust="spacingAndGlyphs"
text-anchor="start" opacity="0"></text>
<g class="stroked-text"><desc></desc>
</g><text x="178.0022" y="174.7572"
textLength="0.4572" font-size="2.0000" lengthAdjust="spacingAndGlyphs"
text-anchor="start" opacity="0"></text>
<g class="stroked-text"><desc></desc>
</g><text x="178.0022" y="171.7572"
textLength="0.4572" font-size="2.0000" lengthAdjust="spacingAndGlyphs"
text-anchor="start" opacity="0"></text>
<g class="stroked-text"><desc></desc>
</g><text x="178.0022" y="168.7572"
textLength="0.4572" font-size="2.0000" lengthAdjust="spacingAndGlyphs"
text-anchor="start" opacity="0"></text>
<g class="stroked-text"><desc></desc>
</g><path d="M197.0022 191.5072
L197.0022 194.5072
" />
<path d="M261.0022 191.5072
L261.0022 198.0072
" />
</g>
<g style="fill:#840000; fill-opacity:0.0; 
stroke:#840000; stroke-width:0.1588; stroke-opacity:1; 
stroke-linecap:round; stroke-linejoin:round;">
</g>
<g style="fill:#840000; fill-opacity:0.0; 
stroke:#840000; stroke-width:0.1524; stroke-opacity:1; 
stroke-linecap:round; stroke-linejoin:round;">
</g>
<g style="fill:#840000; fill-opacity:0.0; 
stroke:#840000; stroke-width:0.1588; stroke-opacity:1; 
stroke-linecap:round; stroke-linejoin:round;">
</g>
<g style="fill:#840000; fill-opacity:0.0; 
stroke:#840000; stroke-width:0.1524; stroke-opacity:1; 
stroke-linecap:round; stroke-linejoin:round;">
</g>
<g style="fill:#840000; fill-opacity:0.0; 
stroke:#840000; stroke-width:0.1588; stroke-opacity:1; 
stroke-linecap:round; stroke-linejoin:round;">
</g>
<g style="fill:#840000; fill-opacity:0.0; 
stroke:#840000; stroke-width:0.1524; stroke-opacity:1; 
stroke-linecap:round; stroke-linejoin:round;">
<g >
<path style="fill:#840000; fill-opacity:0.0; 
stroke:#840000; stroke-width:0.1524; stroke-opacity:1; 
stroke-linecap:round; stroke-linejoin:round;fill:none"
d="M 109.7280,52.0700
110.4900,50.8000
" /> 
<path style="fill:#840000; fill-opacity:0.0; 
stroke:#840000; stroke-width:0.1524; stroke-opacity:1; 
stroke-linecap:round; stroke-linejoin:round;fill:none"
d="M 110.4900,53.3400
110.4900,50.8000
" /> 
<path style="fill:#840000; fill-opacity:0.0; 
stroke:#840000; stroke-width:0.1524; stroke-opacity:1; 
stroke-linecap:round; stroke-linejoin:round;fill:none"
d="M 110.4900,50.8000
111.2520,52.0700
" /> 
</g>
<g style="fill:#006464; fill-opacity:0.0; 
stroke:#006464; stroke-width:0.1524; stroke-opacity:1; 
stroke-linecap:round; stroke-linejoin:round;">
<text x="110.4900" y="49.1490"
textLength="3.8318" font-size="1.6933" lengthAdjust="spacingAndGlyphs"
text-anchor="middle" opacity="0">VCC</text>
<g class="stroked-text"><desc>VCC</desc>
<path d="M108.7966 47.8235
L109.2199 49.0935
" />
<path d="M109.2199 49.0935
L109.6433 47.8235
" />
<path d="M110.7923 48.9726
L110.7319 49.0331
" />
<path d="M110.7319 49.0331
L110.5504 49.0935
" />
<path d="M110.5504 49.0935
L110.4295 49.0935
" />
<path d="M110.4295 49.0935
L110.2481 49.0331
" />
<path d="M110.2481 49.0331
L110.1271 48.9121
" />
<path d="M110.1271 48.9121
L110.0666 48.7911
" />
<path d="M110.0666 48.7911
L110.0062 48.5492
" />
<path d="M110.0062 48.5492
L110.0062 48.3678
" />
<path d="M110.0062 48.3678
L110.0666 48.1259
" />
<path d="M110.0666 48.1259
L110.1271 48.0050
" />
<path d="M110.1271 48.0050
L110.2481 47.8840
" />
<path d="M110.2481 47.8840
L110.4295 47.8235
" />
<path d="M110.4295 47.8235
L110.5504 47.8235
" />
<path d="M110.5504 47.8235
L110.7319 47.8840
" />
<path d="M110.7319 47.8840
L110.7923 47.9445
" />
<path d="M112.0623 48.9726
L112.0019 49.0331
" />
<path d="M112.0019 49.0331
L111.8204 49.0935
" />
<path d="M111.8204 49.0935
L111.6995 49.0935
" />
<path d="M111.6995 49.0935
L111.5181 49.0331
" />
<path d="M111.5181 49.0331
L111.3971 48.9121
" />
<path d="M111.3971 48.9121
L111.3366 48.7911
" />
<path d="M111.3366 48.7911
L111.2762 48.5492
" />
<path d="M111.2762 48.5492
L111.2762 48.3678
" />
<path d="M111.2762 48.3678
L111.3366 48.1259
" />
<path d="M111.3366 48.1259
L111.3971 48.0050
" />
<path d="M111.3971 48.0050
L111.5181 47.8840
" />
<path d="M111.5181 47.8840
L111.6995 47.8235
" />
<path d="M111.6995 47.8235
L111.8204 47.8235
" />
<path d="M111.8204 47.8235
L112.0019 47.8840
" />
<path d="M112.0019 47.8840
L112.0623 47.9445
" />
</g></g>
</g>
<g style="fill:#006464; fill-opacity:0.0; 
stroke:#006464; stroke-width:0.1524; stroke-opacity:1; 
stroke-linecap:round; stroke-linejoin:round;">
<g >
</g>
<g style="fill:#840000; fill-opacity:0.0; 
stroke:#840000; stroke-width:0.1524; stroke-opacity:1; 
stroke-linecap:round; stroke-linejoin:round;">
<path style="fill:#840000; fill-opacity:0.0; 
stroke:#840000; stroke-width:0.1524; stroke-opacity:1; 
stroke-linecap:round; stroke-linejoin:round;fill:none"
d="M 110.4900,76.2000
110.4900,77.4700
109.2200,77.4700
110.4900,78.7400
111.7600,77.4700
110.4900,77.4700
" /> 
</g>
<g style="fill:#006464; fill-opacity:0.0; 
stroke:#006464; stroke-width:0.1524; stroke-opacity:1; 
stroke-linecap:round; stroke-linejoin:round;">
<text x="110.4899" y="81.2800"
textLength="4.0737" font-size="1.6933" lengthAdjust="spacingAndGlyphs"
text-anchor="middle" opacity="0">GND</text>
<g class="stroked-text"><desc>GND</desc>
<path d="M109.5223 80.0150
L109.4013 79.9545
" />
<path d="M109.4013 79.9545
L109.2199 79.9545
" />
<path d="M109.2199 79.9545
L109.0385 80.0150
" />
<path d="M109.0385 80.0150
L108.9175 80.1360
" />
<path d="M108.9175 80.1360
L108.8570 80.2569
" />
<path d="M108.8570 80.2569
L108.7966 80.4988
" />
<path d="M108.7966 80.4988
L108.7966 80.6802
" />
<path d="M108.7966 80.6802
L108.8570 80.9221
" />
<path d="M108.8570 80.9221
L108.9175 81.0431
" />
<path d="M108.9175 81.0431
L109.0385 81.1641
" />
<path d="M109.0385 81.1641
L109.2199 81.2245
" />
<path d="M109.2199 81.2245
L109.3408 81.2245
" />
<path d="M109.3408 81.2245
L109.5223 81.1641
" />
<path d="M109.5223 81.1641
L109.5827 81.1036
" />
<path d="M109.5827 81.1036
L109.5827 80.6802
" />
<path d="M109.5827 80.6802
L109.3408 80.6802
" />
<path d="M110.1270 81.2245
L110.1270 79.9545
" />
<path d="M110.1270 79.9545
L110.8527 81.2245
" />
<path d="M110.8527 81.2245
L110.8527 79.9545
" />
<path d="M111.4575 81.2245
L111.4575 79.9545
" />
<path d="M111.4575 79.9545
L111.7599 79.9545
" />
<path d="M111.7599 79.9545
L111.9413 80.0150
" />
<path d="M111.9413 80.0150
L112.0623 80.1360
" />
<path d="M112.0623 80.1360
L112.1228 80.2569
" />
<path d="M112.1228 80.2569
L112.1832 80.4988
" />
<path d="M112.1832 80.4988
L112.1832 80.6802
" />
<path d="M112.1832 80.6802
L112.1228 80.9221
" />
<path d="M112.1228 80.9221
L112.0623 81.0431
" />
<path d="M112.0623 81.0431
L111.9413 81.1641
" />
<path d="M111.9413 81.1641
L111.7599 81.2245
" />
<path d="M111.7599 81.2245
L111.4575 81.2245
" />
</g></g>
</g>
<g style="fill:#006464; fill-opacity:0.0; 
stroke:#006464; stroke-width:0.1524; stroke-opacity:1; 
stroke-linecap:round; stroke-linejoin:round;">
<g >
</g>
<g style="fill:#840000; fill-opacity:0.0; 
stroke:#840000; stroke-width:0.1524; stroke-opacity:1; 
stroke-linecap:round; stroke-linejoin:round;">
</g>
<g style="fill:#FFFFC2; fill-opacity:0.0; 
stroke:#FFFFC2; stroke-width:0.1524; stroke-opacity:1; 
stroke-linecap:round; stroke-linejoin:round;">
</g>
<g style="fill:#FFFFC2; fill-opacity:1.0000; 
stroke:#FFFFC2; stroke-width:0.0000; stroke-opacity:1; 
stroke-linecap:round; stroke-linejoin:round;">
<path style="fill:#FFFFC2; fill-opacity:1.0000; 
stroke:#FFFFC2; stroke-width:0.0000; stroke-opacity:1; 
stroke-linecap:round; stroke-linejoin:round;fill-rule:evenodd;"
d="M 118.1100,64.7700
107.9500,59.6900
107.9500,69.8500
Z" /> 
</g>
<g style="fill:#840000; fill-opacity:1.0000; 
stroke:#840000; stroke-width:0.0000; stroke-opacity:1; 
stroke-linecap:round; stroke-linejoin:round;">
</g>
<g style="fill:#840000; fill-opacity:0.0; 
stroke:#840000; stroke-width:0.2540; stroke-opacity:1; 
stroke-linecap:round; stroke-linejoin:round;">
<path style="fill:#840000; fill-opacity:0.0; 
stroke:#840000; stroke-width:0.2540; stroke-opacity:1; 
stroke-linecap:round; stroke-linejoin:round;fill:none"
d="M 118.1100,64.7700
107.9500,59.6900
107.9500,69.8500
Z" /> 
</g>
<g style="fill:#840000; fill-opacity:0.0; 
stroke:#840000; stroke-width:0.1524; stroke-opacity:1; 
stroke-linecap:round; stroke-linejoin:round;">
<path d="M107.9500 62.2300
L105.4100 62.2300
" />
</g>
<g style="fill:#006464; fill-opacity:0.0; 
stroke:#006464; stroke-width:0.1524; stroke-opacity:1; 
stroke-linecap:round; stroke-linejoin:round;">
<text x="108.2040" y="62.8650"
textLength="1.7756" font-size="1.6933" lengthAdjust="spacingAndGlyphs"
text-anchor="start" opacity="0">+</text>
<g class="stroked-text"><desc>+</desc>
<path d="M108.6065 62.3257
L109.5742 62.3257
" />
<path d="M109.0903 62.8095
L109.0903 61.8419
" />
</g></g>
<g style="fill:#A90000; fill-opacity:0.0; 
stroke:#A90000; stroke-width:0.1524; stroke-opacity:1; 
stroke-linecap:round; stroke-linejoin:round;">
<text x="106.6800" y="61.9760"
textLength="1.4127" font-size="1.6933" lengthAdjust="spacingAndGlyphs"
text-anchor="middle" opacity="0">1</text>
<g class="stroked-text"><desc>1</desc>
<path d="M107.0429 61.8125
L106.3172 61.8125
" />
<path d="M106.6800 61.8125
L106.6800 60.5425
" />
<path d="M106.6800 60.5425
L106.5591 60.7240
" />
<path d="M106.5591 60.7240
L106.4381 60.8449
" />
<path d="M106.4381 60.8449
L106.3172 60.9054
" />
</g></g>
<g style="fill:#840000; fill-opacity:0.0; 
stroke:#840000; stroke-width:0.1524; stroke-opacity:1; 
stroke-linecap:round; stroke-linejoin:round;">
<path d="M107.9500 67.3100
L105.4100 67.3100
" />
</g>
<g style="fill:#006464; fill-opacity:0.0; 
stroke:#006464; stroke-width:0.1524; stroke-opacity:1; 
stroke-linecap:round; stroke-linejoin:round;">
<text x="108.2040" y="67.9450"
textLength="1.7756" font-size="1.6933" lengthAdjust="spacingAndGlyphs"
text-anchor="start" opacity="0">-</text>
<g class="stroked-text"><desc>-</desc>
<path d="M108.6065 67.4057
L109.5742 67.4057
" />
</g></g>
<g style="fill:#A90000; fill-opacity:0.0; 
stroke:#A90000; stroke-width:0.1524; stroke-opacity:1; 
stroke-linecap:round; stroke-linejoin:round;">
<text x="106.6800" y="67.0560"
textLength="1.4127" font-size="1.6933" lengthAdjust="spacingAndGlyphs"
text-anchor="middle" opacity="0">2</text>
<g class="stroked-text"><desc>2</desc>
<path d="M106.3172 65.7435
L106.3776 65.6830
" />
<path d="M106.3776 65.6830
L106.4986 65.6225
" />
<path d="M106.4986 65.6225
L106.8010 65.6225
" />
<path d="M106.8010 65.6225
L106.9219 65.6830
" />
<path d="M106.9219 65.6830
L106.9824 65.7435
" />
<path d="M106.9824 65.7435
L107.0429 65.8644
" />
<path d="M107.0429 65.8644
L107.0429 65.9854
" />
<path d="M107.0429 65.9854
L106.9824 66.1668
" />
<path d="M106.9824 66.1668
L106.2567 66.8925
" />
<path d="M106.2567 66.8925
L107.0429 66.8925
" />
</g></g>
<g style="fill:#840000; fill-opacity:0.0; 
stroke:#840000; stroke-width:0.1524; stroke-opacity:1; 
stroke-linecap:round; stroke-linejoin:round;">
<path d="M118.1100 64.7700
L120.6500 64.7700
" />
</g>
<g style="fill:#A90000; fill-opacity:0.0; 
stroke:#A90000; stroke-width:0.1524; stroke-opacity:1; 
stroke-linecap:round; stroke-linejoin:round;">
<text x="119.3800" y="64.5160"
textLength="1.4127" font-size="1.6933" lengthAdjust="spacingAndGlyphs"
text-anchor="middle" opacity="0">3</text>
<g class="stroked-text"><desc>3</desc>
<path d="M118.9567 63.0825
L119.7429 63.0825
" />
<path d="M119.7429 63.0825
L119.3195 63.5663
" />
<path d="M119.3195 63.5663
L119.5010 63.5663
" />
<path d="M119.5010 63.5663
L119.6219 63.6268
" />
<path d="M119.6219 63.6268
L119.6824 63.6873
" />
<path d="M119.6824 63.6873
L119.7429 63.8082
" />
<path d="M119.7429 63.8082
L119.7429 64.1106
" />
<path d="M119.7429 64.1106
L119.6824 64.2316
" />
<path d="M119.6824 64.2316
L119.6219 64.2921
" />
<path d="M119.6219 64.2921
L119.5010 64.3525
" />
<path d="M119.5010 64.3525
L119.1381 64.3525
" />
<path d="M119.1381 64.3525
L119.0172 64.2921
" />
<path d="M119.0172 64.2921
L118.9567 64.2316
" />
</g></g>
<g style="fill:#840000; fill-opacity:0.0; 
stroke:#840000; stroke-width:0.1524; stroke-opacity:1; 
stroke-linecap:round; stroke-linejoin:round;">
<path d="M110.4900 60.9600
L110.4900 57.1500
" />
</g>
<g style="fill:#006464; fill-opacity:0.0; 
stroke:#006464; stroke-width:0.1524; stroke-opacity:1; 
stroke-linecap:round; stroke-linejoin:round;">
<g transform="rotate(-90.000000 110.4900 61.2140)">
<text x="110.4900" y="61.8490"
textLength="2.8642" font-size="1.6933" lengthAdjust="spacingAndGlyphs"
text-anchor="end" opacity="0">V+</text>
</g>
<g class="stroked-text"><desc>V+</desc>
<path d="M109.7995 63.8542
L111.0695 63.4309
" />
<path d="M111.0695 63.4309
L109.7995 63.0075
" />
<path d="M110.5857 62.5842
L110.5857 61.6166
" />
<path d="M111.0695 62.1004
L110.1019 62.1004
" />
</g></g>
<g style="fill:#A90000; fill-opacity:0.0; 
stroke:#A90000; stroke-width:0.1524; stroke-opacity:1; 
stroke-linecap:round; stroke-linejoin:round;">
<g transform="rotate(-90.000000 110.2360 59.0550)">
<text x="110.2360" y="59.0550"
textLength="1.4127" font-size="1.6933" lengthAdjust="spacingAndGlyphs"
text-anchor="middle" opacity="0">4</text>
</g>
<g class="stroked-text"><desc>4</desc>
<path d="M109.2259 58.8130
L110.0725 58.8130
" />
<path d="M108.7421 59.1154
L109.6492 59.4177
" />
<path d="M109.6492 59.4177
L109.6492 58.6316
" />
</g></g>
<g style="fill:#840000; fill-opacity:0.0; 
stroke:#840000; stroke-width:0.1524; stroke-opacity:1; 
stroke-linecap:round; stroke-linejoin:round;">
<path d="M110.4900 68.5800
L110.4900 72.3900
" />
</g>
<g style="fill:#006464; fill-opacity:0.0; 
stroke:#006464; stroke-width:0.1524; stroke-opacity:1; 
stroke-linecap:round; stroke-linejoin:round;">
<g transform="rotate(-90.000000 110.4900 68.3260)">
<text x="110.4900" y="68.9610"
textLength="2.8642" font-size="1.6933" lengthAdjust="spacingAndGlyphs"
text-anchor="start" opacity="0">V-</text>
</g>
<g class="stroked-text"><desc>V-</desc>
<path d="M109.7995 68.1048
L111.0695 67.6815
" />
<path d="M111.0695 67.6815
L109.7995 67.2581
" />
<path d="M110.5857 66.8348
L110.5857 65.8672
" />
</g></g>
<g style="fill:#A90000; fill-opacity:0.0; 
stroke:#A90000; stroke-width:0.1524; stroke-opacity:1; 
stroke-linecap:round; stroke-linejoin:round;">
<g transform="rotate(-90.000000 110.2360 70.4850)">
<text x="110.2360" y="70.4850"
textLength="1.4127" font-size="1.6933" lengthAdjust="spacingAndGlyphs"
text-anchor="middle" opacity="0">5</text>
</g>
<g class="stroked-text"><desc>5</desc>
<path d="M108.8025 70.1825
L108.8025 70.7873
" />
<path d="M108.8025 70.7873
L109.4073 70.8477
" />
<path d="M109.4073 70.8477
L109.3468 70.7873
" />
<path d="M109.3468 70.7873
L109.2863 70.6663
" />
<path d="M109.2863 70.6663
L109.2863 70.3639
" />
<path d="M109.2863 70.3639
L109.3468 70.2430
" />
<path d="M109.3468 70.2430
L109.4073 70.1825
" />
<path d="M109.4073 70.1825
L109.5282 70.1220
" />
<path d="M109.5282 70.1220
L109.8306 70.1220
" />
<path d="M109.8306 70.1220
L109.9516 70.1825
" />
<path d="M109.9516 70.1825
L110.0121 70.2430
" />
<path d="M110.0121 70.2430
L110.0725 70.3639
" />
<path d="M110.0725 70.3639
L110.0725 70.6663
" />
<path d="M110.0725 70.6663
L110.0121 70.7873
" />
<path d="M110.0121 70.7873
L109.9516 70.8477
" />
</g></g>
<g style="fill:#006464; fill-opacity:0.0; 
stroke:#006464; stroke-width:0.1524; stroke-opacity:1; 
stroke-linecap:round; stroke-linejoin:round;">
<text x="119.9134" y="60.9092"
textLength="2.7432" font-size="1.6933" lengthAdjust="spacingAndGlyphs"
text-anchor="middle" opacity="0">U1</text>
<g class="stroked-text"><desc>U1</desc>
<path d="M118.9457 59.5837
L118.9457 60.6118
" />
<path d="M118.9457 60.6118
L119.0062 60.7328
" />
<path d="M119.0062 60.7328
L119.0667 60.7933
" />
<path d="M119.0667 60.7933
L119.1876 60.8537
" />
<path d="M119.1876 60.8537
L119.4295 60.8537
" />
<path d="M119.4295 60.8537
L119.5505 60.7933
" />
<path d="M119.5505 60.7933
L119.6110 60.7328
" />
<path d="M119.6110 60.7328
L119.6714 60.6118
" />
<path d="M119.6714 60.6118
L119.6714 59.5837
" />
<path d="M120.9415 60.8537
L120.2158 60.8537
" />
<path d="M120.5786 60.8537
L120.5786 59.5837
" />
<path d="M120.5786 59.5837
L120.4577 59.7652
" />
<path d="M120.4577 59.7652
L120.3367 59.8861
" />
<path d="M120.3367 59.8861
L120.2158 59.9466
" />
</g></g>
</g>
<g style="fill:#006464; fill-opacity:0.0; 
stroke:#006464; stroke-width:0.1588; stroke-opacity:1; 
stroke-linecap:round; stroke-linejoin:round;">
</g>
<g style="fill:#006464; fill-opacity:0.0; 
stroke:#006464; stroke-width:0.1524; stroke-opacity:1; 
stroke-linecap:round; stroke-linejoin:round;">
</g>
<g style="fill:#0F0F0F; fill-opacity:0.0; 
stroke:#0F0F0F; stroke-width:0.1524; stroke-opacity:1; 
stroke-linecap:round; stroke-linejoin:round;">
<text x="100.3300" y="61.8807"
textLength="5.4645" font-size="1.6933" lengthAdjust="spacingAndGlyphs"
text-anchor="end" opacity="0">Seal</text>
<g class="stroked-text"><desc>Seal</desc>
<path d="M95.2104 61.6568
L95.3918 61.7172
" />
<path d="M95.3918 61.7172
L95.6942 61.7172
" />
<path d="M95.6942 61.7172
L95.8151 61.6568
" />
<path d="M95.8151 61.6568
L95.8756 61.5963
" />
<path d="M95.8756 61.5963
L95.9361 61.4753
" />
<path d="M95.9361 61.4753
L95.9361 61.3544
" />
<path d="M95.9361 61.3544
L95.8756 61.2334
" />
<path d="M95.8756 61.2334
L95.8151 61.1729
" />
<path d="M95.8151 61.1729
L95.6942 61.1125
" />
<path d="M95.6942 61.1125
L95.4523 61.0520
" />
<path d="M95.4523 61.0520
L95.3313 60.9915
" />
<path d="M95.3313 60.9915
L95.2708 60.9310
" />
<path d="M95.2708 60.9310
L95.2104 60.8101
" />
<path d="M95.2104 60.8101
L95.2104 60.6891
" />
<path d="M95.2104 60.6891
L95.2708 60.5682
" />
<path d="M95.2708 60.5682
L95.3313 60.5077
" />
<path d="M95.3313 60.5077
L95.4523 60.4472
" />
<path d="M95.4523 60.4472
L95.7546 60.4472
" />
<path d="M95.7546 60.4472
L95.9361 60.5077
" />
<path d="M96.9641 61.6568
L96.8432 61.7172
" />
<path d="M96.8432 61.7172
L96.6013 61.7172
" />
<path d="M96.6013 61.7172
L96.4803 61.6568
" />
<path d="M96.4803 61.6568
L96.4199 61.5358
" />
<path d="M96.4199 61.5358
L96.4199 61.0520
" />
<path d="M96.4199 61.0520
L96.4803 60.9310
" />
<path d="M96.4803 60.9310
L96.6013 60.8706
" />
<path d="M96.6013 60.8706
L96.8432 60.8706
" />
<path d="M96.8432 60.8706
L96.9641 60.9310
" />
<path d="M96.9641 60.9310
L97.0246 61.0520
" />
<path d="M97.0246 61.0520
L97.0246 61.1729
" />
<path d="M97.0246 61.1729
L96.4199 61.2939
" />
<path d="M97.5689 60.8706
L97.5689 61.7172
" />
<path d="M97.5689 60.9915
L97.6294 60.9310
" />
<path d="M97.6294 60.9310
L97.7504 60.8706
" />
<path d="M97.7504 60.8706
L97.9318 60.8706
" />
<path d="M97.9318 60.8706
L98.0527 60.9310
" />
<path d="M98.0527 60.9310
L98.1132 61.0520
" />
<path d="M98.1132 61.0520
L98.1132 61.7172
" />
<path d="M97.5085 60.5682
L97.5689 60.5077
" />
<path d="M97.5689 60.5077
L97.6899 60.4472
" />
<path d="M97.6899 60.4472
L97.9318 60.5682
" />
<path d="M97.9318 60.5682
L98.0527 60.5077
" />
<path d="M98.0527 60.5077
L98.1132 60.4472
" />
<path d="M99.2622 61.7172
L99.2622 61.0520
" />
<path d="M99.2622 61.0520
L99.2017 60.9310
" />
<path d="M99.2017 60.9310
L99.0808 60.8706
" />
<path d="M99.0808 60.8706
L98.8389 60.8706
" />
<path d="M98.8389 60.8706
L98.7179 60.9310
" />
<path d="M99.2622 61.6568
L99.1413 61.7172
" />
<path d="M99.1413 61.7172
L98.8389 61.7172
" />
<path d="M98.8389 61.7172
L98.7179 61.6568
" />
<path d="M98.7179 61.6568
L98.6575 61.5358
" />
<path d="M98.6575 61.5358
L98.6575 61.4148
" />
<path d="M98.6575 61.4148
L98.7179 61.2939
" />
<path d="M98.7179 61.2939
L98.8389 61.2334
" />
<path d="M98.8389 61.2334
L99.1413 61.2334
" />
<path d="M99.1413 61.2334
L99.2622 61.1729
" />
<path d="M100.0484 61.7172
L99.9274 61.6568
" />
<path d="M99.9274 61.6568
L99.8669 61.5358
" />
<path d="M99.8669 61.5358
L99.8669 60.4472
" />
</g></g>
<g style="fill:#0F0F0F; fill-opacity:0.0; 
stroke:#0F0F0F; stroke-width:0.1588; stroke-opacity:1; 
stroke-linecap:round; stroke-linejoin:round;">
</g>
<g style="fill:#0F0F0F; fill-opacity:0.0; 
stroke:#0F0F0F; stroke-width:0.1524; stroke-opacity:1; 
stroke-linecap:round; stroke-linejoin:round;">
<text x="100.3300" y="66.9607"
textLength="10.2423" font-size="1.6933" lengthAdjust="spacingAndGlyphs"
text-anchor="end" opacity="0">Referencia</text>
<g class="stroked-text"><desc>Referencia</desc>
<path d="M91.2187 66.7972
L90.7954 66.1925
" />
<path d="M90.4930 66.7972
L90.4930 65.5272
" />
<path d="M90.4930 65.5272
L90.9768 65.5272
" />
<path d="M90.9768 65.5272
L91.0978 65.5877
" />
<path d="M91.0978 65.5877
L91.1583 65.6482
" />
<path d="M91.1583 65.6482
L91.2187 65.7691
" />
<path d="M91.2187 65.7691
L91.2187 65.9506
" />
<path d="M91.2187 65.9506
L91.1583 66.0715
" />
<path d="M91.1583 66.0715
L91.0978 66.1320
" />
<path d="M91.0978 66.1320
L90.9768 66.1925
" />
<path d="M90.9768 66.1925
L90.4930 66.1925
" />
<path d="M92.2468 66.7368
L92.1259 66.7972
" />
<path d="M92.1259 66.7972
L91.8840 66.7972
" />
<path d="M91.8840 66.7972
L91.7630 66.7368
" />
<path d="M91.7630 66.7368
L91.7026 66.6158
" />
<path d="M91.7026 66.6158
L91.7026 66.1320
" />
<path d="M91.7026 66.1320
L91.7630 66.0110
" />
<path d="M91.7630 66.0110
L91.8840 65.9506
" />
<path d="M91.8840 65.9506
L92.1259 65.9506
" />
<path d="M92.1259 65.9506
L92.2468 66.0110
" />
<path d="M92.2468 66.0110
L92.3073 66.1320
" />
<path d="M92.3073 66.1320
L92.3073 66.2529
" />
<path d="M92.3073 66.2529
L91.7026 66.3739
" />
<path d="M92.6702 65.9506
L93.1540 65.9506
" />
<path d="M92.8516 66.7972
L92.8516 65.7087
" />
<path d="M92.8516 65.7087
L92.9121 65.5877
" />
<path d="M92.9121 65.5877
L93.0331 65.5272
" />
<path d="M93.0331 65.5272
L93.1540 65.5272
" />
<path d="M94.0611 66.7368
L93.9402 66.7972
" />
<path d="M93.9402 66.7972
L93.6983 66.7972
" />
<path d="M93.6983 66.7972
L93.5773 66.7368
" />
<path d="M93.5773 66.7368
L93.5169 66.6158
" />
<path d="M93.5169 66.6158
L93.5169 66.1320
" />
<path d="M93.5169 66.1320
L93.5773 66.0110
" />
<path d="M93.5773 66.0110
L93.6983 65.9506
" />
<path d="M93.6983 65.9506
L93.9402 65.9506
" />
<path d="M93.9402 65.9506
L94.0611 66.0110
" />
<path d="M94.0611 66.0110
L94.1216 66.1320
" />
<path d="M94.1216 66.1320
L94.1216 66.2529
" />
<path d="M94.1216 66.2529
L93.5169 66.3739
" />
<path d="M94.6659 66.7972
L94.6659 65.9506
" />
<path d="M94.6659 66.1925
L94.7264 66.0715
" />
<path d="M94.7264 66.0715
L94.7869 66.0110
" />
<path d="M94.7869 66.0110
L94.9078 65.9506
" />
<path d="M94.9078 65.9506
L95.0288 65.9506
" />
<path d="M95.9359 66.7368
L95.8150 66.7972
" />
<path d="M95.8150 66.7972
L95.5731 66.7972
" />
<path d="M95.5731 66.7972
L95.4521 66.7368
" />
<path d="M95.4521 66.7368
L95.3917 66.6158
" />
<path d="M95.3917 66.6158
L95.3917 66.1320
" />
<path d="M95.3917 66.1320
L95.4521 66.0110
" />
<path d="M95.4521 66.0110
L95.5731 65.9506
" />
<path d="M95.5731 65.9506
L95.8150 65.9506
" />
<path d="M95.8150 65.9506
L95.9359 66.0110
" />
<path d="M95.9359 66.0110
L95.9964 66.1320
" />
<path d="M95.9964 66.1320
L95.9964 66.2529
" />
<path d="M95.9964 66.2529
L95.3917 66.3739
" />
<path d="M96.5407 65.9506
L96.5407 66.7972
" />
<path d="M96.5407 66.0715
L96.6012 66.0110
" />
<path d="M96.6012 66.0110
L96.7222 65.9506
" />
<path d="M96.7222 65.9506
L96.9036 65.9506
" />
<path d="M96.9036 65.9506
L97.0245 66.0110
" />
<path d="M97.0245 66.0110
L97.0850 66.1320
" />
<path d="M97.0850 66.1320
L97.0850 66.7972
" />
<path d="M98.2340 66.7368
L98.1131 66.7972
" />
<path d="M98.1131 66.7972
L97.8712 66.7972
" />
<path d="M97.8712 66.7972
L97.7502 66.7368
" />
<path d="M97.7502 66.7368
L97.6897 66.6763
" />
<path d="M97.6897 66.6763
L97.6293 66.5553
" />
<path d="M97.6293 66.5553
L97.6293 66.1925
" />
<path d="M97.6293 66.1925
L97.6897 66.0715
" />
<path d="M97.6897 66.0715
L97.7502 66.0110
" />
<path d="M97.7502 66.0110
L97.8712 65.9506
" />
<path d="M97.8712 65.9506
L98.1131 65.9506
" />
<path d="M98.1131 65.9506
L98.2340 66.0110
" />
<path d="M98.7783 66.7972
L98.7783 65.9506
" />
<path d="M98.7783 65.5272
L98.7179 65.5877
" />
<path d="M98.7179 65.5877
L98.7783 65.6482
" />
<path d="M98.7783 65.6482
L98.8388 65.5877
" />
<path d="M98.8388 65.5877
L98.7783 65.5272
" />
<path d="M98.7783 65.5272
L98.7783 65.6482
" />
<path d="M99.9274 66.7972
L99.9274 66.1320
" />
<path d="M99.9274 66.1320
L99.8669 66.0110
" />
<path d="M99.8669 66.0110
L99.7460 65.9506
" />
<path d="M99.7460 65.9506
L99.5041 65.9506
" />
<path d="M99.5041 65.9506
L99.3831 66.0110
" />
<path d="M99.9274 66.7368
L99.8065 66.7972
" />
<path d="M99.8065 66.7972
L99.5041 66.7972
" />
<path d="M99.5041 66.7972
L99.3831 66.7368
" />
<path d="M99.3831 66.7368
L99.3227 66.6158
" />
<path d="M99.3227 66.6158
L99.3227 66.4948
" />
<path d="M99.3227 66.4948
L99.3831 66.3739
" />
<path d="M99.3831 66.3739
L99.5041 66.3134
" />
<path d="M99.5041 66.3134
L99.8065 66.3134
" />
<path d="M99.8065 66.3134
L99.9274 66.2529
" />
</g></g>
<g style="fill:#0F0F0F; fill-opacity:0.0; 
stroke:#0F0F0F; stroke-width:0.1588; stroke-opacity:1; 
stroke-linecap:round; stroke-linejoin:round;">
</g>
<g style="fill:#0F0F0F; fill-opacity:0.0; 
stroke:#0F0F0F; stroke-width:0.1524; stroke-opacity:1; 
stroke-linecap:round; stroke-linejoin:round;">
<text x="124.4600" y="64.4207"
textLength="9.5768" font-size="1.6933" lengthAdjust="spacingAndGlyphs"
text-anchor="start" opacity="0">Resultado</text>
<g class="stroked-text"><desc>Resultado</desc>
<path d="M125.5882 64.2572
L125.1649 63.6525
" />
<path d="M124.8625 64.2572
L124.8625 62.9872
" />
<path d="M124.8625 62.9872
L125.3463 62.9872
" />
<path d="M125.3463 62.9872
L125.4673 63.0477
" />
<path d="M125.4673 63.0477
L125.5278 63.1082
" />
<path d="M125.5278 63.1082
L125.5882 63.2291
" />
<path d="M125.5882 63.2291
L125.5882 63.4106
" />
<path d="M125.5882 63.4106
L125.5278 63.5315
" />
<path d="M125.5278 63.5315
L125.4673 63.5920
" />
<path d="M125.4673 63.5920
L125.3463 63.6525
" />
<path d="M125.3463 63.6525
L124.8625 63.6525
" />
<path d="M126.6163 64.1968
L126.4954 64.2572
" />
<path d="M126.4954 64.2572
L126.2535 64.2572
" />
<path d="M126.2535 64.2572
L126.1325 64.1968
" />
<path d="M126.1325 64.1968
L126.0721 64.0758
" />
<path d="M126.0721 64.0758
L126.0721 63.5920
" />
<path d="M126.0721 63.5920
L126.1325 63.4710
" />
<path d="M126.1325 63.4710
L126.2535 63.4106
" />
<path d="M126.2535 63.4106
L126.4954 63.4106
" />
<path d="M126.4954 63.4106
L126.6163 63.4710
" />
<path d="M126.6163 63.4710
L126.6768 63.5920
" />
<path d="M126.6768 63.5920
L126.6768 63.7129
" />
<path d="M126.6768 63.7129
L126.0721 63.8339
" />
<path d="M127.1607 64.1968
L127.2816 64.2572
" />
<path d="M127.2816 64.2572
L127.5235 64.2572
" />
<path d="M127.5235 64.2572
L127.6445 64.1968
" />
<path d="M127.6445 64.1968
L127.7049 64.0758
" />
<path d="M127.7049 64.0758
L127.7049 64.0153
" />
<path d="M127.7049 64.0153
L127.6445 63.8944
" />
<path d="M127.6445 63.8944
L127.5235 63.8339
" />
<path d="M127.5235 63.8339
L127.3421 63.8339
" />
<path d="M127.3421 63.8339
L127.2211 63.7734
" />
<path d="M127.2211 63.7734
L127.1607 63.6525
" />
<path d="M127.1607 63.6525
L127.1607 63.5920
" />
<path d="M127.1607 63.5920
L127.2211 63.4710
" />
<path d="M127.2211 63.4710
L127.3421 63.4106
" />
<path d="M127.3421 63.4106
L127.5235 63.4106
" />
<path d="M127.5235 63.4106
L127.6445 63.4710
" />
<path d="M128.7935 63.4106
L128.7935 64.2572
" />
<path d="M128.2492 63.4106
L128.2492 64.0758
" />
<path d="M128.2492 64.0758
L128.3097 64.1968
" />
<path d="M128.3097 64.1968
L128.4307 64.2572
" />
<path d="M128.4307 64.2572
L128.6121 64.2572
" />
<path d="M128.6121 64.2572
L128.7330 64.1968
" />
<path d="M128.7330 64.1968
L128.7935 64.1363
" />
<path d="M129.5797 64.2572
L129.4587 64.1968
" />
<path d="M129.4587 64.1968
L129.3982 64.0758
" />
<path d="M129.3982 64.0758
L129.3982 62.9872
" />
<path d="M129.8820 63.4106
L130.3658 63.4106
" />
<path d="M130.0634 62.9872
L130.0634 64.0758
" />
<path d="M130.0634 64.0758
L130.1239 64.1968
" />
<path d="M130.1239 64.1968
L130.2449 64.2572
" />
<path d="M130.2449 64.2572
L130.3658 64.2572
" />
<path d="M131.3334 64.2572
L131.3334 63.5920
" />
<path d="M131.3334 63.5920
L131.2729 63.4710
" />
<path d="M131.2729 63.4710
L131.1520 63.4106
" />
<path d="M131.1520 63.4106
L130.9101 63.4106
" />
<path d="M130.9101 63.4106
L130.7891 63.4710
" />
<path d="M131.3334 64.1968
L131.2125 64.2572
" />
<path d="M131.2125 64.2572
L130.9101 64.2572
" />
<path d="M130.9101 64.2572
L130.7891 64.1968
" />
<path d="M130.7891 64.1968
L130.7287 64.0758
" />
<path d="M130.7287 64.0758
L130.7287 63.9548
" />
<path d="M130.7287 63.9548
L130.7891 63.8339
" />
<path d="M130.7891 63.8339
L130.9101 63.7734
" />
<path d="M130.9101 63.7734
L131.2125 63.7734
" />
<path d="M131.2125 63.7734
L131.3334 63.7129
" />
<path d="M132.4824 64.2572
L132.4824 62.9872
" />
<path d="M132.4824 64.1968
L132.3615 64.2572
" />
<path d="M132.3615 64.2572
L132.1196 64.2572
" />
<path d="M132.1196 64.2572
L131.9986 64.1968
" />
<path d="M131.9986 64.1968
L131.9381 64.1363
" />
<path d="M131.9381 64.1363
L131.8777 64.0153
" />
<path d="M131.8777 64.0153
L131.8777 63.6525
" />
<path d="M131.8777 63.6525
L131.9381 63.5315
" />
<path d="M131.9381 63.5315
L131.9986 63.4710
" />
<path d="M131.9986 63.4710
L132.1196 63.4106
" />
<path d="M132.1196 63.4106
L132.3615 63.4106
" />
<path d="M132.3615 63.4106
L132.4824 63.4710
" />
<path d="M133.2686 64.2572
L133.1476 64.1968
" />
<path d="M133.1476 64.1968
L133.0871 64.1363
" />
<path d="M133.0871 64.1363
L133.0267 64.0153
" />
<path d="M133.0267 64.0153
L133.0267 63.6525
" />
<path d="M133.0267 63.6525
L133.0871 63.5315
" />
<path d="M133.0871 63.5315
L133.1476 63.4710
" />
<path d="M133.1476 63.4710
L133.2686 63.4106
" />
<path d="M133.2686 63.4106
L133.4500 63.4106
" />
<path d="M133.4500 63.4106
L133.5709 63.4710
" />
<path d="M133.5709 63.4710
L133.6314 63.5315
" />
<path d="M133.6314 63.5315
L133.6919 63.6525
" />
<path d="M133.6919 63.6525
L133.6919 64.0153
" />
<path d="M133.6919 64.0153
L133.6314 64.1363
" />
<path d="M133.6314 64.1363
L133.5709 64.1968
" />
<path d="M133.5709 64.1968
L133.4500 64.2572
" />
<path d="M133.4500 64.2572
L133.2686 64.2572
" />
</g></g>
<g style="fill:#009600; fill-opacity:0.0; 
stroke:#009600; stroke-width:0.1524; stroke-opacity:1; 
stroke-linecap:round; stroke-linejoin:round;">
<path d="M110.4900 53.3400
L110.4900 57.1500
" />
<path d="M100.3300 67.3100
L105.4100 67.3100
" />
<path d="M100.3300 62.2300
L105.4100 62.2300
" />
<path d="M110.4900 72.3900
L110.4900 76.2000
" />
<path d="M120.6500 64.7700
L124.4600 64.7700
" />
</g> 
</svg>
