<?xml version="1.0" standalone="no"?>
 <!DOCTYPE svg PUBLIC "-//W3C//DTD SVG 1.1//EN" 
 "http://www.w3.org/Graphics/SVG/1.1/DTD/svg11.dtd"> 
<svg
  xmlns:svg="http://www.w3.org/2000/svg"
  xmlns="http://www.w3.org/2000/svg"
  xmlns:xlink="http://www.w3.org/1999/xlink"
  version="1.1"
  width="297.0022mm" height="210.0072mm" viewBox="0.0000 0.0000 297.0022 210.0072">
<title>SVG Image created as Adaptador MCP4821-F_Cu.svg date 2023/12/02 09:12:30 </title>
  <desc>Image generated by PCBNEW </desc>
<g style="fill:#000000; fill-opacity:1.0000;stroke:#000000; stroke-opacity:1.0000;
stroke-linecap:round; stroke-linejoin:round;"
 transform="translate(0 0) scale(1 1)">
</g>
<g style="fill:#000000; fill-opacity:0.0; 
stroke:#000000; stroke-width:0.0000; stroke-opacity:1; 
stroke-linecap:round; stroke-linejoin:round;">
</g>
<g style="fill:#000000; fill-opacity:1.0000; 
stroke:#000000; stroke-width:0.0212; stroke-opacity:1; 
stroke-linecap:round; stroke-linejoin:round;">
<rect x="47.225000" y="49.725000" width="33.650000" height="30.250000" rx="0.000000" />
</g>
<g style="fill:#FFFFFF; fill-opacity:1.0000; 
stroke:#FFFFFF; stroke-width:0.0212; stroke-opacity:1; 
stroke-linecap:round; stroke-linejoin:round;">
<g >
</g>
<g style="fill:#FFFFFF; fill-opacity:1.0000; 
stroke:#FFFFFF; stroke-width:0.0000; stroke-opacity:1; 
stroke-linecap:round; stroke-linejoin:round;">
<path style="fill:#FFFFFF; fill-opacity:1.0000; 
stroke:#FFFFFF; stroke-width:0.0000; stroke-opacity:1; 
stroke-linecap:round; stroke-linejoin:round;fill-rule:evenodd;"
d="M 53.2000,61.0300
53.2000,59.3300
54.9000,59.3300
54.9000,61.0300
Z" /> 
<circle cx="54.0500" cy="62.7200" r="0.8500" /> 
<circle cx="54.0500" cy="65.2600" r="0.8500" /> 
<circle cx="54.0500" cy="67.8000" r="0.8500" /> 
</g>
<g >
</g>
<g style="fill:#FFFFFF; fill-opacity:1.0000; 
stroke:#FFFFFF; stroke-width:0.0000; stroke-opacity:1; 
stroke-linecap:round; stroke-linejoin:round;">
<path style="fill:#FFFFFF; fill-opacity:1.0000; 
stroke:#FFFFFF; stroke-width:0.0000; stroke-opacity:1; 
stroke-linecap:round; stroke-linejoin:round;fill-rule:evenodd;"
d="M 61.0825,61.8170
61.0857,61.8009
61.0948,61.7873
61.1084,61.7782
61.1245,61.7750
62.9405,61.7750
62.9566,61.7782
62.9702,61.7873
62.9793,61.8009
62.9825,61.8170
62.9825,62.3330
62.9793,62.3491
62.9702,62.3627
62.9566,62.3718
62.9405,62.3750
61.1245,62.3750
61.1084,62.3718
61.0948,62.3627
61.0857,62.3491
61.0825,62.3330
Z" /> 
<path style="fill:#FFFFFF; fill-opacity:1.0000; 
stroke:#FFFFFF; stroke-width:0.0000; stroke-opacity:1; 
stroke-linecap:round; stroke-linejoin:round;fill-rule:evenodd;"
d="M 61.0825,63.0870
61.0857,63.0709
61.0948,63.0573
61.1084,63.0482
61.1245,63.0450
62.9405,63.0450
62.9566,63.0482
62.9702,63.0573
62.9793,63.0709
62.9825,63.0870
62.9825,63.6030
62.9793,63.6191
62.9702,63.6327
62.9566,63.6418
62.9405,63.6450
61.1245,63.6450
61.1084,63.6418
61.0948,63.6327
61.0857,63.6191
61.0825,63.6030
Z" /> 
<path style="fill:#FFFFFF; fill-opacity:1.0000; 
stroke:#FFFFFF; stroke-width:0.0000; stroke-opacity:1; 
stroke-linecap:round; stroke-linejoin:round;fill-rule:evenodd;"
d="M 61.0825,64.3570
61.0857,64.3409
61.0948,64.3273
61.1084,64.3182
61.1245,64.3150
62.9405,64.3150
62.9566,64.3182
62.9702,64.3273
62.9793,64.3409
62.9825,64.3570
62.9825,64.8730
62.9793,64.8891
62.9702,64.9027
62.9566,64.9118
62.9405,64.9150
61.1245,64.9150
61.1084,64.9118
61.0948,64.9027
61.0857,64.8891
61.0825,64.8730
Z" /> 
<path style="fill:#FFFFFF; fill-opacity:1.0000; 
stroke:#FFFFFF; stroke-width:0.0000; stroke-opacity:1; 
stroke-linecap:round; stroke-linejoin:round;fill-rule:evenodd;"
d="M 61.0825,65.6270
61.0857,65.6109
61.0948,65.5973
61.1084,65.5882
61.1245,65.5850
62.9405,65.5850
62.9566,65.5882
62.9702,65.5973
62.9793,65.6109
62.9825,65.6270
62.9825,66.1430
62.9793,66.1591
62.9702,66.1727
62.9566,66.1818
62.9405,66.1850
61.1245,66.1850
61.1084,66.1818
61.0948,66.1727
61.0857,66.1591
61.0825,66.1430
Z" /> 
<path style="fill:#FFFFFF; fill-opacity:1.0000; 
stroke:#FFFFFF; stroke-width:0.0000; stroke-opacity:1; 
stroke-linecap:round; stroke-linejoin:round;fill-rule:evenodd;"
d="M 65.9925,65.6270
65.9957,65.6109
66.0048,65.5973
66.0184,65.5882
66.0345,65.5850
67.8505,65.5850
67.8666,65.5882
67.8802,65.5973
67.8893,65.6109
67.8925,65.6270
67.8925,66.1430
67.8893,66.1591
67.8802,66.1727
67.8666,66.1818
67.8505,66.1850
66.0345,66.1850
66.0184,66.1818
66.0048,66.1727
65.9957,66.1591
65.9925,66.1430
Z" /> 
<path style="fill:#FFFFFF; fill-opacity:1.0000; 
stroke:#FFFFFF; stroke-width:0.0000; stroke-opacity:1; 
stroke-linecap:round; stroke-linejoin:round;fill-rule:evenodd;"
d="M 65.9925,64.3570
65.9957,64.3409
66.0048,64.3273
66.0184,64.3182
66.0345,64.3150
67.8505,64.3150
67.8666,64.3182
67.8802,64.3273
67.8893,64.3409
67.8925,64.3570
67.8925,64.8730
67.8893,64.8891
67.8802,64.9027
67.8666,64.9118
67.8505,64.9150
66.0345,64.9150
66.0184,64.9118
66.0048,64.9027
65.9957,64.8891
65.9925,64.8730
Z" /> 
<path style="fill:#FFFFFF; fill-opacity:1.0000; 
stroke:#FFFFFF; stroke-width:0.0000; stroke-opacity:1; 
stroke-linecap:round; stroke-linejoin:round;fill-rule:evenodd;"
d="M 65.9925,63.0870
65.9957,63.0709
66.0048,63.0573
66.0184,63.0482
66.0345,63.0450
67.8505,63.0450
67.8666,63.0482
67.8802,63.0573
67.8893,63.0709
67.8925,63.0870
67.8925,63.6030
67.8893,63.6191
67.8802,63.6327
67.8666,63.6418
67.8505,63.6450
66.0345,63.6450
66.0184,63.6418
66.0048,63.6327
65.9957,63.6191
65.9925,63.6030
Z" /> 
<path style="fill:#FFFFFF; fill-opacity:1.0000; 
stroke:#FFFFFF; stroke-width:0.0000; stroke-opacity:1; 
stroke-linecap:round; stroke-linejoin:round;fill-rule:evenodd;"
d="M 65.9925,61.8170
65.9957,61.8009
66.0048,61.7873
66.0184,61.7782
66.0345,61.7750
67.8505,61.7750
67.8666,61.7782
67.8802,61.7873
67.8893,61.8009
67.8925,61.8170
67.8925,62.3330
67.8893,62.3491
67.8802,62.3627
67.8666,62.3718
67.8505,62.3750
66.0345,62.3750
66.0184,62.3718
66.0048,62.3627
65.9957,62.3491
65.9925,62.3330
Z" /> 
</g>
<g >
</g>
<g style="fill:#FFFFFF; fill-opacity:1.0000; 
stroke:#FFFFFF; stroke-width:0.0000; stroke-opacity:1; 
stroke-linecap:round; stroke-linejoin:round;">
<path style="fill:#FFFFFF; fill-opacity:1.0000; 
stroke:#FFFFFF; stroke-width:0.0000; stroke-opacity:1; 
stroke-linecap:round; stroke-linejoin:round;fill-rule:evenodd;"
d="M 74.9000,66.9300
74.9000,68.6300
73.2000,68.6300
73.2000,66.9300
Z" /> 
<circle cx="74.0500" cy="65.2400" r="0.8500" /> 
<circle cx="74.0500" cy="62.7000" r="0.8500" /> 
<circle cx="74.0500" cy="60.1600" r="0.8500" /> 
</g>
<g >
</g>
<g >
</g>
<g style="fill:#FFFFFF; fill-opacity:1.0000; 
stroke:#FFFFFF; stroke-width:0.0000; stroke-opacity:1; 
stroke-linecap:round; stroke-linejoin:round;">
</g>
<g style="fill:#FFFFFF; fill-opacity:1.0000; 
stroke:#FFFFFF; stroke-width:0.7500; stroke-opacity:1; 
stroke-linecap:round; stroke-linejoin:round;">
</g>
<g style="fill:#FFFFFF; fill-opacity:0.0; 
stroke:#FFFFFF; stroke-width:0.7500; stroke-opacity:1; 
stroke-linecap:round; stroke-linejoin:round;">
<path d="M62.0325 62.0750
L60.7750 62.0750
" />
<path d="M60.7750 62.0750
L58.8800 60.1800
" />
<path d="M58.8800 60.1800
L54.0500 60.1800
" />
<path d="M54.0500 62.7200
L57.9700 62.7200
" />
<path d="M57.9700 62.7200
L58.5950 63.3450
" />
<path d="M58.5950 63.3450
L62.0325 63.3450
" />
<path d="M54.0500 65.2600
L57.8900 65.2600
" />
<path d="M57.8900 65.2600
L58.5350 64.6150
" />
<path d="M58.5350 64.6150
L62.0325 64.6150
" />
<path d="M70.1300 67.7800
L74.0500 67.7800
" />
<path d="M68.2350 65.8850
L70.1300 67.7800
" />
<path d="M66.9425 65.8850
L68.2350 65.8850
" />
<path d="M66.9425 64.6150
L70.4650 64.6150
" />
<path d="M71.0900 65.2400
L74.0500 65.2400
" />
<path d="M70.4650 64.6150
L71.0900 65.2400
" />
<path d="M70.9500 62.7000
L74.0500 62.7000
" />
<path d="M66.9425 63.3450
L70.3050 63.3450
" />
<path d="M70.3050 63.3450
L70.9500 62.7000
" />
<path d="M68.3250 62.0750
L70.2400 60.1600
" />
<path d="M66.9425 62.0750
L68.3250 62.0750
" />
<path d="M70.2400 60.1600
L74.0500 60.1600
" />
<path d="M58.8500 67.8000
L60.7650 65.8850
" />
<path d="M54.0500 67.8000
L58.8500 67.8000
" />
<path d="M60.7650 65.8850
L62.0325 65.8850
" />
</g>
<g >
</g>
</g>
<g style="fill:#000000; fill-opacity:0.0; 
stroke:#000000; stroke-width:0.7500; stroke-opacity:1; 
stroke-linecap:round; stroke-linejoin:round;">
</g>
<g style="fill:#000000; fill-opacity:1.0000; 
stroke:#000000; stroke-width:0.0000; stroke-opacity:1; 
stroke-linecap:round; stroke-linejoin:round;">
<circle cx="54.0500" cy="60.1800" r="0.5000" /> 
</g>
<g style="fill:#000000; fill-opacity:1.0000; 
stroke:#000000; stroke-width:0.0212; stroke-opacity:1; 
stroke-linecap:round; stroke-linejoin:round;">
</g>
<g style="fill:#000000; fill-opacity:1.0000; 
stroke:#000000; stroke-width:0.0000; stroke-opacity:1; 
stroke-linecap:round; stroke-linejoin:round;">
<circle cx="54.0500" cy="62.7200" r="0.5000" /> 
</g>
<g style="fill:#000000; fill-opacity:1.0000; 
stroke:#000000; stroke-width:0.0212; stroke-opacity:1; 
stroke-linecap:round; stroke-linejoin:round;">
</g>
<g style="fill:#000000; fill-opacity:1.0000; 
stroke:#000000; stroke-width:0.0000; stroke-opacity:1; 
stroke-linecap:round; stroke-linejoin:round;">
<circle cx="54.0500" cy="65.2600" r="0.5000" /> 
</g>
<g style="fill:#000000; fill-opacity:1.0000; 
stroke:#000000; stroke-width:0.0212; stroke-opacity:1; 
stroke-linecap:round; stroke-linejoin:round;">
</g>
<g style="fill:#000000; fill-opacity:1.0000; 
stroke:#000000; stroke-width:0.0000; stroke-opacity:1; 
stroke-linecap:round; stroke-linejoin:round;">
<circle cx="54.0500" cy="67.8000" r="0.5000" /> 
</g>
<g style="fill:#000000; fill-opacity:1.0000; 
stroke:#000000; stroke-width:0.0212; stroke-opacity:1; 
stroke-linecap:round; stroke-linejoin:round;">
</g>
<g style="fill:#000000; fill-opacity:1.0000; 
stroke:#000000; stroke-width:0.0000; stroke-opacity:1; 
stroke-linecap:round; stroke-linejoin:round;">
<circle cx="74.0500" cy="67.7800" r="0.5000" /> 
</g>
<g style="fill:#000000; fill-opacity:1.0000; 
stroke:#000000; stroke-width:0.0212; stroke-opacity:1; 
stroke-linecap:round; stroke-linejoin:round;">
</g>
<g style="fill:#000000; fill-opacity:1.0000; 
stroke:#000000; stroke-width:0.0000; stroke-opacity:1; 
stroke-linecap:round; stroke-linejoin:round;">
<circle cx="74.0500" cy="65.2400" r="0.5000" /> 
</g>
<g style="fill:#000000; fill-opacity:1.0000; 
stroke:#000000; stroke-width:0.0212; stroke-opacity:1; 
stroke-linecap:round; stroke-linejoin:round;">
</g>
<g style="fill:#000000; fill-opacity:1.0000; 
stroke:#000000; stroke-width:0.0000; stroke-opacity:1; 
stroke-linecap:round; stroke-linejoin:round;">
<circle cx="74.0500" cy="62.7000" r="0.5000" /> 
</g>
<g style="fill:#000000; fill-opacity:1.0000; 
stroke:#000000; stroke-width:0.0212; stroke-opacity:1; 
stroke-linecap:round; stroke-linejoin:round;">
</g>
<g style="fill:#000000; fill-opacity:1.0000; 
stroke:#000000; stroke-width:0.0000; stroke-opacity:1; 
stroke-linecap:round; stroke-linejoin:round;">
<circle cx="74.0500" cy="60.1600" r="0.5000" /> 
</g>
<g style="fill:#000000; fill-opacity:1.0000; 
stroke:#000000; stroke-width:0.0212; stroke-opacity:1; 
stroke-linecap:round; stroke-linejoin:round;">
</g>
<g style="fill:#FFFFFF; fill-opacity:1.0000; 
stroke:#FFFFFF; stroke-width:0.0212; stroke-opacity:1; 
stroke-linecap:round; stroke-linejoin:round;">
</g>
<g style="fill:#FFFFFF; fill-opacity:0.0; 
stroke:#FFFFFF; stroke-width:0.2500; stroke-opacity:1; 
stroke-linecap:round; stroke-linejoin:round;">
<path style="fill:#FFFFFF; fill-opacity:0.0; 
stroke:#FFFFFF; stroke-width:0.2500; stroke-opacity:1; 
stroke-linecap:round; stroke-linejoin:round;fill:none"
d="M 52.5500,54.8500
75.5500,54.8500
75.5500,74.8500
52.5500,74.8500
Z" /> 
<g >
</g>
<g >
</g>
<g >
</g>
<g >
</g>
<g >
</g>
<g >
</g>
</g> 
</svg>
