<?xml version="1.0" standalone="no"?>
 <!DOCTYPE svg PUBLIC "-//W3C//DTD SVG 1.1//EN" 
 "http://www.w3.org/Graphics/SVG/1.1/DTD/svg11.dtd"> 
<svg
  xmlns:svg="http://www.w3.org/2000/svg"
  xmlns="http://www.w3.org/2000/svg"
  xmlns:xlink="http://www.w3.org/1999/xlink"
  version="1.1"
  width="297.0022mm" height="210.0072mm" viewBox="0.0000 0.0000 297.0022 210.0072">
<title>SVG Image created as Atenuadores L-F_Cu.svg date 2023/12/02 09:10:03 </title>
  <desc>Image generated by PCBNEW </desc>
<g style="fill:#000000; fill-opacity:1.0000;stroke:#000000; stroke-opacity:1.0000;
stroke-linecap:round; stroke-linejoin:round;"
 transform="translate(0 0) scale(1 1)">
</g>
<g style="fill:#000000; fill-opacity:0.0; 
stroke:#000000; stroke-width:0.0000; stroke-opacity:1; 
stroke-linecap:round; stroke-linejoin:round;">
</g>
<g style="fill:#000000; fill-opacity:1.0000; 
stroke:#000000; stroke-width:0.0212; stroke-opacity:1; 
stroke-linecap:round; stroke-linejoin:round;">
<rect x="58.375000" y="38.875000" width="60.250000" height="35.250000" rx="0.000000" />
</g>
<g style="fill:#FFFFFF; fill-opacity:1.0000; 
stroke:#FFFFFF; stroke-width:0.0212; stroke-opacity:1; 
stroke-linecap:round; stroke-linejoin:round;">
<g >
</g>
<g style="fill:#FFFFFF; fill-opacity:1.0000; 
stroke:#FFFFFF; stroke-width:0.0000; stroke-opacity:1; 
stroke-linecap:round; stroke-linejoin:round;">
<circle cx="100.0000" cy="49.0000" r="1.4000" /> 
</g>
<g style="fill:#FFFFFF; fill-opacity:1.0000; 
stroke:#FFFFFF; stroke-width:0.0212; stroke-opacity:1; 
stroke-linecap:round; stroke-linejoin:round;">
</g>
<g style="fill:#FFFFFF; fill-opacity:1.0000; 
stroke:#FFFFFF; stroke-width:0.0000; stroke-opacity:1; 
stroke-linecap:round; stroke-linejoin:round;">
<circle cx="100.0000" cy="64.2400" r="1.4000" /> 
</g>
<g >
</g>
<g style="fill:#FFFFFF; fill-opacity:1.0000; 
stroke:#FFFFFF; stroke-width:0.0000; stroke-opacity:1; 
stroke-linecap:round; stroke-linejoin:round;">
<circle cx="77.6250" cy="49.0000" r="1.4000" /> 
</g>
<g style="fill:#FFFFFF; fill-opacity:1.0000; 
stroke:#FFFFFF; stroke-width:0.0212; stroke-opacity:1; 
stroke-linecap:round; stroke-linejoin:round;">
</g>
<g style="fill:#FFFFFF; fill-opacity:1.0000; 
stroke:#FFFFFF; stroke-width:0.0000; stroke-opacity:1; 
stroke-linecap:round; stroke-linejoin:round;">
<circle cx="92.8650" cy="49.0000" r="1.4000" /> 
</g>
<g >
</g>
<g style="fill:#FFFFFF; fill-opacity:1.0000; 
stroke:#FFFFFF; stroke-width:0.0000; stroke-opacity:1; 
stroke-linecap:round; stroke-linejoin:round;">
<path style="fill:#FFFFFF; fill-opacity:1.0000; 
stroke:#FFFFFF; stroke-width:0.0000; stroke-opacity:1; 
stroke-linecap:round; stroke-linejoin:round;fill-rule:evenodd;"
d="M 68.7500,51.0250
66.5000,51.0250
66.5000,49.9250
68.7500,49.9250
Z" /> 
<path style="fill:#FFFFFF; fill-opacity:1.0000; 
stroke:#FFFFFF; stroke-width:0.0000; stroke-opacity:1; 
stroke-linecap:round; stroke-linejoin:round;fill-rule:evenodd;"
d="M 68.7500,48.0750
66.5000,48.0750
66.5000,46.9750
68.7500,46.9750
Z" /> 
<path style="fill:#FFFFFF; fill-opacity:1.0000; 
stroke:#FFFFFF; stroke-width:0.0000; stroke-opacity:1; 
stroke-linecap:round; stroke-linejoin:round;fill-rule:evenodd;"
d="M 69.7250,49.5250
68.6250,49.5250
68.6250,48.4750
69.7250,48.4750
Z" /> 
</g>
<g >
</g>
<g style="fill:#FFFFFF; fill-opacity:1.0000; 
stroke:#FFFFFF; stroke-width:0.0000; stroke-opacity:1; 
stroke-linecap:round; stroke-linejoin:round;">
<path style="fill:#FFFFFF; fill-opacity:1.0000; 
stroke:#FFFFFF; stroke-width:0.0000; stroke-opacity:1; 
stroke-linecap:round; stroke-linejoin:round;fill-rule:evenodd;"
d="M 108.4250,46.9750
110.6750,46.9750
110.6750,48.0750
108.4250,48.0750
Z" /> 
<path style="fill:#FFFFFF; fill-opacity:1.0000; 
stroke:#FFFFFF; stroke-width:0.0000; stroke-opacity:1; 
stroke-linecap:round; stroke-linejoin:round;fill-rule:evenodd;"
d="M 108.4250,49.9250
110.6750,49.9250
110.6750,51.0250
108.4250,51.0250
Z" /> 
<path style="fill:#FFFFFF; fill-opacity:1.0000; 
stroke:#FFFFFF; stroke-width:0.0000; stroke-opacity:1; 
stroke-linecap:round; stroke-linejoin:round;fill-rule:evenodd;"
d="M 107.4500,48.4750
108.5500,48.4750
108.5500,49.5250
107.4500,49.5250
Z" /> 
</g>
<g >
</g>
<g >
</g>
<g style="fill:#FFFFFF; fill-opacity:1.0000; 
stroke:#FFFFFF; stroke-width:0.0000; stroke-opacity:1; 
stroke-linecap:round; stroke-linejoin:round;">
</g>
<g style="fill:#FFFFFF; fill-opacity:1.0000; 
stroke:#FFFFFF; stroke-width:1.0000; stroke-opacity:1; 
stroke-linecap:round; stroke-linejoin:round;">
</g>
<g style="fill:#FFFFFF; fill-opacity:0.0; 
stroke:#FFFFFF; stroke-width:1.0000; stroke-opacity:1; 
stroke-linecap:round; stroke-linejoin:round;">
<path d="M100.0000 49.0000
L92.8650 49.0000
" />
<path d="M77.6250 49.0000
L69.1750 49.0000
" />
<path d="M100.0000 49.0000
L108.0000 49.0000
" />
</g>
<g >
</g>
<g style="fill:#FFFFFF; fill-opacity:0.0; 
stroke:#FFFFFF; stroke-width:1.0000; stroke-opacity:1; 
stroke-linecap:round; stroke-linejoin:round;">
<g >
</g>
<g style="fill:#FFFFFF; fill-opacity:1.0000; 
stroke:#FFFFFF; stroke-width:0.0000; stroke-opacity:1; 
stroke-linecap:round; stroke-linejoin:round;">
<path style="fill:#FFFFFF; fill-opacity:1.0000; 
stroke:#FFFFFF; stroke-width:0.0000; stroke-opacity:1; 
stroke-linecap:round; stroke-linejoin:round;fill-rule:evenodd;"
d="M 112.9425,44.5202
112.9883,44.5730
112.9995,44.6245
112.9995,68.3755
112.9798,68.4425
112.9270,68.4883
112.8755,68.4995
64.1245,68.4995
64.0575,68.4798
64.0117,68.4270
64.0005,68.3755
64.0005,64.6150
97.8820,64.6150
97.9249,64.8214
97.9249,64.8214
98.0234,65.0986
98.0234,65.0986
98.1587,65.3597
98.3283,65.6000
98.3283,65.6000
98.5291,65.8150
98.7572,66.0006
99.0085,66.1534
99.2783,66.2706
99.5615,66.3499
99.5615,66.3499
99.6250,66.3587
99.6250,66.3587
99.6250,64.8317
99.6723,64.8644
99.8312,64.9247
99.9577,64.9400
100.0423,64.9400
100.1688,64.9247
100.3277,64.8644
100.3750,64.8317
100.3750,66.3587
100.4384,66.3499
100.4385,66.3499
100.7217,66.2706
100.9914,66.1534
101.2428,66.0006
101.4709,65.8150
101.6717,65.6000
101.6717,65.6000
101.8413,65.3597
101.9766,65.0986
102.0751,64.8214
102.0751,64.8214
102.1180,64.6150
100.5937,64.6150
100.6593,64.4900
100.7000,64.3250
100.7000,64.1550
100.6593,63.9900
100.5937,63.8650
102.1180,63.8650
102.1180,63.8650
102.0751,63.6586
102.0751,63.6586
101.9766,63.3814
101.9766,63.3814
101.8413,63.1203
101.6717,62.8800
101.6717,62.8800
101.4709,62.6650
101.2428,62.4794
100.9914,62.3266
100.7217,62.2094
100.4385,62.1300
100.3750,62.1213
100.3750,63.6483
100.3277,63.6156
100.1688,63.5553
100.0423,63.5400
99.9577,63.5400
99.8312,63.5553
99.6723,63.6156
99.6250,63.6483
99.6250,62.1213
99.5615,62.1300
99.2783,62.2094
99.0085,62.3266
98.7572,62.4794
98.5291,62.6650
98.3283,62.8800
98.3283,62.8800
98.1587,63.1203
98.0234,63.3814
97.9249,63.6586
97.9249,63.6586
97.8820,63.8650
97.8820,63.8650
99.4063,63.8650
99.3407,63.9900
99.3000,64.1550
99.3000,64.3250
99.3407,64.4900
99.4063,64.6150
97.8820,64.6150
64.0005,64.6150
64.0005,50.8500
65.7500,50.8500
65.7500,51.0750
65.7605,51.1777
65.8156,51.3441
65.8156,51.3441
65.9077,51.4933
66.0317,51.6173
66.1809,51.7094
66.1809,51.7094
66.3473,51.7645
66.3473,51.7645
66.4500,51.7750
67.2500,51.7750
67.2500,51.7750
67.2500,50.8500
68.0000,50.8500
68.0000,51.7750
68.8000,51.7750
68.8000,51.7750
68.9027,51.7645
69.0691,51.7094
69.0691,51.7094
69.2183,51.6173
69.3423,51.4933
69.4344,51.3441
69.4344,51.3441
69.4895,51.1777
69.4895,51.1777
69.5000,51.0750
69.5000,51.0750
69.5000,50.8500
68.0000,50.8500
67.2500,50.8500
65.7500,50.8500
64.0005,50.8500
64.0005,50.1000
65.7500,50.1000
68.0925,50.1000
68.1576,50.1185
68.3057,50.2098
68.3057,50.2098
68.3057,50.2098
68.4722,50.2650
68.5750,50.2755
69.7750,50.2755
69.8778,50.2650
69.9026,50.2568
69.9416,50.2505
75.8112,50.2505
75.8782,50.2702
75.9125,50.3030
75.9529,50.3603
76.1537,50.5753
76.2814,50.6792
76.3820,50.7610
76.3820,50.7610
76.3820,50.7610
76.6333,50.9139
76.6333,50.9139
76.9032,51.0311
76.9032,51.0311
77.1864,51.1104
77.4427,51.1457
77.4779,51.1505
77.4779,51.1505
77.7721,51.1505
77.8035,51.1462
78.0636,51.1104
78.3468,51.0311
78.6167,50.9139
78.8680,50.7610
79.0963,50.5753
79.2971,50.3603
79.4667,50.1200
79.6021,49.8588
79.7006,49.5816
79.7006,49.5815
79.7006,49.5815
79.7335,49.4231
79.7604,49.2935
79.7805,49.0000
90.7095,49.0000
90.7296,49.2935
90.7296,49.2935
90.7894,49.5815
90.7894,49.5816
90.8879,49.8588
91.0233,50.1200
91.0233,50.1200
91.1929,50.3603
91.3937,50.5753
91.5214,50.6792
91.6220,50.7610
91.6220,50.7610
91.6220,50.7610
91.8733,50.9139
91.8733,50.9139
92.1432,51.0311
92.1432,51.0311
92.4264,51.1104
92.6827,51.1457
92.7179,51.1505
92.7179,51.1505
93.0121,51.1505
93.0435,51.1462
93.3036,51.1104
93.5868,51.0311
93.8567,50.9139
94.1080,50.7610
94.3363,50.5753
94.5371,50.3603
94.5775,50.3030
94.6323,50.2596
94.6788,50.2505
98.1862,50.2505
98.2532,50.2702
98.2875,50.3030
98.3279,50.3603
98.5287,50.5753
98.6564,50.6792
98.7570,50.7610
98.7570,50.7610
98.7570,50.7610
99.0083,50.9139
99.0083,50.9139
99.2782,51.0311
99.2782,51.0311
99.5614,51.1104
99.8177,51.1457
99.8529,51.1505
99.8529,51.1505
100.1471,51.1505
100.1785,51.1462
100.4386,51.1104
100.7218,51.0311
100.9917,50.9139
101.0967,50.8500
107.6750,50.8500
107.6750,51.0750
107.6855,51.1777
107.7406,51.3441
107.7406,51.3441
107.8327,51.4933
107.9567,51.6173
108.1059,51.7094
108.1059,51.7094
108.2723,51.7645
108.2723,51.7645
108.3750,51.7750
109.1750,51.7750
109.1750,51.7750
109.1750,50.8500
109.9250,50.8500
109.9250,51.7750
110.7250,51.7750
110.7250,51.7750
110.8277,51.7645
110.9941,51.7094
110.9941,51.7094
111.1433,51.6173
111.2673,51.4933
111.3594,51.3441
111.3594,51.3441
111.4145,51.1777
111.4145,51.1777
111.4250,51.0750
111.4250,51.0750
111.4250,50.8500
109.9250,50.8500
109.1750,50.8500
107.6750,50.8500
101.0967,50.8500
101.2430,50.7610
101.4713,50.5753
101.6721,50.3603
101.7125,50.3030
101.7673,50.2596
101.8138,50.2505
107.2334,50.2505
107.2724,50.2568
107.2808,50.2596
107.2972,50.2650
107.4000,50.2755
108.6000,50.2755
108.7028,50.2650
108.8693,50.2098
109.0150,50.1200
109.0174,50.1185
109.0825,50.1000
111.4250,50.1000
111.4250,49.8750
111.4250,49.8750
111.4145,49.7723
111.3594,49.6059
111.3594,49.6059
111.2673,49.4567
111.1433,49.3327
110.9941,49.2406
110.9941,49.2406
110.8277,49.1855
110.8277,49.1855
110.8114,49.1838
110.7467,49.1574
110.7066,49.1002
110.7000,49.0605
110.7000,48.9395
110.7197,48.8725
110.7725,48.8267
110.8114,48.8162
110.8277,48.8145
110.9941,48.7594
110.9941,48.7594
111.1433,48.6673
111.2673,48.5433
111.3594,48.3941
111.3594,48.3941
111.4145,48.2277
111.4145,48.2277
111.4250,48.1250
111.4250,48.1250
111.4250,47.9000
109.0825,47.9000
109.0174,47.8815
108.8693,47.7902
108.8693,47.7902
108.8693,47.7902
108.7028,47.7350
108.7028,47.7350
108.6000,47.7245
107.4000,47.7245
107.4000,47.7245
107.2972,47.7350
107.2808,47.7404
107.2724,47.7432
107.2334,47.7495
101.8138,47.7495
101.7468,47.7298
101.7125,47.6970
101.6721,47.6397
101.4713,47.4247
101.2430,47.2390
101.0967,47.1500
107.6750,47.1500
109.1750,47.1500
109.1750,46.2250
109.9250,46.2250
109.9250,47.1500
111.4250,47.1500
111.4250,46.9250
111.4250,46.9250
111.4145,46.8223
111.3594,46.6559
111.3594,46.6559
111.2673,46.5067
111.1433,46.3827
110.9941,46.2906
110.9941,46.2906
110.8277,46.2355
110.8277,46.2355
110.7250,46.2250
109.9250,46.2250
109.1750,46.2250
108.3750,46.2250
108.3750,46.2250
108.2723,46.2355
108.1059,46.2906
108.1059,46.2906
107.9567,46.3827
107.8327,46.5067
107.7406,46.6559
107.7406,46.6559
107.6855,46.8223
107.6855,46.8223
107.6750,46.9250
107.6750,47.1500
101.0967,47.1500
100.9917,47.0861
100.9917,47.0861
100.7218,46.9689
100.4386,46.8896
100.4386,46.8896
100.4386,46.8896
100.2928,46.8695
100.1471,46.8495
100.1471,46.8495
99.8529,46.8495
99.8529,46.8495
99.5614,46.8896
99.5614,46.8896
99.2782,46.9689
99.0083,47.0861
99.0083,47.0861
98.7570,47.2390
98.5287,47.4247
98.3279,47.6397
98.2875,47.6970
98.2327,47.7404
98.1862,47.7495
94.6788,47.7495
94.6118,47.7298
94.5775,47.6970
94.5371,47.6397
94.3363,47.4247
94.1080,47.2390
93.8567,47.0861
93.8567,47.0861
93.5868,46.9689
93.3036,46.8896
93.3036,46.8896
93.3036,46.8896
93.1578,46.8695
93.0121,46.8495
93.0121,46.8495
92.7179,46.8495
92.7179,46.8495
92.4264,46.8896
92.4264,46.8896
92.1432,46.9689
91.8733,47.0861
91.8733,47.0861
91.6220,47.2390
91.3937,47.4247
91.1929,47.6397
91.0233,47.8800
91.0233,47.8800
90.8879,48.1412
90.7894,48.4184
90.7894,48.4185
90.7296,48.7065
90.7296,48.7065
90.7095,49.0000
79.7805,49.0000
79.7604,48.7065
79.7431,48.6230
79.7006,48.4185
79.7006,48.4184
79.6328,48.2277
79.6021,48.1412
79.4667,47.8800
79.4667,47.8800
79.4667,47.8800
79.2971,47.6397
79.0963,47.4247
78.8680,47.2390
78.6167,47.0861
78.6167,47.0861
78.3468,46.9689
78.0636,46.8896
78.0636,46.8896
78.0636,46.8896
77.9178,46.8695
77.7721,46.8495
77.7721,46.8495
77.4779,46.8495
77.4779,46.8495
77.1864,46.8896
77.1864,46.8896
76.9032,46.9689
76.6333,47.0861
76.6333,47.0861
76.3820,47.2390
76.1537,47.4247
75.9529,47.6397
75.9125,47.6970
75.8577,47.7404
75.8112,47.7495
69.9416,47.7495
69.9026,47.7432
69.8778,47.7350
69.8778,47.7350
69.7750,47.7245
68.5750,47.7245
68.5750,47.7245
68.4722,47.7350
68.4722,47.7350
68.3057,47.7902
68.3057,47.7902
68.1576,47.8815
68.0925,47.9000
65.7500,47.9000
65.7500,48.1250
65.7605,48.2277
65.8156,48.3941
65.8156,48.3941
65.9077,48.5433
66.0317,48.6673
66.1809,48.7594
66.1809,48.7594
66.3473,48.8145
66.3473,48.8145
66.3636,48.8162
66.4283,48.8426
66.4684,48.8997
66.4750,48.9395
66.4750,49.0605
66.4553,49.1275
66.4025,49.1733
66.3636,49.1838
66.3473,49.1855
66.1809,49.2406
66.1809,49.2406
66.0317,49.3327
65.9077,49.4567
65.8156,49.6059
65.8156,49.6059
65.7605,49.7723
65.7605,49.7723
65.7500,49.8750
65.7500,50.1000
64.0005,50.1000
64.0005,47.1500
65.7500,47.1500
67.2500,47.1500
67.2500,46.2250
68.0000,46.2250
68.0000,47.1500
69.5000,47.1500
69.5000,46.9250
69.5000,46.9250
69.4895,46.8223
69.4344,46.6559
69.4344,46.6559
69.3423,46.5067
69.2183,46.3827
69.0691,46.2906
69.0691,46.2906
68.9027,46.2355
68.9027,46.2355
68.8000,46.2250
68.0000,46.2250
67.2500,46.2250
66.4500,46.2250
66.4500,46.2250
66.3473,46.2355
66.1809,46.2906
66.1809,46.2906
66.0317,46.3827
65.9077,46.5067
65.8156,46.6559
65.8156,46.6559
65.7605,46.8223
65.7605,46.8223
65.7500,46.9250
65.7500,47.1500
64.0005,47.1500
64.0005,44.6245
64.0202,44.5575
64.0730,44.5117
64.1245,44.5005
112.8755,44.5005
Z" /> 
</g>
</g>
</g>
<g style="fill:#000000; fill-opacity:1.0000; 
stroke:#000000; stroke-width:0.0000; stroke-opacity:1; 
stroke-linecap:round; stroke-linejoin:round;">
<circle cx="100.0000" cy="49.0000" r="0.7000" /> 
</g>
<g style="fill:#000000; fill-opacity:1.0000; 
stroke:#000000; stroke-width:0.0212; stroke-opacity:1; 
stroke-linecap:round; stroke-linejoin:round;">
</g>
<g style="fill:#000000; fill-opacity:1.0000; 
stroke:#000000; stroke-width:0.0000; stroke-opacity:1; 
stroke-linecap:round; stroke-linejoin:round;">
<circle cx="100.0000" cy="64.2400" r="0.7000" /> 
</g>
<g style="fill:#000000; fill-opacity:1.0000; 
stroke:#000000; stroke-width:0.0212; stroke-opacity:1; 
stroke-linecap:round; stroke-linejoin:round;">
</g>
<g style="fill:#000000; fill-opacity:1.0000; 
stroke:#000000; stroke-width:0.0000; stroke-opacity:1; 
stroke-linecap:round; stroke-linejoin:round;">
<circle cx="77.6250" cy="49.0000" r="0.7000" /> 
</g>
<g style="fill:#000000; fill-opacity:1.0000; 
stroke:#000000; stroke-width:0.0212; stroke-opacity:1; 
stroke-linecap:round; stroke-linejoin:round;">
</g>
<g style="fill:#000000; fill-opacity:1.0000; 
stroke:#000000; stroke-width:0.0000; stroke-opacity:1; 
stroke-linecap:round; stroke-linejoin:round;">
<circle cx="92.8650" cy="49.0000" r="0.7000" /> 
</g>
<g style="fill:#000000; fill-opacity:1.0000; 
stroke:#000000; stroke-width:0.0212; stroke-opacity:1; 
stroke-linecap:round; stroke-linejoin:round;">
</g>
<g style="fill:#FFFFFF; fill-opacity:1.0000; 
stroke:#FFFFFF; stroke-width:0.0212; stroke-opacity:1; 
stroke-linecap:round; stroke-linejoin:round;">
</g>
<g style="fill:#FFFFFF; fill-opacity:0.0; 
stroke:#FFFFFF; stroke-width:0.2500; stroke-opacity:1; 
stroke-linecap:round; stroke-linejoin:round;">
<path style="fill:#FFFFFF; fill-opacity:0.0; 
stroke:#FFFFFF; stroke-width:0.2500; stroke-opacity:1; 
stroke-linecap:round; stroke-linejoin:round;fill:none"
d="M 63.5000,44.0000
113.5000,44.0000
113.5000,69.0000
63.5000,69.0000
Z" /> 
<g >
</g>
<g >
</g>
<g >
</g>
<g >
</g>
<g >
</g>
<g >
</g>
<g >
</g>
</g> 
</svg>
