<?xml version="1.0" standalone="no"?>
 <!DOCTYPE svg PUBLIC "-//W3C//DTD SVG 1.1//EN" 
 "http://www.w3.org/Graphics/SVG/1.1/DTD/svg11.dtd"> 
<svg
  xmlns:svg="http://www.w3.org/2000/svg"
  xmlns="http://www.w3.org/2000/svg"
  xmlns:xlink="http://www.w3.org/1999/xlink"
  version="1.1"
  width="297.0022mm" height="210.0072mm" viewBox="0.0000 0.0000 297.0022 210.0072">
<title>SVG Image created as Adaptador MAX9108-F_Cu.svg date 2023/12/02 09:16:25 </title>
  <desc>Image generated by PCBNEW </desc>
<g style="fill:#000000; fill-opacity:1.0000;stroke:#000000; stroke-opacity:1.0000;
stroke-linecap:round; stroke-linejoin:round;"
 transform="translate(0 0) scale(1 1)">
</g>
<g style="fill:#000000; fill-opacity:0.0; 
stroke:#000000; stroke-width:0.0000; stroke-opacity:1; 
stroke-linecap:round; stroke-linejoin:round;">
</g>
<g style="fill:#000000; fill-opacity:1.0000; 
stroke:#000000; stroke-width:0.0212; stroke-opacity:1; 
stroke-linecap:round; stroke-linejoin:round;">
<rect x="28.725000" y="33.800000" width="33.655000" height="30.200000" rx="0.000000" />
</g>
<g style="fill:#FFFFFF; fill-opacity:1.0000; 
stroke:#FFFFFF; stroke-width:0.0212; stroke-opacity:1; 
stroke-linecap:round; stroke-linejoin:round;">
<g >
</g>
<g style="fill:#FFFFFF; fill-opacity:1.0000; 
stroke:#FFFFFF; stroke-width:0.0000; stroke-opacity:1; 
stroke-linecap:round; stroke-linejoin:round;">
<circle cx="55.5550" cy="41.4150" r="0.8500" /> 
<circle cx="55.5550" cy="43.9550" r="0.8500" /> 
<circle cx="55.5550" cy="46.4950" r="0.8500" /> 
<circle cx="55.5550" cy="49.0350" r="0.8500" /> 
<circle cx="55.5550" cy="51.5750" r="0.8500" /> 
<circle cx="55.5550" cy="54.1150" r="0.8500" /> 
<path style="fill:#FFFFFF; fill-opacity:1.0000; 
stroke:#FFFFFF; stroke-width:0.0000; stroke-opacity:1; 
stroke-linecap:round; stroke-linejoin:round;fill-rule:evenodd;"
d="M 56.4050,55.8050
56.4050,57.5050
54.7050,57.5050
54.7050,55.8050
Z" /> 
</g>
<g >
</g>
<g style="fill:#FFFFFF; fill-opacity:1.0000; 
stroke:#FFFFFF; stroke-width:0.0000; stroke-opacity:1; 
stroke-linecap:round; stroke-linejoin:round;">
<path style="fill:#FFFFFF; fill-opacity:1.0000; 
stroke:#FFFFFF; stroke-width:0.0000; stroke-opacity:1; 
stroke-linecap:round; stroke-linejoin:round;fill-rule:evenodd;"
d="M 34.7000,42.2550
34.7000,40.5550
36.4000,40.5550
36.4000,42.2550
Z" /> 
<circle cx="35.5500" cy="43.9450" r="0.8500" /> 
<circle cx="35.5500" cy="46.4850" r="0.8500" /> 
<circle cx="35.5500" cy="49.0250" r="0.8500" /> 
<circle cx="35.5500" cy="51.5650" r="0.8500" /> 
<circle cx="35.5500" cy="54.1050" r="0.8500" /> 
<circle cx="35.5500" cy="56.6450" r="0.8500" /> 
</g>
<g >
</g>
<g style="fill:#FFFFFF; fill-opacity:1.0000; 
stroke:#FFFFFF; stroke-width:0.0000; stroke-opacity:1; 
stroke-linecap:round; stroke-linejoin:round;">
<path style="fill:#FFFFFF; fill-opacity:1.0000; 
stroke:#FFFFFF; stroke-width:0.0000; stroke-opacity:1; 
stroke-linecap:round; stroke-linejoin:round;fill-rule:evenodd;"
d="M 42.2150,44.9663
42.2181,44.9505
42.2271,44.9371
42.2405,44.9281
42.2563,44.9250
44.1437,44.9250
44.1595,44.9281
44.1729,44.9371
44.1819,44.9505
44.1850,44.9663
44.1850,45.4737
44.1819,45.4895
44.1729,45.5029
44.1595,45.5119
44.1437,45.5150
42.2563,45.5150
42.2405,45.5119
42.2271,45.5029
42.2181,45.4895
42.2150,45.4737
Z" /> 
<path style="fill:#FFFFFF; fill-opacity:1.0000; 
stroke:#FFFFFF; stroke-width:0.0000; stroke-opacity:1; 
stroke-linecap:round; stroke-linejoin:round;fill-rule:evenodd;"
d="M 42.2150,46.2363
42.2181,46.2205
42.2271,46.2071
42.2405,46.1981
42.2563,46.1950
44.1437,46.1950
44.1595,46.1981
44.1729,46.2071
44.1819,46.2205
44.1850,46.2363
44.1850,46.7437
44.1819,46.7595
44.1729,46.7729
44.1595,46.7819
44.1437,46.7850
42.2563,46.7850
42.2405,46.7819
42.2271,46.7729
42.2181,46.7595
42.2150,46.7437
Z" /> 
<path style="fill:#FFFFFF; fill-opacity:1.0000; 
stroke:#FFFFFF; stroke-width:0.0000; stroke-opacity:1; 
stroke-linecap:round; stroke-linejoin:round;fill-rule:evenodd;"
d="M 42.2150,47.5063
42.2181,47.4905
42.2271,47.4771
42.2405,47.4681
42.2563,47.4650
44.1437,47.4650
44.1595,47.4681
44.1729,47.4771
44.1819,47.4905
44.1850,47.5063
44.1850,48.0137
44.1819,48.0295
44.1729,48.0429
44.1595,48.0519
44.1437,48.0550
42.2563,48.0550
42.2405,48.0519
42.2271,48.0429
42.2181,48.0295
42.2150,48.0137
Z" /> 
<path style="fill:#FFFFFF; fill-opacity:1.0000; 
stroke:#FFFFFF; stroke-width:0.0000; stroke-opacity:1; 
stroke-linecap:round; stroke-linejoin:round;fill-rule:evenodd;"
d="M 42.2150,48.7763
42.2181,48.7605
42.2271,48.7471
42.2405,48.7381
42.2563,48.7350
44.1437,48.7350
44.1595,48.7381
44.1729,48.7471
44.1819,48.7605
44.1850,48.7763
44.1850,49.2837
44.1819,49.2995
44.1729,49.3129
44.1595,49.3219
44.1437,49.3250
42.2563,49.3250
42.2405,49.3219
42.2271,49.3129
42.2181,49.2995
42.2150,49.2837
Z" /> 
<path style="fill:#FFFFFF; fill-opacity:1.0000; 
stroke:#FFFFFF; stroke-width:0.0000; stroke-opacity:1; 
stroke-linecap:round; stroke-linejoin:round;fill-rule:evenodd;"
d="M 42.2150,50.0463
42.2181,50.0305
42.2271,50.0171
42.2405,50.0081
42.2563,50.0050
44.1437,50.0050
44.1595,50.0081
44.1729,50.0171
44.1819,50.0305
44.1850,50.0463
44.1850,50.5537
44.1819,50.5695
44.1729,50.5829
44.1595,50.5919
44.1437,50.5950
42.2563,50.5950
42.2405,50.5919
42.2271,50.5829
42.2181,50.5695
42.2150,50.5537
Z" /> 
<path style="fill:#FFFFFF; fill-opacity:1.0000; 
stroke:#FFFFFF; stroke-width:0.0000; stroke-opacity:1; 
stroke-linecap:round; stroke-linejoin:round;fill-rule:evenodd;"
d="M 42.2150,51.3163
42.2181,51.3005
42.2271,51.2871
42.2405,51.2781
42.2563,51.2750
44.1437,51.2750
44.1595,51.2781
44.1729,51.2871
44.1819,51.3005
44.1850,51.3163
44.1850,51.8237
44.1819,51.8395
44.1729,51.8529
44.1595,51.8619
44.1437,51.8650
42.2563,51.8650
42.2405,51.8619
42.2271,51.8529
42.2181,51.8395
42.2150,51.8237
Z" /> 
<path style="fill:#FFFFFF; fill-opacity:1.0000; 
stroke:#FFFFFF; stroke-width:0.0000; stroke-opacity:1; 
stroke-linecap:round; stroke-linejoin:round;fill-rule:evenodd;"
d="M 42.2150,52.5863
42.2181,52.5705
42.2271,52.5571
42.2405,52.5481
42.2563,52.5450
44.1437,52.5450
44.1595,52.5481
44.1729,52.5571
44.1819,52.5705
44.1850,52.5863
44.1850,53.0937
44.1819,53.1095
44.1729,53.1229
44.1595,53.1319
44.1437,53.1350
42.2563,53.1350
42.2405,53.1319
42.2271,53.1229
42.2181,53.1095
42.2150,53.0937
Z" /> 
<path style="fill:#FFFFFF; fill-opacity:1.0000; 
stroke:#FFFFFF; stroke-width:0.0000; stroke-opacity:1; 
stroke-linecap:round; stroke-linejoin:round;fill-rule:evenodd;"
d="M 47.1650,52.5863
47.1681,52.5705
47.1771,52.5571
47.1905,52.5481
47.2063,52.5450
49.0937,52.5450
49.1095,52.5481
49.1229,52.5571
49.1319,52.5705
49.1350,52.5863
49.1350,53.0937
49.1319,53.1095
49.1229,53.1229
49.1095,53.1319
49.0937,53.1350
47.2063,53.1350
47.1905,53.1319
47.1771,53.1229
47.1681,53.1095
47.1650,53.0937
Z" /> 
<path style="fill:#FFFFFF; fill-opacity:1.0000; 
stroke:#FFFFFF; stroke-width:0.0000; stroke-opacity:1; 
stroke-linecap:round; stroke-linejoin:round;fill-rule:evenodd;"
d="M 47.1650,51.3163
47.1681,51.3005
47.1771,51.2871
47.1905,51.2781
47.2063,51.2750
49.0937,51.2750
49.1095,51.2781
49.1229,51.2871
49.1319,51.3005
49.1350,51.3163
49.1350,51.8237
49.1319,51.8395
49.1229,51.8529
49.1095,51.8619
49.0937,51.8650
47.2063,51.8650
47.1905,51.8619
47.1771,51.8529
47.1681,51.8395
47.1650,51.8237
Z" /> 
<path style="fill:#FFFFFF; fill-opacity:1.0000; 
stroke:#FFFFFF; stroke-width:0.0000; stroke-opacity:1; 
stroke-linecap:round; stroke-linejoin:round;fill-rule:evenodd;"
d="M 47.1650,50.0463
47.1681,50.0305
47.1771,50.0171
47.1905,50.0081
47.2063,50.0050
49.0937,50.0050
49.1095,50.0081
49.1229,50.0171
49.1319,50.0305
49.1350,50.0463
49.1350,50.5537
49.1319,50.5695
49.1229,50.5829
49.1095,50.5919
49.0937,50.5950
47.2063,50.5950
47.1905,50.5919
47.1771,50.5829
47.1681,50.5695
47.1650,50.5537
Z" /> 
<path style="fill:#FFFFFF; fill-opacity:1.0000; 
stroke:#FFFFFF; stroke-width:0.0000; stroke-opacity:1; 
stroke-linecap:round; stroke-linejoin:round;fill-rule:evenodd;"
d="M 47.1650,48.7763
47.1681,48.7605
47.1771,48.7471
47.1905,48.7381
47.2063,48.7350
49.0937,48.7350
49.1095,48.7381
49.1229,48.7471
49.1319,48.7605
49.1350,48.7763
49.1350,49.2837
49.1319,49.2995
49.1229,49.3129
49.1095,49.3219
49.0937,49.3250
47.2063,49.3250
47.1905,49.3219
47.1771,49.3129
47.1681,49.2995
47.1650,49.2837
Z" /> 
<path style="fill:#FFFFFF; fill-opacity:1.0000; 
stroke:#FFFFFF; stroke-width:0.0000; stroke-opacity:1; 
stroke-linecap:round; stroke-linejoin:round;fill-rule:evenodd;"
d="M 47.1650,47.5063
47.1681,47.4905
47.1771,47.4771
47.1905,47.4681
47.2063,47.4650
49.0937,47.4650
49.1095,47.4681
49.1229,47.4771
49.1319,47.4905
49.1350,47.5063
49.1350,48.0137
49.1319,48.0295
49.1229,48.0429
49.1095,48.0519
49.0937,48.0550
47.2063,48.0550
47.1905,48.0519
47.1771,48.0429
47.1681,48.0295
47.1650,48.0137
Z" /> 
<path style="fill:#FFFFFF; fill-opacity:1.0000; 
stroke:#FFFFFF; stroke-width:0.0000; stroke-opacity:1; 
stroke-linecap:round; stroke-linejoin:round;fill-rule:evenodd;"
d="M 47.1650,46.2363
47.1681,46.2205
47.1771,46.2071
47.1905,46.1981
47.2063,46.1950
49.0937,46.1950
49.1095,46.1981
49.1229,46.2071
49.1319,46.2205
49.1350,46.2363
49.1350,46.7437
49.1319,46.7595
49.1229,46.7729
49.1095,46.7819
49.0937,46.7850
47.2063,46.7850
47.1905,46.7819
47.1771,46.7729
47.1681,46.7595
47.1650,46.7437
Z" /> 
<path style="fill:#FFFFFF; fill-opacity:1.0000; 
stroke:#FFFFFF; stroke-width:0.0000; stroke-opacity:1; 
stroke-linecap:round; stroke-linejoin:round;fill-rule:evenodd;"
d="M 47.1650,44.9663
47.1681,44.9505
47.1771,44.9371
47.1905,44.9281
47.2063,44.9250
49.0937,44.9250
49.1095,44.9281
49.1229,44.9371
49.1319,44.9505
49.1350,44.9663
49.1350,45.4737
49.1319,45.4895
49.1229,45.5029
49.1095,45.5119
49.0937,45.5150
47.2063,45.5150
47.1905,45.5119
47.1771,45.5029
47.1681,45.4895
47.1650,45.4737
Z" /> 
</g>
<g >
</g>
<g >
</g>
<g style="fill:#FFFFFF; fill-opacity:1.0000; 
stroke:#FFFFFF; stroke-width:0.0000; stroke-opacity:1; 
stroke-linecap:round; stroke-linejoin:round;">
</g>
<g style="fill:#FFFFFF; fill-opacity:1.0000; 
stroke:#FFFFFF; stroke-width:0.7500; stroke-opacity:1; 
stroke-linecap:round; stroke-linejoin:round;">
</g>
<g style="fill:#FFFFFF; fill-opacity:0.0; 
stroke:#FFFFFF; stroke-width:0.7500; stroke-opacity:1; 
stroke-linecap:round; stroke-linejoin:round;">
<path d="M43.2000 45.2200
L41.5200 45.2200
" />
<path d="M37.7050 41.4050
L35.5500 41.4050
" />
<path d="M41.5200 45.2200
L37.7050 41.4050
" />
<path d="M41.0222 46.4900
L38.4772 43.9450
" />
<path d="M38.4772 43.9450
L35.5500 43.9450
" />
<path d="M43.2000 46.4900
L41.0222 46.4900
" />
<path d="M40.2100 47.7600
L38.9350 46.4850
" />
<path d="M43.2000 47.7600
L40.2100 47.7600
" />
<path d="M38.9350 46.4850
L35.5500 46.4850
" />
<path d="M35.5550 49.0300
L35.5500 49.0250
" />
<path d="M43.2000 49.0300
L35.5550 49.0300
" />
<path d="M35.5500 51.5650
L38.3350 51.5650
" />
<path d="M39.6000 50.3000
L43.2000 50.3000
" />
<path d="M38.3350 51.5650
L39.6000 50.3000
" />
<path d="M41.0800 51.5700
L38.5450 54.1050
" />
<path d="M38.5450 54.1050
L35.5500 54.1050
" />
<path d="M43.2000 51.5700
L41.0800 51.5700
" />
<path d="M43.2000 52.8400
L41.6600 52.8400
" />
<path d="M37.8550 56.6450
L35.5500 56.6450
" />
<path d="M41.6600 52.8400
L37.8550 56.6450
" />
<path d="M53.5550 56.6550
L55.5550 56.6550
" />
<path d="M48.1500 52.8400
L49.7400 52.8400
" />
<path d="M49.7400 52.8400
L53.5550 56.6550
" />
<path d="M48.1500 51.5700
L50.5700 51.5700
" />
<path d="M53.1150 54.1150
L55.5550 54.1150
" />
<path d="M50.5700 51.5700
L53.1150 54.1150
" />
<path d="M48.1500 50.3000
L51.9000 50.3000
" />
<path d="M51.9000 50.3000
L53.1750 51.5750
" />
<path d="M53.1750 51.5750
L55.5550 51.5750
" />
<path d="M48.1550 49.0350
L48.1500 49.0300
" />
<path d="M55.5550 49.0350
L48.1550 49.0350
" />
<path d="M48.1500 47.7600
L51.0400 47.7600
" />
<path d="M52.3050 46.4950
L55.5550 46.4950
" />
<path d="M51.0400 47.7600
L52.3050 46.4950
" />
<path d="M48.1500 46.4900
L50.2100 46.4900
" />
<path d="M50.2100 46.4900
L52.7450 43.9550
" />
<path d="M52.7450 43.9550
L55.5550 43.9550
" />
<path d="M49.4300 45.2200
L53.2350 41.4150
" />
<path d="M53.2350 41.4150
L55.5550 41.4150
" />
<path d="M48.1500 45.2200
L49.4300 45.2200
" />
</g>
<g >
</g>
</g>
<g style="fill:#000000; fill-opacity:0.0; 
stroke:#000000; stroke-width:0.7500; stroke-opacity:1; 
stroke-linecap:round; stroke-linejoin:round;">
</g>
<g style="fill:#000000; fill-opacity:1.0000; 
stroke:#000000; stroke-width:0.0000; stroke-opacity:1; 
stroke-linecap:round; stroke-linejoin:round;">
<circle cx="55.5550" cy="41.4150" r="0.5000" /> 
</g>
<g style="fill:#000000; fill-opacity:1.0000; 
stroke:#000000; stroke-width:0.0212; stroke-opacity:1; 
stroke-linecap:round; stroke-linejoin:round;">
</g>
<g style="fill:#000000; fill-opacity:1.0000; 
stroke:#000000; stroke-width:0.0000; stroke-opacity:1; 
stroke-linecap:round; stroke-linejoin:round;">
<circle cx="55.5550" cy="43.9550" r="0.5000" /> 
</g>
<g style="fill:#000000; fill-opacity:1.0000; 
stroke:#000000; stroke-width:0.0212; stroke-opacity:1; 
stroke-linecap:round; stroke-linejoin:round;">
</g>
<g style="fill:#000000; fill-opacity:1.0000; 
stroke:#000000; stroke-width:0.0000; stroke-opacity:1; 
stroke-linecap:round; stroke-linejoin:round;">
<circle cx="55.5550" cy="46.4950" r="0.5000" /> 
</g>
<g style="fill:#000000; fill-opacity:1.0000; 
stroke:#000000; stroke-width:0.0212; stroke-opacity:1; 
stroke-linecap:round; stroke-linejoin:round;">
</g>
<g style="fill:#000000; fill-opacity:1.0000; 
stroke:#000000; stroke-width:0.0000; stroke-opacity:1; 
stroke-linecap:round; stroke-linejoin:round;">
<circle cx="55.5550" cy="49.0350" r="0.5000" /> 
</g>
<g style="fill:#000000; fill-opacity:1.0000; 
stroke:#000000; stroke-width:0.0212; stroke-opacity:1; 
stroke-linecap:round; stroke-linejoin:round;">
</g>
<g style="fill:#000000; fill-opacity:1.0000; 
stroke:#000000; stroke-width:0.0000; stroke-opacity:1; 
stroke-linecap:round; stroke-linejoin:round;">
<circle cx="55.5550" cy="51.5750" r="0.5000" /> 
</g>
<g style="fill:#000000; fill-opacity:1.0000; 
stroke:#000000; stroke-width:0.0212; stroke-opacity:1; 
stroke-linecap:round; stroke-linejoin:round;">
</g>
<g style="fill:#000000; fill-opacity:1.0000; 
stroke:#000000; stroke-width:0.0000; stroke-opacity:1; 
stroke-linecap:round; stroke-linejoin:round;">
<circle cx="55.5550" cy="54.1150" r="0.5000" /> 
</g>
<g style="fill:#000000; fill-opacity:1.0000; 
stroke:#000000; stroke-width:0.0212; stroke-opacity:1; 
stroke-linecap:round; stroke-linejoin:round;">
</g>
<g style="fill:#000000; fill-opacity:1.0000; 
stroke:#000000; stroke-width:0.0000; stroke-opacity:1; 
stroke-linecap:round; stroke-linejoin:round;">
<circle cx="55.5550" cy="56.6550" r="0.5000" /> 
</g>
<g style="fill:#000000; fill-opacity:1.0000; 
stroke:#000000; stroke-width:0.0212; stroke-opacity:1; 
stroke-linecap:round; stroke-linejoin:round;">
</g>
<g style="fill:#000000; fill-opacity:1.0000; 
stroke:#000000; stroke-width:0.0000; stroke-opacity:1; 
stroke-linecap:round; stroke-linejoin:round;">
<circle cx="35.5500" cy="41.4050" r="0.5000" /> 
</g>
<g style="fill:#000000; fill-opacity:1.0000; 
stroke:#000000; stroke-width:0.0212; stroke-opacity:1; 
stroke-linecap:round; stroke-linejoin:round;">
</g>
<g style="fill:#000000; fill-opacity:1.0000; 
stroke:#000000; stroke-width:0.0000; stroke-opacity:1; 
stroke-linecap:round; stroke-linejoin:round;">
<circle cx="35.5500" cy="43.9450" r="0.5000" /> 
</g>
<g style="fill:#000000; fill-opacity:1.0000; 
stroke:#000000; stroke-width:0.0212; stroke-opacity:1; 
stroke-linecap:round; stroke-linejoin:round;">
</g>
<g style="fill:#000000; fill-opacity:1.0000; 
stroke:#000000; stroke-width:0.0000; stroke-opacity:1; 
stroke-linecap:round; stroke-linejoin:round;">
<circle cx="35.5500" cy="46.4850" r="0.5000" /> 
</g>
<g style="fill:#000000; fill-opacity:1.0000; 
stroke:#000000; stroke-width:0.0212; stroke-opacity:1; 
stroke-linecap:round; stroke-linejoin:round;">
</g>
<g style="fill:#000000; fill-opacity:1.0000; 
stroke:#000000; stroke-width:0.0000; stroke-opacity:1; 
stroke-linecap:round; stroke-linejoin:round;">
<circle cx="35.5500" cy="49.0250" r="0.5000" /> 
</g>
<g style="fill:#000000; fill-opacity:1.0000; 
stroke:#000000; stroke-width:0.0212; stroke-opacity:1; 
stroke-linecap:round; stroke-linejoin:round;">
</g>
<g style="fill:#000000; fill-opacity:1.0000; 
stroke:#000000; stroke-width:0.0000; stroke-opacity:1; 
stroke-linecap:round; stroke-linejoin:round;">
<circle cx="35.5500" cy="51.5650" r="0.5000" /> 
</g>
<g style="fill:#000000; fill-opacity:1.0000; 
stroke:#000000; stroke-width:0.0212; stroke-opacity:1; 
stroke-linecap:round; stroke-linejoin:round;">
</g>
<g style="fill:#000000; fill-opacity:1.0000; 
stroke:#000000; stroke-width:0.0000; stroke-opacity:1; 
stroke-linecap:round; stroke-linejoin:round;">
<circle cx="35.5500" cy="54.1050" r="0.5000" /> 
</g>
<g style="fill:#000000; fill-opacity:1.0000; 
stroke:#000000; stroke-width:0.0212; stroke-opacity:1; 
stroke-linecap:round; stroke-linejoin:round;">
</g>
<g style="fill:#000000; fill-opacity:1.0000; 
stroke:#000000; stroke-width:0.0000; stroke-opacity:1; 
stroke-linecap:round; stroke-linejoin:round;">
<circle cx="35.5500" cy="56.6450" r="0.5000" /> 
</g>
<g style="fill:#000000; fill-opacity:1.0000; 
stroke:#000000; stroke-width:0.0212; stroke-opacity:1; 
stroke-linecap:round; stroke-linejoin:round;">
</g>
<g style="fill:#FFFFFF; fill-opacity:1.0000; 
stroke:#FFFFFF; stroke-width:0.0212; stroke-opacity:1; 
stroke-linecap:round; stroke-linejoin:round;">
</g>
<g style="fill:#FFFFFF; fill-opacity:0.0; 
stroke:#FFFFFF; stroke-width:0.2000; stroke-opacity:1; 
stroke-linecap:round; stroke-linejoin:round;">
<path style="fill:#FFFFFF; fill-opacity:0.0; 
stroke:#FFFFFF; stroke-width:0.2000; stroke-opacity:1; 
stroke-linecap:round; stroke-linejoin:round;fill:none"
d="M 33.9500,38.9000
56.9500,38.9000
56.9500,58.9000
33.9500,58.9000
Z" /> 
<g >
</g>
<g >
</g>
<g >
</g>
<g >
</g>
<g >
</g>
<g >
</g>
</g> 
</svg>
